<svg width="106" height="32" viewBox="0 0 106 32" fill="none" xmlns="http://www.w3.org/2000/svg">
<path d="M76.8329 22.1906L77.1263 21.4158C78.8377 15.6901 80.0304 9.68609 81.806 3.99369C82.5689 1.54956 83.4674 -0.14357 86.3906 0.0118648C89.485 0.176023 89.9045 2.79224 90.6071 5.22527C92.1456 10.556 93.4906 15.9534 94.9688 21.3024C95.0489 21.5919 95.1346 21.8885 95.1504 22.1914C95.3598 22.2105 95.2789 22.1962 95.3074 22.0725C96.7 15.9748 97.8935 9.80742 99.3916 3.73754C99.7936 2.10785 100.163 0.231536 102.177 0.0261401C104.156 -0.176084 105.722 1.20855 105.537 3.22286C103.581 11.2991 101.884 19.5062 99.6469 27.5151C99.018 29.7665 98.4764 31.876 95.6691 31.937C92.2297 32.0116 91.803 29.0203 91.0489 26.4064C89.3415 20.4904 87.9933 14.4554 86.2462 8.55284C86.209 8.42834 86.1693 8.13253 86.0313 8.09526C84.5428 13.5902 83.113 19.1057 81.5673 24.5848C80.7529 27.4707 80.3326 31.9925 76.4721 31.9378C74.1985 31.9053 73.3586 30.4604 72.748 28.527C71.223 23.6982 70.1072 18.1065 68.8915 13.1342C68.1936 10.2793 67.1278 6.91602 66.7067 4.07061C66.4196 2.13482 66.897 0.208537 69.1809 0.0182093C71.7337 -0.194324 72.0842 1.48294 72.6552 3.51549L76.8329 22.1906Z" fill="url(#paint0_linear_1721_83)"/>
<path d="M51.1228 0.0396192C54.5796 -0.149123 58.4742 0.520991 61.0523 2.98495C62.64 4.50281 64.1317 7.46717 62.5195 9.44104C61.7375 10.399 60.5543 10.694 59.3885 10.2698C57.7454 9.67102 57.2141 5.87714 54.6494 4.86602C52.306 3.94214 47.6302 4.34738 46.5811 7.0659C44.9569 11.2722 52.7128 12.2262 55.2806 12.9478C60.7446 14.4847 64.9913 16.4832 64.5409 23.0217C63.8335 33.2812 46.9371 34.6817 41.7182 27.4429C40.3986 25.6118 38.6872 21.3492 41.7404 20.2874C45.3019 19.0486 45.5945 23.5832 47.2528 25.4794C50.367 29.0425 59.4671 27.3454 58.337 21.9337C57.6256 18.5292 51.5185 17.9955 48.7008 17.143C44.9323 16.0034 41.2328 14.231 40.6833 9.86531C39.8537 3.26965 45.3883 0.351282 51.1243 0.0388266L51.1228 0.0396192Z" fill="url(#paint1_linear_1721_83)"/>
<path d="M18.2453 8.84323e-07C25.6272 1.9165e-06 33.036 2.02458 35.8355 9.5584C39.5254 19.488 34.3295 31.3193 22.951 31.9362C21.8321 31.9973 18.7012 32.0845 17.7519 31.8157C16.0326 31.3288 15.9438 28.4508 17.3808 27.7197C18.4395 27.1804 20.771 27.4104 21.9994 27.343C29.1811 26.9496 32.8521 19.6934 31.515 13.1612C29.0931 1.33385 15.6353 5.61385 7.09749 4.75896C5.99597 4.64873 4.92934 4.06268 4.76914 2.88661C4.54709 1.25772 5.42305 0.175261 6.97819 7.68835e-07C10.6111 -1.03952e-06 14.5181 2.62386e-06 18.2453 8.84323e-07Z" fill="url(#paint2_linear_1721_83)"/>
<path d="M4.65018 18.0145L23.0977 18.0026C25.7647 18.3103 25.9701 22.304 22.7877 22.5864L4.95629 22.5776C1.84284 22.2533 2.08392 18.3619 4.65018 18.0145Z" fill="url(#paint3_linear_1721_83)"/>
<path d="M4.49474 9.30543C7.08003 9.23564 9.66612 9.2975 12.2395 9.36491C13.2395 9.39108 14.5131 9.23009 15.4545 9.4799C17.8375 10.1119 17.445 13.8971 14.9374 13.9534L1.88962 13.9193C-0.460136 13.6394 -0.679805 10.1143 1.57638 9.4799C2.31866 9.27133 3.65968 9.32763 4.49474 9.30543Z" fill="url(#paint4_linear_1721_83)"/>
<defs>
<linearGradient id="paint0_linear_1721_83" x1="-2.95176" y1="16" x2="105.552" y2="16" gradientUnits="userSpaceOnUse">
<stop stop-color="#F47C0E"/>
<stop offset="1" stop-color="#E30218"/>
</linearGradient>
<linearGradient id="paint1_linear_1721_83" x1="-2.95176" y1="16" x2="105.552" y2="16" gradientUnits="userSpaceOnUse">
<stop stop-color="#F47C0E"/>
<stop offset="1" stop-color="#E30218"/>
</linearGradient>
<linearGradient id="paint2_linear_1721_83" x1="-2.95176" y1="16" x2="105.552" y2="16" gradientUnits="userSpaceOnUse">
<stop stop-color="#F47C0E"/>
<stop offset="1" stop-color="#E30218"/>
</linearGradient>
<linearGradient id="paint3_linear_1721_83" x1="-2.95176" y1="16" x2="105.552" y2="16" gradientUnits="userSpaceOnUse">
<stop stop-color="#F47C0E"/>
<stop offset="1" stop-color="#E30218"/>
</linearGradient>
<linearGradient id="paint4_linear_1721_83" x1="-2.95176" y1="16" x2="105.552" y2="16" gradientUnits="userSpaceOnUse">
<stop stop-color="#F47C0E"/>
<stop offset="1" stop-color="#E30218"/>
</linearGradient>
</defs>
</svg>
