<svg width="109" height="32" viewBox="0 0 109 32" fill="none" xmlns="http://www.w3.org/2000/svg">
<path d="M79.7851 22.1906L80.0785 21.4158C81.7899 15.6901 82.9826 9.68609 84.7582 3.99369C85.5211 1.54956 86.4196 -0.14357 89.3427 0.0118648C92.4371 0.176023 92.8567 2.79224 93.5593 5.22527C95.0978 10.556 96.4427 15.9534 97.921 21.3024C98.0011 21.5919 98.0867 21.8885 98.1026 22.1914C98.3119 22.2105 98.231 22.1962 98.2596 22.0725C99.6522 15.9748 100.846 9.80742 102.344 3.73754C102.746 2.10785 103.115 0.231536 105.13 0.0261401C107.108 -0.176084 108.675 1.20855 108.489 3.22286C106.533 11.2991 104.836 19.5062 102.599 27.5151C101.97 29.7665 101.429 31.876 98.6212 31.937C95.1818 32.0116 94.7552 29.0203 94.001 26.4064C92.2936 20.4904 90.9454 14.4554 89.1984 8.55284C89.1611 8.42834 89.1215 8.13253 88.9835 8.09526C87.4949 13.5902 86.0651 19.1057 84.5195 24.5848C83.705 27.4707 83.2847 31.9925 79.4242 31.9378C77.1506 31.9053 76.3108 30.4604 75.7002 28.527C74.1752 23.6982 73.0593 18.1065 71.8436 13.1342C71.1458 10.2793 70.0799 6.91602 69.6588 4.07061C69.3717 2.13482 69.8491 0.208537 72.1331 0.0182093C74.6859 -0.194324 75.0364 1.48294 75.6074 3.51549L79.7851 22.1906Z" fill="url(#paint0_linear_1721_94)"/>
<path d="M54.0749 0.0396192C57.5317 -0.149123 61.4263 0.520991 64.0045 2.98495C65.5921 4.50281 67.0838 7.46717 65.4716 9.44104C64.6897 10.399 63.5065 10.694 62.3407 10.2698C60.6975 9.67102 60.1662 5.87714 57.6015 4.86602C55.2581 3.94214 50.5824 4.34738 49.5332 7.0659C47.9091 11.2722 55.6649 12.2262 58.2328 12.9478C63.6968 14.4847 67.9435 16.4832 67.493 23.0217C66.7857 33.2812 49.8893 34.6817 44.6703 27.4429C43.3507 25.6118 41.6393 21.3492 44.6925 20.2874C48.254 19.0486 48.5467 23.5832 50.2049 25.4794C53.3191 29.0425 62.4192 27.3454 61.2891 21.9337C60.5778 18.5292 54.4706 17.9955 51.653 17.143C47.8845 16.0034 44.185 14.231 43.6354 9.86531C42.8059 3.26965 48.3405 0.351282 54.0765 0.0388266L54.0749 0.0396192Z" fill="url(#paint1_linear_1721_94)"/>
<path d="M21.1975 8.84323e-07C28.5793 1.9165e-06 35.9882 2.02458 38.7876 9.5584C42.4776 19.488 37.2816 31.3193 25.9032 31.9362C24.7842 31.9973 21.6533 32.0845 20.7041 31.8157C18.9848 31.3288 18.8959 28.4508 20.3329 27.7197C21.3916 27.1804 23.7231 27.4104 24.9515 27.343C32.1333 26.9496 35.8042 19.6934 34.4672 13.1612C32.0452 1.33385 18.5874 5.61385 10.0496 4.75896C8.94812 4.64873 7.88148 4.06268 7.72129 2.88661C7.49924 1.25772 8.3752 0.175261 9.93034 7.68835e-07C13.5632 -1.03952e-06 17.4702 2.62386e-06 21.1975 8.84323e-07Z" fill="url(#paint2_linear_1721_94)"/>
<path d="M7.60233 18.0145L26.0499 18.0026C28.7169 18.3103 28.9223 22.304 25.7398 22.5864L7.90844 22.5776C4.79499 22.2533 5.03607 18.3619 7.60233 18.0145Z" fill="url(#paint3_linear_1721_94)"/>
<path d="M7.44689 9.30543C10.0322 9.23564 12.6183 9.2975 15.1917 9.36491C16.1917 9.39108 17.4653 9.23009 18.4066 9.4799C20.7897 10.1119 20.3971 13.8971 17.8896 13.9534L4.84177 13.9193C2.49201 13.6394 2.27234 10.1143 4.52852 9.4799C5.2708 9.27133 6.61182 9.32763 7.44689 9.30543Z" fill="url(#paint4_linear_1721_94)"/>
<circle cx="13.0792" cy="29.5479" r="2.42196" fill="#F26E0F"/>
<path d="M4.84391 2.42196C4.84391 3.75957 3.75957 4.84391 2.42196 4.84391C1.08435 4.84391 0 3.75957 0 2.42196C0 1.08435 1.08435 0 2.42196 0C3.75957 0 4.84391 1.08435 4.84391 2.42196Z" fill="#F4790F"/>
<path d="M28.092 11.9977C28.092 13.3353 27.0076 14.4196 25.67 14.4196C24.3324 14.4196 23.248 13.3353 23.248 11.9977C23.248 10.6601 24.3324 9.57573 25.67 9.57573C27.0076 9.57573 28.092 10.6601 28.092 11.9977Z" fill="#F06010"/>
<defs>
<linearGradient id="paint0_linear_1721_94" x1="0.000389527" y1="16" x2="108.504" y2="16" gradientUnits="userSpaceOnUse">
<stop stop-color="#F47C0E"/>
<stop offset="1" stop-color="#E30218"/>
</linearGradient>
<linearGradient id="paint1_linear_1721_94" x1="0.000389527" y1="16" x2="108.504" y2="16" gradientUnits="userSpaceOnUse">
<stop stop-color="#F47C0E"/>
<stop offset="1" stop-color="#E30218"/>
</linearGradient>
<linearGradient id="paint2_linear_1721_94" x1="0.000389527" y1="16" x2="108.504" y2="16" gradientUnits="userSpaceOnUse">
<stop stop-color="#F47C0E"/>
<stop offset="1" stop-color="#E30218"/>
</linearGradient>
<linearGradient id="paint3_linear_1721_94" x1="0.000389527" y1="16" x2="108.504" y2="16" gradientUnits="userSpaceOnUse">
<stop stop-color="#F47C0E"/>
<stop offset="1" stop-color="#E30218"/>
</linearGradient>
<linearGradient id="paint4_linear_1721_94" x1="0.000389527" y1="16" x2="108.504" y2="16" gradientUnits="userSpaceOnUse">
<stop stop-color="#F47C0E"/>
<stop offset="1" stop-color="#E30218"/>
</linearGradient>
</defs>
</svg>
