<svg width="11" height="12" viewBox="0 0 11 12" fill="none" xmlns="http://www.w3.org/2000/svg">
<path d="M5.46634 12C5.43403 11.9612 5.4071 11.9172 5.3694 11.8836C3.61909 10.2001 1.86879 8.51906 0.118482 6.83808C0.0807835 6.80187 0.0350072 6.77342 6.58842e-07 6.74497C0.333905 6.42947 0.651653 6.12948 0.964016 5.83466C2.21346 7.03462 3.48446 8.25528 4.75275 9.47593C4.76622 9.46817 4.78237 9.463 4.79584 9.45524C4.79584 5.90448 4.79584 3.55593 4.79584 -2.71192e-07C5.26708 -2.50594e-07 5.71677 -2.30937e-07 6.17993 -2.10692e-07C6.17993 3.55593 6.17993 5.90189 6.17993 9.46817C7.46438 8.232 8.73537 7.01135 9.99559 5.80104C10.3322 6.11913 10.6472 6.42171 11 6.76049C10.9704 6.77601 10.9165 6.79411 10.8788 6.83032C9.12313 8.51389 7.37013 10.2001 5.61714 11.8836C5.58213 11.9172 5.55251 11.9612 5.5202 12C5.50404 12 5.48519 12 5.46634 12Z" fill="#ffffff"/>
</svg>
