<svg preserveAspectRatio="none" width="100%" height="100%" overflow="visible" style="display: block;" viewBox="0 0 12 11" fill="none" xmlns="http://www.w3.org/2000/svg">
<path id="Vector" d="M12 5.53366C11.9612 5.56597 11.9172 5.5929 11.8836 5.6306C10.2001 7.38091 8.51906 9.13121 6.83808 10.8815C6.80187 10.9192 6.77342 10.965 6.74498 11C6.42947 10.6661 6.12948 10.3483 5.83466 10.036C7.03462 8.78654 8.25528 7.51554 9.47593 6.24725C9.46817 6.23378 9.463 6.21762 9.45524 6.20416C5.90448 6.20416 3.55593 6.20416 0 6.20416C0 5.73292 0 5.28323 0 4.82007C3.55593 4.82007 5.90189 4.82007 9.46817 4.82007C8.232 3.53562 7.01135 2.26463 5.80104 1.00441C6.11913 0.667809 6.42171 0.352754 6.76049 0C6.77601 0.0296206 6.79411 0.0834761 6.83032 0.121175C8.51389 1.87687 10.2001 3.62986 11.8836 5.38286C11.9172 5.41787 11.9612 5.44749 12 5.4798C12 5.49596 12 5.51481 12 5.53366Z" fill="var(--fill-0, #333333)"/>
</svg>
