<svg preserveAspectRatio="none" width="100%" height="100%" overflow="visible" style="display: block;" viewBox="0 0 1951.26 1655.01" fill="none" xmlns="http://www.w3.org/2000/svg">
<g id="Bg lines">
<path id="Vector 7" d="M12.1649 1016.76C285.169 1121.67 1051.24 1268.54 1931.51 1016.76M12.1649 1151.54C261.055 1334.36 997.264 1594.16 1950.97 1170.85M12.1649 1329.42C308.013 1574.74 1109.96 1918.2 1950.97 1329.42" stroke="var(--stroke-0, #0205FA)" stroke-opacity="0.15"/>
<path id="Vector 8" d="M0.319158 638.257C273.323 533.348 1039.4 386.474 1919.67 638.257M0.319158 503.472C249.21 320.656 985.418 60.8526 1939.13 484.168M0.319158 325.597C296.168 80.2718 1098.12 -263.183 1939.13 325.597" stroke="var(--stroke-0, #0205FA)" stroke-opacity="0.15"/>
<path id="Vector 6" d="M6.66486 851.634C366.111 913.305 1254.47 999.643 1932.36 851.634M6.66486 721.33C370.059 744.886 1263.95 777.864 1932.36 721.33" stroke="var(--stroke-0, #0205FA)" stroke-opacity="0.15"/>
</g>
</svg>
