<svg preserveAspectRatio="none" width="100%" height="100%" overflow="visible" style="display: block;" viewBox="0 0 1432 1432" fill="none" xmlns="http://www.w3.org/2000/svg">
<g id="Group">
<path id="Vector" d="M716.001 1200.43V1210.81C715.829 1210.81 715.656 1210.81 715.484 1210.81L715.495 1200.43C715.664 1200.43 715.833 1200.43 716.001 1200.43ZM716.507 1200.43L716.512 1205.62L716.518 1210.38L716.517 1210.81C716.345 1210.81 716.174 1210.81 716.001 1210.81V1200.43C716.169 1200.43 716.339 1200.43 716.507 1200.43ZM695.343 1199.99L695.124 1205.18L694.908 1210.37C694.567 1210.36 694.225 1210.35 693.885 1210.33L694.342 1199.95C694.675 1199.97 695.009 1199.98 695.343 1199.99ZM738.117 1210.33C737.776 1210.35 737.434 1210.36 737.094 1210.37L736.66 1199.99C736.993 1199.98 737.327 1199.97 737.661 1199.95L738.117 1210.33ZM674.235 1198.65L673.793 1203.82L673.353 1209C673.011 1208.96 672.67 1208.94 672.33 1208.91L673.234 1198.57C673.569 1198.6 673.902 1198.62 674.235 1198.65ZM759.671 1208.91C759.331 1208.94 758.99 1208.96 758.649 1209L758.208 1203.82L757.767 1198.65C758.1 1198.62 758.434 1198.6 758.768 1198.57L759.671 1208.91ZM653.216 1196.4L651.884 1206.69C651.545 1206.65 651.204 1206.61 650.864 1206.57L652.218 1196.26C652.551 1196.32 652.884 1196.36 653.216 1196.4ZM781.137 1206.57C780.797 1206.61 780.457 1206.65 780.117 1206.69L778.787 1196.4C779.119 1196.36 779.452 1196.32 779.784 1196.26L781.137 1206.57ZM632.321 1193.23L630.54 1203.46C630.202 1203.4 629.864 1203.34 629.527 1203.28L631.329 1193.06C631.66 1193.12 631.991 1193.17 632.321 1193.23ZM802.475 1203.28C802.137 1203.34 801.8 1203.4 801.462 1203.46L800.571 1198.34L799.681 1193.23C800.011 1193.17 800.343 1193.12 800.673 1193.06L802.475 1203.28ZM611.588 1189.15L609.361 1199.29C609.026 1199.21 608.69 1199.14 608.355 1199.07L610.604 1188.93C610.932 1189.01 611.26 1189.08 611.588 1189.15ZM823.646 1199.07C823.312 1199.14 822.976 1199.21 822.641 1199.29L821.528 1194.22L820.415 1189.15C820.743 1189.08 821.07 1189.01 821.398 1188.93L823.646 1199.07ZM591.057 1184.17L588.385 1194.2C588.054 1194.1 587.722 1194.02 587.39 1193.93L590.082 1183.91C590.407 1183.99 590.732 1184.08 591.057 1184.17ZM844.612 1193.93C844.28 1194.02 843.948 1194.1 843.616 1194.2L840.945 1184.17C841.271 1184.07 841.596 1183.99 841.921 1183.91L844.612 1193.93ZM570.764 1178.28L567.655 1188.19C567.326 1188.08 566.998 1187.98 566.671 1187.88L569.802 1177.98C570.122 1178.08 570.443 1178.19 570.764 1178.28ZM865.33 1187.88C865.003 1187.98 864.675 1188.08 864.347 1188.19L861.239 1178.28C861.559 1178.19 861.88 1178.08 862.201 1177.98L865.33 1187.88ZM550.743 1171.51L547.201 1181.27C546.88 1181.16 546.558 1181.04 546.237 1180.92L549.799 1171.17C550.113 1171.28 550.428 1171.39 550.743 1171.51ZM885.764 1180.92C885.444 1181.04 885.123 1181.16 884.802 1181.27L883.031 1176.39L881.261 1171.51C881.574 1171.39 881.889 1171.28 882.204 1171.17L885.764 1180.92ZM531.035 1163.87L527.067 1173.46C526.751 1173.33 526.434 1173.2 526.118 1173.07L530.106 1163.48C530.415 1163.61 530.726 1163.74 531.035 1163.87ZM901.896 1163.48L905.883 1173.07C905.567 1173.2 905.25 1173.33 904.934 1173.46L900.968 1163.87C901.277 1163.74 901.587 1163.61 901.896 1163.48ZM511.683 1155.36L507.298 1164.78C506.987 1164.63 506.678 1164.49 506.367 1164.34L510.771 1154.94C511.076 1155.08 511.38 1155.23 511.683 1155.36ZM925.634 1164.34C925.323 1164.49 925.014 1164.63 924.703 1164.78L920.319 1155.36C920.622 1155.23 920.927 1155.08 921.231 1154.94L925.634 1164.34ZM492.723 1146.03L487.931 1155.24C487.627 1155.07 487.325 1154.91 487.02 1154.76L491.831 1145.56C492.128 1145.71 492.426 1145.87 492.723 1146.03ZM940.171 1145.56L944.981 1154.76C944.678 1154.91 944.375 1155.07 944.071 1155.23L941.675 1150.63L939.279 1146.03C939.576 1145.87 939.874 1145.71 940.171 1145.56ZM474.191 1135.86L469 1144.85C468.703 1144.68 468.407 1144.51 468.11 1144.33L473.32 1135.35C473.61 1135.52 473.901 1135.69 474.191 1135.86ZM963.892 1144.33C963.595 1144.51 963.298 1144.68 963.001 1144.85L960.406 1140.36L957.811 1135.86C958.102 1135.69 958.392 1135.52 958.682 1135.35L963.892 1144.33ZM456.12 1124.89L450.542 1133.65C450.254 1133.46 449.964 1133.28 449.674 1133.1L455.271 1124.35C455.554 1124.53 455.837 1124.72 456.12 1124.89ZM982.327 1133.1C982.038 1133.28 981.748 1133.46 981.459 1133.65L975.883 1124.89C976.165 1124.72 976.449 1124.53 976.731 1124.35L982.327 1133.1ZM438.544 1113.15L432.59 1121.65C432.309 1121.47 432.028 1121.27 431.748 1121.07L437.72 1112.58C437.994 1112.76 438.269 1112.96 438.544 1113.15ZM1000.25 1121.07C999.974 1121.27 999.693 1121.46 999.412 1121.65L993.458 1113.15C993.733 1112.96 994.009 1112.76 994.283 1112.58L1000.25 1121.07ZM421.494 1100.66L415.175 1108.9C414.903 1108.69 414.631 1108.48 414.359 1108.27L420.694 1100.04C420.96 1100.25 421.227 1100.45 421.494 1100.66ZM1011.31 1100.04L1017.64 1108.27C1017.37 1108.48 1017.1 1108.69 1016.83 1108.9L1010.51 1100.66C1010.78 1100.45 1011.04 1100.25 1011.31 1100.04ZM405.002 1087.44L398.332 1095.39C398.069 1095.17 397.806 1094.94 397.545 1094.73L404.231 1086.78C404.488 1087 404.744 1087.22 405.002 1087.44ZM1034.46 1094.73C1034.19 1094.94 1033.93 1095.17 1033.67 1095.39L1027 1087.44C1027.26 1087.22 1027.51 1087 1027.77 1086.78L1034.46 1094.73ZM389.098 1073.5L382.09 1081.16C381.837 1080.94 381.584 1080.7 381.332 1080.47L388.356 1072.83C388.603 1073.05 388.851 1073.27 389.098 1073.5ZM1050.67 1080.47C1050.42 1080.7 1050.17 1080.94 1049.91 1081.16L1046.41 1077.33L1042.9 1073.5C1043.15 1073.27 1043.4 1073.05 1043.65 1072.83L1050.67 1080.47ZM373.814 1058.9L366.479 1066.25C366.236 1066 365.994 1065.76 365.752 1065.52L373.102 1058.18C373.339 1058.42 373.577 1058.66 373.814 1058.9ZM1066.25 1065.52C1066.01 1065.76 1065.77 1066 1065.52 1066.25L1058.19 1058.9C1058.42 1058.66 1058.66 1058.42 1058.9 1058.18L1066.25 1065.52ZM359.178 1043.65L351.531 1050.67C351.298 1050.42 351.068 1050.17 350.837 1049.91L358.498 1042.9C358.724 1043.15 358.95 1043.4 359.178 1043.65ZM1081.17 1049.91C1080.94 1050.17 1080.7 1050.42 1080.47 1050.67L1072.83 1043.65C1073.06 1043.4 1073.27 1043.15 1073.5 1042.9L1081.17 1049.91ZM345.215 1027.77L337.272 1034.46C337.052 1034.19 336.831 1033.93 336.61 1033.67L344.568 1027C344.784 1027.26 344.999 1027.51 345.215 1027.77ZM1095.39 1033.67C1095.17 1033.93 1094.95 1034.19 1094.73 1034.46L1086.78 1027.77C1087 1027.51 1087.22 1027.26 1087.44 1027L1095.39 1033.67ZM331.957 1011.31L323.731 1017.64C323.522 1017.37 323.311 1017.1 323.103 1016.83L331.344 1010.51C331.548 1010.77 331.753 1011.04 331.957 1011.31ZM1108.9 1016.83C1108.7 1017.1 1108.48 1017.37 1108.27 1017.64L1100.05 1011.31C1100.25 1011.04 1100.45 1010.77 1100.66 1010.51L1108.9 1016.83ZM319.427 994.281L310.932 1000.25C310.735 999.973 310.538 999.691 310.341 999.41L318.849 993.457C319.041 993.732 319.234 994.007 319.427 994.281ZM1121.65 999.41C1121.47 999.69 1121.27 999.972 1121.07 1000.25L1116.83 997.268L1112.58 994.281C1112.77 994.007 1112.96 993.732 1113.15 993.457L1121.65 999.41ZM307.65 976.73L298.903 982.326C298.718 982.037 298.534 981.746 298.35 981.458L307.107 975.881C307.288 976.164 307.469 976.447 307.65 976.73ZM1133.65 981.458C1133.46 981.746 1133.29 982.037 1133.1 982.326L1124.35 976.73C1124.53 976.447 1124.72 976.164 1124.89 975.881L1133.65 981.458ZM296.648 958.681L287.667 963.89C287.495 963.593 287.323 963.296 287.151 962.999L296.145 957.809C296.312 958.1 296.48 958.391 296.648 958.681ZM1144.85 962.999C1144.68 963.296 1144.51 963.592 1144.33 963.889L1139.85 961.286L1135.35 958.681C1135.52 958.391 1135.69 958.1 1135.86 957.809L1144.85 962.999ZM286.446 940.169L281.843 942.575L281.844 942.576L277.245 944.98C277.087 944.676 276.927 944.373 276.769 944.07L285.981 939.277C286.135 939.574 286.29 939.872 286.446 940.169ZM1155.24 944.069C1155.07 944.373 1154.92 944.675 1154.76 944.98L1145.56 940.169C1145.72 939.872 1145.87 939.574 1146.03 939.277L1155.24 944.069ZM277.064 921.229L267.661 925.632C267.515 925.322 267.369 925.013 267.224 924.702L276.637 920.318C276.779 920.621 276.921 920.925 277.064 921.229ZM1164.78 924.702C1164.64 925.013 1164.49 925.322 1164.34 925.632L1154.94 921.229C1155.08 920.925 1155.23 920.621 1155.36 920.318L1164.78 924.702ZM268.519 901.895L258.93 905.881C258.799 905.566 258.67 905.249 258.539 904.932L268.134 900.966C268.262 901.276 268.391 901.585 268.519 901.895ZM1173.46 904.932C1173.33 905.249 1173.2 905.566 1173.07 905.881L1163.48 901.895C1163.61 901.585 1163.74 901.275 1163.87 900.965L1173.46 904.932ZM260.832 882.202L255.953 883.983L255.954 883.984L251.078 885.763C250.96 885.443 250.845 885.121 250.729 884.8L260.489 881.259C260.603 881.573 260.717 881.887 260.832 882.202ZM1181.27 884.799C1181.16 885.12 1181.04 885.442 1180.92 885.763L1171.17 882.202C1171.28 881.887 1171.4 881.573 1171.51 881.258L1181.27 884.799ZM254.021 862.2L244.12 865.329C244.016 865.001 243.915 864.673 243.812 864.345L253.717 861.237C253.818 861.558 253.92 861.879 254.021 862.2ZM1188.19 864.345C1188.08 864.673 1187.98 865.001 1187.89 865.329L1182.93 863.765L1177.98 862.199C1178.08 861.879 1178.19 861.558 1178.28 861.237L1188.19 864.345ZM248.095 841.919L238.07 844.611H238.068C237.979 844.278 237.89 843.946 237.801 843.615L247.836 840.944C247.922 841.269 248.008 841.594 248.095 841.919ZM1194.2 843.615C1194.11 843.946 1194.02 844.277 1193.93 844.61L1183.91 841.919C1183.99 841.594 1184.09 841.269 1184.17 840.944L1194.2 843.615ZM243.067 821.397L237.998 822.52L237.999 822.521L232.932 823.645C232.857 823.31 232.784 822.975 232.71 822.64L242.85 820.413C242.923 820.741 242.995 821.068 243.067 821.397ZM1199.29 822.639C1199.22 822.974 1199.14 823.309 1199.07 823.645L1194 822.521L1188.94 821.397C1189.01 821.068 1189.08 820.741 1189.15 820.413L1199.29 822.639ZM238.945 800.672L228.72 802.473C228.661 802.136 228.602 801.798 228.543 801.461L238.771 799.68C238.828 800.01 238.887 800.341 238.945 800.672ZM1203.46 801.46C1203.4 801.798 1203.34 802.136 1203.29 802.473L1193.06 800.672C1193.12 800.341 1193.17 800.01 1193.23 799.68L1203.46 801.46ZM235.733 779.782L230.583 780.458L230.584 780.459L225.439 781.135C225.394 780.796 225.35 780.455 225.306 780.116L235.602 778.785C235.645 779.118 235.689 779.45 235.733 779.782ZM1206.69 780.116C1206.65 780.455 1206.61 780.796 1206.57 781.135L1201.42 780.459L1196.27 779.782C1196.32 779.45 1196.36 779.117 1196.4 778.784L1206.69 780.116ZM233.433 758.767L228.26 759.217L228.261 759.218L223.09 759.67C223.06 759.329 223.031 758.989 223.002 758.647L233.347 757.765C233.375 758.099 233.404 758.432 233.433 758.767ZM1203.83 758.207L1209 758.647C1208.97 758.989 1208.95 759.329 1208.91 759.67L1203.74 759.218L1198.57 758.767C1198.6 758.432 1198.62 758.099 1198.65 757.765L1203.83 758.207ZM232.047 737.659L221.673 738.115C221.658 737.775 221.645 737.433 221.631 737.092L232.004 736.658C232.018 736.992 232.033 737.326 232.047 737.659ZM1205.19 736.875L1210.37 737.092C1210.36 737.433 1210.35 737.775 1210.33 738.115L1199.95 737.659C1199.97 737.326 1199.98 736.992 1199.99 736.658L1205.19 736.875ZM221.188 716C221.188 715.827 221.189 715.655 221.189 715.483L231.572 715.494V716.505L221.189 716.516C221.189 716.343 221.188 716.172 221.188 716ZM1210.81 716.516L1200.43 716.505V715.494L1210.81 715.483C1210.81 715.655 1210.81 715.827 1210.81 716C1210.81 716.172 1210.81 716.343 1210.81 716.516ZM232.047 694.34C232.033 694.673 232.018 695.008 232.004 695.341L226.817 695.123L221.631 694.907C221.645 694.565 221.658 694.224 221.673 693.883L232.047 694.34ZM1210.37 694.907L1199.99 695.341C1199.98 695.008 1199.97 694.673 1199.95 694.34L1210.33 693.883C1210.35 694.224 1210.36 694.565 1210.37 694.907ZM233.433 673.233C233.404 673.567 233.375 673.901 233.347 674.234L228.174 673.792L223.002 673.351C223.031 673.01 223.06 672.669 223.09 672.328L233.433 673.233ZM1209 673.351L1203.83 673.793L1198.65 674.234C1198.62 673.901 1198.6 673.567 1198.57 673.233L1208.91 672.328C1208.95 672.669 1208.97 673.01 1209 673.351ZM230.584 651.54L235.733 652.217C235.689 652.549 235.645 652.883 235.602 653.215L225.306 651.883C225.35 651.543 225.394 651.202 225.439 650.863L230.584 651.54ZM1206.69 651.883L1196.4 653.214C1196.36 652.882 1196.32 652.549 1196.27 652.217L1206.57 650.863C1206.61 651.202 1206.65 651.543 1206.69 651.883ZM238.945 631.328C238.887 631.658 238.828 631.989 238.771 632.32L228.542 630.539C228.601 630.2 228.661 629.863 228.72 629.525L238.945 631.328ZM1203.46 630.538L1198.34 631.43L1193.23 632.32C1193.17 631.989 1193.12 631.658 1193.06 631.328L1203.29 629.525C1203.34 629.863 1203.4 630.2 1203.46 630.538ZM243.067 610.603C242.995 610.931 242.923 611.258 242.85 611.586L232.71 609.36C232.784 609.024 232.857 608.689 232.932 608.354L243.067 610.603ZM1199.29 609.359L1194.22 610.473V610.472L1189.15 611.586C1189.08 611.258 1189.01 610.931 1188.94 610.603L1199.07 608.354C1199.14 608.688 1199.22 609.023 1199.29 609.359ZM248.095 590.08C248.008 590.405 247.921 590.73 247.835 591.055L237.801 588.383C237.89 588.052 237.979 587.721 238.068 587.389L248.095 590.08ZM1194.2 588.383L1184.17 591.055C1184.08 590.73 1183.99 590.405 1183.91 590.08L1193.93 587.388C1194.02 587.72 1194.11 588.052 1194.2 588.383ZM249.07 568.235L254.021 569.801C253.92 570.12 253.818 570.441 253.717 570.762L243.812 567.653C243.915 567.325 244.016 566.997 244.12 566.67L249.07 568.235ZM1188.19 567.653L1178.28 570.762C1178.19 570.441 1178.08 570.121 1177.98 569.8L1187.89 566.67C1187.98 566.997 1188.08 567.325 1188.19 567.653ZM260.832 549.797C260.717 550.112 260.603 550.427 260.489 550.741L250.728 547.199C250.845 546.878 250.96 546.556 251.078 546.235L260.832 549.797ZM1181.27 547.198L1176.39 548.97L1171.51 550.74C1171.4 550.427 1171.28 550.112 1171.17 549.797L1180.92 546.235C1181.04 546.555 1181.16 546.877 1181.27 547.198ZM258.931 526.118L268.519 530.104C268.391 530.414 268.262 530.724 268.134 531.034L258.539 527.066C258.67 526.749 258.799 526.433 258.93 526.117L258.931 526.118ZM1173.07 526.117C1173.2 526.433 1173.33 526.749 1173.46 527.066L1163.87 531.033C1163.74 530.723 1163.61 530.414 1163.48 530.104L1173.07 526.117ZM277.064 510.77C276.921 511.074 276.779 511.378 276.637 511.682L267.224 507.296C267.369 506.986 267.515 506.676 267.661 506.366L277.064 510.77ZM1164.34 506.366C1164.49 506.676 1164.64 506.986 1164.78 507.296L1155.36 511.682C1155.23 511.378 1155.08 511.074 1154.94 510.77L1164.34 506.366ZM286.446 491.83C286.29 492.127 286.135 492.425 285.981 492.722L276.768 487.93C276.926 487.625 277.086 487.323 277.245 487.019L286.446 491.83ZM1155.23 487.928L1150.63 490.326L1146.03 492.722C1145.87 492.425 1145.72 492.127 1145.56 491.83L1154.76 487.019C1154.92 487.322 1155.07 487.625 1155.23 487.928ZM292.157 470.713L296.648 473.319C296.48 473.608 296.312 473.899 296.145 474.19L287.151 468.999C287.322 468.702 287.495 468.406 287.667 468.109L292.157 470.713ZM1144.85 468.999L1140.36 471.595L1135.86 474.19C1135.69 473.899 1135.52 473.608 1135.35 473.319L1144.33 468.108C1144.51 468.405 1144.68 468.702 1144.85 468.999ZM307.65 455.27C307.469 455.552 307.288 455.836 307.107 456.118L298.35 450.541C298.534 450.252 298.718 449.962 298.903 449.673L307.65 455.27ZM1133.65 450.541L1124.89 456.118C1124.72 455.836 1124.53 455.552 1124.35 455.27L1133.1 449.673C1133.29 449.962 1133.46 450.252 1133.65 450.541ZM319.427 437.718C319.234 437.992 319.04 438.267 318.848 438.543L310.341 432.588C310.538 432.308 310.735 432.026 310.932 431.746L319.427 437.718ZM1121.07 431.745C1121.27 432.025 1121.46 432.307 1121.65 432.588L1113.15 438.543C1112.96 438.267 1112.77 437.992 1112.58 437.718L1121.07 431.745ZM331.957 420.693C331.753 420.959 331.548 421.226 331.344 421.493L323.104 415.174L323.103 415.173C323.311 414.901 323.522 414.63 323.731 414.358L331.957 420.693ZM1108.9 415.173L1100.66 421.493C1100.45 421.226 1100.25 420.959 1100.05 420.693L1108.27 414.358C1108.48 414.63 1108.7 414.901 1108.9 415.173ZM345.216 404.23C344.999 404.486 344.784 404.743 344.568 405L336.61 398.33C336.831 398.068 337.052 397.805 337.272 397.543L345.216 404.23ZM1095.39 398.33L1087.44 405C1087.22 404.743 1087 404.486 1086.78 404.23L1094.73 397.543C1094.95 397.805 1095.17 398.068 1095.39 398.33ZM359.178 388.354C358.95 388.601 358.724 388.849 358.498 389.097L350.837 382.088C351.068 381.836 351.298 381.583 351.531 381.33L359.178 388.354ZM1081.17 382.088L1073.5 389.097C1073.27 388.849 1073.06 388.601 1072.83 388.354L1080.47 381.33C1080.7 381.583 1080.94 381.836 1081.17 382.088ZM373.814 373.101C373.577 373.337 373.339 373.575 373.102 373.813L365.752 366.477C365.994 366.234 366.236 365.992 366.479 365.751L373.814 373.101ZM1065.52 365.751C1065.77 365.992 1066.01 366.234 1066.25 366.477L1058.9 373.813C1058.66 373.575 1058.42 373.337 1058.19 373.101L1065.52 365.751ZM389.098 358.496C388.851 358.722 388.603 358.949 388.356 359.176L381.332 351.529C381.584 351.297 381.837 351.066 382.09 350.836L389.098 358.496ZM1050.67 351.529L1043.65 359.176C1043.4 358.949 1043.15 358.722 1042.9 358.496L1049.91 350.836C1050.17 351.066 1050.42 351.297 1050.67 351.529ZM405.002 344.566C404.744 344.782 404.488 344.997 404.231 345.214L397.545 337.27C397.806 337.05 398.069 336.829 398.332 336.609L405.002 344.566ZM1034.46 337.27L1027.77 345.214C1027.51 344.997 1027.26 344.782 1027 344.566L1033.67 336.609C1033.93 336.829 1034.19 337.05 1034.46 337.27ZM415.175 323.102L421.494 331.342C421.227 331.547 420.96 331.751 420.694 331.956L414.359 323.729C414.631 323.521 414.902 323.31 415.174 323.101L415.175 323.102ZM1017.64 323.729L1011.31 331.956C1011.04 331.751 1010.78 331.547 1010.51 331.342L1016.83 323.102C1017.1 323.311 1017.37 323.521 1017.64 323.729ZM438.544 318.848C438.269 319.04 437.994 319.233 437.72 319.426L431.747 310.931C432.027 310.733 432.308 310.537 432.59 310.34L438.544 318.848ZM999.412 310.34C999.692 310.537 999.973 310.733 1000.25 310.931L994.283 319.426C994.009 319.233 993.733 319.039 993.458 318.847L999.412 310.34ZM456.12 307.106C455.837 307.287 455.554 307.467 455.271 307.648L449.674 298.901C449.964 298.717 450.254 298.533 450.542 298.349L456.12 307.106ZM982.327 298.901L976.731 307.648C976.449 307.467 976.165 307.287 975.883 307.106L981.459 298.349C981.748 298.533 982.038 298.717 982.327 298.901ZM471.596 291.646L474.191 296.143C473.901 296.31 473.61 296.479 473.32 296.647L468.109 287.666C468.406 287.493 468.703 287.322 469 287.149L471.596 291.646ZM963.891 287.666L961.287 292.156L961.286 292.155L958.682 296.647C958.392 296.479 958.102 296.31 957.811 296.143L963.001 287.149C963.298 287.321 963.594 287.493 963.891 287.666ZM490.328 281.373L492.723 285.979C492.426 286.134 492.128 286.289 491.831 286.444L489.425 281.842L487.02 277.244C487.323 277.086 487.627 276.926 487.93 276.767L490.328 281.373ZM944.981 277.244L940.171 286.444C939.874 286.289 939.576 286.134 939.279 285.979L944.07 276.766C944.375 276.925 944.677 277.085 944.981 277.244ZM511.683 276.635C511.38 276.778 511.076 276.92 510.771 277.062L506.367 267.659C506.678 267.514 506.987 267.367 507.298 267.223L511.683 276.635ZM924.703 267.223C925.014 267.367 925.323 267.514 925.634 267.659L921.231 277.062C920.927 276.92 920.622 276.778 920.319 276.635L924.703 267.223ZM531.034 268.133C530.725 268.26 530.415 268.389 530.106 268.518L526.119 258.93L526.118 258.929C526.434 258.797 526.751 258.668 527.067 258.537L531.034 268.133ZM904.934 258.537C905.25 258.668 905.567 258.797 905.883 258.929L901.896 268.518C901.587 268.389 901.276 268.26 900.967 268.133L904.934 258.537ZM550.742 260.488C550.428 260.602 550.113 260.715 549.799 260.83L548.017 255.952L546.237 251.076C546.557 250.959 546.879 250.844 547.2 250.727L550.742 260.488ZM885.764 251.076L882.204 260.83C881.889 260.715 881.574 260.602 881.26 260.488L884.801 250.726C885.121 250.844 885.443 250.959 885.764 251.076ZM570.764 253.716C570.443 253.817 570.122 253.918 569.801 254.019L566.671 244.119C566.998 244.015 567.326 243.913 567.655 243.81L570.764 253.716ZM865.33 244.119L862.2 254.019C861.88 253.918 861.559 253.817 861.239 253.716L864.347 243.81C864.675 243.913 865.003 244.015 865.33 244.119ZM591.057 247.834C590.732 247.921 590.407 248.007 590.082 248.094L587.389 238.067C587.721 237.978 588.054 237.888 588.385 237.8L591.057 247.834ZM844.611 238.067L841.921 248.094C841.596 248.007 841.271 247.919 840.945 247.833L843.616 237.8C843.948 237.888 844.279 237.978 844.611 238.067ZM611.588 242.849C611.26 242.921 610.932 242.993 610.604 243.066L608.355 232.931C608.689 232.856 609.025 232.782 609.36 232.708L611.588 242.849ZM823.646 232.931L821.398 243.066C821.07 242.993 820.743 242.921 820.415 242.849L822.64 232.708C822.975 232.782 823.311 232.856 823.646 232.931ZM632.321 238.77C631.991 238.827 631.66 238.885 631.329 238.943L629.527 228.719C629.864 228.66 630.202 228.6 630.539 228.541L632.321 238.77ZM802.475 228.719L800.673 238.943C800.343 238.885 800.011 238.827 799.681 238.77L801.461 228.54C801.8 228.599 802.137 228.66 802.475 228.719ZM653.215 235.601C652.883 235.643 652.551 235.688 652.218 235.731L650.864 225.437C651.204 225.393 651.545 225.348 651.884 225.304L653.215 235.601ZM781.137 225.437L780.951 226.859L779.784 235.731C779.452 235.688 779.118 235.643 778.786 235.601L780.117 225.304C780.457 225.348 780.797 225.393 781.137 225.437ZM674.235 233.345C673.902 233.373 673.569 233.402 673.234 233.431L672.33 223.088C672.67 223.058 673.011 223.029 673.353 223L674.235 233.345ZM759.671 223.088L758.768 233.431C758.434 233.402 758.1 233.373 757.767 233.345L758.649 223C758.99 223.029 759.331 223.058 759.671 223.088ZM695.343 232.002C695.009 232.017 694.675 232.031 694.342 232.046L693.885 221.672C694.225 221.656 694.567 221.644 694.908 221.629L695.343 232.002ZM738.117 221.672L737.661 232.046C737.327 232.031 736.993 232.017 736.66 232.002L737.094 221.629C737.434 221.644 737.776 221.656 738.117 221.672ZM716.517 221.187L716.507 231.57H715.495L715.484 221.187C715.656 221.187 715.829 221.186 716.001 221.186C716.174 221.186 716.345 221.187 716.517 221.187Z" fill="var(--fill-0, #0205FA)"/>
<path id="Vector_2" d="M716 1421.62V1432C715.828 1432 715.654 1432 715.482 1432L715.489 1421.62C715.659 1421.62 715.83 1421.62 716 1421.62ZM716.511 1421.62L716.517 1432C716.345 1432 716.172 1432 716 1432V1421.62C716.17 1421.62 716.341 1421.62 716.511 1421.62ZM695.137 1421.31L694.836 1431.69C694.493 1431.68 694.149 1431.67 693.807 1431.66L694.123 1421.28C694.461 1421.29 694.799 1421.3 695.137 1421.31ZM737.877 1421.28L738.191 1431.66C737.849 1431.67 737.506 1431.68 737.163 1431.69L736.863 1421.31C737.201 1421.3 737.539 1421.29 737.877 1421.28ZM673.861 1420.38L673.251 1430.74C672.907 1430.72 672.563 1430.7 672.22 1430.68L672.844 1420.32C673.183 1420.34 673.522 1420.36 673.861 1420.38ZM759.779 1430.68C759.436 1430.7 759.092 1430.72 758.748 1430.74L758.139 1420.38C758.478 1420.36 758.817 1420.34 759.156 1420.32L759.779 1430.68ZM652.59 1418.8L651.67 1429.14C651.328 1429.11 650.988 1429.08 650.646 1429.05L651.583 1418.72C651.918 1418.75 652.255 1418.78 652.59 1418.8ZM781.353 1429.05C781.011 1429.08 780.671 1429.11 780.329 1429.14L779.409 1418.8C779.744 1418.78 780.082 1418.75 780.417 1418.72L781.353 1429.05ZM631.384 1416.6L630.767 1421.75L630.152 1426.9C629.811 1426.86 629.469 1426.83 629.129 1426.79L630.375 1416.48C630.711 1416.52 631.048 1416.56 631.384 1416.6ZM802.87 1426.79C802.53 1426.83 802.188 1426.86 801.846 1426.9L800.616 1416.6C800.952 1416.56 801.289 1416.52 801.625 1416.48L802.87 1426.79ZM610.286 1413.75L609.515 1418.88L608.744 1424.01C608.406 1423.96 608.068 1423.92 607.73 1423.87L609.287 1413.6C609.621 1413.65 609.953 1413.7 610.286 1413.75ZM824.269 1423.87C823.931 1423.92 823.593 1423.96 823.255 1424.01L822.484 1418.88L821.714 1413.75C822.047 1413.7 822.379 1413.65 822.713 1413.6L824.269 1423.87ZM589.231 1410.27L587.378 1420.47C587.04 1420.41 586.703 1420.35 586.365 1420.29L588.233 1410.08C588.565 1410.14 588.898 1410.2 589.231 1410.27ZM845.634 1420.29C845.296 1420.35 844.959 1420.41 844.621 1420.47L842.769 1410.27C843.102 1410.2 843.435 1410.14 843.767 1410.08L845.634 1420.29ZM568.336 1406.14L566.173 1416.3C565.836 1416.23 565.5 1416.15 565.163 1416.08L567.341 1405.92C567.672 1406 568.004 1406.07 568.336 1406.14ZM866.836 1416.08C866.499 1416.15 866.163 1416.23 865.826 1416.3L864.745 1411.22L863.664 1406.14C863.997 1406.07 864.328 1406 864.659 1405.92L866.836 1416.08ZM547.553 1401.39L545.082 1411.47C544.749 1411.39 544.416 1411.3 544.083 1411.22L546.568 1401.15C546.896 1401.22 547.224 1401.3 547.553 1401.39ZM886.673 1406.18L887.916 1411.22C887.582 1411.3 887.25 1411.39 886.917 1411.47L884.447 1401.39C884.776 1401.3 885.104 1401.22 885.431 1401.15L886.673 1406.18ZM526.926 1396L524.149 1406.01C523.818 1405.91 523.487 1405.82 523.157 1405.73L525.947 1395.73C526.273 1395.82 526.6 1395.91 526.926 1396ZM908.842 1405.73C908.512 1405.82 908.182 1405.91 907.851 1406.01L905.074 1396C905.4 1395.91 905.727 1395.82 906.053 1395.73L908.842 1405.73ZM506.499 1390L503.419 1399.91C503.091 1399.81 502.764 1399.7 502.436 1399.6L505.528 1389.69C505.852 1389.8 506.176 1389.9 506.499 1390ZM929.563 1399.6C929.235 1399.7 928.908 1399.81 928.58 1399.91L927.04 1394.96L925.501 1390C925.824 1389.9 926.148 1389.8 926.472 1389.69L929.563 1399.6ZM486.223 1383.36L482.843 1393.17C482.518 1393.07 482.193 1392.95 481.869 1392.84L485.263 1383.03C485.582 1383.14 485.903 1383.26 486.223 1383.36ZM950.13 1392.84C949.807 1392.95 949.481 1393.07 949.156 1393.17L945.777 1383.36C946.097 1383.26 946.418 1383.14 946.737 1383.03L950.13 1392.84ZM466.184 1376.12L462.644 1385.47L462.506 1385.83C462.184 1385.71 461.862 1385.59 461.541 1385.47L465.234 1375.76C465.55 1375.88 465.867 1376 466.184 1376.12ZM970.458 1385.47C970.137 1385.59 969.814 1385.71 969.492 1385.83L965.816 1376.12C966.133 1376 966.45 1375.88 966.766 1375.76L970.458 1385.47ZM446.37 1368.27L442.4 1377.87C442.083 1377.73 441.765 1377.61 441.449 1377.47L445.433 1367.89C445.746 1368.01 446.057 1368.15 446.37 1368.27ZM990.55 1377.47C990.234 1377.61 989.916 1377.73 989.599 1377.87L985.629 1368.27C985.942 1368.15 986.254 1368.01 986.567 1367.89L990.55 1377.47ZM426.795 1359.82L422.535 1369.29C422.222 1369.14 421.907 1369.01 421.595 1368.86L425.869 1359.4C426.177 1359.54 426.487 1359.68 426.795 1359.82ZM1010.4 1368.86C1010.09 1369.01 1009.78 1369.14 1009.46 1369.29L1005.2 1359.82C1005.51 1359.68 1005.82 1359.54 1006.13 1359.4L1010.4 1368.86ZM407.502 1350.78L402.957 1360.12C402.647 1359.96 402.338 1359.82 402.029 1359.67L406.588 1350.34C406.893 1350.48 407.198 1350.64 407.502 1350.78ZM1029.97 1359.67C1029.66 1359.82 1029.35 1359.96 1029.04 1360.12L1026.77 1355.46L1024.5 1350.78C1024.8 1350.64 1025.11 1350.49 1025.41 1350.34L1029.97 1359.67ZM388.475 1341.16L383.648 1350.35C383.345 1350.19 383.041 1350.04 382.737 1349.87L387.577 1340.69C387.876 1340.85 388.175 1341 388.475 1341.16ZM1049.26 1349.87C1048.96 1350.04 1048.65 1350.19 1048.35 1350.35L1043.52 1341.16C1043.82 1341 1044.12 1340.85 1044.43 1340.69L1049.26 1349.87ZM369.754 1330.97L364.652 1340.01C364.353 1339.84 364.053 1339.67 363.754 1339.51L368.87 1330.47C369.164 1330.64 369.46 1330.8 369.754 1330.97ZM1068.25 1339.51C1067.95 1339.67 1067.64 1339.84 1067.34 1340.01L1062.24 1330.97C1062.54 1330.8 1062.84 1330.64 1063.13 1330.47L1068.25 1339.51ZM351.357 1320.21L345.984 1329.1C345.69 1328.93 345.395 1328.75 345.103 1328.57L350.49 1319.69C350.779 1319.87 351.067 1320.05 351.357 1320.21ZM1086.9 1328.57C1086.61 1328.75 1086.31 1328.93 1086.01 1329.1L1080.65 1320.21C1080.94 1320.05 1081.22 1319.87 1081.51 1319.69L1086.9 1328.57ZM333.279 1308.9L327.64 1317.63C327.352 1317.44 327.063 1317.25 326.775 1317.07L332.428 1308.35C332.711 1308.54 332.996 1308.73 333.279 1308.9ZM1105.23 1317.07C1104.93 1317.25 1104.64 1317.44 1104.36 1317.63L1098.73 1308.9C1099.01 1308.73 1099.29 1308.54 1099.58 1308.35L1105.23 1317.07ZM315.56 1297.07L310.181 1304.85L309.66 1305.6C309.377 1305.41 309.094 1305.22 308.813 1305.02L314.724 1296.48C315.003 1296.68 315.282 1296.87 315.56 1297.07ZM1123.19 1305.02C1122.9 1305.22 1122.62 1305.41 1122.34 1305.6L1119.39 1301.33L1116.44 1297.07C1116.72 1296.87 1117 1296.68 1117.27 1296.48L1123.19 1305.02ZM298.203 1284.69L292.048 1293.05C291.772 1292.85 291.494 1292.64 291.217 1292.44L297.386 1284.09C297.658 1284.28 297.931 1284.49 298.203 1284.69ZM1140.78 1292.44C1140.5 1292.64 1140.23 1292.85 1139.95 1293.05L1133.79 1284.69C1134.07 1284.49 1134.34 1284.28 1134.61 1284.09L1140.78 1292.44ZM281.223 1271.79L274.82 1279.96C274.55 1279.76 274.278 1279.55 274.008 1279.33L280.425 1271.17C280.691 1271.38 280.958 1271.58 281.223 1271.79ZM1157.99 1279.33C1157.72 1279.55 1157.45 1279.76 1157.18 1279.96L1153.98 1275.88L1150.77 1271.79C1151.04 1271.58 1151.31 1271.38 1151.57 1271.17L1157.99 1279.33ZM264.645 1258.39L257.998 1266.37C257.734 1266.15 257.469 1265.93 257.207 1265.72L263.865 1257.75C264.125 1257.97 264.384 1258.19 264.645 1258.39ZM1168.13 1257.75L1174.79 1265.72C1174.53 1265.93 1174.26 1266.15 1174 1266.37L1167.36 1258.39C1167.61 1258.19 1167.87 1257.97 1168.13 1257.75ZM248.47 1244.51L241.587 1252.28C241.331 1252.05 241.072 1251.83 240.816 1251.6L247.711 1243.84C247.964 1244.06 248.217 1244.28 248.47 1244.51ZM1191.19 1251.6C1190.93 1251.83 1190.67 1252.05 1190.41 1252.28L1183.53 1244.51C1183.78 1244.28 1184.03 1244.06 1184.29 1243.84L1191.19 1251.6ZM232.722 1230.14L229.166 1233.92L226.042 1237.24L225.61 1237.7C225.36 1237.47 225.11 1237.23 224.859 1236.99L231.983 1229.44C232.229 1229.67 232.476 1229.91 232.722 1230.14ZM1207.14 1236.99C1206.89 1237.23 1206.64 1237.47 1206.39 1237.7L1202.84 1233.92L1199.28 1230.14C1199.53 1229.91 1199.78 1229.67 1200.01 1229.44L1207.14 1236.99ZM217.414 1215.3L210.077 1222.65C209.834 1222.4 209.591 1222.16 209.349 1221.92L216.696 1214.58C216.935 1214.82 217.175 1215.06 217.414 1215.3ZM1222.65 1221.92C1222.4 1222.16 1222.16 1222.4 1221.92 1222.65L1218.26 1218.98L1214.58 1215.3C1214.82 1215.06 1215.06 1214.82 1215.3 1214.58L1222.65 1221.92ZM202.557 1200.01L198.778 1203.58L195.001 1207.14C194.766 1206.89 194.532 1206.64 194.296 1206.39L201.861 1199.28C202.093 1199.53 202.324 1199.78 202.557 1200.01ZM1233.92 1202.84L1237.7 1206.39C1237.47 1206.64 1237.23 1206.89 1236.99 1207.14L1229.44 1200.01C1229.67 1199.78 1229.91 1199.53 1230.14 1199.28L1233.92 1202.84ZM188.165 1184.29L180.4 1191.19C180.171 1190.93 179.945 1190.67 179.718 1190.41L187.492 1183.53C187.717 1183.78 187.941 1184.03 188.165 1184.29ZM1252.28 1190.41C1252.05 1190.67 1251.83 1190.93 1251.6 1191.19L1247.72 1187.74L1243.84 1184.29C1244.06 1184.03 1244.28 1183.78 1244.51 1183.53L1252.28 1190.41ZM174.251 1168.13L166.282 1174.79C166.062 1174.53 165.844 1174.26 165.624 1174L173.601 1167.36C173.817 1167.61 174.034 1167.87 174.251 1168.13ZM1266.37 1174C1266.15 1174.26 1265.93 1174.53 1265.72 1174.79L1257.75 1168.13C1257.97 1167.87 1258.19 1167.61 1258.39 1167.36L1266.37 1174ZM160.833 1151.57L152.666 1157.99C152.453 1157.72 152.244 1157.45 152.032 1157.18L160.205 1150.77C160.414 1151.04 160.624 1151.31 160.833 1151.57ZM1279.96 1157.18C1279.76 1157.45 1279.55 1157.72 1279.33 1157.99L1271.17 1151.57C1271.38 1151.31 1271.58 1151.04 1271.79 1150.77L1279.96 1157.18ZM147.913 1134.61L139.559 1140.78C139.355 1140.5 139.153 1140.23 138.951 1139.95L147.312 1133.79C147.513 1134.07 147.713 1134.34 147.913 1134.61ZM1293.05 1139.95C1292.85 1140.23 1292.64 1140.5 1292.44 1140.78L1284.09 1134.61C1284.28 1134.34 1284.49 1134.07 1284.69 1133.79L1293.05 1139.95ZM135.515 1117.27L126.978 1123.19C126.782 1122.9 126.589 1122.62 126.394 1122.34L134.937 1116.44C135.13 1116.72 135.321 1117 135.515 1117.27ZM1305.6 1122.34C1305.41 1122.62 1305.22 1122.9 1305.02 1123.19L1296.48 1117.27C1296.68 1117 1296.87 1116.72 1297.07 1116.44L1305.6 1122.34ZM123.644 1099.58L114.934 1105.23C114.747 1104.93 114.562 1104.64 114.376 1104.36L123.093 1098.73C123.277 1099.01 123.46 1099.29 123.644 1099.58ZM1317.63 1104.36C1317.44 1104.64 1317.25 1104.93 1317.07 1105.23L1308.35 1099.58C1308.54 1099.29 1308.73 1099.01 1308.9 1098.73L1317.63 1104.36ZM112.308 1081.51L103.431 1086.9C103.253 1086.61 103.077 1086.31 102.899 1086.01L111.783 1080.65C111.958 1080.94 112.133 1081.22 112.308 1081.51ZM1329.1 1086.01C1328.93 1086.31 1328.75 1086.61 1328.57 1086.9L1319.69 1081.51C1319.87 1081.22 1320.05 1080.94 1320.21 1080.65L1329.1 1086.01ZM101.531 1063.13L92.4957 1068.25C92.3263 1067.95 92.1585 1067.64 91.9896 1067.34L101.031 1062.24C101.198 1062.54 101.364 1062.84 101.531 1063.13ZM1340.01 1067.34C1339.84 1067.64 1339.67 1067.95 1339.51 1068.25L1330.47 1063.13C1330.64 1062.84 1330.8 1062.54 1330.97 1062.24L1340.01 1067.34ZM91.3111 1044.43L86.7163 1046.84L82.1245 1049.26C81.9646 1048.96 81.8064 1048.65 81.6468 1048.35L90.8386 1043.52C90.9958 1043.82 91.1536 1044.12 91.3111 1044.43ZM1350.35 1048.35C1350.19 1048.65 1350.04 1048.96 1349.87 1049.26L1345.28 1046.84L1340.69 1044.43C1340.85 1044.12 1341 1043.82 1341.16 1043.52L1350.35 1048.35ZM81.66 1025.41L72.3303 1029.97C72.1794 1029.66 72.0306 1029.35 71.8801 1029.04L81.2149 1024.5C81.3631 1024.8 81.5113 1025.11 81.66 1025.41ZM1360.12 1029.04C1359.96 1029.35 1359.82 1029.66 1359.67 1029.97L1350.34 1025.41C1350.48 1025.11 1350.64 1024.8 1350.78 1024.5L1360.12 1029.04ZM72.5971 1006.13L63.1335 1010.4C62.9922 1010.09 62.8535 1009.78 62.7127 1009.46L72.1803 1005.2C72.3191 1005.51 72.4577 1005.82 72.5971 1006.13ZM1369.29 1009.46C1369.14 1009.78 1369.01 1010.09 1368.86 1010.4L1359.4 1006.13C1359.54 1005.82 1359.68 1005.51 1359.82 1005.2L1369.29 1009.46ZM64.1172 986.567L54.5279 990.55C54.3963 990.234 54.2666 989.916 54.1354 989.599L63.7288 985.629C63.858 985.942 63.9876 986.254 64.1172 986.567ZM1377.87 989.599C1377.73 989.916 1377.61 990.234 1377.47 990.55L1367.89 986.567C1368.01 986.254 1368.15 985.943 1368.27 985.63L1377.87 989.599ZM56.2407 966.766L46.5348 970.458C46.4126 970.137 46.2915 969.814 46.1697 969.492L55.8797 965.816C55.9996 966.133 56.1204 966.45 56.2407 966.766ZM1385.83 969.493C1385.71 969.815 1385.59 970.137 1385.47 970.458L1375.76 966.766C1375.88 966.45 1376 966.133 1376.12 965.816L1385.83 969.493ZM48.9696 946.737L39.1562 950.13C39.0441 949.807 38.9333 949.481 38.8216 949.156L48.6391 945.777C48.7492 946.097 48.8591 946.418 48.9696 946.737ZM1393.17 949.156C1393.07 949.481 1392.95 949.807 1392.84 950.13L1383.03 946.737C1383.14 946.418 1383.26 946.097 1383.36 945.777L1393.17 949.156ZM42.3051 926.472L32.3932 929.563C32.2909 929.235 32.1888 928.908 32.087 928.58L42.0028 925.501C42.1032 925.824 42.2041 926.148 42.3051 926.472ZM1399.91 928.58C1399.81 928.908 1399.7 929.236 1399.6 929.563L1389.69 926.472C1389.8 926.148 1389.9 925.824 1390 925.501L1399.91 928.58ZM36.2722 906.053L26.2711 908.842C26.1788 908.511 26.0841 908.182 25.9923 907.851L35.9994 905.074C36.0899 905.4 36.1812 905.727 36.2722 906.053ZM1406.01 907.851C1405.91 908.182 1405.82 908.512 1405.73 908.842L1395.73 906.053C1395.82 905.727 1395.91 905.4 1396 905.074L1406.01 907.851ZM30.8549 885.431L25.8128 886.673L25.8138 886.674L20.7757 887.916C20.6937 887.582 20.6099 887.25 20.5284 886.917L30.6135 884.447C30.6938 884.776 30.7741 885.104 30.8549 885.431ZM1411.47 886.917C1411.39 887.25 1411.3 887.582 1411.22 887.916L1401.15 885.432C1401.22 885.104 1401.3 884.776 1401.39 884.447L1411.47 886.917ZM26.0704 864.659L20.9917 865.747L20.9928 865.748L15.9193 866.836C15.8472 866.499 15.7748 866.163 15.7033 865.826L25.8574 863.664C25.928 863.997 25.9993 864.328 26.0704 864.659ZM1416.3 865.826C1416.23 866.163 1416.15 866.499 1416.08 866.836L1411 865.748L1405.92 864.659C1406 864.328 1406.07 863.997 1406.14 863.664L1416.3 865.826ZM21.9207 843.767L16.8127 844.7L16.8137 844.701L11.7077 845.634C11.646 845.296 11.5854 844.959 11.5242 844.621L21.7392 842.769C21.7995 843.102 21.8599 843.435 21.9207 843.767ZM1420.47 844.621C1420.41 844.959 1420.35 845.296 1420.29 845.634L1415.19 844.701L1410.08 843.767C1410.14 843.435 1410.2 843.102 1410.27 842.769L1420.47 844.621ZM18.3997 822.713L8.13406 824.269C8.08279 823.931 8.03273 823.593 7.98194 823.255L18.2486 821.714C18.2987 822.047 18.3492 822.379 18.3997 822.713ZM1418.88 822.484L1424.01 823.255C1423.96 823.593 1423.92 823.931 1423.87 824.269L1413.6 822.713C1413.65 822.379 1413.7 822.047 1413.75 821.714L1418.88 822.484ZM15.5258 801.625L5.21651 802.87C5.17523 802.53 5.13662 802.188 5.09583 801.846L15.4041 800.616C15.4443 800.952 15.4851 801.289 15.5258 801.625ZM1421.75 801.232L1426.9 801.847C1426.86 802.188 1426.83 802.53 1426.79 802.87L1421.63 802.249L1416.48 801.625C1416.52 801.289 1416.56 800.952 1416.6 800.616L1421.75 801.232ZM13.2847 780.417L2.94494 781.353C2.91407 781.011 2.88202 780.671 2.85163 780.329L13.1944 779.409C13.2243 779.744 13.2543 780.082 13.2847 780.417ZM1429.14 780.329C1429.11 780.671 1429.08 781.011 1429.05 781.353L1418.72 780.417C1418.75 780.082 1418.78 779.745 1418.8 779.41L1429.14 780.329ZM11.6824 759.156L1.32035 759.779C1.29962 759.436 1.27874 759.092 1.25849 758.748L11.6215 758.139C11.6415 758.478 11.6619 758.817 11.6824 759.156ZM1430.74 758.748C1430.72 759.092 1430.7 759.436 1430.68 759.779L1420.32 759.156C1420.34 758.817 1420.36 758.478 1420.38 758.139L1430.74 758.748ZM1431.69 737.163C1431.68 737.506 1431.67 737.85 1431.66 738.192L1421.28 737.877C1421.29 737.539 1421.3 737.201 1421.31 736.863L1431.69 737.163ZM10.7169 737.877L5.52581 738.035L5.52682 738.036L0.339721 738.191C0.329289 737.849 0.320264 737.506 0.310313 737.163L10.6865 736.863C10.6964 737.201 10.7067 737.539 10.7169 737.877ZM0 716C0 715.828 0.000891759 715.654 0.00101409 715.482L10.3843 715.489V716.511L0.00101409 716.517C0.000892164 716.345 0 716.172 0 716ZM1432 716.517L1421.62 716.511V715.489L1432 715.482C1432 715.654 1432 715.828 1432 716C1432 716.172 1432 716.345 1432 716.517ZM10.7169 694.123C10.7067 694.461 10.6964 694.799 10.6865 695.137L0.310313 694.836C0.320275 694.493 0.329278 694.149 0.339721 693.807L10.7169 694.123ZM1431.69 694.836L1421.31 695.137C1421.3 694.799 1421.29 694.461 1421.28 694.123L1431.66 693.808C1431.67 694.15 1431.68 694.493 1431.69 694.836ZM11.6824 672.844C11.6619 673.183 11.6415 673.522 11.6215 673.861L1.25849 673.251C1.27874 672.907 1.29962 672.563 1.32035 672.22L11.6824 672.844ZM1430.74 673.251L1420.38 673.861C1420.36 673.522 1420.34 673.183 1420.32 672.844L1430.68 672.22C1430.7 672.563 1430.72 672.907 1430.74 673.251ZM1429.14 651.67L1418.8 652.591C1418.78 652.256 1418.75 651.918 1418.72 651.583L1429.05 650.646C1429.08 650.988 1429.11 651.328 1429.14 651.67ZM13.2847 651.583C13.2543 651.918 13.2243 652.255 13.1944 652.591L2.85163 651.67C2.88202 651.328 2.91407 650.988 2.94494 650.646L13.2847 651.583ZM10.3711 629.751L15.5258 630.375C15.4851 630.711 15.4443 631.048 15.4041 631.384L10.2495 630.767L5.09583 630.152C5.13658 629.811 5.17527 629.469 5.21651 629.129L10.3711 629.751ZM1426.79 629.129C1426.83 629.469 1426.86 629.811 1426.9 630.153L1416.6 631.384C1416.56 631.048 1416.52 630.711 1416.48 630.375L1426.79 629.129ZM18.3997 609.287C18.3492 609.621 18.2987 609.953 18.2486 610.286L13.1143 609.515L7.98194 608.744C8.03273 608.406 8.0828 608.068 8.13406 607.73L18.3997 609.287ZM1424.01 608.744L1418.88 609.516L1413.75 610.286C1413.7 609.953 1413.65 609.621 1413.6 609.287L1423.87 607.73C1423.92 608.068 1423.96 608.406 1424.01 608.744ZM21.9207 588.233C21.8599 588.565 21.7995 588.898 21.7392 589.231L11.5242 587.378C11.5854 587.04 11.646 586.703 11.7077 586.365L21.9207 588.233ZM1420.47 587.378L1410.27 589.231C1410.2 588.898 1410.14 588.565 1410.08 588.233L1420.29 586.365C1420.35 586.703 1420.41 587.04 1420.47 587.378ZM20.9928 566.252L26.0704 567.341C25.9993 567.672 25.928 568.004 25.8574 568.336L15.7033 566.173C15.7749 565.836 15.8471 565.5 15.9193 565.163L20.9928 566.252ZM1416.3 566.173L1411.22 567.255V567.254L1406.14 568.336C1406.07 568.004 1406 567.672 1405.92 567.341L1416.08 565.163C1416.15 565.5 1416.23 565.836 1416.3 566.173ZM30.8549 546.568C30.7741 546.896 30.6938 547.224 30.6135 547.553L20.5284 545.082C20.6099 544.749 20.6937 544.416 20.7757 544.083L30.8549 546.568ZM1411.47 545.082L1401.39 547.553C1401.3 547.224 1401.22 546.896 1401.15 546.569L1411.22 544.083C1411.3 544.416 1411.39 544.749 1411.47 545.082ZM36.2722 525.947C36.1812 526.273 36.0898 526.6 35.9994 526.926L25.9932 524.149L25.9923 524.148C26.0841 523.817 26.1789 523.487 26.2711 523.157L36.2722 525.947ZM1406.01 524.148L1396 526.926C1395.91 526.6 1395.82 526.273 1395.73 525.947L1405.73 523.157C1405.82 523.487 1405.91 523.817 1406.01 524.148ZM42.3051 505.528C42.2041 505.852 42.1032 506.176 42.0028 506.499L32.087 503.419C32.1888 503.091 32.2909 502.764 32.3932 502.436L42.3051 505.528ZM1399.6 502.436C1399.7 502.764 1399.81 503.091 1399.91 503.419L1394.96 504.96V504.959L1390 506.499C1389.9 506.176 1389.8 505.852 1389.69 505.528L1399.6 502.436ZM48.9696 485.263C48.8591 485.582 48.7492 485.903 48.6391 486.223L38.8216 482.843C38.9333 482.518 39.0441 482.193 39.1562 481.869L48.9696 485.263ZM1392.84 481.869C1392.95 482.193 1393.07 482.518 1393.17 482.843L1383.36 486.223C1383.26 485.903 1383.14 485.582 1383.03 485.263L1392.84 481.869ZM46.5348 461.542L56.2407 465.234C56.1204 465.55 55.9996 465.867 55.8797 466.184L46.1697 462.506C46.2914 462.184 46.4117 461.862 46.5338 461.541L46.5348 461.542ZM1385.47 461.541C1385.59 461.862 1385.71 462.185 1385.83 462.507L1376.12 466.184C1376 465.867 1375.88 465.55 1375.76 465.234L1385.47 461.541ZM1377.47 441.449C1377.61 441.765 1377.73 442.083 1377.87 442.4L1368.27 446.371C1368.15 446.058 1368.01 445.746 1367.89 445.433L1377.47 441.449ZM54.5279 441.449L64.1172 445.433C63.9877 445.746 63.858 446.057 63.7288 446.37L54.1354 442.4L54.5279 441.449ZM72.5971 425.869C72.4577 426.177 72.3191 426.487 72.1803 426.795L62.7127 422.535C62.8535 422.222 62.9922 421.907 63.1335 421.595L72.5971 425.869ZM1369.29 422.535L1359.82 426.795C1359.68 426.487 1359.54 426.177 1359.4 425.869L1368.86 421.595C1369.01 421.907 1369.14 422.222 1369.29 422.535ZM81.6611 406.588C81.5123 406.893 81.3631 407.198 81.2149 407.502L71.8801 402.957C72.0306 402.647 72.1794 402.338 72.3303 402.029L81.6611 406.588ZM1360.12 402.957L1355.46 405.229L1350.78 407.502C1350.64 407.198 1350.49 406.893 1350.34 406.588L1359.67 402.029C1359.82 402.338 1359.96 402.647 1360.12 402.957ZM82.1245 382.737L91.3111 387.577C91.1536 387.876 90.9958 388.175 90.8386 388.475L81.6468 383.648L82.1245 382.737ZM1350.35 383.648L1341.16 388.475C1341 388.175 1340.85 387.876 1340.69 387.577L1349.87 382.737C1350.04 383.041 1350.19 383.345 1350.35 383.648ZM101.531 368.87C101.365 369.164 101.199 369.46 101.032 369.754L91.9896 364.652C92.1585 364.353 92.3263 364.053 92.4957 363.754L101.531 368.87ZM1340.01 364.652L1330.97 369.754C1330.8 369.459 1330.64 369.164 1330.47 368.87L1339.51 363.754C1339.67 364.053 1339.84 364.353 1340.01 364.652ZM112.308 350.49C112.133 350.779 111.958 351.067 111.783 351.357L102.899 345.984C103.077 345.69 103.253 345.395 103.431 345.103L112.308 350.49ZM1329.1 345.984L1320.21 351.357C1320.05 351.067 1319.87 350.779 1319.69 350.49L1328.57 345.103C1328.75 345.395 1328.93 345.69 1329.1 345.984ZM123.644 332.428C123.46 332.711 123.277 332.996 123.093 333.279L114.376 327.64C114.562 327.352 114.747 327.063 114.934 326.775L123.644 332.428ZM1317.63 327.64L1308.9 333.279C1308.73 332.996 1308.54 332.711 1308.35 332.428L1317.07 326.775C1317.25 327.063 1317.44 327.352 1317.63 327.64ZM135.515 314.724C135.321 315.003 135.13 315.282 134.937 315.56L126.394 309.66C126.589 309.377 126.782 309.094 126.978 308.813L135.515 314.724ZM1305.6 309.66L1301.33 312.61V312.609L1297.07 315.56C1296.87 315.282 1296.68 315.003 1296.48 314.724L1305.02 308.813C1305.22 309.094 1305.41 309.377 1305.6 309.66ZM139.56 291.218L147.913 297.386C147.713 297.658 147.513 297.931 147.312 298.203L138.951 292.048C139.153 291.772 139.355 291.494 139.559 291.217L139.56 291.218ZM1293.05 292.048L1284.69 298.203C1284.49 297.931 1284.28 297.658 1284.09 297.386L1292.44 291.218C1292.64 291.495 1292.85 291.772 1293.05 292.048ZM152.667 274.009L160.833 280.425C160.624 280.691 160.414 280.958 160.205 281.223L152.032 274.82C152.244 274.55 152.453 274.278 152.666 274.008L152.667 274.009ZM1279.96 274.82L1275.88 278.022V278.021L1271.79 281.223C1271.58 280.958 1271.38 280.691 1271.17 280.425L1279.33 274.009C1279.55 274.279 1279.76 274.55 1279.96 274.82ZM174.251 263.865C174.034 264.125 173.817 264.384 173.601 264.645L165.624 257.998C165.844 257.734 166.062 257.469 166.282 257.207L174.251 263.865ZM1265.72 257.207C1265.93 257.469 1266.15 257.734 1266.37 257.998L1258.39 264.645C1258.19 264.384 1257.97 264.125 1257.75 263.865L1265.72 257.207ZM184.283 244.263L188.165 247.711C187.941 247.964 187.717 248.217 187.492 248.47L179.718 241.587C179.945 241.331 180.171 241.072 180.4 240.816L184.283 244.263ZM1251.6 240.816C1251.83 241.072 1252.05 241.331 1252.28 241.587L1244.51 248.47C1244.28 248.217 1244.06 247.964 1243.84 247.711L1251.6 240.816ZM202.557 231.983C202.324 232.229 202.093 232.476 201.861 232.722L198.078 229.166L194.296 225.61C194.532 225.36 194.766 225.11 195.001 224.859L202.557 231.983ZM1236.99 224.859C1237.23 225.11 1237.47 225.36 1237.7 225.61L1233.92 229.167L1230.14 232.722C1229.91 232.476 1229.67 232.229 1229.44 231.983L1236.99 224.859ZM213.745 213.022L217.413 216.696C217.174 216.935 216.935 217.175 216.696 217.414L209.349 210.077C209.591 209.834 209.834 209.591 210.077 209.349L213.745 213.022ZM1221.92 209.349C1222.16 209.591 1222.4 209.834 1222.65 210.077L1218.98 213.745V213.744L1215.3 217.413C1215.06 217.174 1214.82 216.935 1214.58 216.696L1221.92 209.349ZM229.167 198.078L232.722 201.861C232.476 202.093 232.229 202.324 231.983 202.557L228.421 198.778L224.859 195.001C225.11 194.766 225.36 194.532 225.61 194.296L229.167 198.078ZM1206.39 194.296C1206.64 194.532 1206.89 194.766 1207.14 195.001L1200.01 202.557C1199.78 202.324 1199.53 202.093 1199.28 201.861L1206.39 194.296ZM248.47 187.492C248.217 187.717 247.964 187.941 247.711 188.165L240.816 180.4C241.072 180.171 241.331 179.945 241.587 179.718L248.47 187.492ZM1190.41 179.718C1190.67 179.945 1190.93 180.171 1191.19 180.4L1184.29 188.165C1184.03 187.941 1183.78 187.717 1183.53 187.492L1190.41 179.718ZM264.645 173.601C264.384 173.817 264.125 174.034 263.865 174.251L257.207 166.282C257.469 166.062 257.734 165.844 257.998 165.624L264.645 173.601ZM1174 165.624C1174.26 165.844 1174.53 166.062 1174.79 166.282L1168.13 174.251C1167.87 174.034 1167.61 173.817 1167.36 173.601L1174 165.624ZM278.022 156.118L281.223 160.205C280.958 160.414 280.691 160.624 280.425 160.833L274.009 152.667L274.008 152.666C274.278 152.453 274.55 152.244 274.82 152.032L278.022 156.118ZM1157.99 152.666L1151.57 160.833C1151.31 160.624 1151.04 160.414 1150.77 160.205L1157.18 152.032C1157.45 152.244 1157.72 152.453 1157.99 152.666ZM298.203 147.312C297.931 147.513 297.658 147.713 297.386 147.913L291.218 139.56L291.217 139.559C291.494 139.355 291.772 139.153 292.048 138.951L298.203 147.312ZM1140.78 139.559L1134.61 147.913C1134.34 147.713 1134.07 147.513 1133.79 147.312L1139.95 138.951C1140.23 139.153 1140.5 139.355 1140.78 139.559ZM312.61 130.664L315.56 134.937C315.282 135.13 315.003 135.321 314.724 135.515L308.813 126.978C309.094 126.782 309.377 126.589 309.66 126.394L312.61 130.664ZM1123.19 126.978L1117.27 135.515C1117 135.321 1116.72 135.13 1116.44 134.937L1122.34 126.394C1122.62 126.589 1122.9 126.782 1123.19 126.978ZM333.279 123.093C332.996 123.277 332.711 123.46 332.428 123.644L326.775 114.934C327.063 114.747 327.352 114.562 327.64 114.376L333.279 123.093ZM1105.23 114.934L1099.58 123.644C1099.29 123.46 1099.01 123.277 1098.73 123.093L1104.36 114.376C1104.64 114.562 1104.93 114.747 1105.23 114.934ZM351.357 111.783C351.067 111.958 350.779 112.133 350.49 112.308L345.103 103.431C345.395 103.253 345.69 103.077 345.984 102.899L351.357 111.783ZM1086.9 103.431L1081.51 112.308C1081.22 112.133 1080.94 111.958 1080.65 111.783L1086.01 102.899C1086.31 103.077 1086.61 103.253 1086.9 103.431ZM369.754 101.031C369.459 101.198 369.164 101.364 368.87 101.531L363.754 92.4957C364.053 92.3264 364.353 92.1585 364.652 91.9896L369.754 101.031ZM1068.25 92.4957L1063.13 101.531C1062.84 101.365 1062.54 101.199 1062.24 101.032L1067.34 91.9896C1067.64 92.1585 1067.95 92.3263 1068.25 92.4957ZM388.475 90.8386C388.175 90.9958 387.876 91.1536 387.577 91.3111L385.156 86.7163L382.737 82.1245C383.041 81.9646 383.345 81.8064 383.648 81.6468L388.475 90.8386ZM1049.26 82.1245L1044.43 91.3111C1044.12 91.1536 1043.82 90.9958 1043.52 90.8386L1048.35 81.6468C1048.65 81.8064 1048.96 81.9646 1049.26 82.1245ZM1029.97 72.3303L1025.41 81.6611C1025.11 81.5123 1024.8 81.3631 1024.5 81.2149L1029.04 71.8801C1029.35 72.0306 1029.66 72.1794 1029.97 72.3303ZM407.502 81.2149C407.198 81.3631 406.893 81.5113 406.588 81.66L402.029 72.3303C402.338 72.1794 402.647 72.0306 402.957 71.8801L407.502 81.2149ZM426.795 72.1803C426.487 72.3191 426.177 72.4577 425.869 72.5971L421.595 63.1335C421.907 62.9922 422.222 62.8535 422.535 62.7127L426.795 72.1803ZM1010.4 63.1335L1006.13 72.5971C1005.82 72.4577 1005.51 72.3191 1005.2 72.1803L1009.46 62.7127C1009.78 62.8535 1010.09 62.9922 1010.4 63.1335ZM446.371 63.7288C446.058 63.858 445.746 63.9876 445.433 64.1172L441.449 54.5279C441.765 54.3963 442.083 54.2666 442.4 54.1354L446.371 63.7288ZM990.55 54.5279L986.567 64.1172C986.254 63.9877 985.943 63.858 985.63 63.7288L989.599 54.1354C989.916 54.2666 990.234 54.3963 990.55 54.5279ZM466.184 55.8797C465.867 55.9996 465.55 56.1204 465.234 56.2407L461.542 46.5348L461.541 46.5338C461.862 46.4115 462.185 46.2915 462.507 46.1697L466.184 55.8797ZM969.493 46.1697C969.815 46.2914 970.137 46.4117 970.458 46.5338L966.766 56.2407C966.45 56.1204 966.133 55.9996 965.816 55.8797L969.493 46.1697ZM486.223 48.6391C485.903 48.7492 485.582 48.8591 485.263 48.9696L481.869 39.1562C482.193 39.0441 482.518 38.9333 482.843 38.8216L486.223 48.6391ZM949.156 38.8216C949.481 38.9333 949.807 39.0441 950.13 39.1562L946.737 48.9696C946.418 48.8591 946.097 48.7492 945.777 48.6391L949.156 38.8216ZM504.96 37.0439L506.499 42.0028C506.176 42.1032 505.852 42.2041 505.528 42.3051L502.436 32.3932C502.764 32.2909 503.091 32.1888 503.419 32.087L504.96 37.0439ZM928.58 32.087C928.908 32.1888 929.236 32.2909 929.563 32.3932L926.472 42.3051C926.148 42.2041 925.824 42.1032 925.501 42.0028L928.58 32.087ZM524.149 25.9933L526.926 35.9994C526.6 36.0899 526.273 36.1812 525.947 36.2722L523.157 26.2711C523.487 26.1789 523.817 26.0841 524.148 25.9923L524.149 25.9933ZM908.842 26.2711L906.053 36.2722C905.727 36.1812 905.4 36.0898 905.074 35.9994L907.851 25.9933C908.182 26.0851 908.512 26.1789 908.842 26.2711ZM547.553 30.6135C547.224 30.6938 546.896 30.7741 546.569 30.8549L544.083 20.7757C544.416 20.6937 544.749 20.6099 545.082 20.5284L547.553 30.6135ZM887.916 20.7757L885.432 30.8549C885.104 30.7741 884.776 30.6938 884.447 30.6135L886.917 20.5284C887.25 20.6099 887.582 20.6937 887.916 20.7757ZM568.336 25.8574C568.004 25.928 567.672 25.9993 567.341 26.0704L565.163 15.9193C565.5 15.8472 565.836 15.7748 566.173 15.7033L568.336 25.8574ZM866.836 15.9193L864.659 26.0704C864.328 25.9993 863.997 25.928 863.664 25.8574L865.826 15.7033C866.163 15.7749 866.499 15.8471 866.836 15.9193ZM589.231 21.7392C588.898 21.7995 588.565 21.8599 588.233 21.9207L586.365 11.7077C586.703 11.646 587.04 11.5854 587.378 11.5242L589.231 21.7392ZM845.634 11.7077L843.767 21.9207C843.435 21.8599 843.102 21.7995 842.769 21.7392L844.621 11.5242C844.959 11.5854 845.296 11.646 845.634 11.7077ZM610.286 18.2486C609.953 18.2987 609.621 18.3492 609.287 18.3998L607.73 8.13406C608.068 8.08279 608.406 8.03273 608.744 7.98194L610.286 18.2486ZM824.269 8.13406L822.713 18.3998C822.379 18.3492 822.047 18.2987 821.714 18.2486L823.255 7.98194C823.593 8.03273 823.931 8.0828 824.269 8.13406ZM631.384 15.4041C631.048 15.4443 630.711 15.4851 630.375 15.5258L629.129 5.21651C629.469 5.17523 629.811 5.13662 630.153 5.09583L631.384 15.4041ZM801.847 5.09583C802.188 5.13658 802.53 5.17527 802.87 5.21651L802.249 10.3711L802.248 10.3701L801.625 15.5258C801.289 15.4851 800.952 15.4443 800.616 15.4041L801.847 5.09583ZM652.591 13.1944C652.256 13.2243 651.918 13.2543 651.583 13.2847L650.646 2.94494C650.988 2.91407 651.328 2.88202 651.67 2.85163L652.591 13.1944ZM781.353 2.94494L780.417 13.2847C780.082 13.2543 779.745 13.2243 779.409 13.1944L780.329 2.85163C780.671 2.88202 781.011 2.91407 781.353 2.94494ZM673.861 11.6215C673.522 11.6415 673.183 11.6619 672.844 11.6824L672.22 1.32035C672.563 1.29962 672.907 1.27874 673.251 1.25849L673.861 11.6215ZM759.779 1.32035L759.156 11.6824C758.817 11.6619 758.478 11.6415 758.139 11.6215L758.748 1.25849C759.092 1.27874 759.436 1.29962 759.779 1.32035ZM695.137 10.6865C694.799 10.6964 694.461 10.7067 694.123 10.7169L693.808 0.339721C694.15 0.329289 694.493 0.320264 694.836 0.310313L695.137 10.6865ZM738.192 0.339721L737.877 10.7169C737.539 10.7067 737.201 10.6964 736.863 10.6865L737.163 0.310313C737.506 0.320274 737.85 0.329278 738.192 0.339721ZM716.517 0.0010141L716.511 10.3843H715.489L715.482 0.0010141C715.654 0.000891685 715.828 0 716 0C716.172 0 716.345 0.000892238 716.517 0.0010141Z" fill="var(--fill-0, #0205FA)"/>
</g>
</svg>
