<svg width="18" height="30" viewBox="0 0 18 30" fill="none" xmlns="http://www.w3.org/2000/svg">
<path d="M14.5761 5.36399H17.3755V0.253111H12.2882C11.8638 0.235452 6.69054 0.136567 5.34969 5.2498C5.33027 5.30336 4.90176 6.51942 4.90176 9.36004L0.25 9.37417V14.7346L4.90765 14.7211V28.86H12.0221V14.7334H16.731V9.35886H12.0221V7.66779C12.0221 6.61654 12.4654 5.36399 14.5761 5.36399ZM15.5538 10.5355V13.5556H10.8449V27.6822H6.08486V13.5403L1.42721 13.5539V10.5478L6.09722 10.5343L6.08486 9.9357C6.02365 6.92674 6.45274 5.66123 6.47216 5.60061C7.62937 1.19665 12.048 1.41796 12.2376 1.42974L16.1983 1.43091V4.18736H14.5761C11.8255 4.18736 10.8455 5.98497 10.8455 7.6672V10.5355H15.5538Z" fill="#111111" stroke="#111111" stroke-width="0.5"/>
</svg>
