<svg width="30" height="30" viewBox="0 0 30 30" fill="none" xmlns="http://www.w3.org/2000/svg">
<path d="M4.16502 0.25C3.1017 0.25 2.13501 0.636688 1.41001 1.36169C0.636688 2.13501 0.25 3.10165 0.25 4.11665C0.25 5.17997 0.685002 6.14666 1.41001 6.87167C2.13501 7.59667 3.15002 8.03167 4.11671 7.98336C4.11671 7.98336 4.16502 7.98336 4.21339 7.98336C5.18008 7.98336 6.0984 7.59667 6.82341 6.87167C7.54841 6.14666 7.98341 5.17997 7.98341 4.11665C8.03173 3.10165 7.59673 2.13495 6.87172 1.40995C6.14672 0.636631 5.18003 0.25 4.16502 0.25ZM6.14672 6.19503C5.61503 6.72672 4.89003 7.06504 4.11671 7.01672C3.3917 7.01672 2.61838 6.72672 2.0867 6.19503C1.50669 5.66335 1.21669 4.89003 1.21669 4.11671C1.21669 3.34339 1.50669 2.61838 2.0867 2.03838C2.61838 1.50669 3.34339 1.21669 4.16502 1.21669C4.89003 1.21669 5.61503 1.50669 6.14672 2.03838C6.72672 2.61838 7.01672 3.34339 7.01672 4.11671C7.01672 4.89003 6.72672 5.66335 6.14672 6.19503Z" fill="#111111" stroke="#111111" stroke-width="0.5"/>
<path d="M6.05011 8.94922H2.13509C1.36177 8.94922 0.733398 9.57754 0.733398 10.3992V27.316C0.733398 28.0893 1.41009 28.766 2.18341 28.766H6.05011C6.82343 28.766 7.50012 28.0893 7.50012 27.3643V10.3992C7.50012 9.62585 6.82343 8.94922 6.05011 8.94922ZM6.53343 27.3643C6.53343 27.606 6.29174 27.7993 6.05011 27.7993H2.18341C1.94172 27.7993 1.70009 27.5576 1.70009 27.316V10.3992C1.70009 10.1575 1.8934 9.91591 2.13509 9.91591H6.05011C6.2918 9.91591 6.53343 10.1576 6.53343 10.3992V27.3643Z" fill="#111111" stroke="#111111" stroke-width="0.5"/>
<path d="M22.4832 8.4668H21.4682C19.5832 8.4668 17.7949 9.28849 16.6349 10.5935V9.91681C16.6349 9.43349 16.1516 8.95011 15.6682 8.95011H10.8349C10.3999 8.95011 9.86816 9.3368 9.86816 9.86843V27.8969C9.86816 28.4285 10.3999 28.7669 10.8349 28.7669H16.1516C16.5866 28.7669 17.1183 28.4285 17.1183 27.8969V17.4568C17.1183 15.8618 18.2783 14.6051 19.7766 14.6051C20.5499 14.6051 21.2749 14.8951 21.8066 15.4268C22.2899 15.8618 22.4833 16.5385 22.4833 17.4085V27.8002C22.4833 28.2835 22.9666 28.7669 23.45 28.7669H28.2833C28.7666 28.7669 29.25 28.2836 29.25 27.8002V15.3302C29.25 11.4635 26.3016 8.4668 22.4832 8.4668ZM28.2833 27.7519L28.235 27.8002H23.4982L23.4499 17.4085C23.4499 16.2485 23.1599 15.3785 22.5316 14.7502C21.8066 14.0252 20.8399 13.6385 19.8249 13.6385C17.7949 13.6868 16.1999 15.3302 16.1999 17.4568V27.8002H10.8832V9.91681H15.6682L15.7165 9.96512V13.0101L17.0215 11.7051L17.0698 11.6568C18.0365 10.3035 19.7282 9.43349 21.5165 9.43349H22.5316C25.7699 9.43349 28.2833 12.0435 28.2833 15.3302V27.7519Z" fill="#111111" stroke="#111111" stroke-width="0.5"/>
</svg>
