<svg preserveAspectRatio="none" width="100%" height="100%" overflow="visible" style="display: block;" viewBox="0 0 387 215.642" fill="none" xmlns="http://www.w3.org/2000/svg">
<g id="logo-dsw 1" clip-path="url(#clip0_5_430)">
<path id="Vector" d="M382.466 147.092H-0.441406V153.408H382.466V147.092Z" fill="var(--fill-0, #EC6721)"/>
<path id="Vector_2" d="M255.97 11.8263C256.609 12.3004 257.537 12.034 258.352 12.2063C263.215 13.2368 264.48 17.4135 265.769 21.6255C270.263 36.3146 273.198 53.9737 276.615 69.1917C278.209 76.2835 279.84 83.3757 281.214 90.5105L281.774 89.6248C287.746 69.0076 292.28 47.9084 298.438 27.3539C300.245 21.3317 302.235 14.4123 309.147 12.5434C310.577 12.1554 311.925 12.2142 313.296 11.8263H314.613C316.129 12.1985 317.625 12.1985 319.138 12.6922C326.371 15.051 327.946 23.5415 329.792 29.9281C335.591 50.032 340.339 70.4612 346.303 90.5138L362.402 19.5137C363.244 16.8729 365.427 13.6012 368.119 12.6021C369.333 12.1515 370.52 12.2377 371.681 11.8263C372.112 11.8577 372.57 11.7832 372.996 11.8263C376.864 12.2259 380.888 14.7963 382.142 18.5969C383.462 22.5934 381.86 27.9964 380.971 32.0439C375.543 56.6771 368.973 82.5447 362.457 106.939C359.765 117.013 358.289 125.637 345.503 124.735C335.359 124.018 333.894 113.393 331.519 105.568L314.083 40.5109L313.108 43.3477C306.506 65.4891 301.613 88.4883 294.756 110.509C292.788 116.828 290.481 124.014 282.656 124.715C274.797 125.417 270.471 122.76 267.673 115.504C260.91 86.8821 252.158 58.4678 246.151 29.6695C245.21 25.1519 243.898 20.0544 246.915 16.054C248.788 13.5738 251.856 12.1202 254.912 11.8224H255.962L255.97 11.8263Z" fill="url(#paint0_linear_5_430)"/>
<path id="Vector_3" d="M7.97545 11.8262C8.88443 12.218 9.86396 12.1671 10.8592 12.4923C17.4847 14.6355 17.7081 25.1674 10.9258 27.5458C5.47175 29.4578 1.05602 26.6367 -0.44071 21.3003C-0.393692 20.7046 -0.511236 20.0386 -0.44071 19.4587C-0.135095 16.9197 1.25192 14.3103 3.53227 13.0408L7.18402 11.8262H7.97545Z" fill="url(#paint1_linear_5_430)"/>
<path id="Vector_4" d="M188.593 12.1652C203.61 11.2131 222.112 14.2065 230.309 28.4255C234.114 35.0275 235.026 46.4371 225.779 48.5882C213.947 51.3426 213.672 35.0471 204.598 29.9378C196.582 25.4241 178.347 26.9797 174.506 36.7554C168.724 51.4601 194.211 54.6887 203.164 57.161C219.31 61.6199 235.775 66.8545 237.82 86.167C239.932 106.11 226.626 119.867 207.897 123.585C187.734 127.594 161.949 123.127 153.278 102.079C150.5 95.3397 149.728 84.2942 159.351 83.162C170.69 81.8256 170.761 94.6142 176.29 101.416C187.327 114.993 220.051 108.783 215.878 89.4343C214.091 81.1518 204.982 78.5893 197.906 76.6263C179.804 71.6111 154.747 68.4531 153.392 44.5878C152.197 23.5513 169.813 13.3445 188.588 12.1534L188.593 12.1652Z" fill="url(#paint2_linear_5_430)"/>
<path id="Vector_5" d="M37.1146 12.4307C42.5255 12.0701 47.9717 12.6031 53.3317 12.6266C79.5757 12.748 107.551 7.85819 126.981 29.7174C139.362 43.6464 142.658 64.4557 139.123 82.4046C134.253 107.139 115.191 123.788 89.9073 124.998C85.9186 125.19 75.7787 125.492 72.3386 124.403C66.6651 122.609 66.3164 112.633 71.2728 110.036C75.0107 108.077 82.6944 108.911 87.016 108.683C132.353 106.298 135.808 31.6491 86.4905 28.9221C70.2463 28.0248 52.9478 29.9761 36.7659 28.9456C31.2099 28.593 26.1908 26.2813 26.6571 19.8594C27.092 13.8922 32.1464 12.7637 37.1185 12.4346L37.1146 12.4307Z" fill="url(#paint3_linear_5_430)"/>
<path id="Vector_6" d="M27.1191 75.5919L90.9142 75.5449C101.172 76.5714 101.603 90.8295 90.4169 91.8248L27.6011 91.7974C16.4697 90.6842 16.9908 76.6851 27.1191 75.5919Z" fill="url(#paint4_linear_5_430)"/>
<path id="Vector_7" d="M27.1188 44.7993C35.3547 44.6074 43.5554 44.815 51.7521 44.9952C55.537 45.0814 60.4779 44.5133 64.0434 45.3243C72.6515 47.2913 72.0168 60.221 63.0403 61.2711L16.8494 61.232C9.47944 60.7069 7.55955 50.0653 13.4054 46.343C16.3597 44.4623 23.4436 44.8855 27.1149 44.7993H27.1188Z" fill="url(#paint5_linear_5_430)"/>
<path id="Vector_8" d="M89.1793 45.5853C95.5969 44.8527 99.4918 49.0177 98.4061 55.3494C97.0198 63.4481 84.3987 63.2561 82.7219 55.8469C81.6137 50.9376 83.8782 46.1926 89.1752 45.5893L89.1793 45.5853Z" fill="url(#paint6_linear_5_430)"/>
<path id="Vector_9" d="M46.0557 109.01C53.0144 108.532 56.5877 113.853 54.4484 120.31C51.8037 128.299 36.0606 125.321 39.344 114.405C40.3156 111.173 42.6313 109.245 46.0557 109.01Z" fill="url(#paint7_linear_5_430)"/>
<path id="Vector_10" d="M235.721 174.725L240.721 197.618L247.264 174.878L250.461 174.847L256.894 197.885L261.878 174.976L265.703 174.725L258.842 203.382L255.198 203.398L249.008 180.774L242.523 202.975C242.014 203.833 240.18 203.237 239.267 203.429L232.046 174.725H235.729H235.721Z" fill="var(--fill-0, #111111)"/>
<path id="Vector_11" d="M3.24219 203.41V174.725H13.1041C14.6988 174.725 18.1193 176.347 19.4084 177.362C25.6382 182.267 25.697 195.699 19.5494 200.647C18.233 201.705 14.734 203.406 13.1041 203.406H3.24219V203.41ZM6.92525 200.251H12.5791C21.4497 200.251 22.9425 183.102 16.1094 179.09C15.4197 178.686 13.5469 177.883 12.8455 177.883H6.92915V200.251H6.92525Z" fill="var(--fill-0, #111111)"/>
<path id="Vector_12" d="M110.54 182.883H106.857C107.167 174.503 91.4005 176.301 94.9185 183.91C97.003 188.42 108.322 187.264 110.36 193.988C114.184 206.62 89.7353 207.412 89.7627 195.254H93.7082C93.1986 203.117 109.745 202.482 106.524 194.403C105.419 191.633 99.6361 190.74 97.0578 189.666C93.6568 188.252 90.6045 186.085 90.6559 182.01C90.7813 171.239 110.979 171.717 110.54 182.888V182.883Z" fill="var(--fill-0, #111111)"/>
<path id="Vector_13" d="M346.439 172.885V203.412H343.018C342.995 202.757 343.234 202.013 342.626 201.574C334.265 208.043 327.828 200.59 328.282 191.688C328.709 183.331 335.573 178.206 342.755 183.934V172.881H346.439V172.885ZM336.639 184.788C329.983 185.924 329.983 201.911 338.661 200.754C340.029 200.571 342.345 199.062 342.697 197.687C342.96 196.656 342.936 189.239 342.748 188.029C342.375 185.662 338.787 184.42 336.643 184.788H336.639Z" fill="var(--fill-0, #111111)"/>
<path id="Vector_14" d="M27.6989 187.883C28.1887 180.85 40.4878 179.224 43.3558 185.243C44.7115 188.091 43.7908 194.556 43.9945 198.027C44.1002 199.822 44.449 201.651 44.7938 203.411L41.1029 203.289L40.4564 201.307C35.7272 206.679 25.1835 203.45 27.5109 195.457C28.0712 193.533 29.7325 192.06 31.574 191.363C32.052 191.182 34.3285 190.512 34.6693 190.512H40.5857C40.907 186.676 38.9832 184.197 34.9554 184.745C33.4469 184.949 31.3859 186.171 31.382 187.88H27.6989V187.883ZM40.5857 193.145H35.4569C34.3128 193.145 31.9148 194.219 31.3271 195.332C29.4464 198.893 32.918 201.393 36.3894 200.66C37.4042 200.445 40.5818 198.509 40.5818 197.487V193.145H40.5857Z" fill="var(--fill-0, #111111)"/>
<path id="Vector_15" d="M60.8355 187.883C61.3253 180.85 73.6244 179.224 76.4924 185.243C77.8481 188.091 76.9273 194.556 77.1311 198.027C77.2368 199.822 77.5856 201.651 77.9304 203.411L74.2395 203.289L73.593 201.307C68.8638 206.679 58.3201 203.45 60.6474 195.457C61.2078 193.533 62.8691 192.06 64.7106 191.363C65.1886 191.182 67.465 190.512 67.8059 190.512H73.7223C74.0436 186.676 72.1198 184.197 68.0919 184.745C66.5834 184.949 64.5225 186.171 64.5186 187.88H60.8355V187.883ZM73.7223 193.145H68.5935C67.4494 193.145 65.0514 194.219 64.4637 195.332C62.583 198.893 66.0545 201.393 69.526 200.66C70.5407 200.445 73.7183 198.509 73.7183 197.487V193.145H73.7223Z" fill="var(--fill-0, #111111)"/>
<path id="Vector_16" d="M295.947 187.883C296.437 180.85 308.736 179.224 311.604 185.242C312.959 188.091 312.039 194.556 312.242 198.027C312.348 199.822 312.677 201.618 313.022 203.377L309.384 203.347L308.704 201.307C303.975 206.678 293.432 203.45 295.759 195.457C296.319 193.533 297.98 192.06 299.822 191.363C300.3 191.182 302.576 190.512 302.917 190.512H308.834C309.155 186.676 307.231 184.197 303.203 184.745C301.695 184.949 299.634 186.171 299.63 187.88H295.947V187.883ZM308.834 193.145H303.704C302.561 193.145 300.163 194.218 299.575 195.332C297.694 198.893 301.166 201.393 304.638 200.66C305.652 200.445 308.83 198.509 308.83 197.487V193.145H308.834Z" fill="var(--fill-0, #111111)"/>
<path id="Vector_17" d="M221.521 193.936H207.056C207.048 200.761 214.617 203.101 219.057 198.163L221.137 199.985C217.094 206.023 206.891 205.005 204.227 198.215C201.414 191.052 204.979 180.587 213.998 181.597C218.038 182.048 221.521 186.1 221.521 190.123V193.939V193.936ZM217.838 190.778C217.748 182.424 207.843 182.95 207.056 190.778H217.838Z" fill="var(--fill-0, #111111)"/>
<path id="Vector_18" d="M159.721 193.936H145.255C145.248 200.761 152.817 203.101 157.257 198.163L159.337 199.985C155.294 206.023 145.091 205.005 142.426 198.215C139.613 191.052 143.179 180.587 152.198 181.597C156.237 182.048 159.721 186.1 159.721 190.123V193.939V193.936ZM156.038 190.778C155.948 182.424 146.043 182.95 145.255 190.778H156.038Z" fill="var(--fill-0, #111111)"/>
<path id="Vector_19" d="M366.688 188.145H363.004C362.965 184.235 355.799 183.518 354.526 186.633C352.845 190.743 360.662 190.994 363.267 192.224C368.529 194.716 367.977 201.306 362.735 203.27C357.562 205.209 350.056 203.218 349.855 196.828H353.539C353.193 203.05 366.605 201.15 362.703 195.946C360.658 193.215 351.662 194.505 350.71 189.003C349.115 179.772 366.594 178.727 366.688 188.145Z" fill="var(--fill-0, #111111)"/>
<path id="Vector_20" d="M179.969 203.412H176.287V188.804C176.287 188.719 175.961 187.268 175.898 187.088C174.758 183.769 170.021 184.204 167.863 186.426C167.639 186.657 166.558 188.15 166.558 188.279V203.412H163.137V182.097H166.558V184.463C169.907 180.518 177.909 180.188 179.424 185.924C179.597 186.575 179.966 188.503 179.966 189.067V203.412H179.969Z" fill="var(--fill-0, #111111)"/>
<path id="Vector_21" d="M292.526 182.092L292.283 185.14L280.693 200.252H293.051V203.411H276.223L276.465 200.099L287.793 185.25H276.223V182.092H292.526Z" fill="var(--fill-0, #111111)"/>
<path id="Vector_22" d="M201.01 189.199L197.601 189.188C197.061 183.62 189.522 183.158 187.469 188.149C186.313 190.958 186.384 196.832 188.543 199.171C191.168 202.015 197.225 201.004 197.601 196.84L201.01 196.828C200.598 203.798 191.129 206.07 186.274 201.702C182.47 198.274 182.211 190.101 184.652 185.857C188.648 178.907 200.908 180.536 201.01 189.199Z" fill="var(--fill-0, #111111)"/>
<path id="Vector_23" d="M130.793 189.199L127.384 189.188C126.844 183.62 119.305 183.158 117.253 188.149C116.096 190.958 116.167 196.832 118.326 199.171C120.951 202.015 127.008 201.004 127.384 196.84L130.793 196.828C130.382 203.798 120.912 206.07 116.057 201.702C112.253 198.274 111.994 190.101 114.435 185.857C118.431 178.907 130.691 180.536 130.793 189.199Z" fill="var(--fill-0, #111111)"/>
<path id="Vector_24" d="M53.7352 176.83V182.092H57.9433V185.25H53.7352V198.541C53.7352 198.623 54.178 199.947 54.2485 200.068C54.8441 201.06 56.9755 200.856 57.9433 200.515V203.669C54.8636 204.186 51.5411 204.296 50.4989 200.731C50.4048 200.414 50.0561 198.737 50.0561 198.541V185.25H46.373V182.092H50.0561V176.83H53.7391H53.7352Z" fill="var(--fill-0, #111111)"/>
<path id="Vector_25" d="M316.983 182.093H320.534V184.197C322.116 182.195 324.655 180.969 327.245 181.847V184.726C325.255 184.647 322.872 184.601 321.454 186.242C321.298 186.426 320.408 187.911 320.408 188.013V203.378H316.988V182.093H316.983Z" fill="var(--fill-0, #111111)"/>
<path id="Vector_26" d="M137.891 182.092H134.209V203.407H137.891V182.092Z" fill="var(--fill-0, #111111)"/>
<path id="Vector_27" d="M272.277 182.092H268.594V203.407H272.277V182.092Z" fill="var(--fill-0, #111111)"/>
<path id="Vector_28" d="M269.568 174.251C273.302 173.143 273.71 179.29 269.568 178.354C267.739 177.939 267.954 174.734 269.568 174.251Z" fill="var(--fill-0, #111111)"/>
<path id="Vector_29" d="M135.184 174.251C138.918 173.143 139.326 179.29 135.184 178.354C133.355 177.939 133.57 174.734 135.184 174.251Z" fill="var(--fill-0, #111111)"/>
<path id="Vector_30" d="M375.676 170.549C371.927 170.549 368.887 173.59 368.887 177.339C368.887 181.089 371.927 184.129 375.676 184.129C379.426 184.129 382.467 181.089 382.467 177.339C382.462 173.59 379.426 170.553 375.676 170.549ZM375.676 183.447C372.303 183.447 369.564 180.713 369.564 177.335C369.564 173.957 372.299 171.223 375.676 171.223C379.054 171.223 381.789 173.957 381.789 177.335C381.789 180.709 379.05 183.443 375.676 183.447Z" fill="var(--fill-0, #EC6721)"/>
<path id="Vector_31" d="M378.397 176.322C378.397 175.385 377.636 174.625 376.7 174.625H373.985C373.796 174.625 373.644 174.778 373.644 174.965V179.719C373.644 179.906 373.796 180.059 373.985 180.059C374.172 180.059 374.325 179.906 374.325 179.719V178.022H376.52L377.778 179.906C377.883 180.063 378.095 180.102 378.247 179.997C378.4 179.89 378.443 179.683 378.341 179.53L377.268 177.916C377.946 177.677 378.397 177.038 378.4 176.322H378.397ZM376.696 177.34H374.322V175.302H376.696C377.26 175.302 377.714 175.757 377.714 176.322C377.714 176.885 377.26 177.34 376.696 177.34Z" fill="var(--fill-0, #EC6721)"/>
</g>
<defs>
<linearGradient id="paint0_linear_5_430" x1="-0.463813" y1="68.4998" x2="382.643" y2="68.4998" gradientUnits="userSpaceOnUse">
<stop stop-color="#F67E20"/>
<stop offset="0.557385" stop-color="#EC4A13"/>
<stop offset="1" stop-color="#E40917"/>
</linearGradient>
<linearGradient id="paint1_linear_5_430" x1="-0.46387" y1="68.4997" x2="382.643" y2="68.4997" gradientUnits="userSpaceOnUse">
<stop stop-color="#F67E20"/>
<stop offset="0.557385" stop-color="#EC4A13"/>
<stop offset="1" stop-color="#E40917"/>
</linearGradient>
<linearGradient id="paint2_linear_5_430" x1="-0.463809" y1="68.4978" x2="382.643" y2="68.4978" gradientUnits="userSpaceOnUse">
<stop stop-color="#F67E20"/>
<stop offset="0.557385" stop-color="#EC4A13"/>
<stop offset="1" stop-color="#E40917"/>
</linearGradient>
<linearGradient id="paint3_linear_5_430" x1="-0.463614" y1="68.5007" x2="382.643" y2="68.5007" gradientUnits="userSpaceOnUse">
<stop stop-color="#F67E20"/>
<stop offset="0.557385" stop-color="#EC4A13"/>
<stop offset="1" stop-color="#E40917"/>
</linearGradient>
<linearGradient id="paint4_linear_5_430" x1="-0.463674" y1="68.5017" x2="382.643" y2="68.5017" gradientUnits="userSpaceOnUse">
<stop stop-color="#F67E20"/>
<stop offset="0.557385" stop-color="#EC4A13"/>
<stop offset="1" stop-color="#E40917"/>
</linearGradient>
<linearGradient id="paint5_linear_5_430" x1="-0.46347" y1="68.4978" x2="382.644" y2="68.4978" gradientUnits="userSpaceOnUse">
<stop stop-color="#F67E20"/>
<stop offset="0.557385" stop-color="#EC4A13"/>
<stop offset="1" stop-color="#E40917"/>
</linearGradient>
<linearGradient id="paint6_linear_5_430" x1="-0.463591" y1="68.5002" x2="382.644" y2="68.5002" gradientUnits="userSpaceOnUse">
<stop stop-color="#F67E20"/>
<stop offset="0.557385" stop-color="#EC4A13"/>
<stop offset="1" stop-color="#E40917"/>
</linearGradient>
<linearGradient id="paint7_linear_5_430" x1="-0.463313" y1="68.4981" x2="382.644" y2="68.4981" gradientUnits="userSpaceOnUse">
<stop stop-color="#F67E20"/>
<stop offset="0.557385" stop-color="#EC4A13"/>
<stop offset="1" stop-color="#E40917"/>
</linearGradient>
<clipPath id="clip0_5_430">
<rect width="387" height="215.642" fill="white"/>
</clipPath>
</defs>
</svg>
