<svg preserveAspectRatio="none" width="100%" height="100%" overflow="visible" style="display: block;" viewBox="0 0 29.4172 29.4172" fill="none" xmlns="http://www.w3.org/2000/svg">
<g id="linkedin 1" clip-path="url(#clip0_5_482)">
<path id="Vector" d="M26.7562 0H2.66102C1.1914 0 0 1.1914 0 2.66102V26.7561C0 28.2258 1.1914 29.4172 2.66102 29.4172H26.7561C28.2258 29.4172 29.4172 28.2258 29.4172 26.7561V2.66102C29.4172 1.1914 28.2258 0 26.7562 0ZM9.10292 25.4007C9.10292 25.8284 8.75623 26.1751 8.32853 26.1751H5.03211C4.6044 26.1751 4.25771 25.8284 4.25771 25.4007V11.5823C4.25771 11.1546 4.6044 10.8079 5.03211 10.8079H8.32853C8.75623 10.8079 9.10292 11.1546 9.10292 11.5823V25.4007ZM6.68032 9.50529C4.95079 9.50529 3.5487 8.1032 3.5487 6.37367C3.5487 4.64414 4.95079 3.24205 6.68032 3.24205C8.40985 3.24205 9.81194 4.64414 9.81194 6.37367C9.81194 8.1032 8.40992 9.50529 6.68032 9.50529ZM26.3299 25.4631C26.3299 25.8563 26.0111 26.1751 25.6179 26.1751H22.0806C21.6874 26.1751 21.3686 25.8563 21.3686 25.4631V18.9815C21.3686 18.0146 21.6522 14.7444 18.8417 14.7444C16.6617 14.7444 16.2195 16.9827 16.1307 17.9872V25.4631C16.1307 25.8563 15.812 26.1751 15.4187 26.1751H11.9975C11.6043 26.1751 11.2855 25.8563 11.2855 25.4631V11.5199C11.2855 11.1267 11.6043 10.8079 11.9975 10.8079H15.4187C15.8119 10.8079 16.1307 11.1267 16.1307 11.5199V12.7255C16.9391 11.5124 18.1404 10.576 20.6982 10.576C26.3623 10.576 26.3299 15.8677 26.3299 18.7752V25.4631Z" fill="var(--fill-0, #111111)"/>
</g>
<defs>
<clipPath id="clip0_5_482">
<rect width="29.4172" height="29.4172" fill="white"/>
</clipPath>
</defs>
</svg>
