<svg preserveAspectRatio="none" width="100%" height="100%" overflow="visible" style="display: block;" viewBox="0 0 36.9817 26.0552" fill="none" xmlns="http://www.w3.org/2000/svg">
<g id="Group">
<path id="Vector" d="M18.4912 0.84082H18.6191C18.7039 0.841009 18.8291 0.841041 18.9893 0.841797C19.3097 0.84331 19.7712 0.84648 20.334 0.852539C21.4597 0.864661 22.9897 0.889076 24.6084 0.9375C26.2285 0.985969 27.931 1.05883 29.4033 1.16699C30.8995 1.27691 32.087 1.41903 32.7197 1.58984H32.7207C33.9394 1.91835 34.9179 2.84478 35.3232 4.04199L35.3965 4.28516C35.7563 5.64137 35.9477 7.8001 36.0449 9.67969C36.0929 10.6072 36.1167 11.4459 36.1289 12.0527C36.135 12.356 36.1381 12.6009 36.1396 12.7695C36.1404 12.8538 36.1404 12.9191 36.1406 12.9629C36.1407 12.9848 36.1416 13.0017 36.1416 13.0127V13.043C36.1416 13.0539 36.1407 13.0709 36.1406 13.0928C36.1404 13.1366 36.1404 13.2018 36.1396 13.2861C36.1382 13.4547 36.1349 13.6997 36.1289 14.0029C36.1169 14.6098 36.0937 15.4486 36.0459 16.376C35.9491 18.2556 35.7577 20.4139 35.3965 21.7695V21.7705C35.0471 23.0844 34.0206 24.1155 32.7207 24.4658H32.7197C32.0869 24.6366 30.8994 24.7788 29.4033 24.8887C27.931 24.9968 26.2285 25.0697 24.6084 25.1182C22.9897 25.1666 21.4597 25.19 20.334 25.2021C19.7712 25.2082 19.3097 25.2114 18.9893 25.2129C18.8291 25.2136 18.7039 25.2147 18.6191 25.2148H18.4912V26.0557C18.4912 25.2575 18.4903 25.2169 18.4902 25.2148H18.3623C18.2776 25.2147 18.1524 25.2136 17.9922 25.2129C17.6718 25.2114 17.2102 25.2082 16.6475 25.2021C15.5217 25.19 13.9917 25.1666 12.373 25.1182C10.7528 25.0697 9.05048 24.9968 7.57812 24.8887C6.26885 24.7925 5.19604 24.6715 4.52441 24.5283L4.26172 24.4658L4.02051 24.3916C2.83557 23.9849 1.91361 23.0022 1.58594 21.7705L1.58496 21.7695C1.22379 20.4139 1.03234 18.2556 0.935547 16.376C0.887792 15.4486 0.864496 14.6098 0.852539 14.0029C0.846565 13.6997 0.843283 13.4547 0.841797 13.2861C0.841054 13.2019 0.841004 13.1366 0.84082 13.0928V12.9619C0.841004 12.9182 0.841059 12.8533 0.841797 12.7695C0.843283 12.601 0.846569 12.3558 0.852539 12.0527C0.864494 11.446 0.887797 10.607 0.935547 9.67969C1.03235 7.79975 1.22368 5.64081 1.58496 4.28516H1.58594C1.91358 3.05331 2.83542 2.06981 4.02051 1.66309L4.26172 1.58984C4.89451 1.41903 6.08196 1.27691 7.57812 1.16699C9.05049 1.05882 10.7528 0.985971 12.373 0.9375C13.9918 0.889074 15.5217 0.864662 16.6475 0.852539C17.2102 0.84648 17.6718 0.84331 17.9922 0.841797C18.1524 0.84104 18.2776 0.841009 18.3623 0.84082H18.4902H18.4912Z" stroke="var(--stroke-0, #111111)" stroke-width="1.68098"/>
<path id="Vector_2" d="M14.7891 18.612L24.3968 13.0297L14.7891 7.44727V18.612Z" fill="var(--fill-0, #111111)"/>
</g>
</svg>
