<svg preserveAspectRatio="none" width="100%" height="100%" overflow="visible" style="display: block;" viewBox="0 0 30 30" fill="none" xmlns="http://www.w3.org/2000/svg">
<g id="Group 1171274884">
<path id="Vector" d="M21.8793 0H8.12073C3.64289 0 3.80051e-06 3.64288 3.80051e-06 8.12073V21.8795C3.80051e-06 26.3571 3.64289 30 8.12073 30H21.8795C26.3571 30 30 26.3571 30 21.8795V8.12073C30 3.64288 26.3571 0 21.8793 0ZM28.2413 21.8795C28.2413 25.3873 25.3873 28.2413 21.8793 28.2413H8.12073C4.61266 28.2413 1.75873 25.3873 1.75873 21.8795V8.12073C1.75873 4.61266 4.61266 1.75873 8.12073 1.75873H21.8795C25.3873 1.75873 28.2413 4.61266 28.2413 8.12073V21.8795Z" fill="var(--fill-0, #111111)"/>
<path id="Vector_2" d="M15.0008 6.79688C10.4776 6.79688 6.79786 10.4766 6.79786 14.9998C6.79786 19.5229 10.4776 23.2027 15.0008 23.2027C19.5239 23.2027 23.2036 19.5229 23.2036 14.9998C23.2036 10.4766 19.5239 6.79688 15.0008 6.79688ZM15.0008 21.4439C11.4476 21.4439 8.55658 18.5532 8.55658 14.9998C8.55658 11.4466 11.4476 8.5556 15.0008 8.5556C18.5541 8.5556 21.4449 11.4466 21.4449 14.9998C21.4449 18.5532 18.5541 21.4439 15.0008 21.4439Z" fill="var(--fill-0, #111111)"/>
<path id="Vector_3" d="M23.3985 3.88281C22.0618 3.88281 20.9746 4.97023 20.9746 6.30667C20.9746 7.64334 22.0618 8.73076 23.3985 8.73076C24.7351 8.73076 25.8226 7.64334 25.8226 6.30667C25.8226 4.97 24.7351 3.88281 23.3985 3.88281ZM23.3985 6.9718C23.0318 6.9718 22.7333 6.67334 22.7333 6.30667C22.7333 5.93977 23.0318 5.64154 23.3985 5.64154C23.7654 5.64154 24.0638 5.93977 24.0638 6.30667C24.0638 6.67334 23.7654 6.9718 23.3985 6.9718Z" fill="var(--fill-0, #111111)"/>
</g>
</svg>
