<svg
       
        width="871"
        height="871"
        viewBox="0 0 871 871"
        fill="none"
        xmlns="http://www.w3.org/2000/svg"
      >
        <path
          d="M435.5 864.684V871C435.395 871 435.29 871 435.185 871L435.189 864.684C435.293 864.684 435.396 864.684 435.5 864.684ZM435.811 864.684L435.815 871C435.71 871 435.605 871 435.5 871V864.684C435.604 864.684 435.707 864.684 435.811 864.684ZM422.81 864.501L422.627 870.81C422.419 870.804 422.21 870.798 422.001 870.792L422.194 864.482C422.399 864.488 422.605 864.494 422.81 864.501ZM448.806 864.482L448.998 870.792C448.789 870.798 448.581 870.804 448.372 870.81L448.19 864.501C448.395 864.494 448.601 864.488 448.806 864.482ZM409.87 863.932L409.498 870.236C409.289 870.223 409.08 870.211 408.871 870.198L409.251 863.894C409.457 863.907 409.663 863.92 409.87 863.932ZM462.128 870.198C461.919 870.211 461.71 870.223 461.501 870.236L461.13 863.932C461.337 863.92 461.543 863.907 461.749 863.894L462.128 870.198ZM396.932 862.972L396.372 869.263C396.164 869.244 395.957 869.225 395.749 869.206L396.319 862.922C396.523 862.941 396.728 862.96 396.932 862.972ZM475.25 869.206C475.042 869.225 474.835 869.244 474.627 869.263L474.068 862.972C474.272 862.96 474.477 862.941 474.681 862.922L475.25 869.206ZM384.033 861.633L383.658 864.766L383.284 867.899C383.076 867.873 382.869 867.855 382.661 867.829L383.419 861.557C383.624 861.583 383.829 861.608 384.033 861.633ZM488.338 867.829C488.131 867.855 487.923 867.873 487.715 867.899L486.967 861.633C487.171 861.608 487.376 861.583 487.581 861.557L488.338 867.829ZM371.201 859.903L370.731 863.023L370.263 866.143C370.057 866.111 369.852 866.086 369.646 866.055L370.593 859.808C370.796 859.839 370.998 859.871 371.201 859.903ZM501.354 866.055C501.148 866.086 500.942 866.111 500.737 866.143L500.268 863.023L499.799 859.903C500.002 859.871 500.204 859.839 500.407 859.808L501.354 866.055ZM358.394 857.78L357.267 863.989C357.061 863.951 356.856 863.913 356.651 863.875L357.787 857.667C357.989 857.704 358.191 857.742 358.394 857.78ZM514.349 863.875C514.143 863.913 513.938 863.951 513.733 863.989L512.606 857.78C512.809 857.742 513.011 857.704 513.213 857.667L514.349 863.875ZM345.685 855.273L344.369 861.45C344.164 861.406 343.96 861.362 343.755 861.317L345.08 855.14C345.281 855.184 345.483 855.229 345.685 855.273ZM527.244 861.317C527.04 861.362 526.835 861.406 526.63 861.45L525.973 858.361L525.315 855.273C525.517 855.229 525.719 855.184 525.92 855.14L527.244 861.317ZM333.043 852.38L331.541 858.513C331.338 858.462 331.136 858.412 330.933 858.361L332.445 852.235C332.644 852.279 332.844 852.329 333.043 852.38ZM539.31 855.298L540.066 858.361C539.863 858.412 539.661 858.462 539.458 858.513L537.957 852.38C538.156 852.329 538.356 852.279 538.555 852.235L539.31 855.298ZM320.498 849.102L318.809 855.191C318.607 855.134 318.406 855.077 318.205 855.02L319.902 848.938C320.1 848.994 320.299 849.051 320.498 849.102ZM552.794 855.02C552.594 855.077 552.393 855.134 552.191 855.191L550.502 849.102C550.701 849.051 550.9 848.994 551.098 848.938L552.794 855.02ZM308.073 845.451L306.2 851.483C306 851.42 305.801 851.357 305.602 851.294L307.483 845.268C307.68 845.331 307.877 845.394 308.073 845.451ZM565.398 851.294C565.198 851.357 564.999 851.42 564.8 851.483L563.863 848.47L562.927 845.451C563.123 845.394 563.32 845.331 563.517 845.268L565.398 851.294ZM295.74 841.415L293.684 847.384C293.487 847.321 293.289 847.251 293.092 847.182L295.157 841.213C295.35 841.282 295.546 841.352 295.74 841.415ZM577.908 847.182C577.711 847.251 577.513 847.321 577.315 847.384L575.26 841.415C575.454 841.352 575.65 841.282 575.843 841.213L577.908 847.182ZM283.552 837.013L281.399 842.697L281.315 842.918C281.119 842.843 280.923 842.773 280.728 842.697L282.974 836.792C283.166 836.867 283.359 836.937 283.552 837.013ZM590.271 842.697C590.076 842.773 589.88 842.843 589.684 842.918L587.448 837.013C587.641 836.937 587.834 836.867 588.026 836.792L590.271 842.697ZM271.5 832.238L269.085 838.074C268.893 837.992 268.699 837.916 268.507 837.834L270.93 832.004C271.12 832.08 271.31 832.162 271.5 832.238ZM602.493 837.834C602.3 837.916 602.107 837.992 601.914 838.074L599.499 832.238C599.69 832.162 599.88 832.08 600.07 832.004L602.493 837.834ZM259.594 827.096L257.002 832.857C256.812 832.768 256.621 832.686 256.431 832.598L259.031 826.844C259.218 826.926 259.406 827.014 259.594 827.096ZM614.569 832.598C614.378 832.686 614.187 832.768 613.997 832.857L611.406 827.096C611.594 827.014 611.782 826.926 611.969 826.844L614.569 832.598ZM247.859 821.601L245.095 827.279C244.906 827.185 244.718 827.096 244.53 827.008L247.303 821.33C247.488 821.418 247.674 821.513 247.859 821.601ZM626.469 827.008C626.281 827.096 626.093 827.185 625.905 827.279L624.523 824.444L623.141 821.601C623.326 821.513 623.512 821.424 623.697 821.33L626.469 827.008ZM236.286 815.746L233.35 821.336C233.166 821.241 232.981 821.146 232.796 821.045L235.74 815.462C235.922 815.557 236.104 815.651 236.286 815.746ZM638.205 821.045C638.022 821.146 637.832 821.241 637.649 821.336L634.712 815.746C634.895 815.651 635.078 815.557 635.262 815.462L638.205 821.045ZM224.899 809.55L221.796 815.045C221.614 814.944 221.432 814.843 221.25 814.742L224.362 809.247C224.541 809.348 224.721 809.449 224.899 809.55ZM649.751 814.742C649.568 814.843 649.385 814.944 649.201 815.045L646.1 809.55C646.277 809.449 646.46 809.348 646.637 809.247L649.751 814.742ZM213.71 803.006L210.442 808.413C210.263 808.306 210.083 808.198 209.905 808.091L213.182 802.691C213.358 802.798 213.533 802.905 213.71 803.006ZM661.095 808.091C660.918 808.198 660.735 808.306 660.558 808.413L657.292 803.006C657.469 802.905 657.64 802.798 657.817 802.691L661.095 808.091ZM202.714 796.128L199.284 801.434C199.108 801.32 198.933 801.206 198.758 801.093L202.196 795.793C202.368 795.907 202.541 796.021 202.714 796.128ZM672.243 801.093C672.066 801.206 671.889 801.32 671.719 801.434L668.289 796.128C668.459 796.021 668.63 795.907 668.807 795.793L672.243 801.093ZM191.936 788.928L188.665 793.665L188.348 794.12C188.176 794.006 188.003 793.886 187.832 793.766L191.428 788.574C191.597 788.694 191.767 788.808 191.936 788.928ZM683.17 793.766C682.993 793.886 682.822 794.006 682.652 794.12L680.858 791.524L679.064 788.928C679.235 788.808 679.405 788.694 679.57 788.574L683.17 793.766ZM181.379 781.399L177.635 786.483C177.467 786.363 177.298 786.237 177.13 786.117L180.882 781.033C181.047 781.153 181.213 781.279 181.379 781.399ZM693.869 786.117C693.699 786.237 693.535 786.363 693.364 786.483L689.619 781.399C689.789 781.279 689.953 781.153 690.117 781.033L693.869 786.117ZM171.051 773.554L167.157 778.525C166.993 778.399 166.827 778.272 166.663 778.14L170.566 773.175C170.727 773.301 170.89 773.428 171.051 773.554ZM704.335 778.14C704.171 778.272 704.007 778.399 703.843 778.525L701.897 776.043L699.945 773.554C700.11 773.428 700.274 773.301 700.432 773.175L704.335 778.14ZM160.968 765.406L156.925 770.257C156.764 770.124 156.603 769.992 156.443 769.859L160.493 765.015C160.651 765.147 160.809 765.28 160.968 765.406ZM710.506 765.015L714.555 769.859C714.397 769.992 714.233 770.124 714.075 770.257L710.032 765.406C710.19 765.28 710.348 765.147 710.506 765.015ZM151.13 756.961L146.943 761.686C146.787 761.547 146.63 761.414 146.474 761.276L150.668 756.551C150.822 756.69 150.975 756.823 151.13 756.961ZM724.528 761.276C724.37 761.414 724.212 761.547 724.054 761.686L719.873 756.961C720.025 756.823 720.176 756.69 720.334 756.551L724.528 761.276ZM141.551 748.22L139.388 750.519L137.488 752.54L137.225 752.818C137.073 752.679 136.921 752.534 136.768 752.389L141.101 747.797C141.251 747.936 141.401 748.081 141.551 748.22ZM734.23 752.389C734.078 752.534 733.926 752.679 733.775 752.818L731.615 750.519L729.448 748.22C729.6 748.081 729.751 747.936 729.897 747.797L734.23 752.389ZM132.24 739.194L127.777 743.666C127.63 743.514 127.482 743.369 127.335 743.224L131.803 738.758C131.949 738.904 132.095 739.049 132.24 739.194ZM743.666 743.224C743.514 743.369 743.369 743.514 743.224 743.666L740.994 741.43L738.758 739.194C738.904 739.049 739.049 738.904 739.194 738.758L743.666 743.224ZM123.203 729.897L120.905 732.063L118.608 734.23C118.464 734.078 118.322 733.926 118.179 733.775L122.78 729.448C122.921 729.6 123.062 729.751 123.203 729.897ZM750.519 731.615L752.818 733.775C752.679 733.926 752.534 734.078 752.389 734.23L747.797 729.897C747.936 729.751 748.081 729.6 748.22 729.448L750.519 731.615ZM114.45 720.334L109.726 724.528C109.587 724.37 109.45 724.212 109.311 724.054L114.04 719.873C114.177 720.025 114.313 720.176 114.45 720.334ZM761.686 724.054C761.547 724.212 761.414 724.37 761.276 724.528L758.913 722.431L756.551 720.334C756.69 720.176 756.823 720.025 756.961 719.873L761.686 724.054ZM105.987 710.506L101.14 714.555C101.006 714.397 100.873 714.233 100.739 714.075L105.591 710.032C105.723 710.19 105.855 710.348 105.987 710.506ZM770.257 714.075C770.124 714.233 769.992 714.397 769.859 714.555L765.015 710.506C765.147 710.348 765.28 710.19 765.406 710.032L770.257 714.075ZM97.8249 700.432L92.8578 704.335C92.7283 704.171 92.6008 704.007 92.4719 703.843L97.4434 699.945C97.5703 700.11 97.6979 700.274 97.8249 700.432ZM778.525 703.843C778.399 704.007 778.272 704.171 778.14 704.335L773.175 700.432C773.301 700.274 773.428 700.11 773.554 699.945L778.525 703.843ZM89.9669 690.117L84.8856 693.869C84.7611 693.699 84.6386 693.535 84.5154 693.364L89.6012 689.619C89.7231 689.789 89.845 689.953 89.9669 690.117ZM786.483 693.364C786.363 693.535 786.237 693.699 786.117 693.869L781.033 690.117C781.153 689.953 781.279 689.789 781.399 689.619L786.483 693.364ZM82.4254 679.57L77.2329 683.17C77.1141 682.993 76.9967 682.822 76.8779 682.652L82.0742 679.064C82.1917 679.235 82.3079 679.405 82.4254 679.57ZM794.12 682.652C794.006 682.822 793.886 682.993 793.766 683.17L788.574 679.57C788.694 679.405 788.808 679.235 788.928 679.064L794.12 682.652ZM75.2054 668.807L69.9074 672.243C69.7937 672.066 69.6813 671.889 69.5682 671.719L74.87 668.289C74.9818 668.459 75.0936 668.63 75.2054 668.807ZM801.434 671.719C801.32 671.889 801.206 672.066 801.093 672.243L795.793 668.807C795.907 668.63 796.021 668.459 796.128 668.289L801.434 671.719ZM68.31 657.817L62.9106 661.095C62.8024 660.918 62.6954 660.735 62.5874 660.558L67.9911 657.292C68.0972 657.469 68.2039 657.64 68.31 657.817ZM808.413 660.558C808.306 660.735 808.198 660.918 808.091 661.095L802.691 657.817C802.798 657.64 802.905 657.469 803.006 657.292L808.413 660.558ZM61.7554 646.637L56.2596 649.751C56.1566 649.568 56.0545 649.385 55.9518 649.201L61.4513 646.1C61.5525 646.277 61.6539 646.46 61.7554 646.637ZM815.045 649.201C814.944 649.385 814.843 649.568 814.742 649.751L809.247 646.637C809.348 646.46 809.449 646.277 809.55 646.1L815.045 649.201ZM55.5391 635.262L52.7443 636.733L49.9514 638.205C49.8542 638.022 49.7579 637.832 49.6609 637.649L55.2517 634.712C55.3473 634.895 55.4433 635.078 55.5391 635.262ZM821.336 637.649C821.241 637.832 821.146 638.022 821.045 638.205L818.254 636.733L815.462 635.262C815.557 635.078 815.651 634.895 815.746 634.712L821.336 637.649ZM49.6689 623.697L43.9942 626.469C43.9024 626.281 43.8119 626.093 43.7204 625.905L49.3981 623.141C49.4883 623.326 49.5785 623.512 49.6689 623.697ZM827.279 625.905C827.185 626.093 827.096 626.281 827.008 626.469L821.33 623.697C821.418 623.512 821.513 623.326 821.601 623.141L827.279 625.905ZM44.1565 611.969L38.4004 614.569C38.3144 614.378 38.23 614.187 38.1444 613.997L43.9029 611.406C43.9874 611.594 44.0717 611.782 44.1565 611.969ZM832.857 613.997C832.768 614.187 832.686 614.378 832.598 614.569L826.844 611.969C826.926 611.782 827.014 611.594 827.096 611.406L832.857 613.997ZM38.9986 600.07L33.1661 602.493C33.086 602.3 33.0071 602.107 32.9273 601.914L38.7624 599.499C38.841 599.69 38.9198 599.88 38.9986 600.07ZM838.074 601.914C837.992 602.107 837.916 602.3 837.834 602.493L832.004 600.07C832.08 599.88 832.162 599.69 832.238 599.5L838.074 601.914ZM34.2079 588.026L28.3043 590.271C28.23 590.076 28.1564 589.88 28.0823 589.684L33.9883 587.448C34.0612 587.641 34.1347 587.834 34.2079 588.026ZM842.918 589.685C842.843 589.88 842.773 590.076 842.697 590.271L836.792 588.026C836.867 587.834 836.937 587.641 837.013 587.448L842.918 589.685ZM29.7853 575.843L23.8164 577.908C23.7482 577.711 23.6808 577.513 23.6129 577.315L29.5843 575.26C29.6512 575.454 29.7181 575.65 29.7853 575.843ZM847.384 577.315C847.321 577.513 847.251 577.711 847.182 577.908L841.213 575.843C841.282 575.65 841.352 575.454 841.415 575.26L847.384 577.315ZM25.7316 563.517L19.7029 565.398C19.6406 565.198 19.5786 564.999 19.5166 564.8L25.5478 562.927C25.6089 563.123 25.6702 563.32 25.7316 563.517ZM851.483 564.8C851.42 564.999 851.357 565.199 851.294 565.398L845.268 563.517C845.331 563.32 845.394 563.123 845.451 562.927L851.483 564.8ZM22.0622 551.098L15.9792 552.794C15.923 552.593 15.8654 552.393 15.8096 552.191L21.8963 550.502C21.9513 550.701 22.0069 550.9 22.0622 551.098ZM855.191 552.191C855.134 552.393 855.077 552.594 855.02 552.794L848.938 551.098C848.994 550.9 849.051 550.701 849.102 550.502L855.191 552.191ZM18.7672 538.555L15.7004 539.31L15.701 539.311L12.6366 540.066C12.5867 539.863 12.5358 539.661 12.4862 539.458L18.6204 537.957C18.6692 538.156 18.718 538.356 18.7672 538.555ZM858.513 539.458C858.462 539.661 858.412 539.863 858.361 540.066L852.235 538.555C852.279 538.356 852.329 538.156 852.38 537.957L858.513 539.458ZM15.8571 525.92L12.768 526.582L12.7686 526.583L9.68275 527.244C9.63892 527.04 9.5949 526.835 9.55138 526.63L15.7275 525.315C15.7705 525.517 15.8138 525.719 15.8571 525.92ZM861.45 526.63C861.406 526.835 861.362 527.04 861.317 527.244L858.229 526.583L855.14 525.92C855.184 525.719 855.229 525.517 855.273 525.315L861.45 526.63ZM13.3331 513.213L10.2261 513.781L10.2268 513.781L7.1211 514.349C7.08359 514.143 7.0467 513.938 7.0095 513.733L13.2227 512.606C13.2593 512.809 13.296 513.011 13.3331 513.213ZM863.989 513.733C863.951 513.938 863.913 514.143 863.875 514.349L860.774 513.781L857.667 513.213C857.704 513.011 857.742 512.809 857.78 512.606L863.989 513.733ZM11.1914 500.407L4.94746 501.354C4.91628 501.148 4.88583 500.942 4.85494 500.737L11.0995 499.799C11.13 500.002 11.1607 500.204 11.1914 500.407ZM863.023 500.268L866.143 500.737C866.111 500.942 866.086 501.148 866.055 501.354L859.808 500.407C859.839 500.204 859.871 500.002 859.903 499.799L863.023 500.268ZM9.44343 487.581L3.17289 488.338C3.14778 488.131 3.1243 487.923 3.09949 487.715L9.36941 486.967C9.39385 487.171 9.41867 487.376 9.44343 487.581ZM864.766 487.341L867.899 487.716C867.873 487.923 867.855 488.131 867.829 488.338L864.69 487.96L861.557 487.581C861.583 487.376 861.608 487.171 861.633 486.967L864.766 487.341ZM8.08028 474.681L1.79123 475.25C1.77246 475.042 1.75296 474.835 1.73448 474.627L8.02539 474.068C8.04358 474.272 8.06177 474.477 8.08028 474.681ZM869.263 474.627C869.244 474.835 869.225 475.042 869.206 475.25L862.922 474.681C862.941 474.477 862.96 474.272 862.972 474.068L869.263 474.627ZM7.10569 461.749L0.803089 462.128C0.790481 461.919 0.77778 461.71 0.765463 461.501L7.06868 461.13C7.08081 461.337 7.09325 461.543 7.10569 461.749ZM870.236 461.501C870.223 461.71 870.211 461.919 870.198 462.128L863.894 461.749C863.907 461.543 863.92 461.337 863.932 461.13L870.236 461.501ZM870.81 448.372C870.804 448.581 870.798 448.79 870.792 448.998L864.482 448.806C864.488 448.601 864.494 448.395 864.501 448.19L870.81 448.372ZM6.51848 448.806L3.36102 448.902L3.36164 448.903L0.206632 448.998C0.200287 448.789 0.194798 448.581 0.188745 448.372L6.49997 448.19C6.50597 448.395 6.51223 448.601 6.51848 448.806ZM0 435.5C0 435.395 0.000542404 435.29 0.000616813 435.185L6.31617 435.189V435.811L0.000616813 435.815C0.00054265 435.71 0 435.605 0 435.5ZM871 435.815L864.684 435.811V435.189L871 435.185C871 435.29 871 435.395 871 435.5C871 435.605 871 435.71 871 435.815ZM6.51848 422.194C6.51223 422.399 6.50597 422.605 6.49997 422.81L0.188745 422.627C0.194804 422.419 0.20028 422.21 0.206632 422.001L6.51848 422.194ZM870.81 422.627L864.501 422.81C864.494 422.605 864.488 422.399 864.482 422.194L870.792 422.002C870.798 422.21 870.804 422.419 870.81 422.627ZM7.10569 409.251C7.09325 409.457 7.08081 409.663 7.06868 409.87L0.765463 409.498C0.77778 409.289 0.790481 409.08 0.803089 408.871L7.10569 409.251ZM870.236 409.498L863.932 409.87C863.92 409.663 863.907 409.457 863.894 409.251L870.198 408.871C870.211 409.08 870.223 409.289 870.236 409.498ZM869.263 396.372L862.972 396.932C862.96 396.728 862.941 396.523 862.922 396.319L869.206 395.749C869.225 395.957 869.244 396.164 869.263 396.372ZM8.08028 396.319C8.06177 396.523 8.04358 396.728 8.02539 396.932L1.73448 396.372C1.75296 396.164 1.77246 395.957 1.79123 395.749L8.08028 396.319ZM6.30815 383.04L9.44343 383.419C9.41867 383.624 9.39385 383.829 9.36941 384.033L6.23414 383.658L3.09949 383.284C3.12428 383.076 3.14781 382.869 3.17289 382.661L6.30815 383.04ZM867.829 382.661C867.855 382.869 867.873 383.076 867.899 383.284L861.633 384.033C861.608 383.829 861.583 383.624 861.557 383.419L867.829 382.661ZM11.1914 370.593C11.1607 370.796 11.13 370.998 11.0995 371.201L7.97663 370.731L4.85494 370.263C4.88583 370.057 4.91629 369.852 4.94746 369.646L11.1914 370.593ZM866.143 370.263L863.023 370.732L859.903 371.201C859.871 370.998 859.839 370.796 859.808 370.593L866.055 369.646C866.086 369.852 866.111 370.057 866.143 370.263ZM13.3331 357.787C13.296 357.989 13.2593 358.191 13.2227 358.394L7.0095 357.267C7.0467 357.061 7.08359 356.856 7.1211 356.651L13.3331 357.787ZM863.989 357.267L857.78 358.394C857.742 358.191 857.704 357.989 857.667 357.787L863.875 356.651C863.913 356.856 863.951 357.061 863.989 357.267ZM12.7686 344.417L15.8571 345.08C15.8138 345.281 15.7705 345.483 15.7275 345.685L9.55138 344.369C9.59496 344.164 9.63886 343.96 9.68275 343.755L12.7686 344.417ZM861.45 344.369L858.361 345.027V345.027L855.273 345.685C855.229 345.483 855.184 345.281 855.14 345.08L861.317 343.755C861.362 343.96 861.406 344.164 861.45 344.369ZM18.7672 332.445C18.718 332.644 18.6692 332.844 18.6204 333.043L12.4862 331.541C12.5358 331.338 12.5867 331.136 12.6366 330.933L18.7672 332.445ZM858.513 331.541L852.38 333.043C852.329 332.844 852.279 332.644 852.235 332.445L858.361 330.933C858.412 331.136 858.462 331.338 858.513 331.541ZM22.0622 319.902C22.0069 320.1 21.9513 320.299 21.8963 320.498L15.8101 318.809L15.8096 318.808C15.8654 318.607 15.9231 318.406 15.9792 318.205L22.0622 319.902ZM855.191 318.808L849.102 320.498C849.051 320.299 848.994 320.1 848.938 319.902L855.02 318.205C855.077 318.406 855.134 318.607 855.191 318.808ZM25.7316 307.483C25.6702 307.68 25.6089 307.877 25.5478 308.073L19.5166 306.2C19.5786 306 19.6406 305.801 19.7029 305.602L25.7316 307.483ZM851.294 305.602C851.357 305.801 851.42 306 851.483 306.2L848.47 307.137V307.136L845.451 308.073C845.394 307.877 845.331 307.68 845.268 307.483L851.294 305.602ZM29.7853 295.157C29.7181 295.35 29.6512 295.546 29.5843 295.74L23.6129 293.684C23.6808 293.487 23.7482 293.289 23.8164 293.092L29.7853 295.157ZM847.182 293.092C847.251 293.289 847.321 293.487 847.384 293.684L841.415 295.74C841.352 295.546 841.282 295.35 841.213 295.157L847.182 293.092ZM28.3043 280.729L34.2079 282.974C34.1347 283.166 34.0612 283.359 33.9883 283.552L28.0823 281.315C28.1563 281.119 28.2294 280.923 28.3037 280.728L28.3043 280.729ZM842.697 280.728C842.773 280.923 842.843 281.12 842.918 281.315L837.013 283.552C836.937 283.359 836.867 283.166 836.792 282.974L842.697 280.728ZM837.834 268.507C837.916 268.699 837.992 268.893 838.074 269.085L832.238 271.501C832.162 271.311 832.08 271.12 832.004 270.93L837.834 268.507ZM33.1661 268.507L38.9986 270.93C38.9199 271.12 38.841 271.31 38.7624 271.5L32.9273 269.085L33.1661 268.507ZM44.1565 259.031C44.0717 259.218 43.9874 259.406 43.9029 259.594L38.1444 257.002C38.23 256.812 38.3144 256.621 38.4004 256.431L44.1565 259.031ZM832.857 257.002L827.096 259.594C827.014 259.406 826.926 259.218 826.844 259.031L832.598 256.431C832.686 256.621 832.768 256.812 832.857 257.002ZM49.6696 247.303C49.579 247.488 49.4883 247.674 49.3981 247.859L43.7204 245.095C43.8119 244.906 43.9024 244.718 43.9942 244.53L49.6696 247.303ZM827.279 245.095L824.444 246.477L821.601 247.859C821.513 247.674 821.424 247.488 821.33 247.303L827.008 244.53C827.096 244.718 827.185 244.906 827.279 245.095ZM49.9514 232.796L55.5391 235.74C55.4433 235.922 55.3473 236.104 55.2517 236.286L49.6609 233.35L49.9514 232.796ZM821.336 233.35L815.746 236.286C815.651 236.104 815.557 235.922 815.462 235.74L821.045 232.796C821.146 232.981 821.241 233.166 821.336 233.35ZM61.7554 224.362C61.654 224.541 61.553 224.721 61.4519 224.899L55.9518 221.796C56.0545 221.614 56.1566 221.432 56.2596 221.25L61.7554 224.362ZM815.045 221.796L809.55 224.899C809.449 224.72 809.348 224.541 809.247 224.362L814.742 221.25C814.843 221.432 814.944 221.614 815.045 221.796ZM68.31 213.182C68.2039 213.358 68.0972 213.533 67.9911 213.71L62.5874 210.442C62.6954 210.263 62.8024 210.083 62.9106 209.905L68.31 213.182ZM808.413 210.442L803.006 213.71C802.905 213.533 802.798 213.358 802.691 213.182L808.091 209.905C808.198 210.083 808.306 210.263 808.413 210.442ZM75.2054 202.196C75.0936 202.368 74.9818 202.541 74.87 202.714L69.5682 199.284C69.6813 199.108 69.7937 198.933 69.9074 198.758L75.2054 202.196ZM801.434 199.284L796.128 202.714C796.021 202.541 795.907 202.368 795.793 202.196L801.093 198.758C801.206 198.933 801.32 199.108 801.434 199.284ZM82.4254 191.428C82.3079 191.597 82.1917 191.767 82.0742 191.936L76.8779 188.348C76.9967 188.176 77.1141 188.003 77.2329 187.832L82.4254 191.428ZM794.12 188.348L791.524 190.142V190.141L788.928 191.936C788.808 191.767 788.694 191.597 788.574 191.428L793.766 187.832C793.886 188.003 794.006 188.176 794.12 188.348ZM84.8862 177.131L89.9669 180.882C89.845 181.047 89.7231 181.213 89.6012 181.379L84.5154 177.635C84.6386 177.467 84.7611 177.298 84.8856 177.13L84.8862 177.131ZM786.483 177.635L781.399 181.379C781.279 181.213 781.153 181.047 781.033 180.882L786.117 177.131C786.237 177.299 786.363 177.467 786.483 177.635ZM92.8585 166.664L97.8249 170.566C97.6979 170.727 97.5703 170.89 97.4434 171.051L92.4719 167.157C92.6008 166.993 92.7283 166.827 92.8578 166.663L92.8585 166.664ZM778.525 167.157L776.043 169.104V169.103L773.554 171.051C773.428 170.89 773.301 170.727 773.175 170.566L778.14 166.664C778.272 166.828 778.399 166.993 778.525 167.157ZM105.987 160.493C105.855 160.651 105.723 160.809 105.591 160.968L100.739 156.925C100.873 156.764 101.006 156.603 101.14 156.443L105.987 160.493ZM769.859 156.443C769.992 156.603 770.124 156.764 770.257 156.925L765.406 160.968C765.28 160.809 765.147 160.651 765.015 160.493L769.859 156.443ZM112.088 148.571L114.45 150.668C114.313 150.822 114.177 150.975 114.04 151.13L109.311 146.943C109.45 146.787 109.587 146.63 109.726 146.474L112.088 148.571ZM761.276 146.474C761.414 146.63 761.547 146.787 761.686 146.943L756.961 151.13C756.823 150.975 756.69 150.822 756.551 150.668L761.276 146.474ZM123.203 141.101C123.062 141.251 122.921 141.401 122.78 141.551L120.479 139.388L118.179 137.225C118.322 137.073 118.464 136.921 118.608 136.768L123.203 141.101ZM752.389 136.768C752.534 136.921 752.679 137.073 752.818 137.225L750.519 139.388L748.22 141.551C748.081 141.401 747.936 141.251 747.797 141.101L752.389 136.768ZM130.008 129.569L132.239 131.803C132.094 131.949 131.949 132.095 131.803 132.24L127.335 127.777C127.482 127.63 127.63 127.482 127.777 127.335L130.008 129.569ZM743.224 127.335C743.369 127.482 743.514 127.63 743.666 127.777L741.43 130.008V130.008L739.194 132.239C739.049 132.094 738.904 131.949 738.758 131.803L743.224 127.335ZM139.388 120.479L141.551 122.78C141.401 122.921 141.251 123.062 141.101 123.203L138.935 120.905L136.768 118.608C136.921 118.464 137.073 118.322 137.225 118.179L139.388 120.479ZM733.775 118.179C733.926 118.322 734.078 118.464 734.23 118.608L729.897 123.203C729.751 123.062 729.6 122.921 729.448 122.78L733.775 118.179ZM151.13 114.04C150.975 114.177 150.822 114.313 150.668 114.45L146.474 109.726C146.63 109.587 146.787 109.45 146.943 109.311L151.13 114.04ZM724.054 109.311C724.212 109.45 724.37 109.587 724.528 109.726L720.334 114.45C720.176 114.313 720.025 114.177 719.873 114.04L724.054 109.311ZM160.968 105.591C160.809 105.723 160.651 105.855 160.493 105.987L156.443 101.14C156.603 101.006 156.764 100.873 156.925 100.739L160.968 105.591ZM714.075 100.739C714.233 100.873 714.397 101.006 714.555 101.14L710.506 105.987C710.348 105.855 710.19 105.723 710.032 105.591L714.075 100.739ZM169.104 94.9573L171.051 97.4434C170.89 97.5703 170.727 97.6979 170.566 97.8249L166.664 92.8585L166.663 92.8578C166.827 92.7283 166.993 92.6008 167.157 92.4719L169.104 94.9573ZM704.335 92.8578L700.432 97.8249C700.274 97.6979 700.11 97.5703 699.945 97.4434L703.843 92.4719C704.007 92.6008 704.171 92.7283 704.335 92.8578ZM181.379 89.6012C181.213 89.7231 181.047 89.845 180.882 89.9669L177.131 84.8862L177.13 84.8856C177.298 84.7611 177.467 84.6386 177.635 84.5154L181.379 89.6012ZM693.869 84.8856L690.117 89.9669C689.953 89.845 689.789 89.7231 689.619 89.6012L693.364 84.5154C693.535 84.6386 693.699 84.7611 693.869 84.8856ZM190.142 79.4751L191.936 82.0742C191.767 82.1917 191.597 82.3079 191.428 82.4254L187.832 77.2329C188.003 77.1141 188.176 76.9967 188.348 76.8779L190.142 79.4751ZM683.17 77.2329L679.57 82.4254C679.405 82.3079 679.235 82.1917 679.064 82.0742L682.652 76.8779C682.822 76.9967 682.993 77.1141 683.17 77.2329ZM202.714 74.87C202.541 74.9818 202.368 75.0936 202.196 75.2054L198.758 69.9074C198.933 69.7937 199.108 69.6813 199.284 69.5682L202.714 74.87ZM672.243 69.9074L668.807 75.2054C668.63 75.0936 668.459 74.9818 668.289 74.87L671.719 69.5682C671.889 69.6813 672.066 69.7937 672.243 69.9074ZM213.71 67.9911C213.533 68.0972 213.358 68.2039 213.182 68.31L209.905 62.9106C210.083 62.8024 210.263 62.6954 210.442 62.5874L213.71 67.9911ZM661.095 62.9106L657.817 68.31C657.64 68.2039 657.469 68.0972 657.292 67.9911L660.558 62.5874C660.735 62.6954 660.918 62.8024 661.095 62.9106ZM224.899 61.4513C224.72 61.5525 224.541 61.6539 224.362 61.7554L221.25 56.2596C221.432 56.1566 221.614 56.0545 221.796 55.9518L224.899 61.4513ZM649.751 56.2596L646.637 61.7554C646.46 61.654 646.277 61.553 646.1 61.4519L649.201 55.9518C649.385 56.0545 649.568 56.1566 649.751 56.2596ZM236.286 55.2517C236.104 55.3473 235.922 55.4433 235.74 55.5391L234.267 52.7443L232.796 49.9514C232.981 49.8542 233.166 49.7579 233.35 49.6609L236.286 55.2517ZM638.205 49.9514L635.262 55.5391C635.078 55.4433 634.895 55.3473 634.712 55.2517L637.649 49.6609C637.832 49.7579 638.022 49.8542 638.205 49.9514ZM626.469 43.9942L623.697 49.6696C623.512 49.579 623.326 49.4883 623.141 49.3981L625.905 43.7204C626.093 43.8119 626.281 43.9024 626.469 43.9942ZM247.859 49.3981C247.674 49.4883 247.488 49.5785 247.303 49.6689L244.53 43.9942C244.718 43.9024 244.906 43.8119 245.095 43.7204L247.859 49.3981ZM259.594 43.9029C259.406 43.9874 259.218 44.0717 259.031 44.1565L256.431 38.4004C256.621 38.3144 256.812 38.23 257.002 38.1444L259.594 43.9029ZM614.569 38.4004L611.969 44.1565C611.782 44.0717 611.594 43.9874 611.406 43.9029L613.997 38.1444C614.187 38.23 614.378 38.3144 614.569 38.4004ZM271.501 38.7624C271.311 38.841 271.12 38.9198 270.93 38.9986L268.507 33.1661C268.699 33.086 268.893 33.0071 269.085 32.9273L271.501 38.7624ZM602.493 33.1661L600.07 38.9986C599.88 38.9199 599.69 38.841 599.5 38.7624L601.914 32.9273C602.107 33.0071 602.3 33.086 602.493 33.1661ZM283.552 33.9883C283.359 34.0612 283.166 34.1347 282.974 34.2079L280.729 28.3043L280.728 28.3037C280.923 28.2294 281.12 28.1564 281.315 28.0823L283.552 33.9883ZM589.685 28.0823C589.88 28.1563 590.076 28.2294 590.271 28.3037L588.026 34.2079C587.834 34.1347 587.641 34.0612 587.448 33.9883L589.685 28.0823ZM295.74 29.5843C295.546 29.6512 295.35 29.7181 295.157 29.7853L293.092 23.8164C293.289 23.7482 293.487 23.6808 293.684 23.6129L295.74 29.5843ZM577.315 23.6129C577.513 23.6808 577.711 23.7482 577.908 23.8164L575.843 29.7853C575.65 29.7181 575.454 29.6512 575.26 29.5843L577.315 23.6129ZM307.137 22.5316L308.073 25.5478C307.877 25.6089 307.68 25.6702 307.483 25.7316L305.602 19.7029C305.801 19.6406 306 19.5786 306.2 19.5166L307.137 22.5316ZM564.8 19.5166C564.999 19.5786 565.199 19.6406 565.398 19.7029L563.517 25.7316C563.32 25.6702 563.123 25.6089 562.927 25.5478L564.8 19.5166ZM318.809 15.8102L320.498 21.8963C320.299 21.9513 320.1 22.0069 319.902 22.0622L318.205 15.9792C318.406 15.9231 318.607 15.8654 318.808 15.8096L318.809 15.8102ZM552.794 15.9792L551.098 22.0622C550.9 22.0069 550.701 21.9513 550.502 21.8963L552.191 15.8102C552.393 15.866 552.594 15.9231 552.794 15.9792ZM333.043 18.6204C332.844 18.6692 332.644 18.718 332.445 18.7672L330.933 12.6366C331.136 12.5867 331.338 12.5358 331.541 12.4862L333.043 18.6204ZM540.066 12.6366L538.555 18.7672C538.356 18.718 538.156 18.6692 537.957 18.6204L539.458 12.4862C539.661 12.5358 539.863 12.5867 540.066 12.6366ZM345.685 15.7275C345.483 15.7705 345.281 15.8138 345.08 15.8571L343.755 9.68275C343.96 9.63892 344.164 9.5949 344.369 9.55138L345.685 15.7275ZM527.244 9.68275L525.92 15.8571C525.719 15.8138 525.517 15.7705 525.315 15.7275L526.63 9.55138C526.835 9.59496 527.04 9.63886 527.244 9.68275ZM358.394 13.2227C358.191 13.2593 357.989 13.296 357.787 13.3331L356.651 7.1211C356.856 7.08359 357.061 7.0467 357.267 7.0095L358.394 13.2227ZM514.349 7.1211L513.213 13.3331C513.011 13.296 512.809 13.2593 512.606 13.2227L513.733 7.0095C513.938 7.0467 514.143 7.08359 514.349 7.1211ZM371.201 11.0995C370.998 11.13 370.796 11.1607 370.593 11.1915L369.646 4.94746C369.852 4.91628 370.057 4.88583 370.263 4.85494L371.201 11.0995ZM501.354 4.94746L500.407 11.1915C500.204 11.1607 500.002 11.13 499.799 11.0995L500.737 4.85494C500.942 4.88583 501.148 4.91629 501.354 4.94746ZM384.033 9.36941C383.829 9.39385 383.624 9.41867 383.419 9.44343L382.661 3.17289C382.869 3.14778 383.076 3.1243 383.284 3.09949L384.033 9.36941ZM487.716 3.09949C487.923 3.12428 488.131 3.14781 488.338 3.17289L487.96 6.30815L487.96 6.30754L487.581 9.44343C487.376 9.41867 487.171 9.39385 486.967 9.36941L487.716 3.09949ZM396.932 8.02539C396.728 8.04358 396.523 8.06177 396.319 8.08028L395.749 1.79123C395.957 1.77246 396.164 1.75296 396.372 1.73448L396.932 8.02539ZM475.25 1.79123L474.681 8.08028C474.477 8.06177 474.272 8.04358 474.068 8.02539L474.627 1.73448C474.835 1.75296 475.042 1.77246 475.25 1.79123ZM409.87 7.06868C409.663 7.08081 409.457 7.09325 409.251 7.10569L408.871 0.803089C409.08 0.790481 409.289 0.77778 409.498 0.765463L409.87 7.06868ZM462.128 0.803089L461.749 7.10569C461.543 7.09325 461.337 7.08081 461.13 7.06868L461.501 0.765463C461.71 0.77778 461.919 0.790481 462.128 0.803089ZM422.81 6.49997C422.605 6.50597 422.399 6.51223 422.194 6.51848L422.002 0.206632C422.21 0.200287 422.419 0.194798 422.627 0.188745L422.81 6.49997ZM448.998 0.206632L448.806 6.51848C448.601 6.51223 448.395 6.50597 448.19 6.49997L448.372 0.188745C448.581 0.194803 448.79 0.20028 448.998 0.206632ZM435.815 0.000616814L435.811 6.31617H435.189L435.185 0.000616814C435.29 0.000542359 435.395 0 435.5 0C435.605 0 435.71 0.000542695 435.815 0.000616814Z"
          fill="#0205FA"
        />
      </svg>