<svg width="990" height="990" viewBox="0 0 990 990" fill="none" xmlns="http://www.w3.org/2000/svg">
<path d="M494.814 979.243V989.627C494.641 989.627 494.469 989.627 494.297 989.627L494.308 979.243C494.476 979.243 494.645 979.243 494.814 979.243ZM495.319 979.243L495.325 984.435L495.331 989.191L495.33 989.627C495.157 989.627 494.986 989.627 494.814 989.627V979.243C494.982 979.243 495.151 979.243 495.319 979.243ZM474.155 978.807L473.937 983.999L473.721 989.181C473.379 989.17 473.038 989.16 472.697 989.139L473.154 978.765C473.487 978.786 473.822 978.796 474.155 978.807ZM516.929 989.139C516.589 989.16 516.247 989.17 515.906 989.181L515.472 978.807C515.806 978.796 516.14 978.786 516.473 978.765L516.929 989.139ZM453.048 977.467L452.605 982.639L452.165 987.81C451.824 987.779 451.483 987.758 451.142 987.727L452.047 977.384C452.381 977.415 452.715 977.436 453.048 977.467ZM538.484 987.727C538.143 987.758 537.803 987.779 537.461 987.81L537.021 982.639L536.579 977.467C536.913 977.436 537.246 977.415 537.581 977.384L538.484 987.727ZM432.029 975.214L430.697 985.505C430.357 985.463 430.016 985.422 429.677 985.38L431.031 975.079C431.363 975.131 431.697 975.172 432.029 975.214ZM559.949 985.38C559.61 985.422 559.269 985.463 558.93 985.505L557.599 975.214C557.932 975.172 558.264 975.131 558.596 975.079L559.949 985.38ZM411.134 972.047L409.353 982.275C409.014 982.213 408.677 982.151 408.339 982.099L410.142 971.87C410.472 971.932 410.803 971.984 411.134 972.047ZM581.287 982.099C580.95 982.151 580.612 982.213 580.275 982.275L579.384 977.156L578.494 972.047C578.824 971.984 579.155 971.932 579.485 971.87L581.287 982.099ZM390.4 967.966L388.174 978.101C387.838 978.028 387.503 977.955 387.168 977.883L389.417 967.748C389.745 967.82 390.072 967.893 390.4 967.966ZM602.459 977.883C602.124 977.955 601.789 978.028 601.453 978.101L600.34 973.033L599.227 967.966C599.555 967.893 599.882 967.82 600.21 967.748L602.459 977.883ZM369.869 962.981L367.197 973.012C366.866 972.919 366.535 972.836 366.203 972.742L368.894 962.721C369.219 962.805 369.544 962.898 369.869 962.981ZM623.425 972.742C623.092 972.836 622.76 972.919 622.429 973.012L619.758 962.981C620.083 962.888 620.408 962.805 620.733 962.721L623.425 972.742ZM349.576 957.093L346.467 967C346.139 966.896 345.811 966.792 345.484 966.699L348.615 956.792C348.934 956.896 349.255 957 349.576 957.093ZM644.142 966.699C643.815 966.792 643.487 966.896 643.159 967L640.051 957.093C640.372 957 640.693 956.896 641.014 956.792L644.142 966.699ZM329.555 950.323L326.013 960.084C325.692 959.97 325.37 959.855 325.049 959.731L328.611 949.98C328.926 950.094 329.241 950.208 329.555 950.323ZM664.577 959.731C664.257 959.855 663.935 959.97 663.614 960.084L661.844 955.203L660.073 950.323C660.387 950.208 660.701 950.094 661.016 949.98L664.577 959.731ZM309.848 942.68L305.88 952.275C305.563 952.14 305.247 952.015 304.931 951.88L308.918 942.296C309.228 942.42 309.538 942.555 309.848 942.68ZM680.709 942.296L684.695 951.88C684.38 952.015 684.063 952.14 683.746 952.275L679.78 942.68C680.09 942.555 680.399 942.42 680.709 942.296ZM290.496 934.175L286.11 943.594C285.8 943.448 285.49 943.303 285.18 943.157L289.584 933.749C289.888 933.894 290.192 934.04 290.496 934.175ZM704.446 943.157C704.136 943.303 703.826 943.448 703.516 943.594L699.132 934.175C699.435 934.04 699.739 933.894 700.043 933.749L704.446 943.157ZM271.536 924.839L266.743 934.05C266.439 933.884 266.137 933.728 265.833 933.573L270.644 924.372C270.941 924.528 271.239 924.684 271.536 924.839ZM718.983 924.372L723.793 933.573C723.49 933.728 723.187 933.884 722.884 934.04L720.487 929.44L718.091 924.839C718.388 924.684 718.686 924.528 718.983 924.372ZM253.004 914.673L247.813 923.666C247.516 923.489 247.22 923.323 246.923 923.147L252.133 914.164C252.422 914.33 252.713 914.507 253.004 914.673ZM742.704 923.147C742.407 923.323 742.11 923.489 741.813 923.666L739.218 919.17L736.623 914.673C736.914 914.507 737.205 914.33 737.495 914.164L742.704 923.147ZM234.932 903.707L229.355 912.461C229.066 912.274 228.776 912.098 228.487 911.911L234.084 903.167C234.366 903.344 234.65 903.531 234.932 903.707ZM761.14 911.911C760.851 912.098 760.56 912.274 760.272 912.461L754.695 903.707C754.978 903.531 755.261 903.344 755.544 903.167L761.14 911.911ZM217.357 891.963L211.402 900.467C211.122 900.28 210.84 900.083 210.56 899.886L216.532 891.391C216.806 891.578 217.081 891.776 217.357 891.963ZM779.067 899.886C778.787 900.083 778.505 900.27 778.224 900.467L772.271 891.963C772.546 891.776 772.821 891.578 773.095 891.391L779.067 899.886ZM200.307 879.47L193.988 887.715C193.716 887.508 193.444 887.29 193.172 887.082L199.507 878.858C199.773 879.065 200.04 879.263 200.307 879.47ZM790.12 878.858L796.455 887.082C796.183 887.29 795.912 887.508 795.64 887.715L789.321 879.47C789.588 879.263 789.854 879.065 790.12 878.858ZM183.814 866.251L177.144 874.205C176.882 873.987 176.619 873.759 176.357 873.541L183.044 865.597C183.3 865.815 183.557 866.033 183.814 866.251ZM813.269 873.541C813.007 873.759 812.745 873.987 812.482 874.205L805.813 866.251C806.071 866.033 806.327 865.815 806.584 865.597L813.269 873.541ZM167.911 852.315L160.902 859.979C160.65 859.75 160.396 859.512 160.144 859.283L167.168 851.64C167.415 851.869 167.663 852.087 167.911 852.315ZM829.48 859.283C829.231 859.512 828.982 859.75 828.722 859.979L825.222 856.147L821.713 852.315C821.962 852.087 822.211 851.869 822.46 851.64L829.48 859.283ZM152.627 837.715L145.291 845.067C145.048 844.818 144.806 844.579 144.564 844.33L151.915 836.998C152.151 837.237 152.389 837.476 152.627 837.715ZM845.067 844.33C844.818 844.579 844.579 844.818 844.33 845.067L836.998 837.715C837.237 837.476 837.476 837.237 837.715 836.998L845.067 844.33ZM137.99 822.46L130.343 829.48C130.111 829.231 129.88 828.982 129.649 828.722L137.31 821.713C137.536 821.962 137.763 822.211 137.99 822.46ZM859.979 828.722C859.75 828.982 859.512 829.231 859.283 829.48L851.64 822.46C851.869 822.211 852.087 821.962 852.315 821.713L859.979 828.722ZM124.027 806.584L116.084 813.269C115.864 813.007 115.643 812.745 115.423 812.482L123.38 805.813C123.596 806.071 123.811 806.327 124.027 806.584ZM874.205 812.482C873.987 812.745 873.759 813.007 873.541 813.269L865.597 806.584C865.815 806.327 866.033 806.071 866.251 805.813L874.205 812.482ZM110.77 790.12L102.543 796.455C102.335 796.183 102.124 795.912 101.915 795.64L110.156 789.321C110.361 789.588 110.565 789.854 110.77 790.12ZM887.715 795.64C887.508 795.912 887.29 796.183 887.082 796.455L878.858 790.12C879.065 789.854 879.263 789.588 879.47 789.321L887.715 795.64ZM98.24 773.095L89.7446 779.067C89.5473 778.787 89.351 778.505 89.1537 778.224L97.6616 772.271C97.8537 772.546 98.0468 772.821 98.24 773.095ZM900.467 778.224C900.28 778.504 900.083 778.786 899.886 779.066L895.639 776.082L891.391 773.095C891.578 772.821 891.776 772.546 891.963 772.271L900.467 778.224ZM86.4621 755.544L77.7153 761.14C77.5305 760.851 77.3467 760.56 77.1629 760.272L85.92 754.695C86.1007 754.978 86.2814 755.261 86.4621 755.544ZM912.461 760.272C912.274 760.56 912.098 760.851 911.911 761.14L903.167 755.544C903.344 755.261 903.531 754.978 903.707 754.695L912.461 760.272ZM75.4609 737.495L66.4795 742.704C66.3071 742.407 66.1358 742.11 65.9634 741.813L74.9573 736.623C75.1245 736.914 75.2927 737.205 75.4609 737.495ZM923.666 741.813C923.489 742.11 923.323 742.406 923.147 742.703L918.661 740.1L914.164 737.495C914.33 737.205 914.507 736.914 914.673 736.623L923.666 741.813ZM65.2583 718.983L60.656 721.388L60.657 721.389L56.0578 723.793C55.8999 723.49 55.74 723.187 55.5811 722.884L64.7931 718.091C64.9478 718.388 65.1025 718.686 65.2583 718.983ZM934.05 722.883C933.884 723.187 933.728 723.489 933.573 723.793L924.372 718.983C924.528 718.686 924.684 718.388 924.839 718.091L934.05 722.883ZM55.8761 700.043L46.473 704.446C46.3276 704.136 46.1812 703.826 46.0369 703.516L55.4492 699.132C55.5915 699.435 55.7338 699.739 55.8761 700.043ZM943.594 703.516C943.448 703.826 943.303 704.136 943.157 704.446L933.749 700.043C933.894 699.739 934.04 699.435 934.175 699.132L943.594 703.516ZM47.3318 680.709L37.7429 684.695C37.611 684.38 37.4823 684.063 37.3514 683.746L46.9466 679.78C47.0743 680.09 47.203 680.399 47.3318 680.709ZM952.275 683.746C952.14 684.063 952.015 684.38 951.88 684.695L942.296 680.709C942.42 680.399 942.555 680.089 942.68 679.779L952.275 683.746ZM39.6443 661.016L34.7657 662.797L34.7668 662.798L29.8903 664.577C29.7729 664.257 29.6577 663.935 29.5414 663.614L39.3016 660.073C39.4158 660.387 39.529 660.701 39.6443 661.016ZM960.084 663.613C959.97 663.934 959.855 664.256 959.731 664.577L949.98 661.016C950.094 660.701 950.208 660.387 950.323 660.072L960.084 663.613ZM32.8332 641.014L22.9328 644.142C22.8289 643.815 22.7272 643.487 22.6244 643.159L32.53 640.051C32.6307 640.372 32.7325 640.693 32.8332 641.014ZM967 643.159C966.896 643.487 966.792 643.815 966.699 644.142L961.745 642.579L956.792 641.013C956.896 640.693 957 640.372 957.093 640.051L967 643.159ZM26.9079 620.733L16.8829 623.425H16.8808C16.7915 623.092 16.7022 622.76 16.6139 622.429L26.6483 619.758C26.7345 620.083 26.8207 620.408 26.9079 620.733ZM973.012 622.429C972.919 622.76 972.836 623.091 972.742 623.424L962.721 620.733C962.805 620.408 962.898 620.083 962.981 619.758L973.012 622.429ZM21.8798 600.21L16.8102 601.334L16.8112 601.335L11.7447 602.459C11.6699 602.124 11.5962 601.789 11.5225 601.453L21.6628 599.227C21.7354 599.555 21.8071 599.882 21.8798 600.21ZM978.101 601.453C978.028 601.788 977.955 602.123 977.883 602.459L972.815 601.335L967.748 600.21C967.82 599.882 967.893 599.555 967.966 599.227L978.101 601.453ZM17.7572 579.485L7.5328 581.287C7.4736 580.95 7.41441 580.612 7.35522 580.275L17.5838 578.494C17.6409 578.824 17.6991 579.155 17.7572 579.485ZM982.275 580.274C982.213 580.612 982.151 580.95 982.099 581.287L971.87 579.485C971.932 579.155 971.984 578.824 972.047 578.494L982.275 580.274ZM14.5453 558.596L9.39575 559.272L9.39678 559.273L4.25134 559.949C4.20669 559.61 4.16205 559.269 4.11843 558.93L14.4145 557.599C14.4571 557.932 14.5017 558.264 14.5453 558.596ZM985.505 558.93C985.463 559.269 985.422 559.61 985.38 559.949L980.229 559.273L975.079 558.596C975.131 558.264 975.172 557.931 975.214 557.598L985.505 558.93ZM12.2452 537.581L7.07278 538.031L7.07381 538.032L1.90241 538.484C1.8723 538.143 1.84321 537.803 1.81414 537.461L12.159 536.579C12.1871 536.913 12.2161 537.246 12.2452 537.581ZM982.639 537.021L987.81 537.461C987.779 537.803 987.758 538.143 987.727 538.484L982.555 538.032L977.384 537.581C977.415 537.246 977.436 536.913 977.467 536.579L982.639 537.021ZM10.8599 516.473L0.485989 516.929C0.470413 516.589 0.457951 516.247 0.443413 515.906L10.8163 515.472C10.8309 515.806 10.8454 516.14 10.8599 516.473ZM983.999 515.689L989.181 515.906C989.17 516.247 989.16 516.589 989.139 516.929L978.765 516.473C978.786 516.14 978.796 515.806 978.807 515.472L983.999 515.689ZM0 494.814C0 494.641 0.00104579 494.469 0.00104579 494.297L10.3843 494.308V495.319L0.00104579 495.33C0.00104579 495.157 0 494.986 0 494.814ZM989.627 495.33L979.243 495.319V494.308L989.627 494.297C989.627 494.469 989.627 494.641 989.627 494.814C989.627 494.986 989.627 495.157 989.627 495.33ZM10.8599 473.154C10.8454 473.487 10.8309 473.822 10.8163 474.155L5.62935 473.937L0.443413 473.721C0.457951 473.379 0.470413 473.038 0.485989 472.697L10.8599 473.154ZM989.181 473.721L978.807 474.155C978.796 473.822 978.786 473.487 978.765 473.154L989.139 472.697C989.16 473.038 989.17 473.379 989.181 473.721ZM12.2452 452.047C12.2161 452.381 12.1871 452.715 12.159 453.048L6.98658 452.605L1.81414 452.165C1.84321 451.824 1.8723 451.483 1.90241 451.142L12.2452 452.047ZM987.81 452.165L982.639 452.606L977.467 453.048C977.436 452.715 977.415 452.381 977.384 452.047L987.727 451.142C987.758 451.483 987.779 451.824 987.81 452.165ZM9.39678 430.354L14.5453 431.031C14.5017 431.363 14.4571 431.697 14.4145 432.029L4.11843 430.697C4.16205 430.357 4.20669 430.016 4.25134 429.677L9.39678 430.354ZM985.505 430.697L975.214 432.028C975.172 431.696 975.131 431.363 975.079 431.031L985.38 429.677C985.422 430.016 985.463 430.357 985.505 430.697ZM17.7572 410.142C17.6991 410.472 17.6409 410.803 17.5838 411.134L7.35419 409.353C7.41338 409.014 7.4736 408.677 7.5328 408.339L17.7572 410.142ZM982.275 409.352L977.156 410.244L972.047 411.134C971.984 410.803 971.932 410.472 971.87 410.142L982.099 408.339C982.151 408.677 982.213 409.014 982.275 409.352ZM21.8798 389.417C21.8071 389.745 21.7354 390.072 21.6628 390.4L11.5225 388.174C11.5962 387.838 11.6699 387.503 11.7447 387.168L21.8798 389.417ZM978.101 388.173L973.033 389.287V389.286L967.966 390.4C967.893 390.072 967.82 389.745 967.748 389.417L977.883 387.168C977.955 387.502 978.028 387.837 978.101 388.173ZM26.9079 368.894C26.8207 369.219 26.7334 369.544 26.6472 369.869L16.6139 367.197C16.7022 366.866 16.7915 366.535 16.8808 366.203L26.9079 368.894ZM973.012 367.197L962.981 369.869C962.888 369.544 962.805 369.219 962.721 368.894L972.742 366.202C972.836 366.534 972.919 366.866 973.012 367.197ZM27.883 347.049L32.8332 348.615C32.7325 348.934 32.6307 349.255 32.53 349.576L22.6244 346.467C22.7272 346.139 22.8289 345.811 22.9328 345.484L27.883 347.049ZM967 346.467L957.093 349.576C957 349.255 956.896 348.934 956.792 348.614L966.699 345.484C966.792 345.811 966.896 346.139 967 346.467ZM39.6443 328.611C39.529 328.926 39.4158 329.241 39.3016 329.555L29.5403 326.013C29.6577 325.692 29.7729 325.37 29.8903 325.049L39.6443 328.611ZM960.084 326.012L955.203 327.784L950.323 329.554C950.208 329.241 950.094 328.926 949.98 328.611L959.731 325.049C959.855 325.369 959.97 325.691 960.084 326.012ZM37.7439 304.932L47.3318 308.918C47.203 309.228 47.0743 309.538 46.9466 309.848L37.3514 305.88C37.4823 305.563 37.611 305.247 37.7429 304.931L37.7439 304.932ZM951.88 304.931C952.015 305.247 952.14 305.563 952.275 305.88L942.68 309.847C942.555 309.537 942.42 309.228 942.296 308.918L951.88 304.931ZM55.8761 289.584C55.7338 289.888 55.5915 290.192 55.4492 290.496L46.0369 286.11C46.1812 285.8 46.3276 285.49 46.473 285.18L55.8761 289.584ZM943.157 285.18C943.303 285.49 943.448 285.8 943.594 286.11L934.175 290.496C934.04 290.192 933.894 289.888 933.749 289.584L943.157 285.18ZM65.2583 270.644C65.1025 270.941 64.9478 271.239 64.7931 271.536L55.5801 266.743C55.739 266.439 55.8989 266.137 56.0578 265.833L65.2583 270.644ZM934.04 266.742L929.44 269.14L924.839 271.536C924.684 271.239 924.528 270.941 924.372 270.644L933.573 265.833C933.728 266.136 933.884 266.439 934.04 266.742ZM70.9697 249.527L75.4609 252.133C75.2927 252.422 75.1245 252.713 74.9573 253.004L65.9634 247.813C66.1347 247.516 66.3071 247.22 66.4795 246.923L70.9697 249.527ZM923.666 247.813L919.17 250.409L914.673 253.004C914.507 252.713 914.33 252.422 914.164 252.133L923.147 246.922C923.323 247.219 923.489 247.516 923.666 247.813ZM86.4621 234.084C86.2814 234.366 86.1007 234.65 85.92 234.932L77.1629 229.355C77.3467 229.066 77.5305 228.776 77.7153 228.487L86.4621 234.084ZM912.461 229.355L903.707 234.932C903.531 234.65 903.344 234.366 903.167 234.084L911.911 228.487C912.098 228.776 912.274 229.066 912.461 229.355ZM98.24 216.532C98.0468 216.806 97.8526 217.081 97.6605 217.357L89.1537 211.402C89.351 211.122 89.5473 210.84 89.7446 210.56L98.24 216.532ZM899.886 210.559C900.083 210.839 900.27 211.121 900.467 211.402L891.963 217.357C891.776 217.081 891.578 216.806 891.391 216.532L899.886 210.559ZM110.77 199.507C110.565 199.773 110.361 200.04 110.156 200.307L101.916 193.988L101.915 193.987C102.124 193.715 102.335 193.444 102.543 193.172L110.77 199.507ZM887.715 193.987L879.47 200.307C879.263 200.04 879.065 199.773 878.858 199.507L887.082 193.172C887.29 193.444 887.508 193.715 887.715 193.987ZM124.028 183.044C123.811 183.3 123.596 183.557 123.38 183.814L115.423 177.144C115.643 176.882 115.864 176.619 116.084 176.357L124.028 183.044ZM874.205 177.144L866.251 183.814C866.033 183.557 865.815 183.3 865.597 183.044L873.541 176.357C873.759 176.619 873.987 176.882 874.205 177.144ZM137.99 167.168C137.763 167.415 137.536 167.663 137.31 167.911L129.649 160.902C129.88 160.65 130.111 160.396 130.343 160.144L137.99 167.168ZM859.979 160.902L852.315 167.911C852.087 167.663 851.869 167.415 851.64 167.168L859.283 160.144C859.512 160.396 859.75 160.65 859.979 160.902ZM152.627 151.915C152.389 152.151 152.151 152.389 151.915 152.627L144.564 145.291C144.806 145.048 145.048 144.806 145.291 144.564L152.627 151.915ZM844.33 144.564C844.579 144.806 844.818 145.048 845.067 145.291L837.715 152.627C837.476 152.389 837.237 152.151 836.998 151.915L844.33 144.564ZM167.911 137.31C167.663 137.536 167.415 137.763 167.168 137.99L160.144 130.343C160.396 130.111 160.65 129.88 160.902 129.649L167.911 137.31ZM829.48 130.343L822.46 137.99C822.211 137.763 821.962 137.536 821.713 137.31L828.722 129.649C828.982 129.88 829.231 130.111 829.48 130.343ZM183.814 123.38C183.557 123.596 183.3 123.811 183.044 124.028L176.357 116.084C176.619 115.864 176.882 115.643 177.144 115.423L183.814 123.38ZM813.269 116.084L806.584 124.028C806.327 123.811 806.071 123.596 805.813 123.38L812.482 115.423C812.745 115.643 813.007 115.864 813.269 116.084ZM193.988 101.916L200.307 110.156C200.04 110.361 199.773 110.565 199.507 110.77L193.172 102.543C193.444 102.335 193.715 102.124 193.987 101.915L193.988 101.916ZM796.455 102.543L790.12 110.77C789.854 110.565 789.588 110.361 789.321 110.156L795.64 101.916C795.912 102.125 796.183 102.335 796.455 102.543ZM217.357 97.6616C217.081 97.8537 216.806 98.0468 216.532 98.24L210.559 89.7446C210.839 89.5473 211.121 89.351 211.402 89.1537L217.357 97.6616ZM778.224 89.1537C778.504 89.351 778.786 89.5473 779.066 89.7446L773.095 98.24C772.821 98.0468 772.546 97.8526 772.271 97.6605L778.224 89.1537ZM234.932 85.92C234.65 86.1007 234.366 86.2814 234.084 86.4621L228.487 77.7153C228.776 77.5305 229.066 77.3467 229.355 77.1629L234.932 85.92ZM761.14 77.7153L755.544 86.4621C755.261 86.2814 754.978 86.1007 754.695 85.92L760.272 77.1629C760.56 77.3467 760.851 77.5305 761.14 77.7153ZM250.409 70.4598L253.004 74.9573C252.713 75.1245 252.422 75.2927 252.133 75.4609L246.922 66.4795C247.219 66.3071 247.516 66.1358 247.813 65.9634L250.409 70.4598ZM742.703 66.4795L740.1 70.9697L740.099 70.9686L737.495 75.4609C737.205 75.2927 736.914 75.1245 736.623 74.9573L741.813 65.9634C742.11 66.1347 742.406 66.3071 742.703 66.4795ZM269.14 60.1866L271.536 64.7931C271.239 64.9478 270.941 65.1025 270.644 65.2583L268.238 60.656L265.833 56.0578C266.136 55.8999 266.439 55.74 266.742 55.5811L269.14 60.1866ZM723.793 56.0578L718.983 65.2583C718.686 65.1025 718.388 64.9478 718.091 64.7931L722.883 55.5801C723.187 55.739 723.489 55.8989 723.793 56.0578ZM290.496 55.4492C290.192 55.5915 289.888 55.7338 289.584 55.8761L285.18 46.473C285.49 46.3276 285.8 46.1812 286.11 46.0369L290.496 55.4492ZM703.516 46.0369C703.826 46.1812 704.136 46.3276 704.446 46.473L700.043 55.8761C699.739 55.7338 699.435 55.5915 699.132 55.4492L703.516 46.0369ZM309.847 46.9466C309.537 47.0743 309.228 47.203 308.918 47.3318L304.932 37.7439L304.931 37.7429C305.247 37.611 305.563 37.4823 305.88 37.3514L309.847 46.9466ZM683.746 37.3514C684.063 37.4823 684.38 37.611 684.695 37.7429L680.709 47.3318C680.399 47.203 680.089 47.0743 679.779 46.9466L683.746 37.3514ZM329.554 39.3016C329.241 39.4158 328.926 39.529 328.611 39.6443L326.829 34.7657L325.049 29.8903C325.369 29.7729 325.691 29.6577 326.012 29.5414L329.554 39.3016ZM664.577 29.8903L661.016 39.6443C660.701 39.529 660.387 39.4158 660.072 39.3016L663.613 29.5403C663.934 29.6577 664.256 29.7729 664.577 29.8903ZM349.576 32.53C349.255 32.6307 348.934 32.7325 348.614 32.8332L345.484 22.9328C345.811 22.8289 346.139 22.7272 346.467 22.6244L349.576 32.53ZM644.142 22.9328L641.013 32.8332C640.693 32.7325 640.372 32.6307 640.051 32.53L643.159 22.6244C643.487 22.7272 643.815 22.8289 644.142 22.9328ZM369.869 26.6483C369.544 26.7345 369.219 26.8207 368.894 26.9079L366.202 16.8808C366.534 16.7915 366.866 16.7022 367.197 16.6139L369.869 26.6483ZM623.424 16.8808L620.733 26.9079C620.408 26.8207 620.083 26.7334 619.758 26.6472L622.429 16.6139C622.76 16.7022 623.091 16.7915 623.424 16.8808ZM390.4 21.6628C390.072 21.7354 389.745 21.8071 389.417 21.8798L387.168 11.7447C387.502 11.6699 387.837 11.5962 388.173 11.5225L390.4 21.6628ZM602.459 11.7447L600.21 21.8798C599.882 21.8071 599.555 21.7354 599.227 21.6628L601.453 11.5225C601.788 11.5962 602.123 11.6699 602.459 11.7447ZM411.134 17.5838C410.803 17.6409 410.472 17.6991 410.142 17.7572L408.339 7.5328C408.677 7.4736 409.014 7.41441 409.352 7.35522L411.134 17.5838ZM581.287 7.5328L579.485 17.7572C579.155 17.6991 578.824 17.6409 578.494 17.5838L580.274 7.35419C580.612 7.41338 580.95 7.4736 581.287 7.5328ZM432.028 14.4145C431.696 14.4571 431.363 14.5017 431.031 14.5453L429.677 4.25134C430.016 4.20669 430.357 4.16205 430.697 4.11843L432.028 14.4145ZM559.949 4.25134L559.764 5.67296L558.596 14.5453C558.264 14.5017 557.931 14.4571 557.598 14.4145L558.93 4.11843C559.269 4.16205 559.61 4.20669 559.949 4.25134ZM453.048 12.159C452.715 12.1871 452.381 12.2161 452.047 12.2452L451.142 1.90241C451.483 1.8723 451.824 1.84321 452.165 1.81414L453.048 12.159ZM538.484 1.90241L537.581 12.2452C537.246 12.2161 536.913 12.1871 536.579 12.159L537.461 1.81414C537.803 1.84321 538.143 1.8723 538.484 1.90241ZM474.155 10.8163C473.822 10.8309 473.487 10.8454 473.154 10.8599L472.697 0.485989C473.038 0.470413 473.379 0.457951 473.721 0.443413L474.155 10.8163ZM516.929 0.485989L516.473 10.8599C516.14 10.8454 515.806 10.8309 515.472 10.8163L515.906 0.443413C516.247 0.457951 516.589 0.470413 516.929 0.485989ZM495.33 0.00104579L495.319 10.3843H494.308L494.297 0.00104579C494.469 0.00104579 494.641 0 494.814 0C494.986 0 495.157 0.00104579 495.33 0.00104579Z" fill="#F16B0D"/>
</svg>
