<svg width="586" height="435" viewBox="0 0 586 435" fill="none" xmlns="http://www.w3.org/2000/svg">
<path d="M0 265.411L293.396 96L586.484 264.415L293.396 434.685L0 265.411Z" fill="url(#paint0_linear_577_2446)"/>
<path d="M293.393 0V95.5899L586.48 264.246V168.415L293.393 0Z" fill="#5B8BCD"/>
<path d="M293.396 0V95.6585L0 264.864V169.411L293.396 0Z" fill="#4880D3"/>
<path d="M584.396 263.143L295.316 430.375V339.477L584.396 172.04V263.143Z" fill="url(#paint1_linear_577_2446)" fill-opacity="0.5" stroke="#F67E20" stroke-width="4.18"/>
<path d="M0 169.411L293.396 0L586.484 168.415L293.396 338.685L0 169.411Z" fill="url(#paint2_linear_577_2446)" fill-opacity="0.2"/>
<path d="M0 169.343V264.933L293.328 434V338.617L0 169.343Z" fill="url(#paint3_linear_577_2446)" fill-opacity="0.5"/>
<path d="M62.9022 266.385C57.0984 263.034 53.0261 257.202 52.7696 251.093L56.425 253.204C56.6815 256.906 58.5093 260.368 62.806 262.849C66.4936 264.978 67.6158 263.774 67.6158 261.368C67.6158 257.998 65.3713 256.221 61.2028 252.593C57.6114 249.408 53.6674 245.798 53.6674 240.763C53.6674 236.172 56.7457 235.32 61.6837 238.171C66.9104 241.189 70.3093 246.224 70.6621 251.76L67.0066 249.649C66.6218 246.243 65.0506 243.595 61.7158 241.67C58.8299 240.004 57.3549 240.374 57.3549 242.67C57.3549 245.632 59.7598 247.65 62.7098 250.204C67.1349 254.055 71.3034 257.684 71.3034 263.275C71.3034 267.829 68.6419 269.699 62.9022 266.385ZM84.735 271.177V259.588L87.8774 261.403V280.286L84.735 278.472V276.102L84.6709 276.065C83.8051 277.009 82.1056 277.472 79.2839 275.843C76.2697 274.103 73.8328 270.696 73.8328 266.364V253.294L76.9752 255.108V267.179C76.9752 269.733 77.9371 271.992 80.31 273.362C83.0035 274.917 84.735 274.028 84.735 271.177ZM99.6437 267.64C103.812 270.047 106.987 275.657 106.987 281.877C106.987 288.097 103.812 290.004 99.6437 287.597C97.0784 286.116 95.5072 283.876 94.6094 281.84L94.5453 281.803V284.136L91.4029 282.321V255.848L94.5453 257.662V267.474L94.6094 267.511C95.5072 266.696 97.0784 266.159 99.6437 267.64ZM99.1306 284.302C102.209 286.079 103.684 283.673 103.684 279.97C103.684 276.268 102.209 272.158 99.1306 270.38C96.3089 268.751 94.5773 270.417 94.5773 274.712C94.5773 278.97 96.3089 282.673 99.1306 284.302ZM116.135 297.119C111.165 294.249 108.696 289.862 108.6 285.956L111.774 287.788C111.903 290.047 113.057 292.417 116.103 294.175C118.861 295.767 119.598 294.786 119.598 293.416C119.598 291.047 117.418 289.529 115.302 287.788C112.448 285.363 109.177 282.512 109.177 278.587C109.177 275.329 111.454 274.459 115.398 276.736C119.887 279.328 122.035 283.345 122.26 286.733L119.085 284.9C118.861 283.327 118.187 281.272 115.462 279.698C113.346 278.476 112.448 278.921 112.448 280.328C112.448 282.29 114.276 283.53 116.584 285.456C119.598 288.011 122.869 290.899 122.869 295.12C122.869 298.785 120.432 299.6 116.135 297.119ZM127.056 309.533C126.351 309.126 125.87 308.774 125.036 308.108V305.146C125.581 305.535 125.87 305.738 126.383 306.035C127.633 306.757 129.109 306.868 129.75 304.276L123.144 281.764L126.575 283.745L131.353 300.943L131.417 300.98L135.906 289.132L139.209 291.039L132.732 306.627C131.161 310.385 129.589 310.996 127.056 309.533ZM147.136 315.017C142.166 312.148 139.697 307.76 139.601 303.854L142.775 305.687C142.903 307.945 144.058 310.315 147.104 312.074C149.862 313.666 150.599 312.685 150.599 311.315C150.599 308.945 148.419 307.427 146.302 305.687C143.448 303.261 140.178 300.41 140.178 296.486C140.178 293.227 142.454 292.357 146.399 294.634C150.888 297.226 153.036 301.244 153.261 304.631L150.086 302.799C149.862 301.225 149.188 299.17 146.463 297.596C144.346 296.375 143.448 296.819 143.448 298.226C143.448 300.188 145.276 301.429 147.585 303.354C150.599 305.909 153.87 308.797 153.87 313.018C153.87 316.683 151.433 317.498 147.136 315.017ZM162.188 320.412C162.733 320.727 162.99 320.838 163.535 321.042V323.967C162.733 323.689 162.22 323.43 161.547 323.041C158.853 321.486 157.218 319.357 157.218 314.988V304.436L154.845 303.066V300.067L157.218 301.436V295.364L160.36 297.179V303.251L163.503 305.065V308.064L160.36 306.25V316.913C160.36 318.913 160.841 319.635 162.188 320.412ZM180.78 324.074C180.78 324.593 180.78 325.148 180.748 325.426L168.178 318.169C168.242 321.353 169.846 325.204 173.084 327.073C175.97 328.739 177.092 327.24 177.381 326.148L180.587 327.999C179.722 331.128 177.317 332.479 173.02 329.998C167.825 326.999 164.94 321.075 164.94 315.299C164.94 309.375 168.018 307.079 173.02 309.967C177.99 312.837 180.78 318.224 180.78 324.074ZM168.178 315.318L177.509 320.705C177.509 317.743 175.714 314.485 172.924 312.874C170.295 311.356 168.371 312.318 168.178 315.318ZM201.231 326.292C204.533 328.199 206.201 331.457 206.201 335.493V348.6L203.058 346.786V334.678C203.058 332.16 202.609 330.198 200.205 328.809C197.864 327.458 196.389 328.495 196.389 331.346V342.935L193.246 341.121V329.013C193.246 326.495 192.797 324.533 190.392 323.145C188.052 321.793 186.577 322.83 186.577 325.681V337.27L183.434 335.456V316.572L186.577 318.387V320.756L186.641 320.793C187.507 319.849 189.014 319.238 191.483 320.664C193.759 321.978 195.17 323.978 195.812 326.458L195.876 326.495C197.062 325.366 198.729 324.848 201.231 326.292ZM216.089 354.827C211.119 351.958 208.65 347.57 208.554 343.664L211.728 345.497C211.857 347.755 213.011 350.125 216.057 351.884C218.815 353.476 219.552 352.495 219.552 351.125C219.552 348.755 217.372 347.237 215.255 345.497C212.402 343.072 209.131 340.221 209.131 336.296C209.131 333.038 211.408 332.167 215.352 334.445C219.841 337.036 221.989 341.054 222.214 344.442L219.039 342.609C218.815 341.035 218.141 338.98 215.416 337.407C213.299 336.185 212.402 336.629 212.402 338.036C212.402 339.998 214.229 341.239 216.538 343.164C219.552 345.719 222.823 348.607 222.823 352.828C222.823 356.493 220.386 357.308 216.089 354.827Z" fill="white"/>
<path d="M341.133 355.142L338.265 356.798L344.84 332.593L347.782 330.895L354.407 347.479L351.44 349.191L349.982 345.124L342.591 349.391L341.133 355.142ZM346.274 334.677L343.407 346.265L349.216 342.912L346.324 334.648L346.274 334.677ZM358.959 344.85L356.24 346.42V326.012L358.959 324.442V344.85ZM367.846 339.72L365.596 341.018L372.443 316.657L374.693 315.358L367.846 339.72ZM383.991 330.398L381.321 331.939V311.531L384.906 309.462L389.998 322.563L390.047 322.534L395.164 303.539L398.748 301.469V321.878L396.079 323.419V307.578L396.029 307.606L391.159 326.259L388.91 327.558L384.04 314.528L383.991 314.557V330.398ZM413.918 313.12L402.25 319.856V299.447L404.97 297.878V315.574L413.918 310.408V313.12ZM335.954 387.132L333.235 388.702V368.294L340.601 364.041C344.507 361.786 346.608 362.685 346.608 366.453C346.608 369.05 345.248 371.719 343.295 373.36V373.417C347.399 371.933 345.891 380.853 346.855 380.639V380.839L343.938 382.523C343.147 382.123 344.828 374.017 340.502 376.514L335.954 379.14V387.132ZM335.954 376.429L340.008 374.088C342.504 372.647 343.864 370.606 343.864 368.265C343.864 366.067 342.776 365.497 340.057 367.066L335.954 369.436V376.429ZM357.222 369.23V360.296L359.644 358.898V373.455L357.222 374.853V373.026L357.172 373.055C356.505 374.554 355.195 376.423 353.02 377.679C350.696 379.021 348.817 378.564 348.817 375.224V365.148L351.24 363.75V373.055C351.24 375.024 351.981 375.909 353.811 374.853C355.887 373.654 357.222 371.428 357.222 369.23ZM368.987 353.075C371.311 351.734 373.189 352.191 373.189 355.53V365.635L370.767 367.033V357.699C370.767 355.759 370.025 354.874 368.196 355.93C366.119 357.129 364.785 359.355 364.785 361.553V370.487L362.362 371.885V357.328L364.785 355.93V357.757L364.834 357.728C365.501 356.229 366.812 354.331 368.987 353.075ZM380.335 359.368C380.755 359.126 380.953 358.983 381.373 358.655V360.91C380.755 361.409 380.359 361.666 379.84 361.966C377.764 363.165 376.503 362.979 376.503 359.611V351.476L374.674 352.532V350.22L376.503 349.164V344.483L378.926 343.084V347.766L381.348 346.367V348.679L378.926 350.078V358.298C378.926 359.839 379.296 359.968 380.335 359.368ZM385.959 341.107L383.216 342.691V339.666L385.959 338.082V341.107ZM385.786 358.362L383.364 359.76V345.203L385.786 343.804V358.362ZM402.225 333.886C404.771 332.416 406.056 333.443 406.056 336.554V346.659L403.634 348.057V338.724C403.634 336.783 403.288 335.669 401.434 336.74C399.629 337.782 398.492 339.894 398.492 342.092V351.026L396.07 352.424V343.091C396.07 341.15 395.724 340.037 393.87 341.107C392.065 342.149 390.928 344.261 390.928 346.459V355.393L388.506 356.792V342.234L390.928 340.836V342.663L390.978 342.634C391.645 341.136 392.807 339.323 394.71 338.224C396.465 337.211 397.553 337.496 398.047 338.838L398.097 338.809C399.011 336.883 400.297 334.999 402.225 333.886ZM420.279 330.854C420.279 331.254 420.279 331.682 420.255 331.925L410.565 337.519C410.614 339.917 411.85 341.458 414.347 340.017C416.571 338.732 417.437 336.577 417.659 335.478L420.131 334.051C419.464 337.234 417.61 340.416 414.297 342.329C410.293 344.641 408.068 342.643 408.068 338.19C408.068 333.623 410.441 329.113 414.297 326.887C418.129 324.675 420.279 326.345 420.279 330.854ZM410.565 335.322L417.758 331.168C417.758 328.885 416.374 327.972 414.223 329.213C412.196 330.384 410.713 332.838 410.565 335.322Z" fill="white"/>
<path d="M464.017 281.99L461.149 283.645L467.725 259.441L470.666 257.742L477.291 274.326L474.325 276.039L472.866 271.971L465.475 276.238L464.017 281.99ZM469.158 261.524L466.291 273.113L472.1 269.759L469.208 261.496L469.158 261.524ZM487.048 255.848V254.136L489.471 252.737V266.152C489.471 270.548 487.172 273.845 483.563 275.929C479.954 278.012 478.149 277.056 477.902 274.573L480.423 273.117C480.671 274.287 481.511 274.83 483.563 273.645C485.862 272.318 487.048 270.462 487.048 267.722V265.753L486.999 265.781C486.307 267.351 485.145 269.05 483.118 270.22C479.979 272.032 477.556 270.976 477.556 266.324C477.556 261.643 479.979 257.789 483.118 255.977C485.145 254.806 486.307 255.249 486.999 255.877L487.048 255.848ZM483.563 267.651C485.738 266.395 487.024 264.026 487.024 260.858C487.024 257.661 485.738 256.804 483.563 258.06C481.19 259.43 480.077 262.128 480.077 264.868C480.077 267.608 481.19 269.021 483.563 267.651ZM503.743 251.461C503.743 251.861 503.743 252.289 503.718 252.532L494.029 258.126C494.078 260.524 495.314 262.065 497.811 260.624C500.035 259.339 500.9 257.184 501.123 256.085L503.595 254.658C502.927 257.841 501.074 261.023 497.761 262.936C493.757 265.248 491.532 263.25 491.532 258.797C491.532 254.23 493.905 249.72 497.761 247.494C501.593 245.282 503.743 246.952 503.743 251.461ZM494.029 255.928L501.222 251.775C501.222 249.492 499.838 248.579 497.687 249.82C495.66 250.99 494.177 253.445 494.029 255.928ZM512.414 239.062C514.738 237.721 516.617 238.178 516.617 241.517V251.622L514.194 253.02V243.686C514.194 241.746 513.452 240.861 511.623 241.917C509.547 243.116 508.212 245.342 508.212 247.54V256.474L505.789 257.873V243.315L508.212 241.917V243.744L508.261 243.715C508.929 242.217 510.239 240.318 512.414 239.062ZM523.762 245.355C524.182 245.113 524.38 244.97 524.8 244.642V246.897C524.182 247.396 523.787 247.653 523.268 247.953C521.191 249.152 519.93 248.966 519.93 245.598V237.463L518.101 238.519V236.207L519.93 235.151V230.47L522.353 229.071V233.753L524.775 232.354V234.666L522.353 236.065V244.285C522.353 245.826 522.724 245.955 523.762 245.355ZM529.387 227.094L526.643 228.678V225.653L529.387 224.069V227.094ZM529.214 244.349L526.791 245.747V231.19L529.214 229.791V244.349ZM537.47 240.01C533.713 242.179 531.266 240.452 531.266 235.885C531.266 231.318 533.713 226.766 537.445 224.611C540.684 222.741 542.834 223.926 543.131 227.037L540.634 228.478C540.511 227.037 539.769 225.581 537.47 226.908C534.776 228.464 533.787 231.689 533.787 234.43C533.787 237.17 534.776 239.225 537.47 237.669C539.794 236.328 540.511 234.087 540.634 232.36L543.131 230.919C542.958 234.358 540.708 238.14 537.47 240.01ZM551.065 231.733L548.198 233.388L554.773 209.183L557.715 207.485L564.34 224.069L561.373 225.781L559.915 221.714L552.524 225.981L551.065 231.733ZM556.207 211.267L553.339 222.856L559.148 219.502L556.256 211.238L556.207 211.267ZM568.892 221.44L566.173 223.01V202.602L568.892 201.032V221.44ZM475.579 304.315L472.86 305.884V285.476L480.226 281.223C484.132 278.968 486.233 279.867 486.233 283.635C486.233 286.232 484.873 288.901 482.921 290.542V290.599C487.024 289.115 485.516 298.035 486.48 297.821V298.021L483.563 299.705C482.772 299.305 484.453 291.199 480.127 293.696L475.579 296.322V304.315ZM475.579 293.611L479.633 291.27C482.13 289.829 483.489 287.788 483.489 285.447C483.489 283.25 482.402 282.679 479.682 284.249L475.579 286.618V293.611ZM496.847 286.412V277.478L499.27 276.08V290.637L496.847 292.035V290.209L496.798 290.237C496.13 291.736 494.82 293.605 492.645 294.861C490.321 296.203 488.443 295.746 488.443 292.406V282.331L490.865 280.932V290.237C490.865 292.207 491.607 293.091 493.436 292.035C495.512 290.837 496.847 288.61 496.847 286.412ZM508.612 270.258C510.936 268.916 512.814 269.373 512.814 272.712V282.817L510.392 284.215V274.882C510.392 272.941 509.65 272.056 507.821 273.112C505.745 274.311 504.41 276.537 504.41 278.735V287.669L501.987 289.068V274.511L504.41 273.112V274.939L504.459 274.91C505.127 273.412 506.437 271.513 508.612 270.258ZM519.96 276.55C520.38 276.308 520.578 276.165 520.998 275.837V278.092C520.38 278.591 519.985 278.848 519.465 279.148C517.389 280.347 516.128 280.161 516.128 276.793V268.658L514.299 269.714V267.402L516.128 266.346V261.665L518.551 260.267V264.948L520.973 263.549V265.861L518.551 267.26V275.48C518.551 277.021 518.922 277.15 519.96 276.55ZM525.585 258.289L522.841 259.873V256.848L525.585 255.264V258.289ZM525.412 275.544L522.989 276.942V262.385L525.412 260.987V275.544ZM541.85 251.068C544.396 249.598 545.682 250.625 545.682 253.736V263.841L543.259 265.239V255.906C543.259 253.965 542.913 252.852 541.059 253.922C539.255 254.964 538.118 257.076 538.118 259.274V268.208L535.695 269.607V260.273C535.695 258.332 535.349 257.219 533.495 258.289C531.691 259.331 530.553 261.443 530.553 263.641V272.575L528.131 273.974V259.417L530.553 258.018V259.845L530.603 259.816C531.27 258.318 532.432 256.505 534.335 255.406C536.091 254.393 537.178 254.678 537.673 256.02L537.722 255.991C538.637 254.065 539.922 252.181 541.85 251.068ZM559.905 248.037C559.905 248.436 559.905 248.864 559.88 249.107L550.19 254.701C550.239 257.099 551.475 258.64 553.972 257.199C556.197 255.915 557.062 253.76 557.284 252.661L559.756 251.233C559.089 254.416 557.235 257.599 553.923 259.511C549.918 261.823 547.693 259.825 547.693 255.372C547.693 250.805 550.066 246.295 553.923 244.069C557.754 241.857 559.905 243.527 559.905 248.037ZM550.19 252.504L557.383 248.351C557.383 246.067 555.999 245.154 553.848 246.395C551.821 247.566 550.338 250.02 550.19 252.504Z" fill="white"/>
<path d="M453 340.315C453 337.404 453 277.769 453 248.315" stroke="#F67E20" stroke-width="4.18"/>
<defs>
<linearGradient id="paint0_linear_577_2446" x1="293.242" y1="96" x2="292.775" y2="286.486" gradientUnits="userSpaceOnUse">
<stop stop-color="#74ABFE"/>
<stop offset="1" stop-color="#6FC3E7"/>
</linearGradient>
<linearGradient id="paint1_linear_577_2446" x1="438.521" y1="168.415" x2="438.521" y2="432.182" gradientUnits="userSpaceOnUse">
<stop stop-color="#001116"/>
<stop offset="1" stop-color="#1727FF"/>
</linearGradient>
<linearGradient id="paint2_linear_577_2446" x1="294.222" y1="6.10142e-08" x2="293.755" y2="190.841" gradientUnits="userSpaceOnUse">
<stop stop-color="#00193E"/>
<stop offset="1" stop-color="#0002A7"/>
</linearGradient>
<linearGradient id="paint3_linear_577_2446" x1="146.597" y1="169.343" x2="146.597" y2="434.585" gradientUnits="userSpaceOnUse">
<stop stop-color="#001116"/>
<stop offset="1" stop-color="#1727FF"/>
</linearGradient>
</defs>
</svg>
