<svg width="586" height="435" viewBox="0 0 586 435" fill="none" xmlns="http://www.w3.org/2000/svg">
<path d="M0 265.411L293.396 96L586.484 264.415L293.396 434.685L0 265.411Z" fill="url(#paint0_linear_577_2429)"/>
<path d="M293.393 0V95.5899L586.48 264.246V168.415L293.393 0Z" fill="#5B8BCD"/>
<path d="M293.396 0V95.6585L0 264.864V169.411L293.396 0Z" fill="#4880D3"/>
<path d="M586.486 168.415V264.349L293.227 434V338.273L586.486 168.415Z" fill="url(#paint1_linear_577_2429)" fill-opacity="0.5"/>
<path d="M0 169.411L293.396 0L586.484 168.415L293.396 338.685L0 169.411Z" fill="url(#paint2_linear_577_2429)" fill-opacity="0.2"/>
<path d="M0 169.343V264.933L293.328 434V338.617L0 169.343Z" fill="url(#paint3_linear_577_2429)" fill-opacity="0.5"/>
<path d="M30.2315 251.913L26.6865 249.866V223.259L30.2315 225.306V251.913ZM42.6441 239.543C45.6734 241.292 48.1226 244.715 48.1226 249.069V262.242L44.9644 260.419V248.251C44.9644 245.72 43.9976 243.45 41.6128 242.073C38.9058 240.51 37.1655 241.403 37.1655 244.269V255.916L34.0073 254.093V235.115L37.1655 236.938V239.32L37.23 239.357C38.1001 238.408 39.8081 237.906 42.6441 239.543ZM57.4382 264.83C57.986 265.146 58.2438 265.258 58.7917 265.462V268.402C57.986 268.123 57.4704 267.863 56.7936 267.472C54.0866 265.909 52.443 263.769 52.443 259.378V248.773L50.0582 247.396V244.382L52.443 245.758V239.656L55.6013 241.479V247.582L58.7595 249.405V252.419L55.6013 250.596V261.313C55.6013 263.323 56.0847 264.048 57.4382 264.83ZM76.1234 268.51C76.1234 269.031 76.1234 269.589 76.0912 269.868L63.4583 262.575C63.5227 265.775 65.1341 269.645 68.389 271.524C71.2894 273.199 72.4173 271.692 72.7074 270.594L75.9301 272.455C75.0599 275.599 72.6429 276.957 68.3245 274.464C63.1038 271.45 60.2034 265.496 60.2034 259.691C60.2034 253.737 63.2972 251.43 68.3245 254.332C73.3197 257.216 76.1234 262.631 76.1234 268.51ZM63.4583 259.709L72.8363 265.124C72.8363 262.147 71.0316 258.872 68.2279 257.253C65.5853 255.728 63.6517 256.695 63.4583 259.709ZM90.3928 269.902V267.669L93.551 269.492V286.982C93.551 292.713 90.554 293.55 85.8488 290.833C81.1437 288.117 78.7912 284.154 78.4689 280.544L81.756 282.442C82.0783 284.34 83.174 286.312 85.8488 287.856C88.8459 289.587 90.3928 288.954 90.3928 285.382V282.814L90.3284 282.777C89.426 283.782 87.9114 284.247 85.2688 282.721C81.176 280.358 78.0177 275.335 78.0177 269.269C78.0177 263.166 81.176 261.789 85.2688 264.152C87.9114 265.678 89.426 268.004 90.3284 269.864L90.3928 269.902ZM85.8488 280.042C88.6848 281.679 90.3606 280.526 90.3606 276.395C90.3606 272.227 88.6848 269.176 85.8488 267.539C82.7551 265.752 81.3049 267.594 81.3049 271.167C81.3049 274.739 82.7551 278.256 85.8488 280.042ZM104.714 275.49C105.294 275.825 105.745 276.123 106.229 276.477V279.975C105.842 279.677 105.552 279.472 105.165 279.249C102.297 277.593 100.234 278.895 100.234 282.505V292.329L97.0761 290.506V271.527L100.234 273.351V276.96L100.299 276.998C101.169 275.118 102.49 274.207 104.714 275.49ZM112.257 299.792C108.97 297.894 106.876 294.489 106.876 291.251C106.876 287.009 109.647 287.344 113.74 288.814C116.318 289.744 117.897 290.284 117.897 288.423C117.897 287.046 117.188 285.483 114.771 284.088C111.903 282.432 111.033 282.972 110.872 285.409L107.649 283.548C107.81 279.995 109.873 278.32 114.9 281.223C118.284 283.176 120.991 286.377 120.991 291.289V299.996C120.991 301.373 121.152 302.173 121.764 302.527C121.861 302.582 121.958 302.638 122.151 302.713V304.945C121.603 304.778 121.055 304.536 120.54 304.238C118.961 303.327 118.123 302.136 117.929 299.866L117.865 299.829C116.801 301.187 114.932 301.336 112.257 299.792ZM112.966 297.261C115.802 298.898 117.897 298.433 117.897 295.121V292.405C117.381 292.665 115.963 292.256 114.288 291.698C111.387 290.693 110.163 290.916 110.163 292.889C110.163 294.675 111.001 296.126 112.966 297.261ZM130.578 307.057C131.126 307.373 131.384 307.485 131.931 307.69V310.629C131.126 310.35 130.61 310.09 129.933 309.699C127.226 308.136 125.583 305.996 125.583 301.605V291L123.198 289.623V286.609L125.583 287.986V281.883L128.741 283.706V289.809L131.899 291.632V294.647L128.741 292.823V303.54C128.741 305.55 129.224 306.275 130.578 307.057ZM137.911 291.717L134.334 289.652V285.707L137.911 287.773V291.717ZM137.685 313.951L134.527 312.128V293.15L137.685 294.973V313.951ZM148.578 320.799C143.454 317.84 140.36 311.961 140.36 306.007C140.36 300.09 143.454 297.708 148.61 300.685C153.702 303.625 156.796 309.542 156.796 315.459C156.796 321.413 153.702 323.757 148.578 320.799ZM148.61 317.803C151.962 319.738 153.509 317.543 153.509 313.598C153.509 309.616 151.962 305.672 148.61 303.737C145.194 301.765 143.648 303.923 143.648 307.905C143.648 311.849 145.194 315.831 148.61 317.803ZM168.121 311.987C171.15 313.736 173.599 317.159 173.599 321.513V334.686L170.441 332.863V320.695C170.441 318.164 169.474 315.894 167.09 314.517C164.382 312.954 162.642 313.847 162.642 316.713V328.36L159.484 326.537V307.559L162.642 309.382V311.764L162.707 311.801C163.577 310.852 165.285 310.35 168.121 311.987ZM199.475 349.626L184.264 340.844V314.237L187.809 316.284V339.355L199.475 346.091V349.626ZM205.948 353.884C202.661 351.986 200.566 348.581 200.566 345.344C200.566 341.101 203.338 341.436 207.43 342.906C210.009 343.836 211.588 344.376 211.588 342.515C211.588 341.139 210.879 339.576 208.462 338.18C205.593 336.524 204.723 337.064 204.562 339.501L201.34 337.641C201.501 334.087 203.563 332.412 208.591 335.315C211.974 337.269 214.681 340.469 214.681 345.381V354.088C214.681 355.465 214.843 356.265 215.455 356.619C215.552 356.675 215.648 356.731 215.842 356.805V359.038C215.294 358.87 214.746 358.628 214.23 358.331C212.651 357.419 211.813 356.228 211.62 353.958L211.555 353.921C210.492 355.279 208.623 355.428 205.948 353.884ZM206.657 351.353C209.493 352.991 211.588 352.526 211.588 349.214V346.497C211.072 346.758 209.654 346.348 207.978 345.79C205.078 344.785 203.853 345.009 203.853 346.981C203.853 348.767 204.691 350.218 206.657 351.353ZM220.148 368.222C219.439 367.813 218.955 367.459 218.118 366.789V363.812C218.665 364.203 218.955 364.408 219.471 364.706C220.728 365.431 222.21 365.543 222.855 362.938L216.216 340.313L219.664 342.304L224.466 359.589L224.531 359.626L229.042 347.718L232.362 349.635L225.852 365.301C224.273 369.078 222.694 369.692 220.148 368.222ZM248.776 368.191C248.776 368.712 248.776 369.27 248.744 369.549L236.111 362.256C236.175 365.456 237.786 369.326 241.041 371.205C243.942 372.88 245.07 371.373 245.36 370.275L248.582 372.136C247.712 375.28 245.295 376.638 240.977 374.145C235.756 371.131 232.856 365.177 232.856 359.372C232.856 353.418 235.95 351.111 240.977 354.013C245.972 356.897 248.776 362.312 248.776 368.191ZM236.111 359.39L245.489 364.805C245.489 361.828 243.684 358.553 240.88 356.934C238.238 355.409 236.304 356.376 236.111 359.39ZM259.081 364.615C259.661 364.949 260.113 365.247 260.596 365.601V369.099C260.209 368.801 259.919 368.596 259.532 368.373C256.664 366.717 254.602 368.02 254.602 371.629V381.453L251.444 379.63V360.651L254.602 362.475V366.084L254.666 366.122C255.536 364.242 256.858 363.331 259.081 364.615Z" fill="white"/>
<path d="M340.446 371.219C335.601 374.016 333.549 372.261 333.549 367.865V354.393L336.269 352.823V366.295C336.269 369.464 337.653 370.12 340.446 368.507C343.264 366.88 344.624 364.64 344.624 361.472V347.999L347.367 346.415V359.887C347.367 364.283 345.316 368.408 340.446 371.219ZM356.655 346.476C358.979 345.134 360.858 345.591 360.858 348.931V359.035L358.435 360.433V351.1C358.435 349.159 357.694 348.274 355.864 349.33C353.788 350.529 352.453 352.755 352.453 354.953V363.887L350.031 365.286V350.729L352.453 349.33V351.157L352.503 351.128C353.17 349.63 354.48 347.732 356.655 346.476ZM365.899 356.124L363.477 357.523V337.114L365.899 335.716V356.124ZM371.214 335.901L368.47 337.485V334.46L371.214 332.876V335.901ZM371.041 353.156L368.618 354.554V339.997L371.041 338.598V353.156ZM387.479 328.68C390.025 327.21 391.311 328.237 391.311 331.348V341.453L388.888 342.851V333.518C388.888 331.577 388.542 330.464 386.688 331.534C384.884 332.576 383.747 334.688 383.747 336.886V345.82L381.324 347.218V337.885C381.324 335.944 380.978 334.831 379.124 335.901C377.32 336.943 376.183 339.055 376.183 341.253V350.187L373.76 351.586V337.028L376.183 335.63V337.457L376.232 337.428C376.899 335.93 378.061 334.117 379.965 333.018C381.72 332.005 382.807 332.29 383.302 333.632L383.351 333.603C384.266 331.677 385.551 329.793 387.479 328.68ZM396.561 321.267L393.817 322.851V319.826L396.561 318.242V321.267ZM396.388 338.522L393.965 339.92V325.363L396.388 323.964V338.522ZM403.754 332.128C404.174 331.885 404.372 331.742 404.792 331.414V333.669C404.174 334.169 403.779 334.425 403.26 334.725C401.183 335.924 399.923 335.738 399.923 332.37V324.236L398.093 325.292V322.98L399.923 321.924V317.242L402.345 315.844V320.525L404.768 319.126V321.438L402.345 322.837V331.057C402.345 332.599 402.716 332.727 403.754 332.128ZM418.087 318.401C418.087 318.801 418.087 319.229 418.062 319.472L408.372 325.066C408.421 327.464 409.657 329.005 412.154 327.564C414.379 326.279 415.244 324.124 415.466 323.025L417.938 321.598C417.271 324.781 415.417 327.963 412.104 329.876C408.1 332.188 405.875 330.19 405.875 325.737C405.875 321.17 408.248 316.66 412.104 314.434C415.936 312.222 418.087 313.891 418.087 318.401ZM408.372 322.868L415.565 318.715C415.565 316.432 414.181 315.518 412.03 316.76C410.003 317.93 408.52 320.385 408.372 322.868ZM429.081 306.859V299.237L431.504 297.839V318.247L429.081 319.646V317.933L429.032 317.962C428.34 319.389 427.128 321.173 425.151 322.315C421.937 324.17 419.49 322.7 419.49 317.905C419.49 313.11 421.937 308.785 425.151 306.93C427.128 305.788 428.34 306.145 429.032 306.887L429.081 306.859ZM425.546 319.774C427.722 318.518 429.056 315.664 429.056 312.382C429.056 309.071 427.722 307.786 425.546 309.042C423.173 310.412 422.011 313.595 422.011 316.449C422.011 319.303 423.173 321.144 425.546 319.774ZM446.565 309.951C441.72 312.749 439.668 310.993 439.668 306.597V293.125L442.387 291.555V305.028C442.387 308.196 443.772 308.852 446.565 307.24C449.383 305.613 450.743 303.372 450.743 300.204V286.731L453.486 285.147V298.62C453.486 303.015 451.435 307.14 446.565 309.951ZM461.215 301.493C457.383 303.705 455.48 302.521 455.406 299.595L457.853 298.182C457.952 299.809 458.842 300.608 461.19 299.253C463.316 298.025 463.884 296.612 463.884 295.556C463.884 293.73 462.203 294.5 460.572 295.043C458.372 295.713 455.851 296.427 455.851 293.401C455.851 290.889 457.606 288.192 460.646 286.437C464.107 284.439 465.763 285.623 465.936 288.035L463.489 289.448C463.316 288.435 462.797 287.45 460.696 288.663C459.064 289.605 458.372 290.747 458.372 291.831C458.372 293.344 459.781 292.673 461.561 292.103C463.884 291.389 466.406 290.704 466.406 293.958C466.406 296.784 464.527 299.581 461.215 301.493ZM479.885 282.722C479.885 283.122 479.885 283.55 479.86 283.792L470.17 289.387C470.219 291.785 471.455 293.326 473.952 291.884C476.177 290.6 477.042 288.445 477.264 287.346L479.736 285.919C479.069 289.101 477.215 292.284 473.903 294.196C469.898 296.508 467.673 294.51 467.673 290.058C467.673 285.491 470.046 280.981 473.903 278.755C477.734 276.542 479.885 278.212 479.885 282.722ZM470.17 287.189L477.363 283.036C477.363 280.753 475.979 279.839 473.828 281.081C471.801 282.251 470.318 284.706 470.17 287.189ZM494.883 282.055C489.865 284.952 486.627 282.369 486.627 276.232C486.627 270.066 489.89 263.73 494.908 260.833C499.333 258.278 502.077 259.948 502.497 263.787L499.654 265.428C499.333 263.616 498.245 261.618 494.859 263.573C490.953 265.828 489.47 270.509 489.47 274.562C489.47 278.644 490.953 281.612 494.859 279.357C498.27 277.388 499.481 274.062 499.654 271.479L502.497 269.838C502.101 274.605 499.333 279.486 494.883 282.055ZM507.963 274.503C505.442 275.959 503.835 275.202 503.835 272.719C503.835 269.465 505.961 267.267 509.1 264.77C511.078 263.2 512.289 262.215 512.289 260.788C512.289 259.732 511.745 259.161 509.891 260.231C507.691 261.502 507.024 262.686 506.9 264.699L504.428 266.126C504.552 263.257 506.134 260.146 509.99 257.919C512.585 256.421 514.662 256.478 514.662 260.246V266.925C514.662 267.981 514.785 268.452 515.255 268.181C515.329 268.138 515.403 268.095 515.552 267.981V269.694C515.132 270.05 514.711 270.35 514.316 270.578C513.105 271.278 512.462 271.106 512.314 269.537L512.264 269.565C511.448 271.549 510.015 273.319 507.963 274.503ZM508.507 271.934C510.682 270.678 512.289 268.466 512.289 265.926V263.842C511.893 264.499 510.806 265.441 509.52 266.497C507.296 268.295 506.356 269.551 506.356 271.064C506.356 272.434 506.999 272.805 508.507 271.934ZM522.578 266.065C518.747 268.277 516.843 267.093 516.769 264.167L519.216 262.754C519.315 264.381 520.205 265.18 522.554 263.824C524.679 262.597 525.248 261.184 525.248 260.128C525.248 258.301 523.567 259.072 521.936 259.614C519.736 260.285 517.214 260.999 517.214 257.973C517.214 255.461 518.969 252.764 522.01 251.008C525.47 249.01 527.127 250.195 527.3 252.607L524.852 254.02C524.679 253.006 524.16 252.022 522.059 253.235C520.428 254.177 519.736 255.318 519.736 256.403C519.736 257.916 521.145 257.245 522.924 256.674C525.248 255.961 527.769 255.276 527.769 258.53C527.769 261.355 525.891 264.153 522.578 266.065ZM541.248 247.294C541.248 247.693 541.248 248.122 541.223 248.364L531.534 253.959C531.583 256.356 532.819 257.898 535.316 256.456C537.54 255.172 538.406 253.017 538.628 251.918L541.1 250.491C540.432 253.673 538.579 256.856 535.266 258.768C531.262 261.08 529.037 259.082 529.037 254.629C529.037 250.062 531.41 245.553 535.266 243.326C539.098 241.114 541.248 242.784 541.248 247.294ZM531.534 251.761L538.727 247.608C538.727 245.324 537.343 244.411 535.192 245.653C533.165 246.823 531.682 249.278 531.534 251.761ZM548.263 251.236C544.432 253.448 542.528 252.263 542.454 249.338L544.901 247.925C545 249.552 545.89 250.351 548.238 248.995C550.364 247.768 550.933 246.355 550.933 245.299C550.933 243.472 549.252 244.243 547.62 244.785C545.42 245.456 542.899 246.169 542.899 243.144C542.899 240.632 544.654 237.935 547.695 236.179C551.155 234.181 552.811 235.366 552.984 237.778L550.537 239.191C550.364 238.177 549.845 237.193 547.744 238.406C546.112 239.348 545.42 240.489 545.42 241.574C545.42 243.087 546.829 242.416 548.609 241.845C550.933 241.132 553.454 240.446 553.454 243.7C553.454 246.526 551.575 249.323 548.263 251.236Z" fill="white"/>
<path d="M221.822 188.702L204.043 199.414L180.139 183.419L197.574 172.915L200.75 175.04L187.106 183.261L193.892 187.802L205.848 180.599L209.024 182.724L197.068 189.927L204.657 195.005L218.646 186.577L221.822 188.702ZM216.171 169.788C219.409 167.837 223.833 167.467 227.745 170.085L239.58 178.004L236.203 180.038L225.271 172.723C222.998 171.202 220.426 170.795 217.876 172.332C214.982 174.075 214.826 176.337 217.401 178.06L227.865 185.062L224.488 187.096L207.438 175.687L210.815 173.653L212.954 175.085L213.023 175.043C212.65 173.61 213.138 171.615 216.171 169.788ZM247.032 170.325C247.618 169.972 247.86 169.784 248.346 169.364L250.987 171.131C250.292 171.762 249.775 172.116 249.051 172.552C246.157 174.296 243.33 174.639 239.385 171.999L229.857 165.624L227.307 167.16L224.599 165.348L227.149 163.812L221.666 160.143L225.043 158.109L230.525 161.777L233.902 159.743L236.61 161.555L233.233 163.589L242.862 170.032C244.667 171.24 245.585 171.197 247.032 170.325ZM260.624 154.016C261.092 154.329 261.594 154.665 261.827 154.865L248.32 163.002C251.231 164.862 255.595 165.592 259.075 163.495C262.176 161.627 261.443 159.603 260.616 158.655L264.062 156.579C266.408 159.332 266.297 162.544 261.68 165.326C256.098 168.689 249.153 167.985 243.937 164.495C238.588 160.916 238.219 156.462 243.594 153.224C248.934 150.006 255.342 150.482 260.624 154.016ZM245.746 161.28L255.772 155.239C253.098 153.449 249.162 153.27 246.165 155.076C243.339 156.778 243.144 159.276 245.746 161.28ZM263.084 141.651C263.704 141.277 264.22 141.009 264.804 140.743L267.946 142.845C267.466 143.05 267.122 143.214 266.709 143.463C263.642 145.311 263.677 148.138 266.92 150.308L275.746 156.214L272.369 158.248L255.319 146.839L258.696 144.805L261.939 146.975L262.008 146.933C260.798 144.941 260.706 143.084 263.084 141.651ZM275.651 133.952C280.131 131.253 286.952 131.48 292.568 135.238C298.185 138.996 298.15 143.311 293.671 146.009C290.915 147.67 288.023 147.882 285.687 147.546L285.618 147.588L293.642 152.956L290.265 154.991L267.298 139.622L270.674 137.588L272.68 138.93L272.749 138.889C272.51 137.502 272.895 135.613 275.651 133.952ZM290.412 144.53C293.72 142.537 292.363 139.613 289.019 137.376C285.676 135.139 281.149 134.125 277.841 136.118C274.809 137.945 275.356 140.677 279.234 143.272C283.079 145.844 287.38 146.356 290.412 144.53ZM294.713 122.595C295.333 122.221 295.849 121.953 296.433 121.686L299.575 123.789C299.095 123.994 298.751 124.158 298.338 124.407C295.271 126.255 295.306 129.082 298.549 131.252L307.375 137.158L303.998 139.192L286.948 127.783L290.325 125.749L293.568 127.919L293.637 127.877C292.427 125.885 292.336 124.027 294.713 122.595ZM299.502 116.351L295.678 118.655L292.134 116.284L295.959 113.98L299.502 116.351ZM319.354 129.941L315.977 131.975L298.927 120.566L302.303 118.532L319.354 129.941ZM330.538 123.798C325.197 127.015 319.87 126.824 316.289 124.56L319.7 122.505C321.811 123.742 324.589 124.023 327.862 122.051C330.825 120.266 330.347 118.938 329.11 118.111C326.971 116.679 324.394 117.934 321.652 118.991C317.883 120.369 313.499 121.905 309.956 119.533C307.014 117.565 307.487 114.771 311.725 112.218C316.549 109.311 321.365 109.598 324.548 111.422L321.137 113.477C319.592 112.75 317.364 112.179 314.436 113.943C312.161 115.313 312.066 116.476 313.336 117.326C315.108 118.512 317.239 117.441 320.255 116.304C324.229 114.845 328.646 113.331 332.458 115.881C335.767 118.096 335.155 121.016 330.538 123.798ZM347.2 101.855C347.668 102.168 348.17 102.504 348.403 102.704L334.896 110.841C337.807 112.701 342.171 113.43 345.651 111.334C348.752 109.465 348.019 107.441 347.192 106.494L350.638 104.418C352.984 107.171 352.874 110.383 348.257 113.165C342.675 116.528 335.729 115.824 330.514 112.334C325.165 108.755 324.795 104.301 330.17 101.063C335.511 97.8449 341.918 98.3206 347.2 101.855ZM332.322 109.119L342.349 103.078C339.674 101.288 335.739 101.108 332.741 102.914C329.916 104.617 329.721 107.115 332.322 109.119ZM234.151 232.003L230.154 234.411L215.415 212.895L219.515 210.424L252.653 220.856L248.518 223.347L240.735 220.724L230.433 226.931L234.151 232.003ZM220.824 213.972L228.461 224.165L236.558 219.287L220.892 213.931L220.824 213.972ZM245.96 202.569C250.44 199.87 257.261 200.097 262.877 203.855C268.494 207.613 268.459 211.928 263.98 214.627C261.224 216.287 258.332 216.499 255.996 216.163L255.927 216.205L263.951 221.574L260.574 223.608L237.607 208.24L240.983 206.205L242.989 207.547L243.058 207.506C242.819 206.119 243.204 204.23 245.96 202.569ZM260.721 213.147C264.029 211.154 262.671 208.23 259.328 205.993C255.985 203.756 251.458 202.743 248.15 204.736C245.118 206.562 245.665 209.294 249.543 211.889C253.388 214.461 257.689 214.974 260.721 213.147ZM265.611 190.73C270.09 188.031 276.911 188.258 282.528 192.016C288.144 195.774 288.11 200.089 283.631 202.787C280.874 204.448 277.982 204.66 275.647 204.324L275.578 204.366L283.601 209.734L280.225 211.769L257.257 196.4L260.634 194.366L262.64 195.708L262.709 195.667C262.47 194.28 262.854 192.391 265.611 190.73ZM280.371 201.308C283.679 199.315 282.322 196.391 278.979 194.154C275.636 191.917 271.109 190.903 267.801 192.896C264.769 194.723 265.315 197.455 269.193 200.05C273.038 202.622 277.339 203.134 280.371 201.308ZM297.334 193.936L293.958 195.97L270.054 179.975L273.431 177.941L297.334 193.936ZM284.65 176.028L280.826 178.332L277.282 175.961L281.106 173.657L284.65 176.028ZM304.501 189.618L301.125 191.652L284.075 180.243L287.451 178.209L304.501 189.618ZM316.511 183.02C311.274 186.175 304.186 185.769 298.836 182.19C293.487 178.611 293.221 174.095 298.424 170.96C302.937 168.241 308.777 168.336 313.035 170.66L309.555 172.757C307.611 171.675 304.37 170.821 301.166 172.752C297.41 175.014 299.141 177.925 302.351 180.073C305.56 182.22 310.014 183.448 313.77 181.185C317.009 179.234 315.868 177.2 314.102 175.799L317.582 173.702C321.252 176.465 321.025 180.3 316.511 183.02ZM331.923 173.692C328.408 175.809 324.196 175.839 321.288 173.893C317.476 171.343 319.303 168.797 322.876 165.623C325.131 163.627 326.485 162.386 324.814 161.268C323.577 160.44 321.782 160.203 319.198 161.76C316.132 163.608 316.137 164.795 318.238 166.42L314.793 168.495C311.689 166.199 311.32 163.148 316.695 159.91C320.313 157.73 324.678 156.971 329.091 159.924L336.914 165.158C338.151 165.986 338.958 166.307 339.613 165.913C339.716 165.85 339.82 165.788 339.993 165.641L341.999 166.983C341.547 167.426 341.028 167.823 340.477 168.156C338.788 169.173 337.257 169.288 335.112 168.115L335.043 168.156C335.678 170.027 334.782 171.969 331.923 173.692ZM330.04 171.468C333.072 169.641 333.807 167.285 330.831 165.294L328.391 163.661C328.341 164.329 327.193 165.488 325.769 166.814C323.27 169.085 322.796 170.433 324.568 171.619C326.173 172.692 327.938 172.734 330.04 171.468ZM348.535 159.9C349.12 159.547 349.363 159.359 349.848 158.939L352.489 160.706C351.795 161.337 351.277 161.691 350.554 162.127C347.659 163.871 344.832 164.214 340.887 161.574L331.359 155.198L328.809 156.735L326.101 154.923L328.651 153.386L323.168 149.718L326.545 147.683L332.028 151.352L335.404 149.318L338.112 151.13L334.736 153.164L344.364 159.607C346.169 160.815 347.088 160.772 348.535 159.9ZM338.79 143.409L334.965 145.714L331.421 143.342L335.246 141.038L338.79 143.409ZM358.641 156.999L355.264 159.034L338.214 147.625L341.591 145.59L358.641 156.999ZM370.789 150.318C365.31 153.619 358.325 153.151 352.976 149.572C347.66 146.015 347.224 141.516 352.737 138.195C358.181 134.915 365.199 135.405 370.515 138.962C375.864 142.541 376.267 147.017 370.789 150.318ZM368.115 148.485C371.699 146.326 370.578 143.473 367.034 141.102C363.457 138.708 359.061 137.87 355.478 140.029C351.826 142.23 352.913 145.061 356.49 147.454C360.034 149.826 364.463 150.686 368.115 148.485ZM373.63 125.65C376.868 123.698 381.292 123.329 385.204 125.946L397.039 133.865L393.662 135.9L382.73 128.584C380.457 127.063 377.885 126.657 375.335 128.193C372.441 129.937 372.286 132.199 374.86 133.921L385.324 140.923L381.947 142.958L364.897 131.549L368.274 129.514L370.413 130.946L370.482 130.905C370.109 129.472 370.598 127.477 373.63 125.65ZM408.083 127.806C402.742 131.024 397.415 130.833 393.834 128.569L397.245 126.514C399.356 127.75 402.134 128.032 405.407 126.06C408.37 124.275 407.893 122.947 406.656 122.119C404.516 120.688 401.939 121.943 399.197 123C395.428 124.377 391.044 125.913 387.501 123.542C384.559 121.573 385.033 118.78 389.271 116.226C394.094 113.32 398.91 113.607 402.093 115.43L398.682 117.485C397.137 116.758 394.909 116.187 391.981 117.952C389.707 119.322 389.611 120.485 390.881 121.335C392.653 122.521 394.784 121.449 397.8 120.313C401.774 118.853 406.192 117.34 410.003 119.89C413.313 122.105 412.7 125.025 408.083 127.806Z" fill="white"/>
<defs>
<linearGradient id="paint0_linear_577_2429" x1="293.242" y1="96" x2="292.775" y2="286.486" gradientUnits="userSpaceOnUse">
<stop stop-color="#74ABFE"/>
<stop offset="1" stop-color="#6FC3E7"/>
</linearGradient>
<linearGradient id="paint1_linear_577_2429" x1="438.521" y1="168.415" x2="438.521" y2="432.182" gradientUnits="userSpaceOnUse">
<stop stop-color="#001116"/>
<stop offset="1" stop-color="#1727FF"/>
</linearGradient>
<linearGradient id="paint2_linear_577_2429" x1="294.222" y1="6.10142e-08" x2="293.755" y2="190.841" gradientUnits="userSpaceOnUse">
<stop stop-color="#00193E"/>
<stop offset="1" stop-color="#0002A7"/>
</linearGradient>
<linearGradient id="paint3_linear_577_2429" x1="146.597" y1="169.343" x2="146.597" y2="434.585" gradientUnits="userSpaceOnUse">
<stop stop-color="#001116"/>
<stop offset="1" stop-color="#1727FF"/>
</linearGradient>
</defs>
</svg>
