<svg width="586" height="435" viewBox="0 0 586 435" fill="none" xmlns="http://www.w3.org/2000/svg">
<path d="M0 265.411L293.396 96L586.484 264.415L293.396 434.685L0 265.411Z" fill="url(#paint0_linear_577_2460)"/>
<path d="M293.393 0V95.5899L586.48 264.246V168.415L293.393 0Z" fill="#5B8BCD"/>
<path d="M293.396 0V95.6585L0 264.864V169.411L293.396 0Z" fill="#4880D3"/>
<path d="M586.486 168.415V264.349L293.227 434V338.273L586.486 168.415Z" fill="url(#paint1_linear_577_2460)" fill-opacity="0.5"/>
<path d="M0 169.411L293.396 0L586.484 168.415L293.396 338.685L0 169.411Z" fill="url(#paint2_linear_577_2460)" fill-opacity="0.2"/>
<path d="M0 169.343V264.933L293.328 434V338.617L0 169.343Z" fill="url(#paint3_linear_577_2460)" fill-opacity="0.5"/>
<path d="M43.8224 257.813L27.2766 248.26V221.786L43.5017 231.154V234.671L30.8038 227.34V234.857L41.9305 241.281V244.798L30.8038 238.374V246.779L43.8224 254.295V257.813ZM54.897 244.768C57.9111 246.508 60.3481 249.915 60.3481 254.247V267.354L57.2057 265.54V253.432C57.2057 250.914 56.2437 248.656 53.8709 247.286C51.1774 245.731 49.4459 246.619 49.4459 249.47V261.059L46.3034 259.245V240.362L49.4459 242.176V244.546L49.51 244.583C50.3758 243.639 52.0752 243.139 54.897 244.768ZM69.617 269.928C70.1621 270.243 70.4186 270.354 70.9637 270.558V273.483C70.1621 273.205 69.6491 272.946 68.9757 272.557C66.2822 271.002 64.6469 268.873 64.6469 264.504V253.952L62.274 252.582V249.582L64.6469 250.952V244.88L67.7893 246.694V252.767L70.9317 254.581V257.58L67.7893 255.766V266.429C67.7893 268.429 68.2702 269.151 69.617 269.928ZM88.2087 273.59C88.2087 274.109 88.2087 274.664 88.1766 274.942L75.607 267.685C75.6711 270.869 77.2744 274.719 80.513 276.589C83.3989 278.255 84.5211 276.756 84.8097 275.664L88.0163 277.515C87.1505 280.644 84.7456 281.995 80.4488 279.514C75.2542 276.515 72.3684 270.591 72.3684 264.815C72.3684 258.891 75.4466 256.595 80.4488 259.483C85.419 262.353 88.2087 267.74 88.2087 273.59ZM75.607 264.834L84.938 270.221C84.938 267.259 83.1423 264 80.3526 262.39C77.7233 260.872 75.7994 261.834 75.607 264.834ZM98.4626 270.032C99.0397 270.365 99.4887 270.661 99.9696 271.013V274.493C99.5849 274.197 99.2963 273.993 98.9115 273.771C96.0577 272.124 94.0055 273.42 94.0055 277.011V286.786L90.8631 284.972V266.088L94.0055 267.903V271.494L94.0696 271.531C94.9354 269.661 96.2501 268.754 98.4626 270.032ZM110.252 276.727C114.42 279.134 117.595 284.743 117.595 290.963C117.595 297.184 114.42 299.091 110.252 296.684C107.686 295.203 106.115 292.963 105.217 290.926L105.153 290.889V299.776L102.011 297.961V272.525L105.153 274.339V276.56L105.217 276.597C106.115 275.783 107.686 275.246 110.252 276.727ZM109.739 293.389C112.817 295.166 114.292 292.759 114.292 289.057C114.292 285.354 112.817 281.244 109.739 279.467C106.917 277.838 105.185 279.504 105.185 283.799C105.185 288.057 106.917 291.76 109.739 293.389ZM127.898 287.026C128.475 287.359 128.924 287.655 129.405 288.007V291.488C129.02 291.191 128.731 290.988 128.347 290.766C125.493 289.118 123.441 290.414 123.441 294.005V303.78L120.298 301.966V283.083L123.441 284.897V288.489L123.505 288.526C124.37 286.656 125.685 285.749 127.898 287.026ZM134.813 288.093L131.253 286.038V282.114L134.813 284.169V288.093ZM134.588 310.216L131.446 308.402V289.519L134.588 291.333V310.216ZM144.561 316.492C139.591 313.623 137.122 309.235 137.025 305.329L140.2 307.162C140.328 309.42 141.483 311.79 144.529 313.549C147.286 315.141 148.024 314.16 148.024 312.79C148.024 310.42 145.843 308.902 143.727 307.162C140.873 304.737 137.603 301.886 137.603 297.961C137.603 294.703 139.879 293.833 143.823 296.11C148.312 298.701 150.461 302.719 150.685 306.107L147.511 304.274C147.286 302.7 146.613 300.645 143.887 299.072C141.771 297.85 140.873 298.294 140.873 299.701C140.873 301.664 142.701 302.904 145.01 304.829C148.024 307.384 151.295 310.272 151.295 314.493C151.295 318.159 148.858 318.973 144.561 316.492ZM168.779 320.108C168.779 320.626 168.779 321.181 168.747 321.459L156.178 314.202C156.242 317.386 157.845 321.237 161.084 323.107C163.969 324.773 165.092 323.273 165.38 322.181L168.587 324.032C167.721 327.161 165.316 328.513 161.019 326.032C155.825 323.033 152.939 317.109 152.939 311.332C152.939 305.408 156.017 303.113 161.019 306.001C165.99 308.87 168.779 314.258 168.779 320.108ZM156.178 311.351L165.509 316.738C165.509 313.776 163.713 310.518 160.923 308.907C158.294 307.389 156.37 308.352 156.178 311.351ZM179.217 335.983L175.497 333.835L184.027 312.286L187.843 314.489L196.436 345.924L192.588 343.703L190.696 336.242L181.109 330.707L179.217 335.983ZM185.887 317.137L182.167 327.874L189.702 332.225L185.951 317.174L185.887 317.137ZM202.341 349.334L198.814 347.297V320.824L202.341 322.86V349.334ZM223.727 362.199C216.865 358.237 212.472 349.888 212.472 341.927C212.472 333.967 216.865 330.727 223.727 334.689C230.589 338.65 234.982 346.963 234.982 354.923C234.982 362.884 230.589 366.161 223.727 362.199ZM223.727 358.681C229.146 361.81 231.294 358.237 231.294 352.794C231.294 347.351 229.146 341.335 223.727 338.206C218.308 335.077 216.159 338.613 216.159 344.056C216.159 349.499 218.308 355.553 223.727 358.681ZM247.052 375.665C241.248 372.315 237.175 366.483 236.919 360.374L240.574 362.484C240.831 366.187 242.659 369.649 246.955 372.129C250.643 374.258 251.765 373.055 251.765 370.648C251.765 367.279 249.521 365.502 245.352 361.873C241.761 358.689 237.817 355.079 237.817 350.044C237.817 345.452 240.895 344.601 245.833 347.452C251.06 350.469 254.459 355.505 254.811 361.04L251.156 358.93C250.771 355.523 249.2 352.876 245.865 350.951C242.979 349.284 241.504 349.655 241.504 351.95C241.504 354.912 243.909 356.93 246.859 359.485C251.284 363.336 255.453 366.964 255.453 372.555C255.453 377.109 252.791 378.979 247.052 375.665Z" fill="white"/>
<g clip-path="url(#clip0_577_2460)">
<path d="M473.399 263.116C473.608 263.174 473.911 262.899 474.177 262.811C475.763 262.283 476.176 263.618 476.596 264.962C478.063 269.649 479.02 275.749 480.135 280.839C480.655 283.21 481.187 285.575 481.636 288.004L481.818 287.565C483.767 278.673 485.246 269.87 487.255 260.966C487.844 258.357 488.494 255.376 490.749 253.37C491.216 252.954 491.655 252.722 492.103 252.318L492.532 252.07C493.027 251.924 493.515 251.643 494.009 251.544C496.368 251.07 496.882 253.972 497.485 256.03C499.377 262.512 500.926 269.314 502.871 275.745L508.124 245.964C508.399 244.81 509.111 243.167 509.989 242.283C510.385 241.885 510.773 241.694 511.151 241.32C511.292 241.251 511.441 241.136 511.581 241.072C512.842 240.494 514.155 240.705 514.564 241.9C514.995 243.157 514.472 245.495 514.182 247.187C512.412 257.489 510.268 268.472 508.142 278.89C507.264 283.192 506.782 286.719 502.611 288.788C499.301 290.428 498.823 286.701 498.048 284.201L492.36 262.976L492.041 264.228C489.887 273.813 488.291 283.4 486.054 292.987C485.412 295.739 484.659 298.88 482.106 300.619C479.542 302.363 478.13 302.177 477.218 299.971C475.011 290.462 472.156 281.406 470.196 271.688C469.889 270.163 469.461 268.49 470.445 266.415C471.056 265.127 472.057 264.002 473.054 263.314L473.397 263.116L473.399 263.116Z" fill="white"/>
<path d="M392.482 309.831C392.779 309.807 393.098 309.604 393.423 309.539C395.584 309.098 395.657 313.024 393.445 315.197C391.665 316.945 390.224 316.714 389.736 314.986C389.751 314.752 389.713 314.523 389.736 314.292C389.836 313.278 390.288 312.033 391.032 311.126L392.224 309.98L392.482 309.831Z" fill="white"/>
<path d="M451.412 275.937C456.312 272.75 462.348 270.392 465.023 274.205C466.264 275.976 466.562 280.102 463.545 282.654C459.684 285.921 459.595 279.834 456.634 279.618C454.019 279.427 448.069 283.448 446.817 287.855C444.93 294.484 453.245 290.899 456.166 290.144C461.434 288.782 466.806 287.653 467.473 294.543C468.162 301.659 463.821 309.348 457.711 314.277C451.132 319.585 442.72 322.759 439.891 316.463C438.984 314.447 438.732 310.431 441.872 308.192C445.572 305.553 445.595 310.358 447.398 311.879C450.999 314.914 461.676 306.411 460.315 299.907C459.732 297.124 456.759 297.874 454.451 298.468C448.545 299.988 440.37 303.518 439.928 294.783C439.538 287.083 445.285 279.919 451.411 275.934L451.412 275.937Z" fill="white"/>
<path d="M401.988 304.569C403.753 303.414 405.53 302.589 407.279 301.588C415.842 296.691 424.969 289.579 431.308 294.154C435.348 297.069 436.423 304.288 435.27 311.716C433.681 321.952 427.461 331.815 419.212 337.033C417.911 337.857 414.603 339.881 413.48 340.118C411.629 340.511 411.516 336.818 413.133 334.906C414.352 333.464 416.859 332.331 418.269 331.431C433.061 321.993 434.188 293.219 418.098 301.481C412.798 304.203 407.154 308.197 401.874 310.857C400.062 311.77 398.424 311.845 398.576 309.338C398.718 307.008 400.367 305.631 401.989 304.57L401.988 304.569Z" fill="white"/>
<path d="M398.73 330.247L419.543 318.212C422.89 316.667 423.031 321.957 419.381 324.439L398.887 336.261C395.255 337.939 395.425 332.567 398.73 330.247Z" fill="white"/>
<path d="M398.726 318.648C401.413 317.024 404.089 315.557 406.763 314.081C407.998 313.401 409.61 312.256 410.773 311.89C413.581 311.01 413.374 316 410.446 318.087L395.375 326.773C392.971 327.963 392.345 324.316 394.252 321.812C395.216 320.547 397.527 319.372 398.725 318.648L398.726 318.648Z" fill="white"/>
<path d="M418.978 307.252C421.071 305.767 422.342 306.602 421.988 309.192C421.536 312.504 417.418 314.81 416.871 312.334C416.509 310.693 417.248 308.479 418.976 307.254L418.978 307.252Z" fill="white"/>
<path d="M404.906 339.271C407.177 337.78 408.343 339.111 407.645 341.947C406.782 345.455 401.645 347.298 402.717 342.567C403.034 341.167 403.789 340.004 404.906 339.271Z" fill="white"/>
</g>
<defs>
<linearGradient id="paint0_linear_577_2460" x1="293.242" y1="96" x2="292.775" y2="286.486" gradientUnits="userSpaceOnUse">
<stop stop-color="#74ABFE"/>
<stop offset="1" stop-color="#6FC3E7"/>
</linearGradient>
<linearGradient id="paint1_linear_577_2460" x1="438.521" y1="168.415" x2="438.521" y2="432.182" gradientUnits="userSpaceOnUse">
<stop stop-color="#001116"/>
<stop offset="1" stop-color="#1727FF"/>
</linearGradient>
<linearGradient id="paint2_linear_577_2460" x1="294.222" y1="6.10142e-08" x2="293.755" y2="190.841" gradientUnits="userSpaceOnUse">
<stop stop-color="#00193E"/>
<stop offset="1" stop-color="#0002A7"/>
</linearGradient>
<linearGradient id="paint3_linear_577_2460" x1="146.597" y1="169.343" x2="146.597" y2="434.585" gradientUnits="userSpaceOnUse">
<stop stop-color="#001116"/>
<stop offset="1" stop-color="#1727FF"/>
</linearGradient>
<clipPath id="clip0_577_2460">
<rect width="147.609" height="81.3103" fill="white" transform="matrix(0.866025 -0.5 0 1 388.311 307.784)"/>
</clipPath>
</defs>
</svg>
