<svg width="586" height="435" viewBox="0 0 586 435" fill="none" xmlns="http://www.w3.org/2000/svg">
<path d="M0 265.411L293.396 96L586.484 264.415L293.396 434.685L0 265.411Z" fill="url(#paint0_linear_577_2467)"/>
<path d="M293.393 0V95.5899L586.48 264.246V168.415L293.393 0Z" fill="#5B8BCD"/>
<path d="M293.396 0V95.6585L0 264.864V169.411L293.396 0Z" fill="#4880D3"/>
<path d="M586.486 168.415V264.349L293.227 434V338.273L586.486 168.415Z" fill="url(#paint1_linear_577_2467)" fill-opacity="0.5"/>
<path d="M0 169.411L293.396 0L586.484 168.415L293.396 338.685L0 169.411Z" fill="url(#paint2_linear_577_2467)" fill-opacity="0.2"/>
<path d="M0 169.343V264.933L293.328 434V338.617L0 169.343Z" fill="url(#paint3_linear_577_2467)" fill-opacity="0.5"/>
<path d="M47.8224 262.128L31.2766 252.575V226.102L47.5017 235.469V238.987L34.8038 231.656V239.172L45.9305 245.596V249.113L34.8038 242.689V251.094L47.8224 258.61V262.128ZM58.897 249.083C61.9111 250.823 64.3481 254.23 64.3481 258.562V271.669L61.2057 269.855V257.747C61.2057 255.229 60.2437 252.971 57.8709 251.601C55.1774 250.046 53.4459 250.934 53.4459 253.785V265.375L50.3034 263.56V244.677L53.4459 246.491V248.861L53.51 248.898C54.3758 247.954 56.0752 247.454 58.897 249.083ZM73.617 274.243C74.1621 274.558 74.4186 274.669 74.9637 274.873V277.798C74.1621 277.52 73.6491 277.261 72.9757 276.872C70.2822 275.317 68.6469 273.188 68.6469 268.819V258.267L66.274 256.897V253.898L68.6469 255.268V249.195L71.7893 251.01V257.082L74.9317 258.896V261.895L71.7893 260.081V270.744C71.7893 272.744 72.2702 273.466 73.617 274.243ZM92.2087 277.905C92.2087 278.424 92.2087 278.979 92.1766 279.257L79.607 272C79.6711 275.184 81.2744 279.035 84.513 280.904C87.3989 282.571 88.5211 281.071 88.8097 279.979L92.0163 281.83C91.1505 284.959 88.7456 286.31 84.4488 283.83C79.2542 280.83 76.3684 274.906 76.3684 269.13C76.3684 263.206 79.4466 260.91 84.4488 263.799C89.419 266.668 92.2087 272.055 92.2087 277.905ZM79.607 269.149L88.938 274.536C88.938 271.574 87.1423 268.316 84.3526 266.705C81.7233 265.187 79.7994 266.15 79.607 269.149ZM102.463 274.347C103.04 274.68 103.489 274.976 103.97 275.328V278.808C103.585 278.512 103.296 278.309 102.911 278.086C100.058 276.439 98.0055 277.735 98.0055 281.326V291.101L94.8631 289.287V270.404L98.0055 272.218V275.809L98.0696 275.846C98.9354 273.977 100.25 273.069 102.463 274.347ZM114.252 281.042C118.42 283.449 121.595 289.058 121.595 295.279C121.595 301.499 118.42 303.406 114.252 300.999C111.686 299.518 110.115 297.278 109.217 295.242L109.153 295.205V304.091L106.011 302.277V276.84L109.153 278.654V280.876L109.217 280.913C110.115 280.098 111.686 279.561 114.252 281.042ZM113.739 297.704C116.817 299.481 118.292 297.074 118.292 293.372C118.292 289.669 116.817 285.559 113.739 283.782C110.917 282.153 109.185 283.819 109.185 288.114C109.185 292.372 110.917 296.075 113.739 297.704ZM131.898 291.341C132.475 291.674 132.924 291.971 133.405 292.322V295.803C133.02 295.507 132.731 295.303 132.347 295.081C129.493 293.433 127.441 294.729 127.441 298.321V308.095L124.298 306.281V287.398L127.441 289.212V292.804L127.505 292.841C128.37 290.971 129.685 290.064 131.898 291.341ZM138.813 292.409L135.253 290.354V286.429L138.813 288.484V292.409ZM138.588 314.532L135.446 312.717V293.834L138.588 295.648V314.532ZM148.561 320.808C143.591 317.938 141.122 313.551 141.025 309.644L144.2 311.477C144.328 313.736 145.483 316.105 148.529 317.864C151.286 319.456 152.024 318.475 152.024 317.105C152.024 314.735 149.843 313.217 147.727 311.477C144.873 309.052 141.603 306.201 141.603 302.276C141.603 299.018 143.879 298.148 147.823 300.425C152.312 303.017 154.461 307.034 154.685 310.422L151.511 308.589C151.286 307.015 150.613 304.96 147.887 303.387C145.771 302.165 144.873 302.609 144.873 304.016C144.873 305.979 146.701 307.219 149.01 309.144C152.024 311.699 155.295 314.587 155.295 318.808C155.295 322.474 152.858 323.288 148.561 320.808ZM172.779 324.423C172.779 324.941 172.779 325.497 172.747 325.774L160.178 318.517C160.242 321.701 161.845 325.552 165.084 327.422C167.969 329.088 169.092 327.589 169.38 326.496L172.587 328.348C171.721 331.476 169.316 332.828 165.019 330.347C159.825 327.348 156.939 321.424 156.939 315.648C156.939 309.724 160.017 307.428 165.019 310.316C169.99 313.185 172.779 318.573 172.779 324.423ZM160.178 315.666L169.509 321.053C169.509 318.091 167.713 314.833 164.923 313.222C162.294 311.704 160.37 312.667 160.178 315.666ZM186.175 342.006L182.648 339.969V313.496L186.175 315.532V342.006ZM198.525 329.698C201.54 331.438 203.977 334.844 203.977 339.176V352.284L200.834 350.469V338.362C200.834 335.844 199.872 333.585 197.499 332.215C194.806 330.66 193.074 331.549 193.074 334.4V345.989L189.932 344.175V325.292L193.074 327.106V329.476L193.138 329.513C194.004 328.568 195.704 328.069 198.525 329.698ZM213.152 333.884C211.837 333.125 211.452 333.347 211.452 335.347V337.716L214.498 339.475V342.474L211.452 340.715V356.6L208.278 354.767V338.883L206.033 337.587V334.588L208.278 335.884V333.588C208.278 329.219 209.849 328.941 212.51 330.478C213.119 330.829 213.6 331.181 214.498 331.848V334.773C213.857 334.328 213.6 334.143 213.152 333.884ZM224.086 344.566C224.663 344.899 225.112 345.195 225.593 345.547V349.028C225.208 348.731 224.919 348.528 224.535 348.306C221.681 346.658 219.629 347.954 219.629 351.545V361.32L216.486 359.506V340.623L219.629 342.437V346.028L219.693 346.065C220.558 344.196 221.873 343.289 224.086 344.566ZM231.591 368.745C228.321 366.857 226.236 363.469 226.236 360.248C226.236 356.027 228.994 356.36 233.066 357.823C235.632 358.748 237.203 359.285 237.203 357.434C237.203 356.064 236.497 354.509 234.093 353.12C231.239 351.473 230.373 352.01 230.213 354.435L227.006 352.583C227.166 349.048 229.219 347.381 234.221 350.269C237.588 352.213 240.281 355.397 240.281 360.285V368.949C240.281 370.319 240.441 371.115 241.051 371.467C241.147 371.522 241.243 371.578 241.435 371.652V373.873C240.89 373.707 240.345 373.466 239.832 373.17C238.261 372.263 237.427 371.078 237.235 368.819L237.171 368.782C236.113 370.134 234.253 370.282 231.591 368.745ZM232.297 366.228C235.119 367.857 237.203 367.394 237.203 364.099V361.396C236.69 361.655 235.279 361.248 233.612 360.692C230.726 359.692 229.507 359.915 229.507 361.877C229.507 363.654 230.341 365.098 232.297 366.228Z" fill="white"/>
<path d="M328.475 380.637C323.185 383.691 319.798 381.165 319.798 375.028C319.798 368.892 323.185 362.484 328.475 359.43C333.764 356.375 337.151 358.873 337.151 365.01C337.151 371.147 333.764 377.583 328.475 380.637ZM328.475 377.926C332.652 375.514 334.308 370.847 334.308 366.651C334.308 362.455 332.652 359.729 328.475 362.141C324.297 364.553 322.641 369.191 322.641 373.387C322.641 377.583 324.297 380.338 328.475 377.926ZM345.866 355.211C348.19 353.87 350.069 354.326 350.069 357.666V367.77L347.646 369.169V359.835C347.646 357.894 346.905 357.009 345.075 358.065C342.999 359.264 341.664 361.491 341.664 363.689V372.623L339.242 374.021V359.464L341.664 358.065V359.892L341.714 359.864C342.381 358.365 343.691 356.467 345.866 355.211ZM358.991 356.682L352.366 360.507V357.852L358.991 354.027V356.682ZM367.731 342.588C370.944 340.732 373.392 342.231 373.392 347.026C373.392 351.822 370.944 356.117 367.731 357.973C365.753 359.114 364.542 358.786 363.85 358.015L363.8 358.044V364.894L361.378 366.293V346.684L363.8 345.285V346.998L363.85 346.969C364.542 345.542 365.753 343.729 367.731 342.588ZM367.335 355.889C369.708 354.519 370.845 351.351 370.845 348.496C370.845 345.642 369.708 343.787 367.335 345.157C365.16 346.413 363.825 349.238 363.825 352.549C363.825 355.832 365.16 357.145 367.335 355.889ZM381.334 334.82C381.779 334.563 382.125 334.391 382.496 334.234V336.917C382.199 337.032 381.977 337.132 381.68 337.303C379.48 338.573 377.898 341.399 377.898 344.167V351.703L375.476 353.101V338.544L377.898 337.146V339.914L377.948 339.886C378.615 337.674 379.629 335.804 381.334 334.82ZM395.107 334.175C395.107 334.574 395.107 335.003 395.082 335.245L385.392 340.84C385.442 343.237 386.678 344.779 389.174 343.337C391.399 342.053 392.264 339.898 392.487 338.799L394.959 337.372C394.291 340.554 392.437 343.737 389.125 345.649C385.12 347.961 382.896 345.963 382.896 341.51C382.896 336.944 385.269 332.434 389.125 330.207C392.956 327.995 395.107 329.665 395.107 334.175ZM385.392 338.642L392.586 334.489C392.586 332.205 391.201 331.292 389.051 332.534C387.024 333.704 385.541 336.159 385.392 338.642ZM410.872 317.68C413.419 316.21 414.704 317.237 414.704 320.349V330.453L412.281 331.852V322.518C412.281 320.577 411.935 319.464 410.081 320.534C408.277 321.576 407.14 323.688 407.14 325.886V334.82L404.717 336.219V326.885C404.717 324.944 404.371 323.831 402.517 324.901C400.713 325.943 399.576 328.055 399.576 330.253V339.187L397.153 340.586V326.029L399.576 324.63V326.457L399.625 326.428C400.293 324.93 401.454 323.117 403.358 322.018C405.113 321.005 406.201 321.291 406.695 322.632L406.744 322.604C407.659 320.677 408.944 318.793 410.872 317.68ZM418.545 328.235L416.295 329.534L423.143 305.172L425.392 303.874L418.545 328.235ZM433.98 319.724C428.962 322.621 425.724 320.038 425.724 313.901C425.724 307.735 428.987 301.399 434.005 298.502C438.43 295.947 441.173 297.617 441.594 301.456L438.751 303.097C438.43 301.285 437.342 299.287 433.955 301.242C430.05 303.497 428.567 308.178 428.567 312.231C428.567 316.313 430.05 319.281 433.955 317.026C437.367 315.057 438.578 311.731 438.751 309.148L441.594 307.507C441.198 312.274 438.43 317.155 433.98 319.724ZM446.045 312.358L443.623 313.757V293.348L446.045 291.95V312.358ZM454.4 307.962C450.47 310.232 448.097 308.462 448.097 303.895C448.097 299.357 450.47 294.79 454.425 292.506C458.331 290.251 460.704 292.05 460.704 296.588C460.704 301.155 458.331 305.693 454.4 307.962ZM454.425 305.636C456.996 304.152 458.182 301.098 458.182 298.072C458.182 295.018 456.996 293.363 454.425 294.847C451.805 296.36 450.618 299.385 450.618 302.439C450.618 305.465 451.805 307.149 454.425 305.636ZM471.071 292.286V283.352L473.494 281.954V296.511L471.071 297.909V296.083L471.022 296.111C470.354 297.61 469.044 299.479 466.869 300.735C464.545 302.077 462.667 301.62 462.667 298.28V288.205L465.089 286.806V296.111C465.089 298.081 465.831 298.966 467.66 297.909C469.736 296.711 471.071 294.484 471.071 292.286ZM485.16 276.988V269.367L487.582 267.968V288.377L485.16 289.775V288.063L485.11 288.091C484.418 289.518 483.207 291.302 481.229 292.444C478.016 294.299 475.569 292.829 475.569 288.034C475.569 283.239 478.016 278.915 481.229 277.059C483.207 275.918 484.418 276.274 485.11 277.016L485.16 276.988ZM481.625 289.904C483.8 288.648 485.135 285.794 485.135 282.511C485.135 279.2 483.8 277.916 481.625 279.172C479.252 280.542 478.09 283.724 478.09 286.579C478.09 289.433 479.252 291.274 481.625 289.904ZM491.496 286.117L489.246 287.416L496.093 263.054L498.343 261.756L491.496 286.117ZM503.128 279.401L500.409 280.971V260.563L503.128 258.993V267.527L511.804 262.518V253.984L514.548 252.399V272.808L511.804 274.392V265.23L503.128 270.239V279.401ZM519.098 275.29C518.554 275.604 518.183 275.761 517.541 275.99V273.706C517.961 273.521 518.183 273.421 518.579 273.192C519.543 272.636 520.68 271.409 521.174 268.84L516.082 257.365L518.727 255.838L522.41 264.844L522.46 264.815L525.92 251.685L528.467 250.215L523.473 267.998C522.262 272.293 521.051 274.163 519.098 275.29ZM536.3 245.264C539.513 243.409 541.96 244.908 541.96 249.703C541.96 254.498 539.513 258.794 536.3 260.649C534.322 261.791 533.111 261.463 532.419 260.692L532.369 260.721V262.519L529.947 263.918V243.509L532.369 242.11V249.674L532.419 249.646C533.111 248.219 534.322 246.406 536.3 245.264ZM535.904 258.566C538.277 257.196 539.414 254.027 539.414 251.173C539.414 248.319 538.277 246.463 535.904 247.833C533.729 249.089 532.394 251.915 532.394 255.226C532.394 258.509 533.729 259.822 535.904 258.566ZM549.903 237.496C550.348 237.239 550.694 237.068 551.065 236.911V239.594C550.768 239.708 550.546 239.808 550.249 239.98C548.049 241.25 546.467 244.075 546.467 246.844V254.38L544.044 255.778V241.221L546.467 239.823V242.591L546.516 242.563C547.184 240.351 548.197 238.481 549.903 237.496ZM555.234 232.164L552.49 233.748V230.722L555.234 229.138V232.164ZM555.061 249.418L552.638 250.817V236.26L555.061 234.861V249.418ZM566.728 229.894V222.273L569.151 220.875V241.283L566.728 242.682V240.969L566.679 240.998C565.987 242.425 564.776 244.209 562.798 245.35C559.585 247.206 557.137 245.736 557.137 240.941C557.137 236.145 559.585 231.821 562.798 229.966C564.776 228.824 565.987 229.181 566.679 229.923L566.728 229.894ZM563.194 242.81C565.369 241.554 566.704 238.7 566.704 235.417C566.704 232.106 565.369 230.822 563.194 232.078C560.821 233.448 559.659 236.63 559.659 239.485C559.659 242.339 560.821 244.18 563.194 242.81Z" fill="white"/>
<defs>
<linearGradient id="paint0_linear_577_2467" x1="293.242" y1="96" x2="292.775" y2="286.486" gradientUnits="userSpaceOnUse">
<stop stop-color="#74ABFE"/>
<stop offset="1" stop-color="#6FC3E7"/>
</linearGradient>
<linearGradient id="paint1_linear_577_2467" x1="438.521" y1="168.415" x2="438.521" y2="432.182" gradientUnits="userSpaceOnUse">
<stop stop-color="#001116"/>
<stop offset="1" stop-color="#1727FF"/>
</linearGradient>
<linearGradient id="paint2_linear_577_2467" x1="294.222" y1="6.10142e-08" x2="293.755" y2="190.841" gradientUnits="userSpaceOnUse">
<stop stop-color="#00193E"/>
<stop offset="1" stop-color="#0002A7"/>
</linearGradient>
<linearGradient id="paint3_linear_577_2467" x1="146.597" y1="169.343" x2="146.597" y2="434.585" gradientUnits="userSpaceOnUse">
<stop stop-color="#001116"/>
<stop offset="1" stop-color="#1727FF"/>
</linearGradient>
</defs>
</svg>
