<svg width="586" height="435" viewBox="0 0 586 435" fill="none" xmlns="http://www.w3.org/2000/svg">
<path d="M0 265.411L293.396 96L586.484 264.415L293.396 434.685L0 265.411Z" fill="url(#paint0_linear_577_2453)"/>
<path d="M293.393 0V95.5899L586.48 264.246V168.415L293.393 0Z" fill="#5B8BCD"/>
<path d="M293.396 0V95.6585L0 264.864V169.411L293.396 0Z" fill="#4880D3"/>
<path d="M586.486 168.415V264.349L293.227 434V338.273L586.486 168.415Z" fill="url(#paint1_linear_577_2453)" fill-opacity="0.5"/>
<path d="M0 169.411L293.396 0L586.484 168.415L293.396 338.685L0 169.411Z" fill="url(#paint2_linear_577_2453)" fill-opacity="0.2"/>
<path d="M0 169.343V264.933L293.328 434V338.617L0 169.343Z" fill="url(#paint3_linear_577_2453)" fill-opacity="0.5"/>
<path d="M87.0626 283.557C80.7777 279.928 78.1163 274.578 78.1163 268.876V251.4L81.6435 253.436V270.912C81.6435 275.022 83.4392 277.947 87.0626 280.039C90.718 282.15 92.4816 281.28 92.4816 277.17V259.693L96.0409 261.748V279.225C96.0409 284.927 93.3794 287.204 87.0626 283.557ZM108.089 275.739C111.103 277.48 113.54 280.886 113.54 285.218V298.325L110.398 296.511V284.403C110.398 281.886 109.436 279.627 107.063 278.257C104.369 276.702 102.638 277.591 102.638 280.442V292.031L99.4954 290.216V271.333L102.638 273.147V275.517L102.702 275.554C103.568 274.61 105.267 274.11 108.089 275.739ZM120.304 279.978L116.745 277.923V273.998L120.304 276.053V279.978ZM120.08 302.101L116.937 300.286V281.403L120.08 283.218V302.101ZM129.635 283.921C128.321 283.162 127.936 283.384 127.936 285.384V287.753L130.982 289.512V292.511L127.936 290.752V306.637L124.761 304.804V288.92L122.517 287.624V284.625L124.761 285.921V283.625C124.761 279.256 126.333 278.978 128.994 280.515C129.603 280.867 130.084 281.218 130.982 281.885V284.81C130.341 284.365 130.084 284.18 129.635 283.921ZM135.274 317.501C134.569 317.094 134.088 316.742 133.254 316.075V313.113C133.799 313.502 134.088 313.706 134.601 314.002C135.851 314.724 137.326 314.835 137.968 312.243L131.362 289.731L134.793 291.712L139.571 308.911L139.635 308.948L144.124 297.1L147.427 299.006L140.95 314.594C139.379 318.353 137.807 318.963 135.274 317.501ZM156.348 323.04L152.628 320.893L161.157 299.343L164.973 301.547L173.567 332.982L169.719 330.76L167.827 323.299L158.239 317.764L156.348 323.04ZM163.017 304.194L159.298 314.931L166.833 319.282L163.081 304.231L163.017 304.194ZM179.472 336.391L175.945 334.354V307.881L179.472 309.917V336.391Z" fill="white"/>
<path d="M371.609 350.662L369.151 352.081L374.787 331.335L377.309 329.879L382.987 344.093L380.444 345.561L379.194 342.075L372.859 345.733L371.609 350.662ZM376.016 333.121L373.558 343.054L378.537 340.179L376.058 333.096L376.016 333.121ZM386.889 341.841L384.558 343.186V325.693L386.889 324.348V341.841ZM401.02 334.025C396.486 336.642 393.583 334.477 393.583 329.217C393.583 323.957 396.486 318.464 401.02 315.847C405.554 313.229 408.457 315.37 408.457 320.63C408.457 325.89 405.554 331.407 401.02 334.025ZM401.02 331.7C404.601 329.633 406.02 325.633 406.02 322.036C406.02 318.44 404.601 316.103 401.02 318.171C397.439 320.238 396.019 324.214 396.019 327.81C396.019 331.407 397.439 333.768 401.02 331.7ZM416.432 325.126C412.597 327.34 409.906 326.594 409.737 322.753L412.152 321.359C412.322 323.609 413.529 324.502 416.369 322.863C418.805 321.456 419.547 319.805 419.547 318.215C419.547 315.988 418.064 316.527 415.309 317.309C412.936 317.946 410.33 318.569 410.33 315.242C410.33 312.208 412.364 309.297 415.627 307.413C419.081 305.419 421.327 306.153 421.56 309.542L419.144 310.936C418.89 308.979 417.852 308.428 415.648 309.701C413.741 310.802 412.767 312.172 412.767 313.689C412.767 315.646 414.356 315.144 416.305 314.582C419.229 313.75 421.983 312.967 421.983 316.661C421.983 319.67 420.225 322.937 416.432 325.126ZM441.155 310.51L438.421 312.088L433.294 306.632L430.879 310.987V316.443L428.548 317.789V300.296L430.879 298.95V307.807L438.061 294.803L440.667 293.299L434.735 304.015L441.155 310.51ZM451.181 298.214C451.181 298.556 451.181 298.923 451.16 299.131L442.854 303.926C442.897 305.981 443.956 307.303 446.096 306.067C448.003 304.966 448.744 303.119 448.935 302.177L451.054 300.954C450.482 303.682 448.893 306.41 446.054 308.049C442.621 310.031 440.714 308.318 440.714 304.501C440.714 300.587 442.748 296.721 446.054 294.813C449.338 292.917 451.181 294.348 451.181 298.214ZM442.854 302.042L449.02 298.483C449.02 296.525 447.833 295.743 445.99 296.807C444.253 297.81 442.981 299.914 442.854 302.042ZM457.957 288.039C458.338 287.818 458.635 287.672 458.952 287.537V289.837C458.698 289.935 458.507 290.02 458.253 290.167C456.367 291.256 455.011 293.678 455.011 296.051V302.51L452.935 303.709V291.231L455.011 290.033V292.406L455.054 292.381C455.626 290.485 456.495 288.883 457.957 288.039ZM465.979 283.333C467.971 282.183 469.581 282.575 469.581 285.437V294.098L467.505 295.297V287.297C467.505 285.633 466.869 284.874 465.301 285.78C463.522 286.807 462.377 288.716 462.377 290.599V298.257L460.301 299.456V286.979L462.377 285.78V287.345L462.42 287.321C462.992 286.037 464.115 284.41 465.979 283.333ZM481.742 280.569C481.742 280.912 481.742 281.279 481.721 281.487L473.415 286.282C473.458 288.337 474.517 289.658 476.657 288.423C478.564 287.322 479.305 285.475 479.496 284.533L481.615 283.309C481.043 286.037 479.454 288.765 476.615 290.404C473.182 292.386 471.275 290.673 471.275 286.857C471.275 282.942 473.309 279.077 476.615 277.168C479.899 275.272 481.742 276.704 481.742 280.569ZM473.415 284.398L479.581 280.838C479.581 278.881 478.394 278.098 476.551 279.162C474.814 280.165 473.542 282.27 473.415 284.398ZM485.572 284.866L483.496 286.064V268.571L485.572 267.373V284.866ZM502.671 274.994L492.67 280.768V263.275L495.001 261.929V277.098L502.671 272.67V274.994ZM506.927 272.879C504.765 274.127 503.388 273.479 503.388 271.35C503.388 268.561 505.21 266.677 507.901 264.536C509.596 263.191 510.634 262.347 510.634 261.124C510.634 260.218 510.168 259.729 508.579 260.646C506.694 261.735 506.121 262.75 506.015 264.475L503.897 265.699C504.003 263.24 505.359 260.573 508.664 258.665C510.889 257.38 512.669 257.429 512.669 260.659V266.384C512.669 267.289 512.774 267.693 513.177 267.46C513.241 267.423 513.304 267.387 513.431 267.289V268.757C513.071 269.063 512.711 269.32 512.372 269.515C511.334 270.115 510.783 269.968 510.656 268.622L510.613 268.647C509.914 270.347 508.685 271.864 506.927 272.879ZM507.393 270.677C509.257 269.601 510.634 267.705 510.634 265.527V263.741C510.295 264.304 509.363 265.111 508.261 266.017C506.355 267.558 505.549 268.634 505.549 269.931C505.549 271.106 506.1 271.424 507.393 270.677ZM516.263 271.526C515.796 271.795 515.479 271.93 514.928 272.125V270.168C515.288 270.009 515.479 269.924 515.818 269.728C516.644 269.251 517.619 268.199 518.042 265.997L513.678 256.162L515.945 254.853L519.102 262.572L519.144 262.547L522.11 251.293L524.293 250.033L520.013 265.275C518.975 268.957 517.936 270.56 516.263 271.526ZM535.084 249.772C535.084 250.115 535.084 250.482 535.063 250.689L526.757 255.485C526.8 257.54 527.859 258.861 529.999 257.625C531.906 256.525 532.648 254.677 532.838 253.735L534.957 252.512C534.385 255.24 532.796 257.968 529.957 259.607C526.524 261.589 524.617 259.876 524.617 256.06C524.617 252.145 526.652 248.28 529.957 246.371C533.241 244.475 535.084 245.906 535.084 249.772ZM526.757 253.601L532.923 250.041C532.923 248.084 531.737 247.301 529.893 248.365C528.156 249.368 526.885 251.472 526.757 253.601ZM541.86 239.597C542.241 239.377 542.538 239.23 542.856 239.095V241.395C542.601 241.493 542.411 241.579 542.156 241.725C540.271 242.814 538.915 245.236 538.915 247.609V254.068L536.838 255.267V242.79L538.915 241.591V243.964L538.957 243.94C539.529 242.044 540.398 240.441 541.86 239.597Z" fill="white"/>
<defs>
<linearGradient id="paint0_linear_577_2453" x1="293.242" y1="96" x2="292.775" y2="286.486" gradientUnits="userSpaceOnUse">
<stop stop-color="#74ABFE"/>
<stop offset="1" stop-color="#6FC3E7"/>
</linearGradient>
<linearGradient id="paint1_linear_577_2453" x1="438.521" y1="168.415" x2="438.521" y2="432.182" gradientUnits="userSpaceOnUse">
<stop stop-color="#001116"/>
<stop offset="1" stop-color="#1727FF"/>
</linearGradient>
<linearGradient id="paint2_linear_577_2453" x1="294.222" y1="6.10142e-08" x2="293.755" y2="190.841" gradientUnits="userSpaceOnUse">
<stop stop-color="#00193E"/>
<stop offset="1" stop-color="#0002A7"/>
</linearGradient>
<linearGradient id="paint3_linear_577_2453" x1="146.597" y1="169.343" x2="146.597" y2="434.585" gradientUnits="userSpaceOnUse">
<stop stop-color="#001116"/>
<stop offset="1" stop-color="#1727FF"/>
</linearGradient>
</defs>
</svg>
