<svg width="62" height="68" viewBox="0 0 62 68" fill="none" xmlns="http://www.w3.org/2000/svg">
<g clip-path="url(#clip0_277_4683)">
<path d="M32 13L31 7L37 9L32 13Z" stroke="black" stroke-width="1.5" stroke-linejoin="round"/>
<path d="M29 58.5L30.8068 51.7247C30.8595 51.5267 31.1405 51.5267 31.1932 51.7247L33 58.5L31 61.5L29 58.5Z" stroke="black" stroke-width="1.5"/>
<path d="M51.5 15.5L46.5 18L47 12.5L42.5 8L48.5 7L51.5 1.5L54.5 7L60 8L55.5 12.5L56.5 18L51.5 15.5Z" stroke="black" stroke-width="1.5" stroke-linejoin="round"/>
<path d="M38.2801 40.7706C40.5551 39.2329 42.2848 37.0144 43.2212 34.433C44.1575 31.8516 44.2525 29.04 43.4923 26.4014C42.7322 23.7627 41.1561 21.4325 38.9899 19.7449C36.8237 18.0573 34.1788 17.099 31.4344 17.0073C28.69 16.9156 25.987 17.6953 23.713 19.2345C21.4391 20.7738 19.7109 22.9936 18.7764 25.5756C17.8418 28.1577 17.7489 30.9693 18.5109 33.6074C19.2729 36.2455 20.8506 38.5746 23.018 40.2607" stroke="black" stroke-width="2"/>
<path d="M27.6764 11.278C23.5531 11.9727 19.7512 13.9424 16.8054 16.91C13.8595 19.8776 11.9179 23.6939 11.2536 27.8223C10.5892 31.9506 11.2355 36.1834 13.1016 39.9254C14.9676 43.6673 17.9596 46.7303 21.6568 48.6837" stroke="black" stroke-width="2" stroke-dasharray="3 3"/>
<path d="M23 58.5C23 54.3579 26.3579 51 30.5 51C34.6421 51 38 54.3579 38 58.5V67H23V58.5Z" stroke="black" stroke-width="1.5"/>
<path d="M36 46C36 48.7614 33.7614 51 31 51C28.2386 51 26 48.7614 26 46C26 43.2386 28.2386 41 31 41C33.7614 41 36 43.2386 36 46Z" stroke="black" stroke-width="1.5"/>
<path d="M6.75193 66.6871L7.57586 66.5476L6.75193 66.686V66.6871ZM10.2481 66.6871L9.42414 66.5476L10.2481 66.686V66.6871ZM7.30196 51.6875H9.69804V50H7.30196V51.6875ZM7.57586 51.4524C7.56507 51.518 7.53164 51.5775 7.4815 51.6206C7.43136 51.6636 7.36775 51.6873 7.30196 51.6875V50C6.9724 49.9997 6.65342 50.1176 6.40182 50.3327C6.15022 50.5477 5.98232 50.8472 5.928 51.1756L7.57586 51.4524ZM7.40217 52.5088L7.57586 51.4524L5.928 51.1756L5.75431 52.232L7.40217 52.5088ZM6.6495 53.3953C7.0314 53.267 7.33202 52.934 7.40217 52.5088L5.75431 52.232C5.77104 52.1324 5.81399 52.0393 5.87864 51.9623C5.94329 51.8853 6.02726 51.8273 6.12174 51.7944L6.6495 53.3953ZM4.62308 54.5788C5.21177 54.049 5.90133 53.6462 6.6495 53.3953L6.12174 51.7944C5.15995 52.1176 4.27344 52.6356 3.51634 53.3165L4.62308 54.5788ZM3.48739 54.7948C3.88822 54.9455 4.32246 54.8488 4.62308 54.5788L3.51634 53.3165C3.59172 53.2505 3.68215 53.2062 3.78027 53.1882C3.8784 53.1702 3.97952 53.1791 4.07305 53.2141L3.48739 54.7948ZM2.49311 54.4179L3.48739 54.7948L4.07305 53.2141L3.07765 52.8373L2.49311 54.4179ZM2.83159 54.2941C2.79881 54.3519 2.74679 54.3961 2.68481 54.4187C2.62283 54.4414 2.5549 54.4411 2.49311 54.4179L3.07765 52.8373C2.76909 52.7205 2.43067 52.7182 2.12056 52.8307C1.81046 52.9432 1.54991 53.1631 1.38526 53.4515L2.8327 54.2953L2.83159 54.2941ZM1.63355 56.3934L2.83159 54.2964L1.38526 53.4515L0.186108 55.5485L1.63355 56.3934ZM1.56897 56.0345C1.61991 56.0768 1.65436 56.137 1.66618 56.2025C1.67801 56.268 1.66645 56.3357 1.63355 56.3934L0.186108 55.5485C0.0215129 55.8369 -0.0364833 56.1761 0.0224385 56.5036C0.0813602 56.8311 0.253378 57.1269 0.507886 57.3384L1.56897 56.0345ZM2.38734 56.7174L1.56897 56.0345L0.507886 57.3384L1.32625 58.0201L2.38734 56.7174ZM2.77146 57.8165C2.81186 57.6151 2.79747 57.4076 2.72983 57.2139C2.66219 57.0201 2.54383 56.8485 2.38734 56.7174L1.32625 58.0201C1.24932 57.9558 1.19094 57.8717 1.15725 57.7766C1.12356 57.6816 1.11578 57.5792 1.13474 57.4801L2.77146 57.8165ZM2.65456 59C2.65456 58.5935 2.69353 58.199 2.77146 57.8165L1.13474 57.479C1.03602 57.9725 0.985913 58.4795 0.984429 59H2.65456ZM2.77146 60.1835C2.69355 59.7939 2.65439 59.3975 2.65456 59H0.984429C0.985913 59.5205 1.03602 60.0271 1.13474 60.5199L2.77146 60.1835ZM2.38734 61.2837C2.71691 61.0104 2.85163 60.5817 2.77146 60.1835L1.13474 60.521C1.11578 60.4219 1.12356 60.3195 1.15725 60.2245C1.19094 60.1295 1.24932 60.0454 1.32625 59.981L2.38734 61.2837ZM1.56897 61.9655L2.38734 61.2837L1.32625 59.981L0.507886 60.6616L1.56897 61.9655ZM1.63355 61.6077C1.66645 61.6655 1.67801 61.7331 1.66618 61.7986C1.65436 61.8641 1.61991 61.9232 1.56897 61.9655L0.507886 60.6616C0.25356 60.8732 0.0817585 61.1702 0.0230422 61.4977C-0.0356742 61.8253 0.0213883 62.1632 0.186108 62.4515L1.63355 61.6077ZM2.83159 63.7047L1.63355 61.6077L0.186108 62.4515L1.38526 64.5485L2.83159 63.7047ZM2.49311 63.5821C2.5549 63.5589 2.62283 63.5586 2.68481 63.5813C2.74679 63.6039 2.79881 63.647 2.83159 63.7047L1.38526 64.5485C1.72596 65.1425 2.44189 65.4046 3.07877 65.1627L2.49311 63.5821ZM3.48739 63.2052L2.49311 63.5821L3.07877 65.1627L4.07305 64.7859L3.48739 63.2052ZM4.62308 63.4212C4.47073 63.285 4.28464 63.193 4.08464 63.1552C3.88464 63.1173 3.67822 63.135 3.48739 63.2064L4.07305 64.7859C3.97967 64.8206 3.87877 64.8295 3.78086 64.8115C3.68295 64.7935 3.59161 64.7493 3.51634 64.6835L4.62308 63.4212ZM6.6495 64.6047C5.90133 64.3538 5.21177 63.951 4.62308 63.4212L3.51634 64.6835C4.27435 65.3632 5.15947 65.8809 6.12063 66.2056L6.6495 64.6047ZM7.40217 65.4912C7.36788 65.2885 7.27976 65.0989 7.1472 64.9428C7.01464 64.7867 6.84263 64.6698 6.6495 64.6047L6.12063 66.2056C6.02629 66.1728 5.94353 66.115 5.87889 66.0382C5.81425 65.9614 5.77123 65.8685 5.75431 65.7691L7.40217 65.4912ZM7.57586 66.5476L7.40217 65.4901L5.75431 65.7691L5.92912 66.8255L7.57586 66.5476ZM7.30196 66.3125C7.36775 66.3127 7.43136 66.3364 7.4815 66.3794C7.53164 66.4225 7.56507 66.482 7.57586 66.5476L5.92912 66.8255C5.98346 67.1541 6.15041 67.4526 6.40224 67.6677C6.65408 67.8828 6.97332 68.0006 7.30308 68L7.30196 66.3125ZM9.69804 66.3125H7.30196V68H9.69804V66.3125ZM9.42414 66.5476C9.43493 66.482 9.46836 66.4225 9.5185 66.3794C9.56864 66.3364 9.63225 66.3127 9.69804 66.3125V68C10.0274 68 10.3461 67.882 10.5975 67.667C10.8489 67.4519 11.0166 67.1537 11.0709 66.8255L9.42414 66.5476ZM9.59783 65.4901L9.42414 66.5476L11.072 66.8255L11.2457 65.768L9.59783 65.4901ZM10.3505 64.6047C9.9686 64.733 9.66798 65.066 9.59783 65.4912L11.2457 65.768C11.229 65.8676 11.186 65.9607 11.1214 66.0377C11.0567 66.1147 10.9727 66.1727 10.8783 66.2056L10.3505 64.6047ZM12.3769 63.4212C11.7882 63.951 11.0987 64.3538 10.3505 64.6047L10.8783 66.2056C11.8394 65.8809 12.7256 65.3632 13.4837 64.6835L12.3769 63.4212ZM13.5126 63.2064C13.3219 63.1349 13.1155 63.117 12.9155 63.1546C12.7155 63.1923 12.5294 63.284 12.3769 63.4201L13.4848 64.6835C13.4094 64.7495 13.3179 64.7938 13.2197 64.8118C13.1216 64.8298 13.0205 64.8209 12.927 64.7859L13.5126 63.2052V63.2064ZM14.5069 63.5821L13.5126 63.2052L12.927 64.7859L13.9212 65.1627L14.5069 63.5821ZM14.1684 63.7047C14.2012 63.647 14.2532 63.6039 14.3152 63.5813C14.3772 63.5586 14.4451 63.5589 14.5069 63.5821L13.9212 65.1627C14.2298 65.2795 14.5693 65.2818 14.8794 65.1693C15.1895 65.0568 15.4501 64.8369 15.6147 64.5485L14.1684 63.7047ZM15.3664 61.6077L14.1684 63.7047L15.6147 64.5485L16.8128 62.4515L15.3664 61.6077ZM15.431 61.9655C15.3801 61.9232 15.3456 61.8641 15.3338 61.7986C15.322 61.7331 15.3336 61.6655 15.3664 61.6077L16.8139 62.4515C16.9785 62.1631 17.0365 61.8251 16.9776 61.4975C16.9186 61.17 16.7466 60.8742 16.4921 60.6627L15.431 61.9655ZM14.6127 61.2837L15.431 61.9655L16.4921 60.6627L15.6738 59.981L14.6127 61.2837ZM14.2285 60.1835C14.1484 60.5817 14.2831 61.0104 14.6127 61.2837L15.6738 59.981C15.8408 60.1194 15.9031 60.3309 15.8653 60.521L14.2285 60.1835ZM14.3454 59C14.3454 59.4073 14.3065 59.8018 14.2285 60.1835L15.8653 60.521C15.964 60.0275 16.0141 59.5205 16.0156 59H14.3454ZM14.2285 57.8165C14.3057 58.1982 14.3447 58.5928 14.3454 59H16.0156C16.0156 58.4795 15.9655 57.9729 15.8653 57.4801L14.2285 57.8165ZM14.6127 56.7162C14.4562 56.8474 14.3378 57.019 14.2702 57.2128C14.2025 57.4065 14.1881 57.6151 14.2285 57.8165L15.8653 57.479C15.8842 57.5781 15.8764 57.6805 15.8428 57.7755C15.8091 57.8705 15.7507 57.9546 15.6738 58.019L14.6127 56.7162ZM15.431 56.0345L14.6127 56.7162L15.6738 58.019L16.4921 57.3372L15.431 56.0345ZM15.3664 56.3923C15.3336 56.3345 15.322 56.2669 15.3338 56.2014C15.3456 56.1359 15.3801 56.0768 15.431 56.0345L16.4921 57.3372C16.7464 57.1257 16.9182 56.8298 16.977 56.5023C17.0357 56.1747 16.9775 55.8368 16.8128 55.5485L15.3664 56.3923ZM14.1673 54.2953L15.3664 56.3923L16.8139 55.5485L15.6147 53.4515L14.1673 54.2953ZM14.5069 54.4179C14.4451 54.4411 14.3772 54.4414 14.3152 54.4187C14.2532 54.3961 14.2012 54.3519 14.1684 54.2941L15.6147 53.4504C15.4499 53.1622 15.1893 52.9425 14.8792 52.8302C14.5691 52.7179 14.2297 52.7204 13.9212 52.8373L14.5069 54.4179ZM13.5126 54.7936L14.5069 54.4179L13.9212 52.8373L12.9258 53.2141L13.5126 54.7936ZM12.3769 54.5799C12.6775 54.8499 13.1118 54.9455 13.5126 54.7936L12.9258 53.2141C13.0192 53.1794 13.1212 53.1705 13.2191 53.1885C13.317 53.2065 13.4084 53.2507 13.4837 53.3165L12.3769 54.5799ZM10.3505 53.3953C11.0987 53.6462 11.7882 54.0501 12.3769 54.5799L13.4848 53.3165C12.7277 52.6356 11.8412 52.1176 10.8794 51.7944L10.3505 53.3953ZM9.59783 52.5088C9.66798 52.9351 9.9686 53.267 10.3505 53.3953L10.8783 51.7944C10.9727 51.8273 11.0567 51.8853 11.1214 51.9623C11.186 52.0393 11.229 52.1324 11.2457 52.232L9.59783 52.5088ZM9.42414 51.4524L9.59783 52.5088L11.2457 52.232L11.0709 51.1745L9.42414 51.4524ZM9.69804 51.6875C9.63225 51.6873 9.56864 51.6636 9.5185 51.6206C9.46836 51.5775 9.43493 51.518 9.42414 51.4524L11.072 51.1756C11.0179 50.8468 10.8499 50.5481 10.5981 50.3327C10.3462 50.1174 10.0268 49.9995 9.69692 50V51.6875H9.69804ZM11.0052 59C11.0052 59.6713 10.7413 60.3152 10.2714 60.7899C9.80162 61.2646 9.16442 61.5312 8.5 61.5312V63.2187C9.60736 63.2187 10.6694 62.7743 11.4524 61.9831C12.2354 61.1919 12.6753 60.1189 12.6753 59H11.0052ZM8.5 56.4688C9.16442 56.4688 9.80162 56.7354 10.2714 57.2101C10.7413 57.6848 11.0052 58.3287 11.0052 59H12.6753C12.6753 57.8811 12.2354 56.8081 11.4524 56.0169C10.6694 55.2257 9.60736 54.7813 8.5 54.7813V56.4688ZM5.99481 59C5.99481 58.3287 6.25875 57.6848 6.72856 57.2101C7.19838 56.7354 7.83558 56.4688 8.5 56.4688V54.7813C7.39264 54.7813 6.33063 55.2257 5.5476 56.0169C4.76458 56.8081 4.32468 57.8811 4.32468 59H5.99481ZM8.5 61.5312C7.83558 61.5312 7.19838 61.2646 6.72856 60.7899C6.25875 60.3152 5.99481 59.6713 5.99481 59H4.32468C4.32468 60.1189 4.76458 61.1919 5.5476 61.9831C6.33063 62.7743 7.39264 63.2187 8.5 63.2187V61.5312Z" fill="#111111"/>
<path d="M27 35L31.5 31.5V23" stroke="black" stroke-width="2"/>
</g>
<defs>
<clipPath id="clip0_277_4683">
<rect width="61.23" height="67.81" fill="white"/>
</clipPath>
</defs>
</svg>
