<svg width="74" height="76" viewBox="0 0 74 76" fill="none" xmlns="http://www.w3.org/2000/svg">
<path d="M26.2964 19.8882C25.9016 19.5263 25.8687 18.9012 26.2306 18.5065C26.5925 18.1117 27.2176 18.0788 27.6124 18.4407L31.988 22.4544C32.4157 22.8492 32.4157 23.5236 31.988 23.9019L27.6124 27.9156C27.2176 28.2775 26.5925 28.2446 26.2306 27.8498C25.8687 27.4551 25.8852 26.83 26.2964 26.4681L29.8989 23.1781L26.2964 19.8882ZM20.6049 28.1788C20.3746 28.6723 19.7824 28.8697 19.2889 28.6394C18.7954 28.4091 18.598 27.8169 18.8283 27.3235L23.2532 18.161C23.4835 17.6675 24.0757 17.4701 24.5692 17.7004C25.0627 17.9307 25.2601 18.5229 25.0298 19.0164L20.6049 28.1788ZM16.2457 18.4407C16.6405 18.0788 17.2656 18.0952 17.6275 18.5065C17.9894 18.9012 17.9729 19.5263 17.5617 19.8882L13.9592 23.1781L17.5617 26.4681C17.9565 26.83 17.9894 27.4551 17.6275 27.8498C17.2656 28.2446 16.6405 28.2775 16.2457 27.9156L11.8537 23.9019C11.426 23.5071 11.426 22.8492 11.8537 22.4544L16.2457 18.4407ZM51.5137 46.4544C55.7413 46.4544 59.1628 49.8759 59.1628 54.1035C59.1628 58.331 55.7413 61.7525 51.5137 61.7525C47.2862 61.7525 43.8646 58.331 43.8646 54.1035C43.8646 49.8759 47.2862 46.4544 51.5137 46.4544ZM55.5274 50.0898C53.3067 47.869 49.7207 47.869 47.5 50.0898C45.2793 52.3105 45.2793 55.8965 47.5 58.1172C49.7207 60.3379 53.3067 60.3379 55.5274 58.1172C57.7481 55.9129 57.7481 52.3105 55.5274 50.0898ZM49.3424 38.9533H53.6686C54.2115 38.9533 54.6556 39.3975 54.6556 39.9403V41.9801C55.7742 42.2762 56.8599 42.7203 57.8468 43.3125L59.2779 41.8814C59.6727 41.4866 60.2978 41.4866 60.6762 41.8814L63.7358 44.941C64.1141 45.3194 64.1141 45.9444 63.7358 46.3392L62.2882 47.7704C62.864 48.7738 63.3246 49.843 63.6207 50.9616H65.6604C66.2032 50.9616 66.6474 51.4057 66.6474 51.9486V56.2748C66.6474 56.8506 66.1868 57.2947 65.5782 57.2618H63.6371C63.341 58.3804 62.8969 59.466 62.3047 60.4695L63.7522 61.9006C64.1306 62.2954 64.1306 62.9205 63.7522 63.2988L60.6926 66.3584C60.2978 66.7368 59.6727 66.7368 59.2944 66.3584L57.8633 64.9109C56.8599 65.5031 55.7906 65.9472 54.672 66.2433V68.283C54.672 68.8259 54.2279 69.27 53.6851 69.27H49.3588C48.816 69.27 48.3718 68.8259 48.3718 68.283V66.2433C47.2533 65.9472 46.1676 65.5031 45.1806 64.9109L43.7495 66.3584C43.3547 66.7368 42.7296 66.7368 42.3513 66.3584L39.2916 63.2988C38.8968 62.904 38.8968 62.2789 39.2916 61.9006L40.7228 60.4695C40.147 59.466 39.6864 58.3968 39.3903 57.2782H37.3506C36.8077 57.2782 36.3636 56.8341 36.3636 56.2913V51.965C36.3636 51.4222 36.8077 50.978 37.3506 50.978H39.3903C39.6864 49.8595 40.1306 48.7738 40.7228 47.7868L39.2916 46.3557C38.8968 45.9609 38.8968 45.3358 39.2916 44.9575L42.3513 41.8978C42.7296 41.503 43.3547 41.503 43.7495 41.8978L45.1806 43.3289C46.184 42.7532 47.2533 42.2926 48.3883 41.9965V39.9568C48.3554 39.3975 48.7995 38.9533 49.3424 38.9533ZM52.6816 40.9273H50.3293V42.7039C50.3622 43.1974 50.0168 43.6415 49.5233 43.7237C48.2402 43.9705 46.6611 44.5791 45.6247 45.3358C45.23 45.6319 44.6707 45.599 44.3252 45.2536L43.0257 43.954L41.3643 45.6154L42.6638 46.915C42.9928 47.244 43.0586 47.7703 42.779 48.1651C42.3677 48.7573 42.0223 49.3989 41.7591 50.0568C41.4959 50.6984 41.2985 51.3564 41.1505 52.0473C41.0847 52.5407 40.6734 52.9191 40.1635 52.9191H38.3211V55.2714H40.1635C40.6241 55.2714 41.0353 55.6004 41.134 56.0774C41.3807 57.3605 41.9894 58.9397 42.7461 59.9924C43.0422 60.3872 43.0257 60.9465 42.6638 61.292L41.3643 62.5915L43.0257 64.2529L44.3252 62.9534C44.6542 62.6244 45.1806 62.5586 45.5754 62.8382C46.1676 63.233 46.8091 63.5785 47.4671 63.8581C48.1086 64.1213 48.7666 64.3187 49.4575 64.4667C49.951 64.5325 50.3293 64.9438 50.3293 65.4537V67.2796H52.6816V65.4537C52.6816 64.9931 53.0106 64.5654 53.4877 64.4832C54.7707 64.2364 56.3499 63.6278 57.3862 62.8711C57.781 62.575 58.3403 62.5915 58.6858 62.9534L59.9853 64.2529L61.6467 62.5915L60.3472 61.292C60.0182 60.963 59.9524 60.4366 60.232 60.0418C61.0381 58.8574 61.5973 57.5085 61.8605 56.0939C61.9428 55.6497 62.3376 55.2878 62.8311 55.2878H64.657V52.9355H62.8311C62.3705 52.9355 61.9428 52.6065 61.8605 52.1295C61.6138 50.8464 61.0052 49.2673 60.2485 48.2309C59.9524 47.8362 59.9688 47.2769 60.3307 46.9314L61.6302 45.6319L59.9688 43.9705L58.6693 45.27C58.3403 45.599 57.8139 45.6648 57.4191 45.3852C56.827 44.9739 56.1854 44.6285 55.5274 44.3653C54.8859 44.1021 54.2279 43.9047 53.537 43.7566C53.0435 43.7073 52.6652 43.2796 52.6652 42.7697V40.9273H52.6816ZM49.7372 73.4811C50.28 73.5305 50.6912 73.9911 50.6419 74.5339C50.5925 75.0767 50.132 75.488 49.5891 75.4386C36.0511 74.3694 26.6419 61.3742 29.9482 48.0993C29.1587 47.9513 28.8626 46.9808 29.4383 46.4215L31.0668 44.8752C31.6261 44.3488 32.5473 44.6285 32.7118 45.3852L33.1888 47.6881C33.3533 48.4777 32.5308 49.1192 31.8071 48.7738C28.9448 60.8149 37.4822 72.5106 49.7372 73.4811ZM7.74124 39.891C7.33 39.5455 7.28065 38.9205 7.6261 38.5092C7.97154 38.098 8.59662 38.0486 9.00786 38.3941C14.6336 43.1974 22.4966 44.5133 29.4054 41.7991C31.7248 40.878 33.9949 39.4633 35.7714 37.8019C40.0648 33.5414 45.6906 31.4194 51.3328 31.4359C56.827 31.4523 62.3211 33.4921 66.5816 37.5716C67.0915 36.9794 68.0621 37.1932 68.2759 37.9664L68.8845 40.2035C69.0819 40.9438 68.3746 41.6511 67.6015 41.3879L65.3808 40.6641C64.5912 40.4174 64.4596 39.3646 65.134 38.9205C61.2684 35.2522 56.3006 33.4263 51.3492 33.4098C46.2169 33.3934 41.0847 35.3344 37.1696 39.2165C37.1532 39.233 37.1367 39.2494 37.1203 39.2659C28.9284 46.8656 16.2786 47.1617 7.74124 39.891ZM21.049 0.132211C21.7399 -0.26258 22.5788 0.280258 22.5295 1.05339C36.0346 1.33303 46.1018 13.6209 43.7659 26.9287C43.6672 27.4715 43.1573 27.8169 42.6309 27.7347C42.0881 27.636 41.7426 27.1261 41.8249 26.5997C43.9304 14.5256 34.8502 3.35634 22.5953 3.02735C22.7433 3.81693 21.9044 4.45846 21.1806 4.08012L19.075 3.0109C18.3842 2.66545 18.3513 1.67848 19.0257 1.28369L21.049 0.132211ZM2.54316 35.4002C1.81937 34.989 1.91807 33.9362 2.67476 33.6401C-1.28961 26.3365 -0.812567 17.4372 3.87558 10.6106C6.39237 6.95881 9.97839 4.09657 14.1895 2.48451C14.6994 2.28711 15.2587 2.55031 15.4561 3.06025C15.6535 3.57018 15.3903 4.12947 14.8804 4.32687C4.9448 8.12673 -0.351978 19.0822 2.93795 29.281C3.31629 30.4653 3.80978 31.6004 4.38552 32.686C4.99415 32.1597 5.96468 32.5544 6.01403 33.3769L6.14563 35.7292C6.17853 36.5024 5.35605 37.0287 4.66516 36.634L2.54316 35.4002ZM57.6001 74.6162C57.9291 75.3728 57.2382 76.1789 56.4322 75.965L54.047 75.3235C53.3232 75.1261 53.0106 74.1556 53.7015 73.5963L55.4123 72.0665C56.0209 71.5236 56.9915 71.9184 57.0408 72.7244C64.2622 70.586 69.707 64.5161 71.0723 57.1302C71.8126 53.1494 71.3355 49.0041 69.6577 45.2536C69.4438 44.7601 69.6577 44.1843 70.1512 43.954C70.6446 43.7237 71.2204 43.954 71.4507 44.4475C76.2375 55.1233 71.8455 67.7402 61.3835 73.1028C60.1662 73.7279 58.8996 74.2378 57.6001 74.6162ZM21.9208 37.3742C14.0744 37.3742 7.72479 31.0246 7.72479 23.1781C7.72479 15.3317 14.0744 8.98211 21.9208 8.98211C29.7673 8.98211 36.1169 15.3317 36.1169 23.1781C36.1333 31.0246 29.7673 37.3742 21.9208 37.3742ZM13.2848 31.8142C18.0552 36.5846 25.8029 36.5846 30.5733 31.8142C35.3437 27.0438 35.3437 19.296 30.5733 14.5256C25.8029 9.75525 18.0552 9.75525 13.2848 14.5256C8.51438 19.3125 8.51438 27.0438 13.2848 31.8142Z" fill="#111111"/>
</svg>
