<svg width="40" height="40" viewBox="0 0 40 40" fill="none" xmlns="http://www.w3.org/2000/svg">
<path d="M19.8576 15.1406C17.2553 15.1406 15.1416 17.2543 15.1416 19.8566C15.1416 22.4589 17.2553 24.5778 19.8576 24.5778C22.4599 24.5778 24.5787 22.4589 24.5787 19.8566C24.5787 17.2543 22.4599 15.1406 19.8576 15.1406Z" fill="#111111"/>
<path d="M26.9749 7H12.7394C9.57657 7 7 9.57657 7 12.7394V26.9749C7 30.1429 9.57657 32.7143 12.7394 32.7143H26.9749C30.1429 32.7143 32.7143 30.1429 32.7143 26.9749V12.7394C32.7143 9.57657 30.1429 7 26.9749 7ZM19.8571 28.1886C15.2646 28.1886 11.5257 24.4497 11.5257 19.8571C11.5257 15.2646 15.2646 11.5309 19.8571 11.5309C24.4497 11.5309 28.1886 15.2646 28.1886 19.8571C28.1886 24.4497 24.4497 28.1886 19.8571 28.1886ZM28.3634 13.0429C27.3914 13.0429 26.5994 12.256 26.5994 11.284C26.5994 10.312 27.3914 9.52 28.3634 9.52C29.3354 9.52 30.1274 10.312 30.1274 11.284C30.1274 12.256 29.3354 13.0429 28.3634 13.0429Z" fill="#111111"/>
</svg>
