<svg width="40" height="40" viewBox="0 0 40 40" fill="none" xmlns="http://www.w3.org/2000/svg">
<path d="M32.9997 33V23.4776C32.9997 18.7976 31.9922 15.2227 26.5322 15.2227C23.8997 15.2227 22.1447 16.6526 21.4297 18.0176H21.3647V15.6452H16.1973V33H21.5922V24.3876C21.5922 22.1126 22.0147 19.9351 24.8097 19.9351C27.5722 19.9351 27.6047 22.5026 27.6047 24.5176V32.9675H32.9997V33Z" fill="#111111"/>
<path d="M7.42285 15.6465H12.8178V33.0014H7.42285V15.6465Z" fill="#111111"/>
<path d="M10.12 7C8.39749 7 7 8.39749 7 10.12C7 11.8425 8.39749 13.2725 10.12 13.2725C11.8425 13.2725 13.24 11.8425 13.24 10.12C13.24 8.39749 11.8425 7 10.12 7Z" fill="#111111"/>
</svg>
