<svg width="40" height="40" viewBox="0 0 40 40" fill="none" xmlns="http://www.w3.org/2000/svg">
<path d="M21.1831 19.6767L27.0903 28.1261H24.666L19.8456 21.2313V21.2309L19.1379 20.2188L13.5068 12.1641H15.9312L20.4754 18.6645L21.1831 19.6767Z" fill="#111111"/>
<path d="M30.5933 7H10.0161C8.44961 7 7.17969 8.26993 7.17969 9.83637V30.4136C7.17969 31.9801 8.44961 33.25 10.0161 33.25H30.5933C32.1598 33.25 33.4297 31.9801 33.4297 30.4136V9.83637C33.4297 8.26993 32.1598 7 30.5933 7ZM23.9228 29.2605L19.0448 22.1612L12.9376 29.2605H11.3591L18.344 21.1416L11.3591 10.976H16.6866L21.3057 17.6985L27.0888 10.976H28.6672L22.0068 18.7184H22.0063L29.2502 29.2605H23.9228Z" fill="#111111"/>
</svg>
