<svg width="40" height="40" viewBox="0 0 40 40" fill="none" xmlns="http://www.w3.org/2000/svg">
<path d="M36.5439 9.20739C35.225 7.63954 32.7899 7 28.1393 7H11.258C6.50109 7 4.02474 7.68079 2.71077 9.35001C1.42969 10.9775 1.42969 13.3755 1.42969 16.6943V23.0201C1.42969 29.4498 2.94968 32.7143 11.258 32.7143H28.1395C32.1724 32.7143 34.4071 32.1499 35.8528 30.7663C37.3355 29.3475 37.968 27.0308 37.968 23.0201V16.6943C37.968 13.1943 37.8689 10.7822 36.5439 9.20739ZM24.8874 20.7305L17.2217 24.7369C17.0503 24.8265 16.8629 24.8709 16.6757 24.8709C16.4638 24.8709 16.2524 24.8139 16.0651 24.7005C15.7124 24.4868 15.4971 24.1045 15.4971 23.6923V15.7052C15.4971 15.2936 15.7118 14.9117 16.0638 14.6979C16.4158 14.4841 16.8537 14.4695 17.219 14.6593L24.8847 18.6398C25.2747 18.8423 25.5197 19.2449 25.5203 19.6842C25.5207 20.1239 25.2769 20.5271 24.8874 20.7305Z" fill="#111111"/>
</svg>
