<svg preserveAspectRatio="none" width="100%" height="100%" overflow="visible" style="display: block;" viewBox="0 0 63.8068 70.3595" fill="none" xmlns="http://www.w3.org/2000/svg">
<g id="icon">
<path id="Vector" d="M0.17245 38.9245C0.799808 36.1366 1.60827 33.4485 2.31982 30.735C3.14778 27.5776 3.98945 24.4235 4.85843 21.2772C5.58565 18.6442 8.24143 17.3685 10.6864 18.4381C12.4165 19.1949 13.4352 21.2545 13.1203 23.2547C12.7109 25.8551 12.3472 28.4626 11.9461 31.0644C11.8784 31.504 12.1303 31.4886 12.4123 31.4903C13.351 31.4961 14.2229 31.7501 15.0366 32.2084C16.0923 32.803 16.7557 33.6969 17.0617 34.8674C17.3947 36.1414 17.7479 37.4101 18.0732 38.6859C18.1523 38.9958 18.2972 39.2437 18.5081 39.4749C20.0027 41.1128 21.4901 42.7574 22.9849 44.3951C23.2358 44.67 23.4075 44.9737 23.5021 45.3361C23.9645 47.1088 24.4349 48.8795 24.9128 50.6481C24.9709 50.8631 24.9894 51.1057 25.2157 51.3043C25.5554 51.218 25.9198 51.1145 26.2891 51.0339C27.3162 50.8096 28.0478 51.2675 28.3224 52.2868C29.2656 55.7883 30.2135 59.2885 31.1542 62.7907C31.3229 63.4189 31.5162 64.0579 31.0521 64.6543C30.7975 64.9815 30.4709 65.1945 30.0657 65.3028C23.8487 66.9641 17.6333 68.631 11.416 70.2911C10.4667 70.5446 9.75379 70.0868 9.46263 69.0266C8.90641 67.0014 8.36892 64.971 7.82379 62.9427C7.41746 61.4308 7.0299 59.9136 6.59809 58.4091C6.34479 57.5265 6.35596 56.7462 7.21092 56.1492C6.22242 54.694 5.10094 53.3924 3.87354 52.1893C2.44536 50.7894 1.47573 49.1194 0.861451 47.2429C0.0602573 44.7954 -0.161002 42.2782 0.110334 39.7173C0.136484 39.4705 0.145145 39.2219 0.17245 38.9245ZM3.10813 45.86C3.64383 47.7598 4.61115 49.3818 6.03907 50.7687C7.35591 52.0477 8.51487 53.4794 9.51881 55.0234C9.73297 55.3528 9.93425 55.4246 10.3158 55.3205C13.3002 54.5065 16.2918 53.7191 19.28 52.9189C20.4014 52.6186 21.5196 52.306 22.6523 51.9954C22.6392 51.8501 22.6441 51.754 22.6205 51.6655C22.1439 49.8758 21.6631 48.0871 21.1857 46.2975C21.129 46.085 20.995 45.9274 20.8527 45.771C19.386 44.1587 17.9282 42.5381 16.4484 40.938C16.0841 40.5442 15.8628 40.1089 15.7291 39.5965C15.3676 38.2108 14.9698 36.8345 14.6055 35.4495C14.3782 34.5855 13.7366 34.2391 12.9515 34.0604C12.1696 33.8824 11.429 33.9352 10.8089 34.5202C10.6518 34.6684 10.5833 34.8659 10.5156 35.0691C10.3132 35.6773 10.5409 36.2427 10.6894 36.8071C11.4763 39.7975 12.2831 42.7827 13.0757 45.7716C13.2977 46.6085 12.9763 47.2353 12.2407 47.4553C11.5371 47.6657 10.9095 47.2704 10.6786 46.4226C9.81038 43.2355 8.94085 40.0487 8.10373 36.8534C7.74452 35.4823 7.83673 34.1387 8.77349 32.996C9.1117 32.5834 9.24429 32.1547 9.3152 31.6558C9.6344 29.4098 9.98221 27.1679 10.2966 24.9213C10.431 23.9606 10.7048 23.0089 10.5784 22.0244C10.4767 21.2319 9.95919 20.727 9.1539 20.5975C8.48842 20.4904 7.72303 20.9194 7.43695 21.5826C7.33182 21.8263 7.26773 22.089 7.19837 22.3466C5.94276 27.0109 4.74794 31.6926 3.41475 36.3346C2.5127 39.4754 2.29122 42.593 3.10813 45.86ZM26.4893 63.0589C26.9477 62.9375 27.42 62.8591 27.8351 62.646C27.9115 62.4448 27.8139 62.2845 27.7714 62.1245C27.1432 59.7632 26.4868 57.4091 25.8885 55.0403C25.7403 54.4535 25.5083 54.3928 24.9782 54.5377C20.6874 55.7105 16.3894 56.8573 12.0943 58.0142C11.3652 58.2106 10.6391 58.418 9.85398 58.6363C10.6051 61.4353 11.3348 64.1547 12.0837 66.9454C16.8966 65.6461 21.6474 64.3635 26.4893 63.0589Z" fill="var(--fill-0, #0205FA)"/>
<path id="Vector_2" d="M45.5178 68.4779C41.5827 67.4173 37.6912 66.3747 33.8024 65.3218C32.7074 65.0253 32.3005 64.2909 32.5946 63.1908C33.5559 59.5951 34.5184 55.9998 35.4839 52.4052C35.8198 51.1543 36.4732 50.7813 37.7549 51.0943C38.6343 51.309 38.642 51.3111 38.8742 50.4476C39.3154 48.807 39.7531 47.1654 40.1788 45.5207C40.3169 44.9875 40.5801 44.5508 40.9561 44.1455C42.386 42.604 43.7875 41.0361 45.2104 39.488C45.4527 39.2245 45.6014 38.934 45.6899 38.5939C46.0027 37.3932 46.3186 36.1933 46.645 34.9963C47.2267 32.8626 48.907 31.5511 51.1201 31.4919C51.9122 31.4707 51.9088 31.4712 51.7958 30.6995C51.4169 28.1136 50.9876 25.5337 50.6796 22.9394C50.4169 20.7258 51.7393 18.6259 53.9436 18.1445C56.0647 17.6813 58.2622 18.901 58.8734 21.0612C59.9751 24.9546 60.9996 28.8699 62.0461 32.7788C62.5741 34.7509 63.2693 36.7019 63.5569 38.71C64.2074 43.252 63.7015 47.625 60.6829 51.3441C59.5905 52.6901 58.2756 53.8534 57.2268 55.2471C57.1348 55.3693 57.0524 55.4997 56.9512 55.6135C56.6883 55.9093 56.613 56.1571 56.9597 56.484C57.4027 56.9016 57.4484 57.4709 57.2988 58.0334C56.3128 61.7416 55.3242 65.4491 54.3162 69.1513C54.052 70.1219 53.2479 70.5359 52.2609 70.2742C50.0275 69.6822 47.7952 69.0863 45.5178 68.4779ZM56.4424 21.6896C56.1285 20.9314 55.5372 20.5509 54.7408 20.5681C54.0718 20.5826 53.6022 20.9597 53.3532 21.5934C53.1346 22.1498 53.1791 22.7227 53.2613 23.2907C53.6247 25.801 53.9842 28.3121 54.3799 30.8174C54.4828 31.4685 54.362 32.2309 54.7902 32.7477C55.877 34.0594 56.013 35.4959 55.5943 37.0583C54.7591 40.175 53.9195 43.2905 53.0802 46.4061C52.9891 46.7443 52.85 47.0544 52.5391 47.2558C52.0738 47.5572 51.603 47.5622 51.1384 47.2681C50.6746 46.9746 50.4918 46.4108 50.6565 45.7347C50.8326 45.0118 51.0353 44.2953 51.2275 43.5763C51.8782 41.1421 52.5383 38.7103 53.1748 36.2723C53.3524 35.5922 53.4176 34.8992 52.8028 34.3626C51.9465 33.6152 49.4847 33.8598 49.0991 35.4949C48.7881 36.8138 48.3797 38.1095 48.0579 39.4261C47.9026 40.0615 47.6116 40.5862 47.1711 41.0614C45.8065 42.533 44.458 44.0195 43.1072 45.5038C42.8642 45.7708 42.6265 46.0357 42.5279 46.4091C42.0844 48.0884 41.6365 49.7668 41.1591 51.4367C41.0349 51.8712 41.1966 52.0204 41.5729 52.117C42.4607 52.3448 43.3438 52.591 44.2293 52.828C47.3099 53.6526 50.3918 54.473 53.4703 55.3055C53.8277 55.4021 54.0612 55.3693 54.2878 55.0251C55.4379 53.2786 56.8004 51.7033 58.2791 50.229C58.8819 49.6279 59.3795 48.9521 59.7561 48.1971C61.4158 44.8698 61.66 41.3798 60.7459 37.8254C59.3667 32.4629 57.8989 27.1231 56.4424 21.6896ZM43.3343 64.7121C45.9324 65.4158 48.533 66.1103 51.1261 66.8317C51.5887 66.9604 51.7579 66.8297 51.8732 66.3853C52.4765 64.0586 53.1062 61.7387 53.7271 59.4165C53.9371 58.6308 53.936 58.6367 53.1517 58.4263C49.7788 57.5212 46.4075 56.6102 43.0344 55.7058C41.4155 55.2717 39.794 54.8475 38.2027 54.4265C38.0221 54.5912 37.9962 54.7636 37.9521 54.9277C37.2993 57.3602 36.6569 59.7956 35.9836 62.2224C35.8643 62.6524 36.0389 62.7512 36.3871 62.8435C38.6751 63.4496 40.9596 64.0688 43.3343 64.7121Z" fill="var(--fill-0, #0205FA)"/>
<path id="Vector_3" d="M37.4885 41.7374C36.9983 41.2926 36.6248 40.7783 36.1175 40.4444C35.8132 40.6005 35.889 40.8351 35.885 41.0318C35.8746 41.5478 35.8947 42.0646 35.8774 42.5803C35.8522 43.3303 35.3551 43.847 34.6043 43.8521C32.3866 43.867 30.1686 43.8672 27.9509 43.8509C27.1782 43.8453 26.6924 43.3356 26.6516 42.5326C26.6254 42.0177 26.6482 41.5004 26.6385 40.9843C26.6351 40.8041 26.6972 40.591 26.4222 40.4589C25.9397 40.7326 25.5986 41.1995 25.1944 41.5898C24.3049 42.4485 23.7173 42.4584 22.8536 41.5965C21.4733 40.2189 20.0939 38.8405 18.7149 37.4616C17.7691 36.5158 17.7732 35.9318 18.6942 34.9815C19.0584 34.6057 19.5046 34.2946 19.7432 33.8231C19.587 33.5491 19.353 33.6181 19.1568 33.6124C18.6792 33.5983 18.2 33.6259 17.7232 33.6013C16.9169 33.5599 16.4144 33.1247 16.3766 32.3239C16.3245 31.2178 16.318 30.1057 16.3692 28.9998C16.4093 28.1333 16.9224 27.7258 17.8132 27.7241C19.8972 27.7202 21.9812 27.7243 24.0652 27.7219C25.165 27.7207 25.5943 28.1013 25.648 29.2128C25.6846 29.9703 25.8528 30.6822 26.1738 31.3663C27.197 33.5467 29.6128 34.9012 31.9429 34.5937C34.4116 34.2679 36.3972 32.413 36.8413 30.0126C36.9072 29.6565 36.9583 29.3001 36.964 28.9335C36.975 28.2182 37.4405 27.7301 38.1472 27.7259C40.4032 27.7127 42.6594 27.7136 44.9153 27.7305C45.646 27.736 46.1565 28.2483 46.1799 29.0225C46.2128 30.1111 46.2121 31.2026 46.1737 32.2911C46.1458 33.0811 45.6518 33.5428 44.8494 33.5968C44.3926 33.6275 43.9319 33.5972 43.4735 33.6117C43.2535 33.6186 42.961 33.5312 42.8456 33.7727C42.7188 34.0381 43.0144 34.163 43.1613 34.3192C43.4626 34.6392 43.7886 34.9358 44.0912 35.2547C44.6508 35.8444 44.6706 36.5737 44.1044 37.1475C42.5602 38.7126 41.0059 40.2678 39.4414 41.8125C38.8351 42.4112 38.2344 42.3787 37.4885 41.7374ZM23.9121 32.5023C23.6528 31.9265 23.4238 31.3401 23.2952 30.7191C23.2368 30.4375 23.137 30.2147 22.7842 30.2168C21.6188 30.2239 20.4532 30.2221 19.2877 30.2166C18.9881 30.2152 18.8891 30.3594 18.888 30.6418C18.8869 30.9341 19.0089 31.0599 19.2991 31.0552C19.7004 31.0489 20.1024 31.0452 20.5032 31.0623C21.1386 31.0893 21.5765 31.3901 21.8015 32.005C21.9917 32.5245 22.2071 33.0356 22.4298 33.5423C22.6909 34.1363 22.6054 34.6583 22.1512 35.1192C21.8694 35.4051 21.5872 35.6907 21.2992 35.9704C21.1272 36.1375 21.0405 36.2956 21.2469 36.5022C22.1356 37.392 23.0204 38.2857 24.0146 39.2866C24.4041 38.8527 24.7393 38.4649 25.0901 38.0919C25.5523 37.6003 26.0876 37.5164 26.7052 37.7997C27.2078 38.0302 27.7262 38.2279 28.2433 38.4251C28.8007 38.6377 29.1207 39.0341 29.1643 39.6228C29.1967 40.06 29.1993 40.5022 29.1754 40.94C29.157 41.2756 29.2886 41.3781 29.6046 41.3731C30.3882 41.3607 31.1721 41.3686 31.9559 41.3684C33.301 41.3681 33.301 41.3682 33.3225 40.001C33.3234 39.9437 33.3223 39.8862 33.3253 39.829C33.3682 39.0115 33.6269 38.674 34.393 38.3868C34.8398 38.2192 35.2809 38.0344 35.7168 37.84C36.463 37.5072 36.8876 37.5771 37.4812 38.1346C37.8385 38.4701 38.1359 38.8734 38.4564 39.0726C39.4555 38.0919 40.4149 37.1503 41.4951 36.0901C41.1504 35.7983 40.7661 35.5105 40.4268 35.1771C39.8707 34.6306 39.7993 34.1632 40.1096 33.462C40.2024 33.2523 40.3498 33.0548 40.3912 32.8363C40.6768 31.3273 41.6283 30.8461 43.0585 31.0495C43.3573 31.092 43.63 31.0652 43.6288 30.6256C43.6277 30.2052 43.3495 30.228 43.0859 30.2254C42.1684 30.2161 41.2507 30.218 40.3331 30.2171C39.4368 30.2161 39.4368 30.2168 39.2041 31.0651C38.2283 34.6212 35.031 37.1764 31.3575 37.1464C28.0177 37.1191 25.535 35.5376 23.9121 32.5023Z" fill="var(--fill-0, #0205FA)"/>
<path id="Vector_4" d="M33.5862 15.2642C34.0323 14.8153 34.4514 14.3967 34.8669 13.9746C35.1784 13.658 35.5471 13.4844 35.9966 13.52C39.8236 13.823 43.0566 16.5079 44.083 20.2087C44.505 21.73 44.3925 23.2789 44.3548 24.8204C44.339 25.4659 43.7354 25.9273 43.0419 25.9389C42.0866 25.9548 41.1308 25.9443 40.1752 25.9444C33.5818 25.9446 26.9883 25.945 20.3948 25.9445C19.1115 25.9444 18.7254 25.5531 18.7147 24.2715C18.7003 22.5521 18.6376 20.8293 19.3465 19.1988C20.82 15.8092 23.4265 13.9596 27.0656 13.5251C27.571 13.4647 27.9782 13.7121 28.3329 14.0745C29.2686 15.0303 30.2308 15.9603 31.1579 16.9242C31.4584 17.2366 31.6523 17.2289 31.9406 16.9182C32.4601 16.3584 33.0166 15.8329 33.5862 15.2642ZM41.52 20.6521C40.7689 18.404 39.2641 16.9321 36.9939 16.2383C36.517 16.0925 36.1576 16.1387 35.782 16.5431C34.7419 17.663 33.6489 18.7339 32.5736 19.8211C31.8737 20.5287 31.182 20.5362 30.4814 19.8398C29.3832 18.7482 28.2726 17.668 27.2052 16.5469C26.831 16.1539 26.4732 16.0989 25.9847 16.2376C23.1222 17.0503 21.2042 19.654 21.1929 22.7115C21.1909 23.2489 21.3638 23.4047 21.8799 23.3997C23.8679 23.3803 25.8563 23.396 27.8445 23.3962C32.3181 23.3966 36.7917 23.3901 41.2652 23.4048C41.6689 23.4061 41.7957 23.2988 41.7968 22.8948C41.7987 22.1638 41.7461 21.4457 41.52 20.6521Z" fill="var(--fill-0, #0205FA)"/>
<path id="Vector_5" d="M24.9684 9.58051C23.3453 5.30777 25.6627 1.02255 30.0402 0.128131C33.765 -0.632943 37.5087 2.08871 38.0885 5.84414C38.6502 9.48186 36.0732 13.5066 31.6135 13.7616C28.8356 13.9205 26.1688 12.3488 24.9684 9.58051ZM31.7275 2.54696C29.9497 2.4196 28.5396 3.08071 27.6006 4.59518C26.7281 6.00246 26.6961 7.47832 27.4857 8.94853C28.46 10.7625 30.588 11.6201 32.5752 11.0091C34.5302 10.408 35.8314 8.43718 35.6019 6.42482C35.3674 4.36797 33.9905 2.95463 31.7275 2.54696Z" fill="var(--fill-0, #0205FA)"/>
</g>
</svg>
