<svg width="64" height="71" viewBox="0 0 64 71" fill="none" xmlns="http://www.w3.org/2000/svg">
<circle cx="31.5" cy="8.5" r="6" stroke="#0205FA"/>
<path d="M27.0891 15.0993L31.2767 19.7522C31.3959 19.8846 31.6035 19.8846 31.7227 19.7522L35.9103 15.0993C35.9672 15.0361 36.0459 15 36.1308 15.005C36.8361 15.0462 40.2144 15.4298 41.9997 19C42.8862 20.7727 42.9895 23.7642 42.9995 24.7066C43.0012 24.8704 42.8683 25 42.7045 25H20.2949C20.1311 25 19.9982 24.8704 20 24.7066C20.0099 23.7642 20.1133 20.7727 20.9997 19C22.7849 15.4298 26.1633 15.0462 26.8686 15.005C26.9535 15 27.0322 15.0361 27.0891 15.0993Z" stroke="#0205FA" stroke-linecap="round"/>
<path d="M39.3 53.5L37.7747 53.0763C37.6208 53.0335 37.4604 53.1189 37.4098 53.2705L34.0973 63.2081C34.044 63.3681 34.1329 63.5406 34.2942 63.5899L51.7164 68.9133C51.8735 68.9613 52.0401 68.874 52.0899 68.7174L55.4056 58.2967C55.4572 58.1346 55.3639 57.9622 55.2 57.9166L53.7001 57.5M39.3 53.5L41.4828 45.5626C41.4941 45.5213 41.5142 45.483 41.5416 45.4501L46.4607 39.5471C46.4866 39.516 46.506 39.48 46.5176 39.4412L47.9926 34.5248C47.9975 34.5083 48.0029 34.4942 48.0109 34.479C48.1515 34.2139 49.6479 31.5493 52.5 32.5C52.9073 32.6358 53.2357 32.8293 53.5 33.0589M39.3 53.5L53.7001 57.5M52 46L54.5 36.5C54.5 36.5 54.8996 34.2746 53.5 33.0589M53.5 33.0589L52 22C52 22 51.726 19.1632 54 18.4999C56.5 17.7707 57.5 21 57.5 21L62 37.5C62 37.5 63.3139 42.5 62 46.5C60.8158 50.1053 57.2935 53.2428 57.0172 53.485C57.0045 53.4962 56.9946 53.5066 56.9838 53.5197L53.7001 57.5" stroke="#0205FA" stroke-linecap="round"/>
<path d="M24.284 54.1073L25.8093 53.6836C25.9632 53.6408 26.1236 53.7262 26.1742 53.8778L29.4867 63.8154C29.54 63.9754 29.451 64.1479 29.2898 64.1972L11.8676 69.5206C11.7104 69.5686 11.5439 69.4813 11.4941 69.3247L8.17838 58.904C8.12683 58.7419 8.22012 58.5695 8.38397 58.5239L9.88387 58.1073M24.284 54.1073L22.1012 46.1699C22.0899 46.1286 22.0698 46.0903 22.0424 46.0574L17.1232 40.1544C17.0973 40.1233 17.078 40.0873 17.0664 40.0485L15.5914 35.1321C15.5865 35.1156 15.5811 35.1015 15.573 35.0863C15.4324 34.8212 13.9361 32.1566 11.084 33.1073C10.6766 33.2431 10.3482 33.4366 10.084 33.6662M24.284 54.1073L9.88387 58.1073M11.584 46.6073L9.08398 37.1073C9.08398 37.1073 8.6844 34.8819 10.084 33.6662M10.084 33.6662L11.584 22.6073C11.584 22.6073 11.858 19.7705 9.58398 19.1072C7.08398 18.378 6.08398 21.6073 6.08398 21.6073L1.58398 38.1073C1.58398 38.1073 0.270109 43.1073 1.58398 47.1073C2.76822 50.7126 6.29044 53.8501 6.56675 54.0923C6.57952 54.1035 6.58942 54.1139 6.60022 54.127L9.88387 58.1073" stroke="#0205FA" stroke-linecap="round"/>
<path d="M17.8 29H23.756C23.8981 29 24.0205 29.0955 24.0561 29.233C24.3758 30.468 26.147 36.1846 31.5 36C36.8067 35.817 38.2022 30.4819 38.4538 29.2514C38.4836 29.1057 38.6103 29 38.7591 29H44.7C44.8657 29 45 29.1343 45 29.3V32.2C45 32.3657 44.8657 32.5 44.7 32.5H42.2342C42.0966 32.5 41.9766 32.5937 41.9432 32.7272L41.5483 34.3068C41.519 34.4239 41.5628 34.5471 41.6594 34.6195L43.2233 35.7925C43.3693 35.902 43.3845 36.1155 43.2554 36.2446L38.6899 40.8101C38.5818 40.9182 38.4097 40.9278 38.2903 40.8323L36.1713 39.137C36.0693 39.0554 35.9262 39.0492 35.8175 39.1217L34.6336 39.9109C34.5501 39.9666 34.5 40.0601 34.5 40.1604V43C34.5 43.3847 30.1835 43.1836 27.7776 43.0194C27.6206 43.0087 27.5 42.8781 27.5 42.7207V40.1606C27.5 40.0602 27.4499 39.9666 27.3664 39.9109L26.2046 39.1364C26.0856 39.0571 25.9272 39.0728 25.8261 39.1739L23.7236 41.2764C23.6021 41.3979 23.4035 41.3927 23.2885 41.265L19.1703 36.6893C19.0721 36.5801 19.0673 36.4159 19.1591 36.3012L20.898 34.1274C20.9616 34.048 20.9806 33.9417 20.9484 33.8452L20.5684 32.7051C20.5275 32.5826 20.4129 32.5 20.2838 32.5H17.8C17.6343 32.5 17.5 32.3657 17.5 32.2V29.3C17.5 29.1343 17.6343 29 17.8 29Z" stroke="#0205FA" stroke-linecap="round"/>
</svg>
