<svg width="76" height="87" viewBox="0 0 76 87" fill="none" xmlns="http://www.w3.org/2000/svg">
<path d="M65.148 39.0312C64.5195 35.0768 63.1395 31.4506 60.9557 28.1447C57.4799 22.8826 52.7604 19.1914 46.823 17.0603C45.6514 16.6398 45.3588 16.0339 45.7549 14.8524C46.4202 12.8684 47.0821 10.8832 47.7527 8.90102C48.0986 7.87857 48.7758 7.55656 49.8041 7.91179C55.7101 9.95191 60.8192 13.2374 65.0659 17.8169C69.8747 23.0027 72.9885 29.0747 74.3843 36.0205C74.978 38.9749 75.2354 41.9572 75.0976 44.9626C74.7616 52.2928 72.5376 59.0027 68.2962 65.0037C63.5752 71.6835 57.3233 76.3498 49.582 79.0028C46.9876 79.892 44.3188 80.4635 41.5883 80.7288C41.1733 80.7692 41.0337 80.9324 41.0404 81.3501C41.0626 82.7255 41.0638 84.1017 41.0432 85.4771C41.0268 86.5704 40.1254 87.2 39.1598 86.8302C38.9483 86.7492 38.7847 86.6087 38.6296 86.4533C35.5478 83.3668 32.4645 80.2818 29.3862 77.1919C28.7081 76.5111 28.7024 75.7144 29.3823 75.0409C32.4363 72.0157 35.4997 69 38.5549 65.976C39.0361 65.4997 39.5829 65.3158 40.2174 65.579C40.8475 65.8404 41.0517 66.3805 41.0513 67.0232C41.0506 68.1957 41.0485 69.3682 41.0521 70.5408C41.0526 70.7077 41.0112 70.8866 41.1588 71.07C42.3192 70.9572 43.4794 70.7244 44.6169 70.4046C53.0015 68.0471 59.0872 62.9301 62.8828 55.0992C64.2154 52.3499 64.9939 49.4377 65.3282 46.3983C65.598 43.9447 65.5304 41.5062 65.148 39.0312ZM64.484 58.1223C64.4059 58.2576 64.3284 58.3934 64.2494 58.5283C60.3201 65.2433 54.7211 69.9411 47.3493 72.4818C44.9627 73.3044 42.5043 73.8188 39.9816 73.9698C38.7929 74.041 38.2977 73.5209 38.2962 72.3253C38.2954 71.6309 38.2961 70.9365 38.2961 70.1944C38.1839 70.2592 38.1383 70.2746 38.1074 70.3049C36.2222 72.1554 34.3419 74.0108 32.4501 75.8545C32.1722 76.1254 32.338 76.2728 32.5268 76.461C34.3201 78.2487 36.1096 80.0402 37.9045 81.8263C38.0032 81.9246 38.0749 82.0937 38.2967 82.0531C38.2967 81.2208 38.2869 80.3932 38.2995 79.566C38.3123 78.7254 38.8316 78.2036 39.6588 78.1339C40.9489 78.0252 42.2372 77.9048 43.5154 77.6817C50.4052 76.4791 56.425 73.4969 61.4808 68.6841C68.0391 62.4409 71.6455 54.7423 72.3178 45.7148C72.5883 42.0832 72.2717 38.4717 71.3663 34.9305C69.7029 28.4246 66.4651 22.8325 61.6034 18.1905C58.3527 15.0867 54.6218 12.7343 50.4553 11.0585C50.0818 10.9083 49.9266 10.9925 49.8105 11.3567C49.4929 12.3534 49.1743 13.3511 48.8084 14.3305C48.659 14.7306 48.7716 14.8704 49.1318 15.016C50.962 15.7556 52.7113 16.6579 54.3585 17.7471C59.4902 21.1404 63.3034 25.6515 65.742 31.3017C67.8921 36.283 68.6488 41.4874 68.0495 46.875C67.6096 50.8302 66.4198 54.5618 64.484 58.1223Z" fill="#0205FA"/>
<path d="M12.8835 56.5163C15.4093 61.1813 18.9302 64.8404 23.4762 67.5096C24.4475 68.0799 25.4538 68.5827 26.4868 69.0319C27.3991 69.4285 27.6965 70.1432 27.3116 71.0467C26.4543 73.059 25.5939 75.07 24.7289 77.079C24.3171 78.0355 23.6452 78.3042 22.6841 77.886C15.4444 74.736 9.73886 69.8069 5.57542 63.099C3.18492 59.2476 1.57657 55.085 0.709522 50.6394C0.133318 47.685 -0.107729 44.6972 0.0447392 41.6908C0.315593 36.35 1.60455 31.2608 4.04507 26.4949C7.90502 18.957 13.6424 13.3057 21.254 9.5749C24.4025 8.03168 27.717 6.99207 31.1689 6.39604C31.5813 6.32483 31.6705 6.14022 31.6666 5.77229C31.6531 4.47483 31.6589 3.17715 31.6624 1.87956C31.663 1.66161 31.681 1.44301 31.7031 1.22594C31.7608 0.657428 32.0552 0.2746 32.6013 0.0847074C33.1499 -0.106062 33.6241 0.0335542 34.0232 0.421375C35.4359 1.79405 36.8405 3.17494 38.2465 4.55443C39.9203 6.19666 41.5925 7.84045 43.265 9.48398C44.0761 10.281 44.0776 11.0176 43.2674 11.8283C40.2397 14.8584 37.21 17.8865 34.1844 20.9187C33.7054 21.3987 33.168 21.6645 32.499 21.3796C31.8332 21.0961 31.6392 20.5233 31.6415 19.8489C31.645 18.8015 31.6444 17.754 31.6401 16.7066C31.6394 16.5391 31.6813 16.3628 31.5629 16.1696C30.8149 16.2687 30.0865 16.4964 29.3607 16.7215C24.9287 18.0959 21.0678 20.4396 17.819 23.7367C13.6335 27.9844 10.9796 33.0522 10.0162 38.9603C9.01251 45.1149 10.0117 50.954 12.8835 56.5163ZM36.525 14.6944C37.7415 13.4791 38.9495 12.2551 40.1809 11.0551C40.4787 10.7648 40.5232 10.5918 40.1952 10.2815C39.1394 9.28252 38.1179 8.24728 37.0797 7.22963C36.223 6.38988 35.3612 5.55525 34.4121 4.6311C34.4121 5.64692 34.4157 6.5479 34.411 7.44883C34.4068 8.24251 33.936 8.75716 33.1434 8.86929C32.4637 8.96544 31.781 9.05117 31.1086 9.18643C21.7867 11.0617 14.3646 15.881 8.9276 23.6751C5.34868 28.8057 3.34102 34.5276 2.87274 40.7804C2.65229 43.7242 2.77219 46.6522 3.29047 49.554C3.99103 53.4764 5.3127 57.1864 7.30022 60.6461C10.8666 66.8541 15.8654 71.5409 22.2857 74.7134C22.6046 74.871 22.7505 74.8144 22.8818 74.4901C23.2748 73.52 23.6732 72.5511 24.1099 71.6003C24.2998 71.1866 24.2461 71.0005 23.8177 70.7868C19.3271 68.5472 15.5904 65.3991 12.6838 61.3088C8.10047 54.859 6.28191 47.6774 7.13913 39.8153C7.52743 36.254 8.52758 32.8636 10.1587 29.6829C14.054 22.0871 20.0771 16.9343 28.1672 14.2111C29.6926 13.6977 31.2572 13.3158 32.8573 13.1162C33.763 13.0032 34.4028 13.5971 34.4109 14.5029C34.4158 15.05 34.4102 15.5972 34.4151 16.1444C34.4166 16.3069 34.3925 16.4842 34.6101 16.6635C35.2397 16.0156 35.8589 15.3784 36.525 14.6944Z" fill="#0205FA"/>
<path d="M22.0291 52.9675C22.4816 52.5121 22.9058 52.0738 23.3436 51.6498C23.5382 51.4613 23.5925 51.2946 23.4493 51.0366C22.9481 50.1329 22.5372 49.1872 22.2267 48.2005C22.1285 47.8885 21.9465 47.755 21.6086 47.7598C20.5457 47.7747 19.4823 47.7717 18.4193 47.7615C17.2015 47.7499 16.7143 47.2532 16.7138 46.0449C16.7131 44.2938 16.7119 42.5428 16.7146 40.7917C16.7162 39.7415 17.2513 39.2129 18.3068 39.2117C19.3856 39.2104 20.4646 39.1992 21.543 39.2177C21.8862 39.2236 22.0399 39.1059 22.1253 38.7721C22.3859 37.7534 22.7926 36.7865 23.2981 35.8671C23.4772 35.5414 23.4228 35.3463 23.1703 35.1027C22.4165 34.3756 21.6813 33.629 20.9456 32.8834C20.1989 32.1265 20.196 31.388 20.942 30.6376C22.2096 29.3626 23.4818 28.0923 24.7572 26.8251C25.514 26.0731 26.2541 26.0751 27.0007 26.8243C27.74 27.5662 28.4819 28.3059 29.2052 29.0631C29.4098 29.2772 29.5615 29.3306 29.8382 29.174C30.8063 28.6261 31.822 28.1768 32.8964 27.8807C33.234 27.7876 33.3314 27.6153 33.3254 27.2802C33.3069 26.2487 33.3158 25.2166 33.3203 24.1848C33.3245 23.227 33.8636 22.6571 34.8263 22.6489C36.6553 22.6333 38.4848 22.6339 40.3138 22.6512C41.3761 22.6613 41.8955 23.2599 41.8739 24.3257C41.8527 25.3721 41.8761 26.4193 41.864 27.466C41.8612 27.7117 41.9893 27.793 42.1845 27.851C43.3116 28.1861 44.4012 28.6141 45.4174 29.2099C45.67 29.358 45.8123 29.2589 45.9809 29.0881C46.7058 28.354 47.4357 27.6249 48.1674 26.8976C48.9437 26.1261 49.6847 26.1227 50.4497 26.8866C51.7219 28.157 52.9933 29.4283 54.2622 30.702C54.9667 31.4091 54.9654 32.1589 54.2599 32.8722C53.5123 33.628 52.7684 34.3878 52.0055 35.128C51.7589 35.3672 51.7378 35.5744 51.8973 35.8678C52.4138 36.818 52.8146 37.8191 53.1025 38.861C53.1971 39.2033 53.399 39.2905 53.7171 39.2891C54.8418 39.284 55.9666 39.2832 57.0912 39.298C57.9083 39.3088 58.4245 39.841 58.4272 40.6668C58.4334 42.5742 58.4332 44.4816 58.4288 46.3889C58.4269 47.2451 57.8865 47.7931 57.0239 47.8021C55.8983 47.814 54.7723 47.8198 53.647 47.7982C53.2762 47.7911 53.0874 47.8956 52.9756 48.2682C52.6786 49.2582 52.2683 50.2066 51.7474 51.1003C51.5909 51.3687 51.6223 51.5342 51.8373 51.744C52.643 52.53 53.4343 53.3307 54.228 54.1288C54.9588 54.8637 54.9648 55.6057 54.2382 56.3365C52.9485 57.6335 51.6553 58.9272 50.359 60.2177C49.6739 60.8999 48.9148 60.8928 48.2225 60.2048C47.4019 59.3892 46.5793 58.5757 45.7705 57.7485C45.545 57.5179 45.3609 57.4408 45.0445 57.6129C44.1783 58.084 43.268 58.4627 42.3118 58.713C41.9265 58.8139 41.8064 59.0242 41.8151 59.4189C41.8407 60.5753 41.8277 61.7326 41.8227 62.8895C41.819 63.757 41.3257 64.3426 40.4584 64.3578C38.5205 64.3918 36.5811 64.3915 34.6434 64.3511C33.7592 64.3327 33.3149 63.7792 33.3121 62.8742C33.3083 61.686 33.3012 60.4978 33.3115 59.3097C33.3144 58.9791 33.2076 58.8134 32.8686 58.7208C31.9015 58.4567 30.9769 58.0722 30.1039 57.5775C29.8295 57.4221 29.6495 57.4273 29.4178 57.6677C28.615 58.5005 27.79 59.3119 26.9679 60.1259C26.1932 60.8929 25.4525 60.8902 24.685 60.1233C23.4354 58.8745 22.1862 57.6253 20.9401 56.3731C20.1576 55.5868 20.1568 54.8787 20.9259 54.098C21.2878 53.7305 21.6462 53.3597 22.0291 52.9675ZM36.0591 57.8151C36.0417 58.9397 36.0315 60.0645 36.0024 61.1888C35.9942 61.5077 36.0958 61.6405 36.429 61.6322C37.1164 61.6151 37.8052 61.608 38.492 61.6353C38.9108 61.652 39.0749 61.5307 39.0617 61.0841C39.0311 60.0533 39.0479 59.021 39.0503 57.9893C39.0526 57.0556 39.4333 56.5752 40.3493 56.3775C41.8914 56.0448 43.3351 55.4726 44.6805 54.6485C45.5631 54.1079 46.1019 54.1929 46.8401 54.9445C47.5518 55.6692 48.2767 56.3811 48.9999 57.0944C49.1155 57.2084 49.2468 57.4026 49.4296 57.2297C50.1064 56.5898 50.7689 55.9348 51.5006 55.2234C50.6138 54.3573 49.7953 53.566 48.9862 52.7652C48.3014 52.0874 48.2347 51.4827 48.7646 50.6719C49.6536 49.3114 50.2976 47.849 50.6673 46.2642C50.8709 45.3908 51.3379 45.0307 52.229 45.0282C53.2294 45.0254 54.23 45.0186 55.2302 45.0339C55.5758 45.0392 55.7431 44.9633 55.727 44.5658C55.6975 43.8332 55.7118 43.0981 55.7278 42.3645C55.7349 42.0355 55.5715 41.9806 55.2917 41.9834C54.2757 41.9936 53.2596 41.9908 52.2436 41.9858C51.4083 41.9817 50.9224 41.6084 50.7558 40.7889C50.4064 39.0691 49.7705 37.4721 48.8188 35.9957C48.4389 35.4064 48.5251 34.7431 49.013 34.231C49.4011 33.8237 49.8012 33.4275 50.2053 33.036C50.6175 32.6366 51.0412 32.249 51.5176 31.8021C50.8299 31.1266 50.2204 30.5471 49.6353 29.944C49.3965 29.6979 49.2276 29.6826 48.9838 29.9346C48.3427 30.5973 47.6807 31.2397 47.0285 31.8917C46.3351 32.5849 45.7426 32.6622 44.9387 32.1326C43.4991 31.1842 41.9342 30.5428 40.2524 30.1775C39.5155 30.0175 39.1352 29.5521 39.1301 28.7862C39.1237 27.8171 39.1185 26.8478 39.1348 25.8789C39.1408 25.5268 39.0435 25.3654 38.6601 25.378C37.9575 25.4011 37.253 25.4007 36.5503 25.3776C36.1741 25.3653 36.0596 25.5136 36.0664 25.8713C36.0832 26.762 36.0786 27.6532 36.0727 28.5441C36.0661 29.5388 35.6868 30.0191 34.7295 30.2246C33.1057 30.5732 31.6101 31.2182 30.2212 32.1234C29.4004 32.6583 28.8228 32.5967 28.1321 31.9047C27.4807 31.2521 26.831 30.5976 26.192 29.9328C25.9377 29.6683 25.7376 29.6873 25.4908 29.9463C25.0274 30.4326 24.5525 30.909 24.0617 31.3674C23.7796 31.631 23.777 31.8277 24.0588 32.0988C24.7232 32.738 25.3623 33.4034 26.0126 34.0573C26.7243 34.7728 26.7902 35.2808 26.2626 36.1399C25.396 37.5509 24.7637 39.0521 24.4583 40.6865C24.3095 41.4827 23.7969 41.8946 22.9789 41.8983C21.9628 41.903 20.9466 41.9098 19.9308 41.8944C19.5877 41.8892 19.4503 42.0066 19.4634 42.3546C19.4821 42.8541 19.4642 43.3548 19.4688 43.855C19.4805 45.1255 19.3181 44.9383 20.5606 44.9527C21.4667 44.9633 22.3743 44.9444 23.2784 44.9922C23.8554 45.0227 24.3117 45.3416 24.4413 45.9239C24.833 47.6841 25.5366 49.302 26.5066 50.8179C26.901 51.4342 26.7961 52.036 26.2813 52.5693C25.9123 52.9516 25.5347 53.3259 25.1541 53.6968C24.6644 54.174 24.1679 54.6443 23.6469 55.1438C24.4008 55.9382 25.0862 56.6498 25.8891 57.3609C26.7617 56.468 27.5947 55.6019 28.4436 54.7517C29.0569 54.1374 29.6363 54.0629 30.3404 54.5267C31.7152 55.4323 33.2104 56.0384 34.8114 56.3972C35.5308 56.5585 35.97 56.9792 36.0591 57.8151Z" fill="#0205FA"/>
<path d="M27.189 48.0106C24.4367 41.9156 27.298 35.0349 33.2746 32.5896C40.188 29.7609 47.9765 34.2672 48.9584 41.6552C49.7988 47.9788 45.445 53.7071 39.1406 54.5724C34.1621 55.2557 29.4914 52.7001 27.189 48.0106ZM30.9256 37.6107C29.169 39.7801 28.5159 42.2403 29.0686 44.9791C29.9621 49.4065 34.1552 52.543 38.888 51.84C43.7733 51.1145 47.0517 46.4939 46.1808 41.6692C45.4943 37.8663 42.2386 34.6514 37.8829 34.5005C35.1151 34.4046 32.801 35.4716 30.9256 37.6107Z" fill="#0205FA"/>
</svg>
