<svg width="84" height="84" viewBox="0 0 84 84" fill="none" xmlns="http://www.w3.org/2000/svg">
<circle cx="42.3711" cy="41.7789" r="9.85" stroke="#0205FA" stroke-width="1.3"/>
<path d="M45.0711 61.2789H39.6711C39.5054 61.2789 39.3711 61.1446 39.3711 60.9789V55.9874C39.3711 55.8621 39.2936 55.7501 39.1763 55.7058C38.7238 55.5351 37.5857 55.1003 36.8711 54.7789C36.2093 54.4812 35.4263 54.0735 35.068 53.8839C34.9507 53.8218 34.8068 53.8431 34.713 53.9369L31.0961 57.5539C30.974 57.6759 30.7744 57.6701 30.6597 57.5411L27.059 53.4903C26.9535 53.3716 26.9588 53.1912 27.0711 53.0788L30.1962 49.9537C30.2978 49.8522 30.3136 49.6934 30.2347 49.5734C29.9443 49.1319 29.2598 48.0688 28.8711 47.2789C28.5087 46.5424 28.1027 45.4323 27.942 44.9807C27.8991 44.8601 27.7851 44.7789 27.6571 44.7789H23.1711C23.0054 44.7789 22.8711 44.6446 22.8711 44.4789V39.0789C22.8711 38.9132 23.0054 38.7789 23.1711 38.7789H27.6063C27.7576 38.7789 27.8854 38.6665 27.9069 38.5167C27.9762 38.0335 28.1424 36.9871 28.3711 36.2789C28.6907 35.2888 29.4489 33.979 29.7473 33.4819C29.8193 33.362 29.8011 33.2088 29.7022 33.11L26.5832 29.991C26.4661 29.8738 26.4661 29.6839 26.5832 29.5667L30.1726 25.9773C30.2843 25.8657 30.4635 25.8597 30.5823 25.9637L34.1973 29.1268C34.2997 29.2164 34.4497 29.2259 34.5635 29.1511C34.9967 28.8658 36.0732 28.1715 36.8711 27.7789C37.6076 27.4165 38.7176 27.0105 39.1693 26.8498C39.2899 26.8069 39.3711 26.6929 39.3711 26.5649V22.5789C39.3711 22.4132 39.5054 22.2789 39.6711 22.2789H45.0711C45.2368 22.2789 45.3711 22.4132 45.3711 22.5789V27.0358C45.3711 27.1775 45.4697 27.3 45.6077 27.3326C46.1536 27.4614 47.5201 27.8122 48.3711 28.2789C49.0006 28.6241 49.7858 29.2727 50.1573 29.5919C50.2784 29.6959 50.4596 29.6904 50.5725 29.5775L54.159 25.991C54.2761 25.8738 54.4661 25.8738 54.5832 25.991L58.1443 29.5521C58.2671 29.6748 58.2604 29.8758 58.1298 29.99L54.573 33.1022C54.458 33.2028 54.4363 33.3731 54.5215 33.4999C54.8232 33.9486 55.5043 34.9907 55.8711 35.7789C56.2826 36.6632 56.6679 38.0221 56.8117 38.5542C56.8475 38.6867 56.9671 38.7789 57.1043 38.7789H62.0711C62.2368 38.7789 62.3711 38.9132 62.3711 39.0789V44.4789C62.3711 44.6446 62.2368 44.7789 62.0711 44.7789H57.1104C56.9704 44.7789 56.849 44.8749 56.8153 45.0108C56.6795 45.5588 56.31 46.9497 55.8711 47.7789C55.5039 48.4725 54.9011 49.1902 54.583 49.5476C54.4692 49.6754 54.4788 49.8731 54.6076 49.9858L58.1151 53.0549C58.251 53.1738 58.2518 53.3849 58.1169 53.5049L54.0825 57.0909C53.9638 57.1965 53.7834 57.1912 53.6711 57.0788L50.5573 53.9651C50.4508 53.8585 50.2822 53.8467 50.1605 53.9354C49.7232 54.254 48.6893 54.9734 47.8711 55.2789C47.1767 55.5381 46.1305 55.6885 45.6413 55.7484C45.488 55.7672 45.3711 55.8967 45.3711 56.0512V60.9789C45.3711 61.1446 45.2368 61.2789 45.0711 61.2789Z" stroke="#0205FA" stroke-linecap="round"/>
<path d="M41.2881 9.49319L34.8992 18.808L34.296 14.8794C34.2264 14.4266 33.7916 14.1258 33.3487 14.2177L33.2596 14.2422C27.4883 16.1398 22.4341 19.782 18.8052 24.6808C14.9188 29.9274 12.8872 36.3178 13.0312 42.8456C13.1752 49.3734 15.4868 55.6681 19.6011 60.7384C23.4831 65.5224 28.7625 68.9599 34.6874 70.5804L35.263 70.7321C35.2652 70.7327 35.2665 70.7329 35.2672 70.7335C35.2682 70.7342 35.269 70.7358 35.2697 70.737L35.2708 70.7378L33.7752 77.1356C26.1935 75.253 19.4248 70.9534 14.4967 64.8803C9.46343 58.6775 6.63659 50.9761 6.46042 42.9899C6.28435 35.0042 8.76878 27.1866 13.5233 20.7681C18.2261 14.4196 24.8857 9.79584 32.472 7.60714C32.8567 7.49611 33.1041 7.11618 33.0425 6.71531L32.3992 2.52516L41.2881 9.49319Z" stroke="#0205FA"/>
<path d="M42.455 73.9359L48.8439 64.6211L49.4471 68.5497C49.5168 69.0025 49.9515 69.3033 50.3945 69.2114L50.4836 69.1869C56.2549 67.2893 61.3091 63.6471 64.9379 58.7483C68.8244 53.5016 70.8559 47.1113 70.7119 40.5835C70.5679 34.0556 68.2563 27.7609 64.1421 22.6907C60.26 17.9067 54.9807 14.4692 49.0557 12.8487L48.4801 12.6969C48.478 12.6964 48.4767 12.6961 48.476 12.6956C48.475 12.6949 48.4742 12.6933 48.4735 12.692L48.4723 12.6912L49.968 6.29347C57.5497 8.17608 64.3184 12.4757 69.2465 18.5488C74.2797 24.7516 77.1066 32.453 77.2827 40.4391C77.4588 48.4249 74.9744 56.2424 70.2198 62.661C65.517 69.0095 58.8575 73.6332 51.2711 75.8219C50.8864 75.933 50.6391 76.3129 50.7006 76.7138L51.344 80.9039L42.455 73.9359Z" stroke="#0205FA"/>
</svg>
