<svg preserveAspectRatio="none" width="100%" height="100%" overflow="visible" style="display: block;" viewBox="0 0 75.1336 86.9369" fill="none" xmlns="http://www.w3.org/2000/svg">
<g id="icon">
<path id="Vector" d="M65.1476 39.0316C64.5191 35.0771 63.1391 31.451 60.9554 28.145C57.4795 22.883 52.7601 19.1917 46.8226 17.0606C45.651 16.6401 45.3584 16.0342 45.7546 14.8527C46.4198 12.8687 47.0817 10.8836 47.7523 8.90135C48.0983 7.8789 48.7754 7.55689 49.8038 7.91212C55.7097 9.95224 60.8189 13.2377 65.0655 17.8172C69.8743 23.003 72.9881 29.075 74.3839 36.0209C74.9776 38.9752 75.235 41.9576 75.0972 44.9629C74.7612 52.2932 72.5372 59.0031 68.2959 65.0041C63.5748 71.6838 57.323 76.3501 49.5817 79.0032C46.9872 79.8923 44.3185 80.4638 41.5879 80.7292C41.1729 80.7695 41.0333 80.9327 41.04 81.3504C41.0622 82.7258 41.0635 84.102 41.0428 85.4774C41.0264 86.5707 40.125 87.2004 39.1594 86.8305C38.9479 86.7495 38.7844 86.609 38.6293 86.4537C35.5475 83.3672 32.4642 80.2822 29.3859 77.1922C28.7077 76.5115 28.702 75.7147 29.3819 75.0412C32.4359 72.0161 35.4993 69.0003 38.5545 65.9764C39.0357 65.5001 39.5825 65.3161 40.217 65.5793C40.8471 65.8407 41.0513 66.3808 41.0509 67.0235C41.0502 68.1961 41.0481 69.3686 41.0517 70.5411C41.0522 70.708 41.0108 70.8869 41.1584 71.0704C42.3188 70.9576 43.479 70.7248 44.6165 70.4049C53.0012 68.0474 59.0868 62.9304 62.8824 55.0996C64.215 52.3502 64.9936 49.438 65.3278 46.3986C65.5976 43.945 65.5301 41.5066 65.1476 39.0316ZM64.4836 58.1226C64.4055 58.258 64.328 58.3937 64.2491 58.5286C60.3197 65.2436 54.7207 69.9414 47.349 72.4821C44.9623 73.3047 42.5039 73.8192 39.9812 73.9702C38.7925 74.0413 38.2973 73.5212 38.2959 72.3256C38.295 71.6312 38.2957 70.9368 38.2957 70.1947C38.1836 70.2595 38.138 70.2749 38.107 70.3053C36.2218 72.1557 34.3415 74.0112 32.4497 75.8548C32.1718 76.1257 32.3377 76.2731 32.5264 76.4613C34.3198 78.249 36.1092 80.0405 37.9041 81.8266C38.0029 81.9249 38.0745 82.094 38.2964 82.0534C38.2964 81.2211 38.2865 80.3936 38.2991 79.5663C38.3119 78.7258 38.8313 78.2039 39.6584 78.1342C40.9486 78.0255 42.2368 77.9051 43.515 77.682C50.4049 76.4795 56.4246 73.4972 61.4804 68.6844C68.0387 62.4412 71.6451 54.7427 72.3174 45.7151C72.5879 42.0836 72.2713 38.472 71.3659 34.9308C69.7025 28.4249 66.4647 22.8328 61.603 18.1909C58.3523 15.0871 54.6214 12.7346 50.4549 11.0588C50.0815 10.9086 49.9262 10.9928 49.8101 11.357C49.4925 12.3537 49.1739 13.3514 48.808 14.3309C48.6586 14.7309 48.7712 14.8708 49.1315 15.0163C50.9616 15.7559 52.7109 16.6582 54.3581 17.7474C59.4899 21.1407 63.303 25.6518 65.7417 31.302C67.8917 36.2833 68.6484 41.4878 68.0491 46.8754C67.6092 50.8305 66.4194 54.5622 64.4836 58.1226Z" fill="var(--fill-0, #0205FA)"/>
<path id="Vector_2" d="M12.8835 56.5163C15.4093 61.1813 18.9302 64.8404 23.4762 67.5096C24.4475 68.0799 25.4538 68.5827 26.4868 69.0319C27.3991 69.4285 27.6965 70.1432 27.3116 71.0467C26.4543 73.059 25.5939 75.07 24.7289 77.079C24.3171 78.0355 23.6452 78.3042 22.6841 77.886C15.4444 74.736 9.73886 69.8069 5.57542 63.099C3.18492 59.2476 1.57657 55.085 0.709522 50.6394C0.133318 47.685 -0.107729 44.6972 0.0447392 41.6908C0.315593 36.35 1.60455 31.2608 4.04507 26.4949C7.90502 18.957 13.6424 13.3057 21.254 9.5749C24.4025 8.03168 27.717 6.99207 31.1689 6.39604C31.5813 6.32483 31.6705 6.14022 31.6666 5.77229C31.6531 4.47483 31.6589 3.17715 31.6624 1.87956C31.663 1.66161 31.681 1.44301 31.7031 1.22594C31.7608 0.657428 32.0552 0.2746 32.6013 0.0847074C33.1499 -0.106062 33.6241 0.0335542 34.0232 0.421375C35.4359 1.79405 36.8405 3.17494 38.2465 4.55443C39.9203 6.19666 41.5925 7.84045 43.265 9.48398C44.0761 10.281 44.0776 11.0176 43.2674 11.8283C40.2397 14.8584 37.21 17.8865 34.1844 20.9187C33.7054 21.3987 33.168 21.6645 32.499 21.3796C31.8332 21.0961 31.6392 20.5233 31.6415 19.8489C31.645 18.8015 31.6444 17.754 31.6401 16.7066C31.6394 16.5391 31.6813 16.3628 31.5629 16.1696C30.8149 16.2687 30.0865 16.4964 29.3607 16.7215C24.9287 18.0959 21.0678 20.4396 17.819 23.7367C13.6335 27.9844 10.9796 33.0522 10.0162 38.9603C9.01251 45.1149 10.0117 50.954 12.8835 56.5163ZM36.525 14.6944C37.7415 13.4791 38.9495 12.2551 40.1809 11.0551C40.4787 10.7648 40.5232 10.5918 40.1952 10.2815C39.1394 9.28252 38.1179 8.24728 37.0797 7.22963C36.223 6.38988 35.3612 5.55525 34.4121 4.6311C34.4121 5.64692 34.4157 6.5479 34.411 7.44883C34.4068 8.24251 33.936 8.75716 33.1434 8.86929C32.4637 8.96544 31.781 9.05117 31.1086 9.18643C21.7867 11.0617 14.3646 15.881 8.9276 23.6751C5.34868 28.8057 3.34102 34.5276 2.87274 40.7804C2.65229 43.7242 2.77219 46.6522 3.29047 49.554C3.99103 53.4764 5.3127 57.1864 7.30022 60.6461C10.8666 66.8541 15.8654 71.5409 22.2858 74.7134C22.6046 74.871 22.7505 74.8144 22.8818 74.4901C23.2748 73.52 23.6732 72.5511 24.1099 71.6003C24.2998 71.1866 24.2461 71.0005 23.8177 70.7868C19.3271 68.5472 15.5904 65.3991 12.6838 61.3088C8.10047 54.859 6.28191 47.6774 7.13913 39.8153C7.52743 36.254 8.52758 32.8636 10.1587 29.6829C14.054 22.0871 20.0771 16.9343 28.1672 14.2111C29.6926 13.6977 31.2572 13.3158 32.8573 13.1162C33.763 13.0032 34.4028 13.5971 34.4109 14.5029C34.4158 15.05 34.4102 15.5972 34.4151 16.1444C34.4166 16.3069 34.3925 16.4842 34.6102 16.6635C35.2397 16.0156 35.8589 15.3784 36.525 14.6944Z" fill="var(--fill-0, #0205FA)"/>
<path id="Vector_3" d="M22.0288 52.9676C22.4814 52.5122 22.9055 52.074 23.3434 51.6499C23.538 51.4614 23.5922 51.2948 23.4491 51.0367C22.9478 50.133 22.537 49.1873 22.2265 48.2006C22.1283 47.8886 21.9463 47.7551 21.6084 47.7599C20.5454 47.7748 19.4821 47.7718 18.4191 47.7617C17.2013 47.75 16.7141 47.2534 16.7136 46.045C16.7129 44.2939 16.7116 42.5429 16.7143 40.7919C16.716 39.7416 17.2511 39.213 18.3066 39.2118C19.3854 39.2106 20.4643 39.1994 21.5428 39.2178C21.886 39.2237 22.0397 39.106 22.1251 38.7722C22.3856 37.7535 22.7924 36.7866 23.2979 35.8672C23.4769 35.5415 23.4226 35.3464 23.17 35.1028C22.4163 34.3757 21.6811 33.6292 20.9454 32.8835C20.1987 32.1267 20.1958 31.3881 20.9418 30.6378C22.2093 29.3628 23.4816 28.0924 24.757 26.8252C25.5138 26.0732 26.2538 26.0752 27.0005 26.8245C27.7398 27.5663 28.4817 28.306 29.205 29.0632C29.4096 29.2774 29.5613 29.3307 29.838 29.1741C30.806 28.6263 31.8218 28.1769 32.8962 27.8808C33.2338 27.7878 33.3312 27.6154 33.3252 27.2804C33.3067 26.2488 33.3156 25.2167 33.3201 24.1849C33.3242 23.2272 33.8634 22.6572 34.826 22.649C36.6551 22.6334 38.4845 22.634 40.3136 22.6514C41.3759 22.6614 41.8952 23.26 41.8737 24.3258C41.8524 25.3722 41.8759 26.4194 41.8638 27.4661C41.861 27.7118 41.9891 27.7931 42.1843 27.8511C43.3114 28.1862 44.401 28.6143 45.4171 29.21C45.6698 29.3581 45.8121 29.259 45.9807 29.0883C46.7055 28.3541 47.4355 27.625 48.1672 26.8977C48.9434 26.1262 49.6845 26.1229 50.4495 26.8867C51.7217 28.1571 52.9931 29.4284 54.262 30.7021C54.9665 31.4093 54.9652 32.1591 54.2597 32.8723C53.5121 33.6281 52.7681 34.3879 52.0053 35.1281C51.7587 35.3674 51.7376 35.5745 51.8971 35.8679C52.4136 36.8182 52.8143 37.8192 53.1023 38.8611C53.1969 39.2034 53.3988 39.2906 53.7169 39.2892C54.8416 39.2842 55.9664 39.2834 57.091 39.2982C57.9081 39.3089 58.4242 39.8411 58.4269 40.6669C58.4331 42.5743 58.433 44.4817 58.4286 46.3891C58.4266 47.2453 57.8863 47.7932 57.0236 47.8023C55.8981 47.8141 54.772 47.8199 53.6468 47.7984C53.276 47.7913 53.0872 47.8957 52.9754 48.2683C52.6783 49.2583 52.2681 50.2067 51.7471 51.1004C51.5906 51.3689 51.6221 51.5344 51.8371 51.7441C52.6428 52.5301 53.4341 53.3308 54.2278 54.129C54.9585 54.8638 54.9646 55.6058 54.238 56.3366C52.9482 57.6336 51.6551 58.9273 50.3588 60.2179C49.6736 60.9 48.9146 60.8929 48.2223 60.2049C47.4017 59.3894 46.579 58.5758 45.7703 57.7487C45.5447 57.518 45.3606 57.441 45.0443 57.613C44.178 58.0841 43.2678 58.4628 42.3115 58.7131C41.9263 58.814 41.8062 59.0243 41.8149 59.419C41.8405 60.5754 41.8274 61.7327 41.8225 62.8896C41.8187 63.7571 41.3254 64.3427 40.4581 64.3579C38.5203 64.3919 36.5808 64.3916 34.6432 64.3513C33.759 64.3329 33.3147 63.7793 33.3118 62.8744C33.3081 61.6862 33.301 60.4979 33.3113 59.3098C33.3141 58.9793 33.2074 58.8135 32.8684 58.7209C31.9013 58.4568 30.9767 58.0723 30.1037 57.5776C29.8293 57.4222 29.6493 57.4274 29.4175 57.6678C28.6148 58.5006 27.7897 59.312 26.9676 60.126C26.193 60.893 25.4522 60.8903 24.6848 60.1234C23.4352 58.8746 22.186 57.6254 20.9398 56.3732C20.1574 55.587 20.1566 54.8789 20.9256 54.0981C21.2875 53.7307 21.646 53.3598 22.0288 52.9676ZM36.0589 57.8152C36.0415 58.9398 36.0313 60.0646 36.0022 61.1889C35.9939 61.5079 36.0956 61.6406 36.4288 61.6323C37.1161 61.6152 37.805 61.6081 38.4917 61.6355C38.9106 61.6522 39.0747 61.5308 39.0614 61.0842C39.0309 60.0534 39.0476 59.0211 39.0501 57.9894C39.0524 57.0557 39.4331 56.5753 40.3491 56.3776C41.8911 56.0449 43.3349 55.4727 44.6803 54.6486C45.5629 54.108 46.1017 54.193 46.8399 54.9446C47.5516 55.6693 48.2765 56.3812 48.9997 57.0946C49.1153 57.2086 49.2466 57.4027 49.4294 57.2299C50.1062 56.59 50.7687 55.9349 51.5004 55.2235C50.6136 54.3574 49.795 53.5661 48.986 52.7653C48.3012 52.0875 48.2345 51.4828 48.7643 50.672C49.6533 49.3115 50.2974 47.8492 50.667 46.2643C50.8707 45.391 51.3377 45.0308 52.2288 45.0283C53.2292 45.0256 54.2298 45.0188 55.23 45.0341C55.5756 45.0393 55.7428 44.9635 55.7268 44.5659C55.6972 43.8333 55.7116 43.0982 55.7275 42.3646C55.7347 42.0356 55.5712 41.9807 55.2915 41.9835C54.2755 41.9937 53.2594 41.9909 52.2434 41.9859C51.408 41.9818 50.9221 41.6086 50.7556 40.789C50.4061 39.0693 49.7703 37.4722 48.8186 35.9959C48.4386 35.4065 48.5248 34.7432 49.0128 34.2311C49.4008 33.8239 49.8009 33.4276 50.205 33.0361C50.6173 32.6368 51.041 32.2491 51.5174 31.8022C50.8297 31.1267 50.2202 30.5472 49.6351 29.9441C49.3963 29.698 49.2273 29.6827 48.9835 29.9347C48.3424 30.5974 47.6804 31.2399 47.0282 31.8919C46.3349 32.585 45.7424 32.6624 44.9385 32.1327C43.4989 31.1843 41.934 30.5429 40.2521 30.1777C39.5152 30.0176 39.1349 29.5523 39.1299 28.7864C39.1235 27.8173 39.1182 26.8479 39.1346 25.879C39.1405 25.5269 39.0433 25.3656 38.6599 25.3782C37.9572 25.4013 37.2527 25.4008 36.5501 25.3778C36.1739 25.3654 36.0594 25.5137 36.0661 25.8714C36.083 26.7621 36.0784 27.6533 36.0725 28.5442C36.0659 29.5389 35.6866 30.0192 34.7293 30.2247C33.1055 30.5733 31.6098 31.2184 30.221 32.1235C29.4002 32.6584 28.8226 32.5968 28.1319 31.9048C27.4804 31.2522 26.8307 30.5977 26.1917 29.933C25.9374 29.6684 25.7374 29.6874 25.4905 29.9465C25.0272 30.4327 24.5522 30.9091 24.0615 31.3675C23.7794 31.6311 23.7768 31.8278 24.0586 32.099C24.723 32.7381 25.3621 33.4036 26.0124 34.0574C26.7241 34.7729 26.79 35.2809 26.2623 36.14C25.3958 37.551 24.7635 39.0522 24.4581 40.6866C24.3093 41.4829 23.7966 41.8947 22.9786 41.8985C21.9626 41.9031 20.9464 41.9099 19.9306 41.8945C19.5875 41.8894 19.4501 42.0067 19.4631 42.3547C19.4819 42.8542 19.4639 43.355 19.4686 43.8551C19.4803 45.1256 19.3179 44.9384 20.5604 44.9529C21.4665 44.9634 22.3741 44.9446 23.2782 44.9923C23.8551 45.0228 24.3114 45.3418 24.441 45.924C24.8328 47.6842 25.5364 49.3021 26.5064 50.818C26.9008 51.4344 26.7959 52.0361 26.2811 52.5694C25.9121 52.9517 25.5344 53.326 25.1538 53.6969C24.6641 54.1741 24.1676 54.6444 23.6467 55.1439C24.4005 55.9383 25.086 56.6499 25.8889 57.361C26.7615 56.4681 27.5945 55.602 28.4434 54.7518C29.0567 54.1375 29.6361 54.063 30.3402 54.5268C31.7149 55.4324 33.2102 56.0385 34.8112 56.3974C35.5306 56.5586 35.9698 56.9793 36.0589 57.8152Z" fill="var(--fill-0, #0205FA)"/>
<path id="Vector_4" d="M27.1888 48.0107C24.4364 41.9157 27.2978 35.0351 33.2744 32.5897C40.1878 29.761 47.9763 34.2673 48.9581 41.6553C49.7985 47.979 45.4448 53.7072 39.1404 54.5725C34.1618 55.2558 29.4912 52.7003 27.1888 48.0107ZM30.9254 37.6108C29.1688 39.7803 28.5157 42.2404 29.0684 44.9792C29.9618 49.4067 34.155 52.5431 38.8878 51.8402C43.773 51.1146 47.0515 46.4941 46.1806 41.6693C45.4941 37.8665 42.2384 34.6515 37.8827 34.5006C35.1149 34.4047 32.8008 35.4717 30.9254 37.6108Z" fill="var(--fill-0, #0205FA)"/>
</g>
</svg>
