<svg preserveAspectRatio="none" width="100%" height="100%" overflow="visible" style="display: block;" viewBox="0 0 75.4962 62.0062" fill="none" xmlns="http://www.w3.org/2000/svg">
<g id="icon">
<path id="Vector" d="M59.4328 0.0316741C62.0906 0.152917 64.0716 2.158 64.4022 4.45403C64.4466 4.76195 64.4534 5.07732 64.4536 5.38925C64.4574 11.8279 64.4649 18.2666 64.4463 24.7052C64.4446 25.2854 64.5437 25.5273 65.1933 25.6425C69.6471 26.4323 72.8728 29.7124 73.5748 34.1664C73.8434 35.871 73.6865 37.6041 73.7051 39.3245C73.7129 40.0485 73.7172 40.7728 73.7054 41.4967C73.6997 41.8429 73.78 42.0585 74.1502 42.2078C75.0613 42.5751 75.4941 43.3013 75.4944 44.2799C75.4963 49.1333 75.4966 53.9868 75.4958 58.8403C75.4954 60.8591 74.3624 61.9971 72.3249 62.0028C69.5068 62.0106 66.6887 62.0025 63.8705 62.0023C60.798 62.002 57.7254 62.0106 54.6529 61.9999C53.1 61.9945 51.9856 61.1601 51.6458 59.7928C51.627 59.717 51.6073 59.6409 51.5968 59.5637C51.4714 58.6373 51.4718 58.6365 50.551 58.6365C35.5014 58.6359 20.4517 58.6366 5.40208 58.634C2.68836 58.6335 0.640759 56.9608 0.0945378 54.3227C0.0100128 53.9145 0.0316015 53.5043 0.0315495 53.0946C0.029541 37.2622 0.0610433 21.4296 4.37285e-05 5.59735C-0.0103859 2.89054 1.84482 -0.0174336 5.60052 7.87073e-05C11.7259 0.0286443 17.8516 0.00776515 23.9771 0.00776702C35.5236 0.00776879 47.0702 0.00767556 58.6167 0.0084873C58.871 0.00850515 59.1252 0.0188883 59.4328 0.0316741ZM2.33794 55.0939C3.05887 56.3118 4.17133 56.7967 5.53862 56.7967C20.6463 56.7964 35.7541 56.7922 50.8618 56.8055C51.4315 56.806 51.5953 56.6352 51.5925 56.0739C51.5726 52.1405 51.5839 48.207 51.5824 44.2735C51.582 43.3147 51.9971 42.6023 52.8786 42.2315C53.2791 42.063 53.3842 41.8333 53.3792 41.434C53.3622 40.0839 53.3764 38.7335 53.3743 37.3832C53.3726 36.288 53.323 35.1873 53.5116 34.1045C54.2942 29.6128 57.4698 26.4051 61.9414 25.6248C62.4957 25.5281 62.6326 25.3359 62.6305 24.8081C62.6121 20.2876 62.6198 15.767 62.6194 11.2464C62.6193 10.3527 62.6187 10.3519 61.721 10.3519C53.5018 10.3524 45.2826 10.353 37.0634 10.354C25.5956 10.3554 14.1279 10.3581 2.6601 10.3556C2.20057 10.3555 1.85601 10.3235 1.85701 11.0046C1.87784 25.1338 1.87397 39.2631 1.87294 53.3923C1.8729 53.9735 2.00987 54.514 2.33794 55.0939ZM42.051 8.45574C48.6641 8.45558 55.2772 8.44957 61.8902 8.46592C62.4425 8.46729 62.6685 8.32768 62.6302 7.74623C62.5852 7.06439 62.5827 6.37503 62.6258 5.69298C62.7639 3.50759 61.1344 1.87359 58.8588 1.88399C46.6699 1.93967 34.4805 1.91005 22.2913 1.91051C16.5978 1.91073 10.9042 1.90582 5.21074 1.91733C3.54258 1.9207 2.25392 3.00455 1.94921 4.64637C1.76605 5.63327 1.89422 6.63688 1.87675 7.63272C1.86235 8.45377 1.87642 8.45387 2.72451 8.45391C15.7942 8.4545 28.8639 8.45512 42.051 8.45574ZM54.0582 46.9531C54.4885 46.9537 54.9192 46.9431 55.349 46.9573C56.0141 46.9792 56.4111 47.3288 56.422 47.8797C56.4321 48.3867 56.0458 48.7752 55.4239 48.8233C54.9375 48.8609 54.4465 48.8567 53.9582 48.8457C53.5557 48.8366 53.4216 49.0046 53.4121 49.4062C53.3729 51.0552 53.3614 51.0549 55.0168 51.0592C55.9396 51.0616 56.4198 51.391 56.4216 52.0226C56.4233 52.6152 55.9373 52.9376 55.0459 52.9569C53.1049 52.999 53.4584 52.5716 53.4191 54.7146C53.4132 55.0355 53.5395 55.1823 53.8663 55.1756C54.316 55.1664 54.7661 55.1696 55.2159 55.178C55.9651 55.192 56.3997 55.5313 56.4174 56.1046C56.4345 56.6623 55.9781 57.0454 55.2504 57.0683C54.7813 57.083 54.3117 57.0805 53.8423 57.0832C53.5542 57.0848 53.4133 57.2155 53.4196 57.514C53.4284 57.9246 53.4194 58.3355 53.4205 58.7462C53.4234 59.8022 53.7242 60.1086 54.7778 60.1091C59.0222 60.1111 63.2667 60.11 67.5111 60.1099C69.1737 60.1099 70.8363 60.1169 72.4988 60.1065C73.2895 60.1015 73.643 59.7371 73.6552 58.9559C73.662 58.5257 73.6319 58.0934 73.664 57.6655C73.6999 57.185 73.4788 57.0466 73.0409 57.0653C72.5921 57.0844 72.14 57.0861 71.6922 57.0547C71.0371 57.0088 70.6317 56.6125 70.6535 56.087C70.6755 55.5561 71.0914 55.2047 71.7553 55.1827C72.2438 55.1665 72.7333 55.1722 73.2222 55.1774C73.5079 55.1805 73.632 55.0692 73.6612 54.767C73.8343 52.9776 73.8395 52.9765 72.0839 52.9535C72.0447 52.953 72.0056 52.9533 71.9665 52.9523C71.1309 52.9302 70.6519 52.5829 70.6584 52.004C70.665 51.4079 71.1367 51.0674 71.9675 51.0592C72.0066 51.0588 72.0457 51.0591 72.0848 51.059C73.6955 51.0547 73.6791 51.0548 73.6677 49.4407C73.6644 48.9669 73.4848 48.8157 73.043 48.8382C72.6333 48.859 72.2211 48.8543 71.8111 48.8361C71.0748 48.8034 70.6342 48.4221 70.6535 47.8584C70.6725 47.3034 71.0867 46.9756 71.8123 46.9571C72.2423 46.9462 72.6736 46.9375 73.1029 46.9576C73.4954 46.9759 73.6782 46.8462 73.6625 46.4244C73.6386 45.7798 73.645 45.1334 73.6605 44.4883C73.6718 44.0203 73.4507 43.8919 73.0094 43.8933C68.1978 43.908 63.3862 43.9083 58.5746 43.9118C57.0881 43.9129 55.6015 43.9211 54.1151 43.9067C53.6311 43.902 53.3853 44.0545 53.4116 44.5824C53.4417 45.1873 53.4357 45.7954 53.4142 46.4009C53.4001 46.7986 53.5355 46.9976 54.0582 46.9531ZM63.3358 30.9367C60.6074 31.1361 58.8812 33.2505 58.8313 35.6195C58.7906 37.5538 58.8352 39.4897 58.8146 41.4245C58.8095 41.8977 58.9877 42.0236 59.4338 42.0213C62.1507 42.007 64.8677 42.0048 67.5845 42.0242C68.089 42.0278 68.2717 41.8775 68.2646 41.3567C68.2391 39.5002 68.2628 37.643 68.2521 35.7862C68.2361 33.019 66.2251 30.9988 63.3358 30.9367ZM70.0905 36.5841C70.0913 38.1879 70.1085 39.7919 70.0833 41.3952C70.0755 41.8914 70.2522 42.0746 70.7281 42.0185C70.863 42.0026 71.0034 42.0034 71.1382 42.0208C71.6496 42.0869 71.8211 41.8753 71.8148 41.3595C71.7908 39.4236 71.8102 37.4872 71.8015 35.551C71.7994 35.0838 71.7774 34.6191 71.6871 34.1524C70.8486 29.8169 67.0374 26.9924 62.5626 27.4074C58.4903 27.7852 55.2971 31.3778 55.2736 35.6187C55.2639 37.3789 55.267 39.1391 55.2741 40.8993C55.279 42.1202 55.1232 41.9999 56.4194 42.0227C56.8572 42.0303 56.9987 41.8733 56.9926 41.4429C56.9732 40.0741 56.9734 38.7047 56.9912 37.3359C57.0033 36.3998 56.907 35.4599 57.0919 34.5279C57.5908 32.0137 59.0337 30.2631 61.4485 29.4462C63.9136 28.6123 66.1697 29.1494 68.0755 30.9256C69.6753 32.4167 70.1988 34.336 70.0905 36.5841Z" fill="var(--fill-0, #0205FA)"/>
<path id="Vector_2" d="M22.0628 20.44C22.0626 22.9825 22.0634 25.4668 22.0621 27.9511C22.0612 29.8095 21.0602 30.8075 19.1938 30.8086C16.4356 30.8103 13.6774 30.8116 10.9192 30.8078C9.28918 30.8056 8.25775 29.7664 8.25519 28.1216C8.25083 25.3242 8.25104 22.5269 8.25481 19.7296C8.2571 18.033 9.2978 17.0049 11.0109 17.0032C13.7104 17.0006 16.4099 17.0029 19.1094 17.003C21.0665 17.0031 22.0617 18.0031 22.0628 19.971C22.0628 20.1079 22.0628 20.2449 22.0628 20.44ZM11.3179 28.9702C13.9596 28.97 16.6013 28.9728 19.2431 28.9673C19.9113 28.9659 20.1813 28.7172 20.1806 28.1199C20.1774 25.361 20.172 22.602 20.1608 19.8431C20.1576 19.0626 20.0018 18.9041 19.2324 18.9026C16.5124 18.8972 13.7923 18.8964 11.0724 18.9024C10.298 18.9041 10.0963 19.1111 10.0951 19.8818C10.091 22.5431 10.0915 25.2044 10.0947 27.8657C10.0957 28.7491 10.3031 28.9481 11.3179 28.9702Z" fill="var(--fill-0, #0205FA)"/>
<path id="Vector_3" d="M13.8103 50.0731C12.7345 50.0726 11.7172 50.0824 10.7003 50.0687C9.37037 50.0507 8.28071 49.0343 8.26673 47.7037C8.2351 44.6919 8.2391 41.6794 8.26381 38.6674C8.27447 37.3688 9.33778 36.3103 10.7024 36.292C13.6358 36.2524 16.5704 36.2509 19.5037 36.2917C21.0433 36.3131 22.0541 37.4028 22.0598 38.9358C22.0703 41.7719 22.0684 44.6081 22.0586 47.4442C22.0531 49.0174 20.9732 50.0692 19.3848 50.0722C17.5462 50.0756 15.7076 50.0731 13.8103 50.0731ZM12.6949 48.2309C14.63 48.2306 16.5652 48.2302 18.5003 48.2299C20.171 48.2296 20.1662 48.2296 20.1635 46.5547C20.1595 44.0723 20.1663 41.5898 20.1615 39.1075C20.16 38.3735 20.0013 38.1775 19.3427 38.1748C16.5475 38.1633 13.7523 38.1639 10.9572 38.173C10.3305 38.175 10.0985 38.4098 10.0969 39.0255C10.0897 41.8206 10.0898 44.6158 10.0983 47.4109C10.1 47.9827 10.347 48.2106 10.9358 48.2253C11.4828 48.2388 12.0303 48.2299 12.6949 48.2309Z" fill="var(--fill-0, #0205FA)"/>
<path id="Vector_4" d="M35.1825 22.1212C31.9752 22.1206 28.8266 22.1226 25.6779 22.1172C24.9906 22.116 24.6016 21.7934 24.5809 21.2438C24.5621 20.743 24.8576 20.3708 25.3503 20.2983C25.523 20.2729 25.7015 20.2834 25.8774 20.2834C31.8617 20.2835 37.8461 20.2843 43.8304 20.285C43.9282 20.285 44.0261 20.283 44.1238 20.2858C44.7629 20.3037 45.1947 20.6818 45.1832 21.212C45.1714 21.7533 44.7581 22.1135 44.1004 22.1151C41.1474 22.122 38.1943 22.12 35.1825 22.1212Z" fill="var(--fill-0, #0205FA)"/>
<path id="Vector_5" d="M44.0724 41.3811C37.9942 41.3819 31.9709 41.3822 25.9476 41.3817C25.7521 41.3817 25.5544 41.3914 25.3617 41.3664C24.9193 41.3089 24.6524 41.041 24.5906 40.6067C24.5255 40.1484 24.7153 39.8104 25.1503 39.6197C25.3753 39.5211 25.6107 39.5431 25.8438 39.5431C31.828 39.5427 37.8122 39.5437 43.7963 39.5446C43.8941 39.5446 43.992 39.5437 44.0897 39.5474C44.7461 39.5722 45.1728 39.9254 45.1839 40.4517C45.1951 40.9783 44.8074 41.3191 44.0724 41.3811Z" fill="var(--fill-0, #0205FA)"/>
<path id="Vector_6" d="M28.2524 25.9682C31.3802 25.9681 34.4492 25.9665 37.5182 25.9704C37.8102 25.9708 38.1053 25.9853 38.3933 26.0296C38.8636 26.1019 39.1279 26.426 39.1575 26.8704C39.1879 27.3251 38.9289 27.6511 38.4835 27.7838C38.2999 27.8386 38.0999 27.8592 37.9073 27.8594C33.8609 27.8631 29.8145 27.862 25.7681 27.8602C25.6318 27.8601 25.4913 27.8611 25.3599 27.8308C24.8584 27.7151 24.5651 27.3994 24.5871 26.8773C24.6091 26.3551 24.9111 26.035 25.4398 26.0155C26.3571 25.9816 27.2757 25.9821 28.2524 25.9682Z" fill="var(--fill-0, #0205FA)"/>
<path id="Vector_7" d="M29.1925 45.2892C32.1055 45.2897 34.9598 45.2899 37.8141 45.2912C38.0095 45.2913 38.2074 45.2805 38.3997 45.307C38.8494 45.369 39.09 45.6731 39.1557 46.0901C39.2201 46.4981 39.0203 46.8038 38.6576 47.0003C38.405 47.1371 38.1304 47.1268 37.8564 47.1268C33.8682 47.1263 29.8799 47.1268 25.8917 47.1255C25.7162 47.1254 25.5367 47.1318 25.3657 47.0997C24.8493 47.0027 24.5214 46.5867 24.5863 46.0952C24.6551 45.5747 24.9656 45.2949 25.4975 45.2929C26.7095 45.2883 27.9217 45.2901 29.1925 45.2892Z" fill="var(--fill-0, #0205FA)"/>
<path id="Vector_8" d="M36.7075 6.12843C33.2067 6.1282 29.7645 6.12815 26.3224 6.12705C26.1466 6.12699 25.9669 6.13947 25.7958 6.10877C25.2934 6.01868 24.9728 5.71422 24.954 5.20101C24.9346 4.67425 25.257 4.37195 25.7594 4.27841C25.9879 4.23587 26.2259 4.23218 26.4597 4.23212C36.5905 4.22962 46.7214 4.22913 56.8522 4.22971C57.8313 4.22976 58.3182 4.55506 58.3179 5.19652C58.3176 5.82409 57.8307 6.13053 56.8324 6.13044C50.1437 6.12983 43.455 6.1291 36.7075 6.12843Z" fill="var(--fill-0, #0205FA)"/>
<path id="Vector_9" d="M8.27139 6.1318C7.8462 6.12809 7.47387 6.14818 7.10634 6.11505C6.54402 6.06437 6.17072 5.67423 6.16415 5.17928C6.1579 4.70885 6.49584 4.3195 7.05188 4.2654C7.57304 4.21471 8.10379 4.2186 8.62744 4.24869C9.2483 4.28438 9.61684 4.66269 9.61523 5.1893C9.61364 5.71051 9.23658 6.06698 8.61856 6.12708C8.52194 6.13648 8.42383 6.13059 8.27139 6.1318Z" fill="var(--fill-0, #0205FA)"/>
<path id="Vector_10" d="M18.8676 5.7193C18.5351 4.85575 18.8428 4.31576 19.6951 4.24929C20.1981 4.21008 20.7091 4.21382 21.2122 4.253C21.7733 4.29669 22.1455 4.7093 22.1396 5.19963C22.1338 5.6844 21.7349 6.13201 21.1836 6.10774C20.4142 6.07385 19.573 6.41027 18.8676 5.7193Z" fill="var(--fill-0, #0205FA)"/>
<path id="Vector_11" d="M12.4648 5.34698C12.5013 4.61252 12.7469 4.29643 13.3688 4.24999C13.8912 4.21099 14.4218 4.21398 14.9438 4.25733C15.551 4.30776 15.8556 4.65441 15.8527 5.1921C15.8498 5.71446 15.5076 6.08237 14.9262 6.11709C14.4024 6.14837 13.8742 6.14334 13.3497 6.11758C12.8945 6.09522 12.5949 5.83859 12.4648 5.34698Z" fill="var(--fill-0, #0205FA)"/>
<path id="Vector_12" d="M66.4845 53.6083C66.6883 54.1862 66.8921 54.716 67.0599 55.2571C67.3291 56.1255 66.7588 56.9656 65.8489 56.9827C64.3039 57.0116 62.7575 57.0149 61.2127 56.981C60.2978 56.9609 59.7364 56.1254 60.0184 55.2493C60.3238 54.3008 60.6555 53.3598 61.0087 52.4281C61.1656 52.0144 61.1438 51.6874 60.9326 51.2773C60.3886 50.2207 60.444 49.1416 61.1596 48.1769C61.8529 47.2423 62.8158 46.8153 63.9854 47.0115C65.1922 47.214 66.013 47.9149 66.3596 49.0939C66.5683 49.8037 66.576 50.5573 66.1814 51.1999C65.8834 51.6852 65.9263 52.098 66.1207 52.5692C66.2546 52.8938 66.3537 53.2328 66.4845 53.6083ZM64.857 54.5691C64.6119 53.8699 64.4004 53.1566 64.1124 52.4756C63.8226 51.7899 63.8932 51.2094 64.3524 50.6226C64.7704 50.0885 64.6986 49.4926 64.2434 49.108C63.8498 48.7753 63.2223 48.7677 62.8388 49.0909C62.3916 49.4678 62.2978 50.1152 62.7029 50.6131C63.1942 51.2168 63.239 51.8231 62.9519 52.5187C62.6992 53.1307 62.491 53.7617 62.2794 54.3898C62.208 54.6014 62.0515 54.8081 62.2008 55.145C63.0161 55.145 63.8673 55.1632 64.717 55.1361C65.061 55.1251 64.9601 54.8629 64.857 54.5691Z" fill="var(--fill-0, #0205FA)"/>
<path id="Vector_13" d="M17.6711 23.5936C16.495 24.7708 15.3507 25.9211 14.2004 27.0654C13.5692 27.6933 13.1399 27.6938 12.4965 27.0663C11.9927 26.5751 11.4956 26.0766 11.0081 25.5692C10.5514 25.094 10.5323 24.5651 10.9355 24.1713C11.3173 23.7984 11.8827 23.837 12.3447 24.2738C12.6427 24.5556 12.933 24.8454 13.2294 25.1289C13.2548 25.1532 13.2996 25.1573 13.3423 25.1733C13.5696 25.1304 13.6862 24.9338 13.8345 24.7863C15.1654 23.4634 16.4902 22.1345 17.8203 20.8108C18.4226 20.2115 18.8905 20.1442 19.3381 20.578C19.7684 20.9951 19.6861 21.5713 19.1092 22.1531C18.6413 22.6251 18.1702 23.094 17.6711 23.5936Z" fill="var(--fill-0, #0205FA)"/>
<path id="Vector_14" d="M15.4185 42.4778C16.2512 41.6469 17.051 40.8419 17.8578 40.0439C18.4162 39.4916 18.9119 39.4313 19.3407 39.8476C19.7591 40.2539 19.6915 40.8382 19.1483 41.3825C17.5036 43.0307 15.8566 44.6765 14.207 46.3197C13.564 46.9601 13.1392 46.9653 12.5054 46.3435C12.0027 45.8502 11.503 45.3534 11.0144 44.8463C10.5772 44.3924 10.5419 43.8721 10.899 43.4872C11.2773 43.0794 11.8274 43.0865 12.3066 43.5195C12.5532 43.7422 12.7944 43.9737 13.0149 44.2217C13.2572 44.4944 13.4513 44.4623 13.6915 44.2126C14.2474 43.6345 14.8218 43.0741 15.4185 42.4778Z" fill="var(--fill-0, #0205FA)"/>
</g>
</svg>
