<svg preserveAspectRatio="none" width="100%" height="100%" overflow="visible" style="display: block;" viewBox="0 0 79.7557 79.7514" fill="none" xmlns="http://www.w3.org/2000/svg">
<g id="Icon">
<path id="Vector" d="M54.4661 8.55418C58.3574 10.3726 61.7746 12.8038 64.72 15.8737C69.3632 20.7132 72.3838 26.4202 73.7393 32.9993C74.076 34.6335 74.2813 36.2852 74.3841 37.9473C74.4132 38.4183 74.5936 38.5033 75.0057 38.4946C76.0582 38.4723 77.1114 38.4846 78.1643 38.488C79.1201 38.4911 79.7555 39.0498 79.7557 39.8791C79.7559 40.6888 79.0976 41.2577 78.1493 41.2607C77.0802 41.2641 76.0108 41.2762 74.9421 41.2561C74.5551 41.2488 74.4144 41.3605 74.3886 41.768C73.93 49.0363 71.5252 55.5879 66.9762 61.2863C61.7307 67.8575 54.9715 72.0283 46.7188 73.7455C45.0671 74.0892 43.3976 74.278 41.7185 74.3892C41.3505 74.4136 41.2553 74.5482 41.2602 74.8915C41.276 75.9928 41.2681 77.0945 41.2647 78.196C41.262 79.1026 40.6891 79.7439 39.8831 79.7514C39.0839 79.7587 38.4977 79.1131 38.4922 78.2052C38.4855 77.1199 38.475 76.0343 38.4938 74.9493C38.5004 74.5716 38.4126 74.4128 37.9938 74.3876C32.7099 74.0695 27.7279 72.6767 23.1044 70.0845C17.8401 67.1329 13.617 63.0815 10.4405 57.945C8.0427 54.0677 6.50076 49.8704 5.75509 45.3779C5.55911 44.1972 5.42777 43.0061 5.37053 41.8116C5.34818 41.3453 5.16854 41.2484 4.75157 41.2569C3.68289 41.2786 2.61344 41.267 1.54433 41.2616C0.636472 41.2569 0.000363508 40.6789 1.52211e-07 39.8702C-0.000360287 39.0675 0.639462 38.4912 1.54867 38.4873C2.63398 38.4827 3.71954 38.4746 4.80455 38.4935C5.18207 38.5 5.33653 38.4076 5.36336 37.9897C5.88923 29.7956 8.85277 22.6043 14.401 16.5441C19.4168 11.0653 25.6029 7.56892 32.8801 6.02759C34.5763 5.66834 36.2944 5.46782 38.0227 5.36051C38.3764 5.33854 38.4998 5.22458 38.4942 4.86837C38.4768 3.76712 38.485 2.6654 38.4896 1.56389C38.4934 0.652019 39.0623 0.0082233 39.8605 8.4059e-05C40.6933 -0.00840755 41.2608 0.627181 41.2643 1.58184C41.2683 2.65096 41.2834 3.72052 41.2576 4.78902C41.2476 5.20497 41.3707 5.34129 41.7974 5.36747C46.205 5.63786 50.4276 6.65952 54.4661 8.55418ZM30.977 9.361C22.3977 11.9975 15.963 17.258 11.7197 25.1665C9.57646 29.1609 8.44861 33.4544 8.13065 37.969C8.10517 38.3309 8.17886 38.5024 8.59262 38.4939C9.70984 38.471 10.828 38.4762 11.9455 38.491C12.8288 38.5026 13.3908 39.0841 13.37 39.9264C13.3508 40.7033 12.7765 41.2501 11.9366 41.2593C10.819 41.2716 9.70117 41.266 8.58347 41.2629C8.3171 41.2622 8.09238 41.2717 8.13215 41.644C8.23863 42.6408 8.28344 43.6466 8.43845 44.6354C9.11606 48.9579 10.5868 52.993 12.9233 56.7003C16.1177 61.7687 20.3951 65.6481 25.749 68.338C29.6213 70.2835 33.7294 71.3421 38.0485 71.6173C38.413 71.6405 38.4939 71.5035 38.4907 71.1785C38.4798 70.0772 38.4829 68.9755 38.4909 67.8741C38.4975 66.9696 39.0428 66.3831 39.8615 66.3803C40.7136 66.3774 41.2596 66.9592 41.2644 67.8892C41.2702 68.9907 41.2763 70.0924 41.2622 71.1937C41.2578 71.5375 41.3755 71.6462 41.7186 71.6211C44.0974 71.4469 46.443 71.0831 48.7314 70.399C55.5678 68.3553 61.1393 64.4824 65.4043 58.7644C69.1417 53.7536 71.1657 48.0969 71.6195 41.8702C71.6608 41.304 71.6299 41.265 71.0529 41.2637C70.0162 41.2614 68.9795 41.266 67.9428 41.2622C66.9775 41.2587 66.3787 40.716 66.3813 39.8561C66.3838 39.0258 66.9842 38.4904 67.9272 38.4872C68.9963 38.4836 70.0658 38.47 71.1343 38.4952C71.5632 38.5054 71.666 38.3367 71.622 37.9487C71.5418 37.2416 71.5153 36.5278 71.418 35.8234C70.9727 32.5974 70.1169 29.4877 68.7276 26.534C65.8636 20.4455 61.5253 15.7035 55.7071 12.3267C51.3743 9.81199 46.6923 8.44538 41.6958 8.13196C41.3267 8.10881 41.2561 8.25564 41.2596 8.5753C41.2713 9.66049 41.2663 10.7459 41.2637 11.8312C41.2615 12.7576 40.7141 13.364 39.8827 13.3686C39.0458 13.3733 38.4963 12.7779 38.491 11.8448C38.4849 10.7757 38.4743 9.70623 38.4969 8.6376C38.5054 8.23382 38.3836 8.09389 37.9709 8.12735C35.6265 8.31751 33.3118 8.66844 30.977 9.361Z" fill="var(--fill-0, #0205FA)"/>
<path id="Vector_2" d="M20.305 48.2531C19.0818 45.3945 18.4435 42.4365 18.5887 39.3762C18.9674 31.3904 22.6112 25.312 29.5327 21.2787C32.9742 19.2732 36.7535 18.3495 40.7148 18.6066C49.2449 19.1602 55.4426 23.3352 59.2237 31.012C60.3714 33.3422 60.9547 35.8442 61.1064 38.4447C61.4949 45.106 59.2557 50.7582 54.467 55.358C51.1216 58.5715 47.0871 60.4615 42.4632 61.0024C32.9629 62.1137 24.241 57.0955 20.305 48.2531ZM56.9354 47.0728C58.1808 44.1183 58.6527 41.0405 58.2925 37.8589C57.8519 33.9675 56.3687 30.4999 53.7217 27.6031C49.2576 22.7177 43.6814 20.6816 37.1376 21.5751C32.5657 22.1994 28.756 24.3767 25.7709 27.9107C22.3553 31.9544 20.9579 36.655 21.4658 41.9005C21.7345 44.6767 22.667 47.2546 24.1496 49.6293C28.0879 55.9374 35.296 59.3558 42.6265 58.1714C49.327 57.0887 54.0678 53.3059 56.9354 47.0728Z" fill="var(--fill-0, #0205FA)"/>
<path id="Vector_3" d="M46.4597 34.002C46.8586 36.4067 46.1181 38.408 44.4915 40.0788C44.5657 40.2933 44.7247 40.3206 44.8465 40.3886C48.4131 42.3817 50.2892 45.4329 50.5654 49.4941C50.6338 50.4998 50.0186 51.2107 48.9524 51.2047C42.9617 51.1713 36.9708 51.1893 30.98 51.1887C29.5781 51.1886 29.1545 50.6962 29.2288 49.2852C29.3822 46.3748 30.5485 43.9513 32.6621 41.9681C33.2787 41.3896 33.9603 40.8982 34.7064 40.4977C34.8889 40.3997 35.068 40.2954 35.2869 40.1725C32.7728 37.2454 32.2937 34.1538 34.6992 31.0265C36.3919 28.8259 38.7844 28.101 41.4739 28.7568C44.1945 29.4202 45.8299 31.2327 46.4597 34.002ZM37.1946 42.3983C34.697 43.3777 33.0355 45.1325 32.2706 47.7153C32.0618 48.4202 32.0674 48.4237 32.7863 48.4239C37.4668 48.4252 42.1473 48.4257 46.8278 48.4262C47.7078 48.4263 47.7078 48.4256 47.4458 47.5665C46.1269 43.2405 41.6538 40.9575 37.1946 42.3983ZM43.7823 35.4949C43.8856 35.1681 43.7747 34.8497 43.7253 34.5348C43.396 32.4364 41.2083 30.9476 39.1129 31.3838C36.9289 31.8384 35.5264 34.0371 36.0759 36.1448C36.5555 37.9841 38.2544 39.2746 40.0428 39.1579C42.0247 39.0285 43.5413 37.5696 43.7823 35.4949Z" fill="var(--fill-0, #0205FA)"/>
</g>
</svg>
