<svg width="64" height="64" viewBox="0 0 64 64" fill="none" xmlns="http://www.w3.org/2000/svg">
<path d="M21.3393 3.01951L18.3219 0L10.6696 7.6544L3.01738 0L0 3.01951L7.65227 10.6696L0 18.3219L3.01738 21.3393L10.6696 13.687L18.3219 21.3393L21.3393 18.3219L13.687 10.6696L21.3393 3.01951ZM49.0804 0L38.4107 10.6696L41.4174 13.6977L46.9464 8.09613V27.7411H12.8036C10.4498 27.7411 8.53571 29.6573 8.53571 32.0089V38.6262C3.67036 39.6164 0 43.9269 0 49.0804C0 54.9636 4.7864 59.75 10.6696 59.75C16.5529 59.75 21.3393 54.9636 21.3393 49.0804C21.3353 46.6221 20.4843 44.2403 18.9295 42.3362C17.3748 40.432 15.2114 39.1218 12.8036 38.6262V32.0089H46.9464C49.3002 32.0089 51.2143 30.0948 51.2143 27.7411V8.20922L56.7433 13.6977L59.75 10.6696L49.0804 0ZM17.0714 49.0804C17.0714 52.6099 14.1992 55.4821 10.6696 55.4821C7.14012 55.4821 4.26786 52.6099 4.26786 49.0804C4.26786 45.5508 7.14012 42.6786 10.6696 42.6786C14.1992 42.6786 17.0714 45.5508 17.0714 49.0804Z" fill="#0205FA"/>
<path d="M63.875 42.9491L60.4284 39.5L51.6875 48.2433L42.9466 39.5L39.5 42.9491L48.2409 51.6875L39.5 60.4284L42.9466 63.875L51.6875 55.1341L60.4284 63.875L63.875 60.4284L55.1341 51.6875L63.875 42.9491Z" fill="#0205FA"/>
</svg>
