<svg width="80" height="80" viewBox="0 0 80 80" fill="none" xmlns="http://www.w3.org/2000/svg">
<path d="M58.6229 22.0097V15.3394C58.6229 11.368 55.5419 8.14844 51.7412 8.14844H10.2333C6.43262 8.14844 3.35156 11.368 3.35156 15.3394V70.1072C3.35156 74.0787 6.43262 77.2982 10.2333 77.2982H51.7412C55.5419 77.2982 58.6229 74.0787 58.6229 70.1072V59.6822" stroke="#0205FA" stroke-width="1.5"/>
<path d="M58.6229 22.0097V15.3394C58.6229 11.368 55.5419 8.14844 51.7412 8.14844H10.2333C6.43262 8.14844 3.35156 11.368 3.35156 15.3394V70.1072C3.35156 74.0787 6.43262 77.2982 10.2333 77.2982H51.7412C55.5419 77.2982 58.6229 74.0787 58.6229 70.1072V59.6822" stroke="#0205FA" stroke-width="1.5"/>
<path d="M55.0439 21.2731L55.0438 15.6545C55.0438 13.6688 53.5033 12.0591 51.603 12.0591H10.3667C8.46631 12.0591 6.92578 13.6689 6.92578 15.6546V69.7922C6.92578 71.7779 8.46631 73.3877 10.3667 73.3877H51.6029C53.5032 73.3877 55.0438 71.7779 55.0438 69.7922L55.0438 60.2416" stroke="#0205FA"/>
<path d="M24.4552 20.7319H16.3919C15.1076 20.7319 14.0664 21.8199 14.0664 23.1619C14.0664 24.504 15.1076 25.5919 16.3919 25.5919H24.4552C25.7395 25.5919 26.7806 24.504 26.7806 23.1619C26.7806 21.8199 25.7395 20.7319 24.4552 20.7319Z" stroke="#0205FA" stroke-width="1.5"/>
<path d="M24.4552 31.5186H16.3919C15.1076 31.5186 14.0664 32.6065 14.0664 33.9486C14.0664 35.2906 15.1076 36.3785 16.3919 36.3785H24.4552C25.7395 36.3785 26.7806 35.2906 26.7806 33.9486C26.7806 32.6065 25.7395 31.5186 24.4552 31.5186Z" stroke="#0205FA" stroke-width="1.5"/>
<path d="M24.4552 42.3052H16.3919C15.1076 42.3052 14.0664 43.3931 14.0664 44.7352C14.0664 46.0772 15.1076 47.1652 16.3919 47.1652H24.4552C25.7395 47.1652 26.7806 46.0772 26.7806 44.7352C26.7806 43.3931 25.7395 42.3052 24.4552 42.3052Z" stroke="#0205FA" stroke-width="1.5"/>
<path d="M24.4552 53.0918H16.3919C15.1076 53.0918 14.0664 54.1797 14.0664 55.5218C14.0664 56.8638 15.1076 57.9518 16.3919 57.9518H24.4552C25.7395 57.9518 26.7806 56.8638 26.7806 55.5218C26.7806 54.1797 25.7395 53.0918 24.4552 53.0918Z" stroke="#0205FA" stroke-width="1.5"/>
<path d="M30.6331 1.88477H31.3363C34.6464 1.88487 37.3686 4.51569 37.6921 7.88547H24.2773C24.6009 4.51569 27.3231 1.88487 30.6331 1.88477Z" stroke="#0205FA" stroke-width="1.5"/>
<path d="M30.7822 4.77637H31.1871C33.0408 4.77658 34.5681 6.23285 34.7808 8.11028H27.1875C27.4001 6.2327 28.9281 4.77637 30.7822 4.77637Z" stroke="#0205FA"/>
<path d="M43.5078 44.7914L45.5819 37.5021L51.2381 48.7316L56.3285 33.562L60.8534 44.7914L63.1157 37.5021" stroke="#0205FA" stroke-linecap="round" stroke-linejoin="round"/>
<path d="M53.3128 56.4809C61.7395 56.4809 68.5708 49.3426 68.5708 40.5371C68.5708 31.7316 61.7395 24.5933 53.3128 24.5933C44.886 24.5933 38.0547 31.7316 38.0547 40.5371C38.0547 49.3426 44.886 56.4809 53.3128 56.4809Z" stroke="#0205FA" stroke-width="1.5"/>
<path d="M53.3099 59.4375C63.2992 59.4375 71.3971 50.9756 71.3971 40.5373C71.3971 30.0991 63.2992 21.6372 53.3099 21.6372C43.3206 21.6372 35.2227 30.0991 35.2227 40.5373C35.2227 50.9756 43.3206 59.4375 53.3099 59.4375Z" stroke="#0205FA" stroke-width="1.5"/>
<path d="M27.8519 63.9737L37.226 54.7048C38.0848 53.8557 39.4398 53.8948 40.2525 54.7922L40.2525 54.7922C41.0651 55.6896 41.0277 57.1055 40.1689 57.9546L30.7947 67.2235C29.9359 68.0726 28.5809 68.0335 27.7683 67.1361L27.7683 67.1361C26.9557 66.2387 26.9931 64.8228 27.8519 63.9737Z" stroke="#0205FA" stroke-width="1.5"/>
</svg>
