<svg width="81" height="72" viewBox="0 0 81 72" fill="none" xmlns="http://www.w3.org/2000/svg">
<rect x="-0.819824" y="0.819824" width="34.0624" height="69.7644" rx="10.4197" transform="matrix(-1 0 0 1 34.0635 0)" stroke="#0205FA" stroke-width="1.63965"/>
<rect x="-0.819824" y="0.819824" width="34.0624" height="22.1617" rx="10.4197" transform="matrix(-1 0 0 1 34.0635 47.6025)" stroke="#0205FA" stroke-width="1.63965"/>
<path d="M26.4473 55.0332H10.5801C8.84203 55.0332 7.43267 56.4426 7.43262 58.1807V62.1475C7.43262 63.8855 8.842 65.2949 10.5801 65.2949H26.4473C28.1853 65.2949 29.5947 63.8855 29.5947 62.1475V58.1807C29.5947 56.4427 28.1853 55.0333 26.4473 55.0332Z" stroke="#0205FA" stroke-width="1.63965"/>
<path d="M28.0332 69.2617C27.5804 69.2617 27.2134 69.6287 27.2134 70.0815C27.2134 70.5343 27.5804 70.9013 28.0332 70.9013V70.0815V69.2617ZM35.0435 9.91699V10.7368H79.3404V9.91699V9.09717H35.0435V9.91699ZM80.0016 10.5781H79.1817V69.4203H80.0016H80.8214V10.5781H80.0016ZM79.3404 70.0815V69.2617H28.0332V70.0815V70.9013H79.3404V70.0815ZM80.0016 69.4203H79.1817C79.1817 69.3327 79.2528 69.2617 79.3404 69.2617V70.0815V70.9013C80.1583 70.9013 80.8214 70.2382 80.8214 69.4203H80.0016ZM79.3404 9.91699V10.7368C79.2528 10.7368 79.1817 10.6658 79.1817 10.5781H80.0016H80.8214C80.8214 9.76023 80.1583 9.09717 79.3404 9.09717V9.91699Z" fill="#0205FA"/>
<path d="M48.2773 46.3023L52.9296 34.1885H54.6566L59.6145 46.3023H57.7883L56.3753 42.6335H51.31L49.9796 46.3023H48.2773ZM51.7727 41.3279H55.8795L54.6153 37.973C54.2297 36.9539 53.9432 36.1166 53.7559 35.4609C53.6017 36.2377 53.384 37.0089 53.103 37.7747L51.7727 41.3279ZM61.8449 46.3023V34.1885H63.448V46.3023H61.8449Z" fill="#1727FF"/>
<path d="M55.5438 20.037C56.3173 19.5905 57.2696 19.5905 58.0431 20.037L73.5869 29.0108C74.3605 29.4575 74.8369 30.2827 74.8369 31.1758V49.1243C74.8369 50.0175 74.3605 50.8427 73.5869 51.2893L58.0438 60.2632C57.2703 60.7097 56.3166 60.7097 55.5431 60.2632L40 51.2893C39.2265 50.8427 38.75 50.0175 38.75 49.1243V31.1758C38.75 30.2827 39.2265 29.4575 40 29.0108L55.5438 20.037Z" stroke="#1727FF" stroke-width="1.15385"/>
<path d="M55.5435 22.5313C56.317 22.0846 57.27 22.0846 58.0435 22.5313L71.4269 30.2581C72.2005 30.7047 72.6769 31.5299 72.6769 32.4231V47.8768C72.6769 48.7699 72.2005 49.5952 71.4269 50.0418L58.0435 57.7686C57.27 58.2153 56.317 58.2153 55.5435 57.7686L42.1602 50.0418C41.3866 49.5952 40.9102 48.7699 40.9102 47.8768V32.4231C40.9102 31.5299 41.3866 30.7047 42.1602 30.2581L55.5435 22.5313Z" stroke="#1727FF" stroke-width="1.15385"/>
</svg>
