<svg preserveAspectRatio="none" width="100%" height="100%" overflow="visible" style="display: block;" viewBox="0 0 104 104" fill="none" xmlns="http://www.w3.org/2000/svg">
<g id="AI 1">
<path id="Vector" d="M40.6113 59.6001L46.6592 43.8521H48.9043L55.3496 59.6001H52.9756L51.1386 54.8306H44.5537L42.8242 59.6001H40.6113ZM45.1552 53.1333H50.4941L48.8506 48.7719C48.3493 47.447 47.9769 46.3586 47.7334 45.5063C47.5329 46.5161 47.25 47.5186 46.8847 48.5141L45.1552 53.1333ZM58.2491 59.6001V43.8521H60.3331V59.6001H58.2491Z" fill="var(--fill-0, #0012FF)"/>
<path id="Vector_2" d="M79.5068 5.46826C82.7547 5.46837 85.3877 8.10128 85.3877 11.3491C85.3876 14.5969 82.7546 17.2299 79.5068 17.23C76.5577 17.23 74.1158 15.0589 73.6914 12.228H67.1699V25.77C67.1699 26.1013 66.9015 26.3704 66.5703 26.3706C66.2389 26.3706 65.9707 26.1014 65.9707 25.77V11.6284C65.9708 11.2971 66.239 11.0288 66.5703 11.0288H73.6348C73.801 7.92977 76.3663 5.46827 79.5068 5.46826ZM79.5068 6.66846C76.9223 6.66847 74.8271 8.7628 74.8262 11.3472C74.8712 11.4313 74.8994 11.5263 74.8994 11.6284C74.8994 11.7084 74.8819 11.7843 74.8535 11.854C75.1054 14.2016 77.0923 16.0298 79.5068 16.0298C82.0919 16.0297 84.1874 13.9341 84.1875 11.3491C84.1875 8.76402 82.0919 6.66856 79.5068 6.66846Z" fill="var(--fill-0, #0012FF)"/>
<path id="Vector_3" d="M79.5068 95.9917C82.7547 95.9916 85.3877 93.3587 85.3877 90.1108C85.3874 86.8632 82.7545 84.2301 79.5068 84.23C76.5581 84.23 74.1163 86.4007 73.6914 89.231H67.1699V75.689C67.1697 75.3579 66.9013 75.0886 66.5703 75.0884C66.2391 75.0884 65.971 75.3578 65.9707 75.689V89.8306C65.9707 90.1619 66.2389 90.4302 66.5703 90.4302H73.6348C73.8004 93.5298 76.3659 95.9917 79.5068 95.9917ZM79.5068 94.7915C76.9222 94.7915 74.827 92.6973 74.8262 90.1128C74.8713 90.0285 74.8994 89.9329 74.8994 89.8306C74.8994 89.7509 74.8818 89.6755 74.8535 89.606C75.1055 87.2585 77.0924 85.4302 79.5068 85.4302C82.0918 85.4303 84.1873 87.5259 84.1875 90.1108C84.1875 92.6959 82.0919 94.7914 79.5068 94.7915Z" fill="var(--fill-0, #0012FF)"/>
<path id="Vector_4" d="M22.9121 5.46826C19.6644 5.46847 17.0313 8.10134 17.0312 11.3491C17.0314 14.5968 19.6644 17.2298 22.9121 17.23C25.8612 17.23 28.3032 15.0589 28.7275 12.228H35.251V25.77C35.251 26.1014 35.5192 26.3706 35.8506 26.3706C36.1819 26.3705 36.4502 26.1013 36.4502 25.77V11.6284C36.4501 11.2972 36.1818 11.0289 35.8506 11.0288H28.7852C28.6189 7.92975 26.0526 5.46827 22.9121 5.46826ZM22.9121 6.66846C25.4973 6.66847 27.5928 8.76396 27.5928 11.3491C27.5487 11.4326 27.5215 11.5274 27.5215 11.6284C27.5215 11.7083 27.5381 11.7843 27.5664 11.854C27.3146 14.2016 25.3266 16.0298 22.9121 16.0298C20.3272 16.0296 18.2316 13.9341 18.2314 11.3491C18.2315 8.76408 20.3271 6.66867 22.9121 6.66846Z" fill="var(--fill-0, #0012FF)"/>
<path id="Vector_5" d="M57.5254 6.62256C57.5252 3.37482 54.8923 0.741709 51.6445 0.741699C48.3968 0.741817 45.7639 3.37489 45.7637 6.62256C45.7637 9.57167 47.9348 12.0136 50.7656 12.438V19.561C50.7657 19.8923 51.0339 20.1606 51.3652 20.1606C51.6965 20.1606 51.9647 19.8923 51.9648 19.561V12.4956C55.0639 12.3294 57.5254 9.76308 57.5254 6.62256ZM56.3252 6.62256C56.3252 9.20772 54.2297 11.3032 51.6445 11.3032C51.561 11.2591 51.4662 11.232 51.3652 11.2319C51.2853 11.2319 51.2094 11.2485 51.1396 11.2769C48.792 11.025 46.9639 9.03708 46.9639 6.62256C46.9641 4.03763 49.0596 1.94201 51.6445 1.94189C54.2296 1.9419 56.325 4.03757 56.3252 6.62256Z" fill="var(--fill-0, #0012FF)"/>
<path id="Vector_6" d="M9.79688 45.5898C6.54914 45.5901 3.91603 48.2229 3.91602 51.4707C3.91614 54.7184 6.54921 57.3514 9.79688 57.3516C12.746 57.3516 15.188 55.1805 15.6123 52.3496H22.7354C23.0667 52.3495 23.335 52.0813 23.335 51.75C23.3349 51.4188 23.0666 51.1505 22.7354 51.1504H15.6699C15.5037 48.0513 12.9374 45.5899 9.79688 45.5898ZM9.79688 46.79C12.3821 46.79 14.4776 48.8855 14.4776 51.4707C14.4335 51.5541 14.4063 51.649 14.4063 51.75C14.4063 51.8299 14.4228 51.9059 14.4512 51.9756C14.1993 54.3232 12.2114 56.1514 9.79688 56.1514C7.21195 56.1512 5.11633 54.0556 5.11621 51.4707C5.11622 48.8857 7.21189 46.7903 9.79688 46.79Z" fill="var(--fill-0, #0012FF)"/>
<path id="Vector_7" d="M57.5254 96.3193C57.5252 99.5671 54.8923 102.2 51.6445 102.2C48.3968 102.2 45.7639 99.567 45.7637 96.3193C45.7637 93.3702 47.9348 90.9283 50.7656 90.5039V83.3809C50.7657 83.0496 51.0339 82.7813 51.3652 82.7813C51.6965 82.7813 51.9647 83.0496 51.9648 83.3809V90.4463C55.0639 90.6125 57.5254 93.1788 57.5254 96.3193ZM56.3252 96.3193C56.3252 93.7342 54.2297 91.6387 51.6445 91.6387C51.561 91.6828 51.4662 91.7099 51.3652 91.71C51.2853 91.71 51.2094 91.6934 51.1396 91.665C48.792 91.9169 46.9639 93.9048 46.9639 96.3193C46.9641 98.9043 49.0596 101 51.6445 101C54.2296 101 56.325 98.9043 56.3252 96.3193Z" fill="var(--fill-0, #0012FF)"/>
<path id="Vector_8" d="M93.4932 45.5898C96.7409 45.5901 99.374 48.2229 99.374 51.4707C99.3739 54.7184 96.7408 57.3514 93.4932 57.3516C90.5441 57.3516 88.1021 55.1805 87.6777 52.3496H80.5547C80.2234 52.3495 79.9551 52.0813 79.9551 51.75C79.9552 51.4188 80.2235 51.1505 80.5547 51.1504H87.6201C87.7863 48.0513 90.3526 45.5899 93.4932 45.5898ZM93.4932 46.79C90.908 46.79 88.8125 48.8855 88.8125 51.4707C88.8566 51.5541 88.8838 51.649 88.8838 51.75C88.8838 51.8299 88.8672 51.9059 88.8389 51.9756C89.0907 54.3232 91.0786 56.1514 93.4932 56.1514C96.0781 56.1512 98.1737 54.0556 98.1738 51.4707C98.1738 48.8857 96.0782 46.7902 93.4932 46.79Z" fill="var(--fill-0, #0012FF)"/>
<path id="Vector_9" d="M22.9121 95.9917C19.6644 95.9915 17.0313 93.3586 17.0312 90.1108C17.0315 86.8633 19.6645 84.2302 22.9121 84.23C25.8608 84.23 28.3027 86.4007 28.7275 89.231H35.251V75.689C35.2512 75.3578 35.5194 75.0884 35.8506 75.0884C36.1817 75.0885 36.4499 75.3579 36.4502 75.689V89.8306C36.4502 90.1619 36.1819 90.4301 35.8506 90.4302H28.7852C28.6195 93.5298 26.053 95.9917 22.9121 95.9917ZM22.9121 94.7915C25.4973 94.7915 27.5928 92.696 27.5928 90.1108C27.5486 90.0272 27.5215 89.9317 27.5215 89.8306C27.5215 89.7509 27.5382 89.6754 27.5664 89.606C27.3144 87.2585 25.3265 85.4302 22.9121 85.4302C20.3273 85.4304 18.2317 87.526 18.2314 90.1108C18.2315 92.6959 20.3271 94.7913 22.9121 94.7915Z" fill="var(--fill-0, #0012FF)"/>
<path id="Vector_10" d="M99.6925 23.063C99.6922 19.8153 97.0593 17.1821 93.8116 17.1821C90.5638 17.1821 87.931 19.8153 87.9307 23.063C87.9307 26.0115 90.1007 28.4533 92.9307 28.8784V35.4009H82.9884C82.6571 35.4009 82.3889 35.6693 82.3887 36.0005C82.3887 36.3319 82.657 36.6001 82.9884 36.6001H93.5303C93.8617 36.6001 94.13 36.3319 94.13 36.0005V28.936C97.2298 28.7707 99.6925 26.2041 99.6925 23.063ZM98.4923 23.063C98.4923 25.6482 96.3968 27.7436 93.8116 27.7437H93.8096C93.726 27.6993 93.6317 27.6714 93.5303 27.6714C93.4506 27.6714 93.3753 27.6891 93.3057 27.7173C90.9585 27.4651 89.1309 25.4772 89.1309 23.063C89.1312 20.478 91.2266 18.3823 93.8116 18.3823C96.3966 18.3823 98.492 20.478 98.4923 23.063Z" fill="var(--fill-0, #0012FF)"/>
<path id="Vector_11" d="M3.91602 23.063C3.91628 19.8153 6.54913 17.1821 9.79688 17.1821C13.0447 17.1821 15.6775 19.8153 15.6778 23.063C15.6777 26.0115 13.5078 28.4533 10.6778 28.8784V35.4009H20.6201C20.9514 35.4009 21.2196 35.6693 21.2198 36.0005C21.2198 36.3319 20.9515 36.6001 20.6201 36.6001H10.0781C9.74676 36.6001 9.47852 36.3319 9.47852 36.0005V28.936C6.37865 28.7707 3.91603 26.2041 3.91602 23.063ZM5.11621 23.063C5.11622 25.6482 7.21172 27.7436 9.79688 27.7437H9.79883C9.88252 27.6993 9.97674 27.6714 10.0781 27.6714C10.1579 27.6714 10.2332 27.6891 10.3028 27.7173C12.65 27.4651 14.4776 25.4772 14.4776 23.063C14.4773 20.478 12.3819 18.3823 9.79688 18.3823C7.21187 18.3823 5.11648 20.478 5.11621 23.063Z" fill="var(--fill-0, #0012FF)"/>
<path id="Vector_12" d="M99.6925 80.1372C99.6925 83.3851 97.0595 86.0181 93.8116 86.0181C90.5637 86.0181 87.9307 83.3851 87.9307 80.1372C87.9307 77.1887 90.1007 74.7468 92.9307 74.3218V67.7993H82.9884C82.657 67.7993 82.3887 67.5311 82.3887 67.1997C82.3889 66.8685 82.6571 66.6001 82.9884 66.6001H93.5303C93.8616 66.6001 94.1298 66.8685 94.13 67.1997V74.2651C97.2298 74.4305 99.6925 76.9961 99.6925 80.1372ZM98.4923 80.1372C98.4923 77.552 96.3968 75.4566 93.8116 75.4565C93.7277 75.5013 93.6322 75.5288 93.5303 75.5288C93.4507 75.5288 93.3753 75.5121 93.3057 75.4839C90.9585 75.7361 89.1309 77.723 89.1309 80.1372C89.1309 82.7224 91.2264 84.8179 93.8116 84.8179C96.3968 84.8179 98.4923 82.7224 98.4923 80.1372Z" fill="var(--fill-0, #0012FF)"/>
<path id="Vector_13" d="M3.91602 80.1372C3.91602 83.3851 6.54897 86.0181 9.79688 86.0181C13.0448 86.0181 15.6778 83.3851 15.6778 80.1372C15.6777 77.1887 13.5078 74.7468 10.6778 74.3218V67.7993H20.6201C20.9515 67.7993 21.2198 67.5311 21.2198 67.1997C21.2196 66.8685 20.9514 66.6001 20.6201 66.6001H10.0781C9.74685 66.6001 9.47866 66.8685 9.47852 67.1997V74.2651C6.37866 74.4305 3.91603 76.9961 3.91602 80.1372ZM5.11621 80.1372C5.11622 77.552 7.21172 75.4566 9.79688 75.4565C9.88081 75.5013 9.97632 75.5288 10.0781 75.5288C10.1578 75.5288 10.2332 75.5121 10.3028 75.4839C12.65 75.7361 14.4776 77.723 14.4776 80.1372C14.4776 82.7224 12.3821 84.8179 9.79688 84.8179C7.21171 84.8179 5.11621 82.7224 5.11621 80.1372Z" fill="var(--fill-0, #0012FF)"/>
<path id="Vector_14" d="M50.0586 25.4531C51.0641 24.8727 52.3021 24.8727 53.3076 25.4531L73.5146 37.1191C74.5202 37.6997 75.1396 38.7725 75.1396 39.9336V63.2666C75.1396 64.4277 74.5202 65.5005 73.5146 66.0811L53.3086 77.7471C52.303 78.3276 51.0632 78.3276 50.0576 77.7471L29.8516 66.0811C28.846 65.5005 28.2266 64.4277 28.2266 63.2666V39.9336C28.2266 38.7725 28.846 37.6997 29.8516 37.1191L50.0586 25.4531Z" stroke="var(--stroke-0, #0012FF)" stroke-width="1.5"/>
<path id="Vector_15" d="M50.0586 28.6958C51.0641 28.1152 52.303 28.1152 53.3086 28.6958L70.707 38.7407C71.7126 39.3213 72.332 40.3941 72.332 41.5552V61.645C72.332 62.8061 71.7126 63.8789 70.707 64.4595L53.3086 74.5044C52.303 75.085 51.0641 75.085 50.0586 74.5044L32.6602 64.4595C31.6546 63.8789 31.0352 62.8061 31.0352 61.645V41.5552C31.0352 40.3941 31.6546 39.3213 32.6602 38.7407L50.0586 28.6958Z" stroke="var(--stroke-0, #0012FF)" stroke-width="1.5"/>
</g>
</svg>
