<svg width="77" height="80" viewBox="0 0 77 80" fill="none" xmlns="http://www.w3.org/2000/svg">
<path d="M6.75853 61.6901L12.2307 56.2178V49.8535M6.75853 61.6901C6.31095 61.2425 5.7039 60.9911 5.07093 60.9911C4.43796 60.9911 3.83092 61.2425 3.38334 61.6901C2.93577 62.1376 2.68433 62.7447 2.68433 63.3777C2.68433 64.0107 2.93577 64.6177 3.38334 65.0653C3.83092 65.5128 4.43796 65.7643 5.07093 65.7643C5.7039 65.7643 6.31095 65.5128 6.75853 65.0653C7.2061 64.6177 7.45753 64.0107 7.45753 63.3777C7.45753 62.7447 7.2061 62.1376 6.75853 61.6901ZM13.0351 68.8541L18.5074 63.3818V49.8535M13.0351 68.8541C12.5875 68.4065 11.9805 68.155 11.3475 68.155C10.7146 68.155 10.1075 68.4065 9.65995 68.8541C9.21239 69.3017 8.96094 69.9087 8.96094 70.5417C8.96094 71.1746 9.21239 71.7817 9.65995 72.2292C10.1075 72.6769 10.7146 72.9283 11.3475 72.9283C11.9805 72.9283 12.5875 72.6769 13.0351 72.2292C13.4827 71.7817 13.7342 71.1746 13.7342 70.5417C13.7342 69.9087 13.4827 69.3017 13.0351 68.8541ZM20.0875 75.0517L25.5598 69.5798V49.8535M20.0875 75.0517C19.6399 74.6047 19.0329 74.353 18.3999 74.353C17.767 74.353 17.1599 74.6047 16.7124 75.0517C16.2648 75.4994 16.0133 76.1064 16.0133 76.7398C16.0133 77.3724 16.2648 77.9794 16.7124 78.4271C17.1599 78.8748 17.767 79.1265 18.3999 79.1265C19.0329 79.1265 19.6399 78.8748 20.0875 78.4271C20.5351 77.9794 20.7866 77.3724 20.7866 76.7398C20.7866 76.1064 20.5351 75.4994 20.0875 75.0517Z" stroke="#1727FF" stroke-width="1.3211" stroke-linecap="round" stroke-linejoin="round"/>
<path d="M25.1543 22.1091C29.4299 22.1091 31.0996 18.7672 31.0996 15.04M36.9489 27.197C36.9489 24.6226 38.451 21.1785 43.3013 21.1785" stroke="#1727FF" stroke-width="1.3211" stroke-linecap="round" stroke-linejoin="round"/>
<path d="M43.3012 34.1467C43.3012 34.1467 43.5056 46.1837 33.3405 46.1837H12.7954C3.77603 46.1837 3.2014 34.1467 12.7954 34.1467C3.77603 34.1467 3.2014 22.1097 12.7954 22.1097C2.57612 13.7983 15.1428 6.56144 20.931 12.1514C14.9245 4.55634 27.6571 0.328684 32.0375 6.41914C31.5223 0.328684 38.1034 -0.769801 44.2077 3.79683L43.6663 4.19658C46.6372 1.47514 56.4024 2.95578 56.4024 10.2886L53.6253 12.1514C62.2167 4.28132 71.4056 16.9515 64.262 21.5853H65.9318C71.8754 21.5853 72.553 34.1467 64.262 34.1467H29.4299" stroke="#1727FF" stroke-width="1.3211" stroke-linecap="round" stroke-linejoin="round"/>
<path d="M43.665 4.19824C40.6434 6.96764 43.3122 7.84064 38.3205 12.4137M12.7976 22.1099H25.1547M12.7976 34.1468H17.4889M36.9494 34.1468V27.1977M65.9322 21.5854H55.1907" stroke="#1727FF" stroke-width="1.3211" stroke-linecap="round" stroke-linejoin="round"/>
<path d="M61.578 49.8525C61.578 51.3502 60.983 52.7867 59.9239 53.8457C58.8648 54.9048 57.4284 55.4998 55.9306 55.4998C54.4329 55.4998 52.9964 54.9048 51.9373 53.8457C50.8782 52.7867 50.2832 51.3502 50.2832 49.8525C50.2832 48.3547 50.8782 46.9183 51.9373 45.8592C52.9964 44.8001 54.4329 44.2051 55.9306 44.2051C57.4284 44.2051 58.8648 44.8001 59.9239 45.8592C60.983 46.9183 61.578 48.3547 61.578 49.8525Z" stroke="#1727FF" stroke-width="0.880734"/>
<path d="M59.7665 49.8529C59.7665 50.8704 59.3623 51.8462 58.6428 52.5657C57.9233 53.2851 56.9475 53.6893 55.9301 53.6893C54.9126 53.6893 53.9368 53.2851 53.2174 52.5657C52.4979 51.8462 52.0938 50.8704 52.0938 49.8529C52.0938 48.8355 52.4979 47.8597 53.2174 47.1402C53.9368 46.4208 54.9126 46.0166 55.9301 46.0166C56.9475 46.0166 57.9233 46.4208 58.6428 47.1402C59.3623 47.8597 59.7665 48.8355 59.7665 49.8529Z" fill="#1727FF" stroke="#1727FF" stroke-width="0.772183"/>
<path d="M58.7439 60.2074C56.961 60.6893 55.0838 60.7017 53.2948 60.2431C53.3879 59.6112 53.2902 58.9658 53.0144 58.3896C52.7387 57.8134 52.2972 57.3326 51.7467 57.0087C51.1961 56.6849 50.5614 56.5326 49.9238 56.5715C49.2861 56.6104 48.6747 56.8387 48.1675 57.2271C47.6708 56.7003 47.2288 56.1246 46.8484 55.5086C46.2599 54.558 45.8378 53.5508 45.5757 52.5214L45.6139 52.4978C46.0778 52.2108 46.461 51.8103 46.7272 51.3341C46.9934 50.8579 47.1338 50.3217 47.1352 49.7762C47.1366 49.2306 46.9989 48.6937 46.7352 48.2162C46.4715 47.7387 46.0904 47.3362 45.6279 47.0468C46.0803 45.3939 46.9232 43.8737 48.0856 42.6143C48.5919 42.9216 49.1733 43.0828 49.7655 43.0802C50.3576 43.0774 50.9376 42.911 51.441 42.5992C51.9446 42.2876 52.3523 41.8428 52.6188 41.314C52.8853 40.7851 53.0003 40.1929 52.951 39.6027C54.5966 39.124 56.3331 39.0475 58.0144 39.3798C58.0674 39.9266 58.2599 40.4507 58.5735 40.9018C58.887 41.3529 59.3111 41.7161 59.8052 41.9563C60.2992 42.1967 60.8467 42.3061 61.3951 42.2744C61.9436 42.2425 62.4748 42.0705 62.9377 41.7746C63.7614 42.4865 64.4715 43.3199 65.0437 44.246C65.4323 44.8738 65.7482 45.5263 65.9938 46.1935C65.4199 46.4742 64.9429 46.9197 64.6238 47.473C64.3046 48.0264 64.1578 48.6624 64.2022 49.2996C64.2465 49.9369 64.48 50.5464 64.8726 51.0502C65.2654 51.554 65.7995 51.9292 66.4067 52.1277C66.019 53.9334 65.1707 55.6079 63.9441 56.9885C63.4265 56.5471 62.7821 56.2815 62.1039 56.2299C61.4256 56.1784 60.7485 56.3434 60.1701 56.7014C59.5918 57.0595 59.142 57.5919 58.8856 58.222C58.6293 58.8521 58.5796 59.5472 58.7439 60.2074Z" stroke="#1727FF" stroke-width="0.880734" stroke-linejoin="round"/>
<path d="M47.1943 65.4109C47.1943 66.4435 46.7841 67.4338 46.0539 68.164C45.3237 68.8942 44.3334 69.3043 43.3008 69.3043C42.2682 69.3043 41.278 68.8942 40.5478 68.164C39.8177 67.4338 39.4075 66.4435 39.4075 65.4109C39.4075 64.3783 39.8177 63.388 40.5478 62.6579C41.278 61.9278 42.2682 61.5176 43.3008 61.5176C44.3334 61.5176 45.3237 61.9278 46.0539 62.6579C46.7841 63.388 47.1943 64.3783 47.1943 65.4109Z" stroke="#1727FF" stroke-width="0.716039"/>
<path d="M44.7883 65.4117C44.7883 65.8062 44.6316 66.1847 44.3526 66.4637C44.0736 66.7427 43.6951 66.8995 43.3005 66.8995C42.906 66.8995 42.5275 66.7427 42.2485 66.4637C41.9695 66.1847 41.8127 65.8062 41.8127 65.4117C41.8127 65.017 41.9695 64.6386 42.2485 64.3596C42.5275 64.0806 42.906 63.9238 43.3005 63.9238C43.6951 63.9238 44.0736 64.0806 44.3526 64.3596C44.6316 64.6386 44.7883 65.017 44.7883 65.4117Z" fill="#1727FF" stroke="#1727FF" stroke-width="0.486418"/>
<path d="M45.2404 72.5495C44.0114 72.8818 42.7171 72.8903 41.4837 72.5742C41.5479 72.1385 41.4806 71.6936 41.2905 71.2964C41.1004 70.8991 40.796 70.5676 40.4165 70.3444C40.0369 70.1211 39.5993 70.0161 39.1598 70.0429C38.7202 70.0697 38.2986 70.2271 37.949 70.4949C37.6065 70.1317 37.3019 69.7348 37.0395 69.3102C36.6338 68.6547 36.3429 67.9604 36.1621 67.2508L36.1885 67.2344C36.5083 67.0366 36.7725 66.7605 36.956 66.4322C37.1395 66.1039 37.2363 65.7342 37.2373 65.3582C37.2382 64.982 37.1433 64.6119 36.9615 64.2826C36.7797 63.9534 36.517 63.676 36.1981 63.4765C36.51 62.3369 37.0911 61.2889 37.8925 60.4207C38.2415 60.6325 38.6423 60.7436 39.0506 60.7418C39.4588 60.74 39.8587 60.6252 40.2058 60.4102C40.5529 60.1954 40.834 59.8888 41.0177 59.5242C41.2014 59.1596 41.2807 58.7513 41.2468 58.3444C42.3813 58.0144 43.5784 57.9617 44.7375 58.1907C44.7741 58.5677 44.9068 58.929 45.123 59.24C45.3391 59.551 45.6315 59.8014 45.9721 59.967C46.3127 60.1328 46.6901 60.2082 47.0682 60.1863C47.4464 60.1643 47.8125 60.0457 48.1317 59.8418C48.6996 60.3325 49.1892 60.9071 49.5837 61.5455C49.8515 61.9783 50.0693 62.4283 50.2386 62.8882C49.8431 63.0817 49.5142 63.3888 49.2941 63.7703C49.0741 64.1518 48.9729 64.5902 49.0034 65.0296C49.034 65.4689 49.195 65.8891 49.4657 66.2365C49.7364 66.5838 50.1046 66.8424 50.5232 66.9793C50.2561 68.2241 49.6712 69.3786 48.8255 70.3304C48.4687 70.0261 48.0245 69.843 47.5569 69.8074C47.0893 69.7719 46.6224 69.8857 46.2237 70.1325C45.8249 70.3794 45.5149 70.7464 45.3382 71.1808C45.1614 71.6152 45.1272 72.0945 45.2404 72.5495Z" stroke="#1727FF" stroke-width="0.880734" stroke-linejoin="round"/>
</svg>
