<svg preserveAspectRatio="none" width="100%" height="100%" overflow="visible" style="display: block;" viewBox="0 0 89.4833 95.1965" fill="none" xmlns="http://www.w3.org/2000/svg">
<g id="Group">
<path id="Vector" d="M77.2592 22.8726C77.2599 20.566 76.6472 18.3007 75.4839 16.3089C74.3206 14.3172 72.6486 12.6706 70.6392 11.538C68.6299 10.4053 66.3555 9.82743 64.0492 9.86343C61.7428 9.89943 59.4876 10.5481 57.5146 11.7429C56.9412 8.77533 55.3525 6.09993 53.0214 4.17613C50.6902 2.25225 47.762 1.2 44.7395 1.2C41.717 1.2 38.7888 2.25225 36.4577 4.17613C34.1265 6.09993 32.5378 8.77533 31.9644 11.7429M77.2592 22.8726C80.134 22.8726 82.891 24.0146 84.9237 26.0473C86.9565 28.08 88.0984 30.837 88.0984 33.7118C88.0984 36.5865 86.9565 39.3435 84.9237 41.3762C82.891 43.409 80.134 44.551 77.2592 44.551H12.2241C9.3494 44.551 6.5924 43.409 4.5596 41.3762C2.5269 39.3435 1.3849 36.5865 1.3849 33.7118C1.3849 30.837 2.5269 28.08 4.5596 26.0473C6.5924 24.0146 9.3494 22.8726 12.2241 22.8726C12.2239 20.5666 12.8367 18.3021 13.9998 16.311C15.1629 14.3198 16.8344 12.6737 18.8431 11.5412C20.8517 10.4087 23.1254 9.83053 25.4311 9.86603C27.7367 9.90143 29.9915 10.5492 31.9644 11.7429M77.2592 22.8726C73.7127 22.8726 70.565 24.5765 68.5879 27.2083M31.9644 11.7429C34.5404 13.2989 36.4971 15.6999 37.5011 18.5369M82.7322 73.6853L75.2763 66.2293V57.558M82.7322 73.6853C83.342 73.0755 84.1691 72.7329 85.0315 72.7329C85.894 72.7329 86.7211 73.0755 87.3309 73.6853C87.9407 74.2951 88.2833 75.1222 88.2833 75.9846C88.2833 76.847 87.9407 77.6741 87.3309 78.284C86.7211 78.8938 85.894 79.2364 85.0315 79.2364C84.1691 79.2364 83.342 78.8938 82.7322 78.284C82.1224 77.6741 81.7798 76.847 81.7798 75.9846C81.7798 75.1222 82.1224 74.2951 82.7322 73.6853ZM6.7511 73.6853L14.2071 66.2293V57.558M6.7511 73.6853C6.1413 73.0755 5.3142 72.7329 4.4518 72.7329C3.5894 72.7329 2.7623 73.0755 2.1525 73.6853C1.5426 74.2951 1.2 75.1222 1.2 75.9846C1.2 76.847 1.5426 77.6741 2.1525 78.284C2.7623 78.8938 3.5894 79.2364 4.4518 79.2364C5.3142 79.2364 6.1413 78.8938 6.7511 78.284C7.361 77.6741 7.7036 76.847 7.7036 75.9846C7.7036 75.1222 7.361 74.2951 6.7511 73.6853ZM65.1322 88.4456L57.6763 80.9897V57.558M65.1322 88.4456C65.7421 87.8358 66.5692 87.4932 67.4316 87.4932C68.294 87.4932 69.1211 87.8358 69.7309 88.4456C70.3407 89.0555 70.6833 89.8826 70.6833 90.745C70.6833 91.6074 70.3407 92.4345 69.7309 93.0445C69.1211 93.6545 68.294 93.9965 67.4316 93.9965C66.5692 93.9965 65.742 93.6545 65.1322 93.0445C64.5224 92.4345 64.1798 91.6074 64.1798 90.745C64.1798 89.8826 64.5224 89.0555 65.1322 88.4456ZM22.503 88.2462L29.9589 80.7903V57.558M22.503 88.2462C21.8932 87.6364 21.0661 87.2938 20.2036 87.2938C19.3412 87.2938 18.5141 87.6364 17.9043 88.2462C17.2945 88.856 16.9519 89.6831 16.9519 90.5456C16.9519 91.408 17.2945 92.2351 17.9043 92.8445C18.5141 93.4545 19.3412 93.7975 20.2036 93.7975C21.0661 93.7975 21.8932 93.4545 22.503 92.8445C23.1128 92.2351 23.4554 91.408 23.4554 90.5456C23.4554 89.6831 23.1128 88.856 22.503 88.2462Z" stroke="var(--stroke-0, #0012FF)" stroke-width="2.4" stroke-linecap="round" stroke-linejoin="round"/>
</g>
</svg>
