<svg width="83" height="83" viewBox="0 0 83 83" fill="none" xmlns="http://www.w3.org/2000/svg">
<circle cx="41.5" cy="41.5" r="41" stroke="#0205FA"/>
<path d="M41.7508 14.3804C33.9819 19.4077 28.7134 21.8311 16.8735 23.4442C16.3764 23.5119 15.9992 23.9497 16.0009 24.4514C16.1 53.7593 24.7732 60.7452 41.8071 70.6918C42.1289 70.8797 42.5408 70.8709 42.8551 70.6707C63.5572 57.4841 68.873 47.0944 67.8118 24.4084C67.7891 23.9231 67.4152 23.5177 66.9333 23.4567C56.5487 22.1427 50.9486 20.2736 42.8991 14.4136C42.561 14.1674 42.1019 14.1532 41.7508 14.3804Z" stroke="#0205FA" stroke-linecap="round"/>
<path d="M42.7168 30.2976V48.6963" stroke="#0205FA" stroke-linecap="round"/>
<circle cx="42.716" cy="54.1577" r="1.40353" fill="#0205FA"/>
</svg>
