<svg width="83" height="83" viewBox="0 0 83 83" fill="none" xmlns="http://www.w3.org/2000/svg">
<path d="M64.011 49C66.214 49 68 47.214 68 45.011V29.0529M15.8356 49C13.7173 49 12 47.2827 12 45.1644V29.0529M12 29.0529V25C12 22.2386 14.2386 20 17 20H63C65.7614 20 68 22.2386 68 25V29.0529M12 29.0529H68" stroke="#0205FA"/>
<circle cx="17.5" cy="24.5" r="1.5" fill="#0205FA"/>
<circle cx="24.5" cy="24.5" r="1.5" fill="#0205FA"/>
<circle cx="30.5" cy="24.5" r="1.5" fill="#0205FA"/>
<path d="M40.5 38.5C46.402 38.5 51.7256 39.2244 55.5576 40.3828C57.4768 40.963 58.9938 41.6438 60.0195 42.377C61.0576 43.119 61.5 43.8432 61.5 44.5C61.5 45.1568 61.0576 45.881 60.0195 46.623C58.9938 47.3562 57.4768 48.037 55.5576 48.6172C51.7256 49.7756 46.402 50.5 40.5 50.5C34.598 50.5 29.2744 49.7756 25.4424 48.6172C23.5232 48.037 22.0062 47.3562 20.9805 46.623C19.9424 45.881 19.5 45.1568 19.5 44.5C19.5 43.8432 19.9424 43.119 20.9805 42.377C22.0062 41.6438 23.5232 40.963 25.4424 40.3828C29.2744 39.2244 34.598 38.5 40.5 38.5Z" stroke="#0205FA"/>
<path d="M20 45.4545V55.8966M62 60.588V61.7529C62 63.5576 61.0339 65.2466 59.4035 66.0202C44.9171 72.8934 30.2168 69.5028 22.5428 65.9845C20.9282 65.2443 20 63.5823 20 61.8061V55.8966M20 55.8966C26.2501 59.0434 42.3675 63.2989 59.0868 56.7022C60.8877 55.9916 62 54.2072 62 52.2712V45" stroke="#0205FA" stroke-linecap="round"/>
<circle cx="41.5" cy="41.5" r="41" stroke="#0205FA"/>
</svg>
