<svg width="80" height="66" viewBox="0 0 80 66" fill="none" xmlns="http://www.w3.org/2000/svg">
<path d="M27.2427 10.7324C33.1739 10.7324 38.8622 13.0884 43.0562 17.2825C47.2502 21.4765 49.6064 27.1647 49.6064 33.0962C49.6064 39.0274 47.2502 44.7157 43.0562 48.9097C38.8622 53.1037 33.1739 55.4599 27.2427 55.4599C21.3114 55.4599 15.6232 53.1037 11.4291 48.9097C7.2351 44.7157 4.87891 39.0274 4.87891 33.0962C4.87891 27.1649 7.2351 21.4765 11.4291 17.2825C15.6232 13.0884 21.3114 10.7324 27.2427 10.7324Z" stroke="#1727FF" stroke-width="1.20976"/>
<path d="M58.9644 56.4895L51.6904 49.2154H43.2305M58.9644 56.4895C58.3695 57.0844 58.0352 57.8914 58.0352 58.7327C58.0352 59.5741 58.3695 60.381 58.9644 60.976C59.5593 61.571 60.3663 61.9052 61.2076 61.9052C62.0491 61.9052 62.856 61.571 63.451 60.976C64.0459 60.381 64.3801 59.5741 64.3801 58.7327C64.3801 57.8914 64.0459 57.0844 63.451 56.4895C62.856 55.8945 62.0491 55.5603 61.2076 55.5603C60.3663 55.5603 59.5593 55.8945 58.9644 56.4895ZM68.2921 49.9023L61.0181 42.6283H47.8055M68.2921 49.9023C67.6972 50.4972 67.363 51.3042 67.363 52.1456C67.363 52.987 67.6972 53.7939 68.2921 54.3888C68.8872 54.9838 69.6941 55.318 70.5354 55.318C71.3768 55.318 72.1837 54.9838 72.7787 54.3888C73.3736 53.7939 73.7078 52.987 73.7078 52.1456C73.7078 51.3042 73.3736 50.4972 72.7787 49.9023C72.1837 49.3074 71.3768 48.9731 70.5354 48.9731C69.6941 48.9731 68.8872 49.3074 68.2921 49.9023ZM68.8229 32.8722H49.7568M69.3141 32.6334C69.3141 31.792 69.6483 30.985 70.2433 30.3901C70.8382 29.7952 71.6451 29.4609 72.4866 29.4609C73.3279 29.4609 74.1349 29.7952 74.7298 30.3901C75.3247 30.985 75.659 31.792 75.659 32.6334C75.659 33.4748 75.3247 34.2817 74.7298 34.8766C74.1349 35.4716 73.3279 35.8058 72.4866 35.8058C71.6451 35.8058 70.8382 35.4716 70.2433 34.8766C69.6483 34.2817 69.3141 33.4748 69.3141 32.6334Z" stroke="#2837FF" stroke-width="1.46341" stroke-linecap="round" stroke-linejoin="round"/>
<path d="M58.9644 10.0905L51.6904 17.3646H43.2305M58.9644 10.0905C58.3695 9.49558 58.0352 8.68865 58.0352 7.84728C58.0352 7.00582 58.3695 6.19894 58.9644 5.604C59.5593 5.00905 60.3663 4.6748 61.2076 4.6748C62.0491 4.6748 62.856 5.00905 63.451 5.604C64.0459 6.19894 64.3801 7.00582 64.3801 7.84728C64.3801 8.68865 64.0459 9.49558 63.451 10.0905C62.856 10.6854 62.0491 11.0197 61.2076 11.0197C60.3663 11.0197 59.5593 10.6854 58.9644 10.0905ZM68.2921 16.6777L61.0181 23.9518H47.8055M68.2921 16.6777C67.6972 16.0827 67.363 15.2758 67.363 14.4344C67.363 13.593 67.6972 12.7861 68.2921 12.1912C68.8872 11.5963 69.6941 11.262 70.5354 11.262C71.3768 11.262 72.1837 11.5963 72.7787 12.1912C73.3736 12.7861 73.7078 13.593 73.7078 14.4344C73.7078 15.2758 73.3736 16.0827 72.7787 16.6777C72.1837 17.2726 71.3768 17.6069 70.5354 17.6069C69.6941 17.6069 68.8872 17.2726 68.2921 16.6777Z" stroke="#2837FF" stroke-width="1.46341" stroke-linecap="round" stroke-linejoin="round"/>
<path d="M28.6627 33.1719C28.6627 33.5059 28.9335 33.7768 29.2676 33.7768C29.6016 33.7768 29.8725 33.5059 29.8725 33.1719L29.2676 33.1719L28.6627 33.1719ZM29.6953 18.11C29.4591 17.8738 29.0761 17.8738 28.8399 18.11L24.9904 21.9594C24.7542 22.1957 24.7542 22.5786 24.9904 22.8149C25.2267 23.0511 25.6097 23.0511 25.8459 22.8149L29.2676 19.3932L32.6893 22.8149C32.9255 23.0511 33.3085 23.0511 33.5447 22.8149C33.7809 22.5786 33.7809 22.1957 33.5447 21.9594L29.6953 18.11ZM29.2676 33.1719L29.8725 33.1719L29.8725 18.5377L29.2676 18.5377L28.6627 18.5377L28.6627 33.1719L29.2676 33.1719Z" fill="#1727FF"/>
<path d="M15.9798 45.8548C15.9798 46.1889 16.2506 46.4597 16.5847 46.4597H22.0286C22.3626 46.4597 22.6334 46.1889 22.6334 45.8548C22.6334 45.5207 22.3626 45.2499 22.0286 45.2499H17.1895V40.4109C17.1895 40.0768 16.9187 39.806 16.5847 39.806C16.2506 39.806 15.9798 40.0768 15.9798 40.4109V45.8548ZM29.2676 33.1719L28.8399 32.7442L16.1569 45.4271L16.5847 45.8548L17.0124 46.2825L29.6953 33.5996L29.2676 33.1719Z" fill="#0205FA"/>
</svg>
