<svg preserveAspectRatio="none" width="100%" height="100%" overflow="visible" style="display: block;" viewBox="0 0 104 104" fill="none" xmlns="http://www.w3.org/2000/svg">
<g id="insurance-dna-icon 1">
<path id="Vector" d="M90.8985 65.4337L84.2632 72.379C84.161 72.4859 84.0359 72.571 83.8952 72.6265L77.7941 75.1425C77.261 75.3639 76.6424 75.109 76.4133 74.5686C76.1918 74.0356 76.4468 73.4169 76.9871 73.1878L82.8884 70.7586L89.3704 63.9738C89.896 63.4237 89.9741 62.5923 89.5561 61.959C89.3082 61.5761 88.9136 61.316 88.4634 61.2366C88.0131 61.1572 87.5597 61.2647 87.1923 61.5421L81.4917 65.8876C81.286 66.0418 81.0337 66.1223 80.7717 66.1058C80.7193 66.0995 75.2708 65.7755 71.3291 69.9014C67.3873 74.0273 68.1553 79.5106 68.1643 79.5776C68.1989 79.7861 68.1592 80.0112 68.0664 80.2002L63.901 90.1941C63.644 90.7231 63.006 90.932 62.4843 90.6674C61.9552 90.4104 61.7463 89.7724 62.011 89.2506L66.0407 79.5364C65.9038 78.1195 65.7059 72.7278 69.8083 68.4338C73.9106 64.1398 79.0111 63.9561 80.5214 63.9814L85.921 59.8746C86.7437 59.2429 87.8066 58.987 88.8346 59.1653C89.8626 59.3436 90.7733 59.9507 91.3313 60.8199C92.2764 62.2781 92.0956 64.1806 90.8912 65.4413L90.8985 65.4337Z" fill="var(--fill-0, #0012FF)"/>
<path id="Vector_2" d="M91.884 76.3324C91.3219 76.9208 90.6911 77.4434 90.0134 77.8774L78.2806 85.4622L75.6081 91.166C75.3511 91.6951 74.7284 91.9186 74.1997 91.6765C73.671 91.4345 73.4471 90.7968 73.6892 90.2681L76.49 84.2923C76.5756 84.111 76.7066 83.9585 76.8762 83.8575L88.8593 76.1025C90.3176 75.1574 91.4518 73.7713 92.08 72.15L101.548 47.8604C101.795 47.2194 101.756 46.5103 101.443 45.9046C101.131 45.2988 100.553 44.8636 99.8991 44.7066C98.8472 44.4616 97.7525 44.9649 97.2664 45.9327L91.3066 57.586C91.042 58.1078 90.404 58.3167 89.8895 58.0444C89.3678 57.7798 89.1589 57.1418 89.4312 56.6273L95.391 44.974C96.3281 43.1364 98.3767 42.1853 100.39 42.6476C101.652 42.9476 102.725 43.7677 103.334 44.9197C103.943 46.0717 104.019 47.4153 103.546 48.6294L94.0782 72.9191C93.5766 74.1936 92.8479 75.3388 91.9062 76.3245L91.884 76.3324Z" fill="var(--fill-0, #0012FF)"/>
<path id="Vector_3" d="M67.3476 95.3204C67.2245 95.7797 66.7959 96.1134 66.3065 96.1026L64.285 96.0532C63.6983 96.0383 63.2373 95.5537 63.2523 94.967C63.2673 94.3803 63.7518 93.9194 64.3386 93.9344L66.3601 93.9837C66.9469 93.9987 67.4078 94.4833 67.3928 95.07C67.3913 95.1571 67.3796 95.2415 67.3578 95.3232L67.3476 95.3204Z" fill="var(--fill-0, #0012FF)"/>
<path id="Vector_4" d="M79.5789 91.4375V100.34L59.5684 99.9457V90.6494L79.5789 91.4375Z" stroke="var(--stroke-0, #0012FF)" stroke-width="1.92" stroke-linecap="round" stroke-linejoin="round"/>
<path id="Vector_5" d="M13.3559 65.4327L19.9912 72.378C20.0934 72.4849 20.2185 72.57 20.3592 72.6255L26.4603 75.1415C26.9934 75.363 27.6121 75.108 27.8412 74.5676C28.0626 74.0346 27.8077 73.4159 27.2673 73.1868L21.366 70.7576L14.884 63.9728C14.3585 63.4227 14.2803 62.5913 14.6983 61.9581C14.9462 61.5751 15.3408 61.315 15.7911 61.2356C16.2413 61.1562 16.6948 61.2637 17.0621 61.5411L22.7627 65.8866C22.9685 66.0408 23.2208 66.1213 23.4827 66.1048C23.5352 66.0985 28.9836 65.7745 32.9253 69.9004C36.8671 74.0263 36.0992 79.5096 36.0902 79.5766C36.0555 79.7851 36.0952 80.0102 36.1881 80.1992L40.3535 90.1931C40.6104 90.7221 41.2484 90.931 41.7702 90.6664C42.2992 90.4094 42.5081 89.7714 42.2435 89.2496L38.2137 79.5354C38.3507 78.1185 38.5485 72.7268 34.4462 68.4328C30.3438 64.1388 25.2433 63.9551 23.733 63.9804L18.3334 59.8736C17.5107 59.2419 16.4478 58.986 15.4198 59.1643C14.3918 59.3426 13.4811 59.9497 12.9231 60.8189C11.978 62.2771 12.1588 64.1796 13.3632 65.4403L13.3559 65.4327Z" fill="var(--fill-0, #0012FF)"/>
<path id="Vector_6" d="M12.3678 76.3314C12.9298 76.9198 13.5607 77.4424 14.2384 77.8764L25.9712 85.4612L28.6437 91.165C28.9007 91.6941 29.5234 91.9176 30.0521 91.6755C30.5808 91.4335 30.8046 90.7958 30.5626 90.2671L27.7617 84.2913C27.6762 84.11 27.5451 83.9575 27.3756 83.8565L15.3925 76.1015C13.9342 75.1564 12.7999 73.7703 12.1718 72.149L2.70372 47.8594C2.45677 47.2184 2.49538 46.5093 2.80816 45.9036C3.12095 45.2978 3.6989 44.8626 4.35272 44.7056C5.40466 44.4606 6.49932 44.9639 6.98545 45.9317L12.9452 57.585C13.2098 58.1068 13.8478 58.3157 14.3622 58.0434C14.884 57.7788 15.0929 57.1408 14.8206 56.6263L8.86087 44.973C7.92373 43.1354 5.87516 42.1843 3.86159 42.6466C2.59912 42.9466 1.52658 43.7667 0.917314 44.9187C0.308049 46.0707 0.232537 47.4143 0.705575 48.6284L10.1736 72.9181C10.6752 74.1926 11.4039 75.3378 12.3455 76.3235L12.3678 76.3314Z" fill="var(--fill-0, #0012FF)"/>
<path id="Vector_7" d="M25.9668 91.4368V100.339L45.9773 99.945V90.6487L25.9668 91.4368Z" stroke="var(--stroke-0, #0012FF)" stroke-width="1.92" stroke-linecap="round" stroke-linejoin="round"/>
<path id="Vector_8" d="M36.905 95.3192C37.028 95.7785 37.4566 96.1122 37.946 96.1014L39.9675 96.0521C40.5543 96.0371 41.0152 95.5525 41.0002 94.9658C40.9852 94.3791 40.5007 93.9182 39.9139 93.9332L37.8924 93.9825C37.3057 93.9975 36.8447 94.4821 36.8597 95.0688C36.8612 95.1559 36.8729 95.2403 36.8948 95.322L36.905 95.3192Z" fill="var(--fill-0, #0012FF)"/>
<path id="Vector_9" d="M76.5703 10.6812V30.8492C76.3659 35.1964 74.88 42.1353 71.0791 48.7271C67.3103 55.263 61.2825 61.4277 51.9873 64.4302C44.5037 62.5382 29.3107 53.3073 27.6465 30.8335V10.6802L52.0195 1.41064L76.5703 10.6812Z" stroke="var(--stroke-0, #0012FF)" stroke-width="1.60776"/>
<path id="Vector_10" d="M73.7882 12.6487V31.053C73.6099 35.0187 72.3 41.3336 68.9464 47.3314C65.6115 53.2957 60.2659 58.9283 52.0167 61.6526C45.4075 59.9711 31.899 51.5713 30.4298 31.053V12.6487L52.0304 4.17706L73.7882 12.6487Z" stroke="var(--stroke-0, #0012FF)" stroke-width="0.803882"/>
<path id="Vector_11" d="M43.668 34.1152L49.2952 39.7424L60.5495 27.6841" stroke="var(--stroke-0, #0012FF)" stroke-width="2.41165" stroke-linecap="round" stroke-linejoin="round"/>
</g>
</svg>
