<svg preserveAspectRatio="none" width="100%" height="100%" overflow="visible" style="display: block;" viewBox="0 0 104 104" fill="none" xmlns="http://www.w3.org/2000/svg">
<g id="code-setting 1">
<path id="Vector" d="M95.9612 45.8666C95.4585 41.9765 94.4561 38.2431 93.0204 34.7327C91.5164 31.0555 89.537 27.6232 87.1586 24.5122M95.9553 57.4913C94.916 65.4691 91.7747 72.7864 87.1054 78.8694M79.0208 87.0013C76.5899 88.89 73.959 90.5333 71.1653 91.8943C66.8963 93.9739 62.247 95.3942 57.3499 96.0227M45.8493 96.0227C41.9279 95.5194 38.1655 94.5085 34.6299 93.0578C30.8405 91.5029 27.3117 89.443 24.1274 86.9616M16.1634 78.9598C13.7833 75.8754 11.7969 72.4715 10.2796 68.8236C8.79255 65.2485 7.75595 61.439 7.24067 57.4658M7.22266 45.9868C7.72349 42.0269 8.742 38.2283 10.2082 34.6611C11.7245 30.972 13.7197 27.5303 16.1163 24.4134M24.19 16.3018C27.0714 14.0646 30.2336 12.172 33.6147 10.6856C37.4726 8.98968 41.6155 7.82267 45.9516 7.27637M57.2476 7.27637C61.0419 7.7544 64.6881 8.70768 68.1249 10.0747C72.0365 11.6306 75.6767 13.7224 78.9548 16.2596" stroke="var(--stroke-0, #0012FF)" stroke-width="1.2"/>
<path id="Vector_2" d="M93.4449 46.1946C92.9707 42.5251 92.0252 39.0035 90.6709 35.6923C89.2523 32.2237 87.3851 28.9861 85.1417 26.0515M93.4393 57.1598C92.4589 64.685 89.4959 71.5873 85.0914 77.3252M77.4654 84.9958C75.1725 86.7773 72.6908 88.3274 70.0556 89.6112C66.0287 91.5729 61.6432 92.9126 57.0239 93.5054M46.1757 93.5054C42.4768 93.0307 38.9278 92.0771 35.5928 90.7087C32.0183 89.2421 28.6897 87.2989 25.6861 84.9584M18.1738 77.4105C15.9288 74.501 14.0551 71.2902 12.6238 67.8492C11.2211 64.4769 10.2433 60.8835 9.75722 57.1358M9.74023 46.308C10.2126 42.5727 11.1734 38.9896 12.5565 35.6247C13.9868 32.1449 15.8687 28.8984 18.1294 25.9583M25.7451 18.3069C28.463 16.1966 31.4458 14.4113 34.6352 13.0093C38.2741 11.4096 42.182 10.3088 46.2722 9.79346M56.9274 9.79346C60.5064 10.2444 63.9459 11.1436 67.1877 12.4331C70.8774 13.9007 74.3111 15.8739 77.4032 18.2671" stroke="var(--stroke-0, #0012FF)" stroke-width="1.2"/>
<path id="Vector_3" d="M66.7936 51.6556C66.7936 55.6852 65.1928 59.5497 62.3434 62.3991C59.494 65.2484 55.6295 66.8492 51.5999 66.8492C47.5703 66.8492 43.7057 65.2484 40.8563 62.3991C38.0071 59.5497 36.4062 55.6852 36.4062 51.6556C36.4062 47.6259 38.0071 43.7614 40.8563 40.912C43.7057 38.0627 47.5703 36.4619 51.5999 36.4619C55.6295 36.4619 59.494 38.0627 62.3434 40.912C65.1928 43.7614 66.7936 47.6259 66.7936 51.6556Z" stroke="var(--stroke-0, #0012FF)" stroke-width="1.54876"/>
<path id="Vector_4" d="M69.6705 51.6556C69.6705 56.4482 67.7666 61.0445 64.3777 64.4334C60.9888 67.8223 56.3925 69.7261 51.5999 69.7261C46.8073 69.7261 42.2109 67.8223 38.8221 64.4334C35.4332 61.0445 33.5293 56.4482 33.5293 51.6556C33.5293 46.8629 35.4332 42.2666 38.8221 38.8777C42.2109 35.4888 46.8073 33.585 51.5999 33.585C56.3925 33.585 60.9888 35.4888 64.3777 38.8777C67.7666 42.2666 69.6705 46.8629 69.6705 51.6556Z" stroke="var(--stroke-0, #0012FF)" stroke-width="1.54876"/>
<path id="Vector_5" d="M58.3442 81.8807C53.1403 83.0351 47.7263 82.8229 42.6288 81.2647C42.9806 79.4549 43.9584 76.3559 43.2393 74.6583C42.5202 72.9607 41.311 71.5162 39.7663 70.5097C38.2216 69.5033 36.4117 68.9806 34.5683 69.0086C32.7249 69.0365 29.7577 70.8393 28.2442 71.8922C26.8816 70.308 25.6834 68.5897 24.6678 66.7636C23.0966 63.9449 22.0126 60.9854 21.3926 57.983L21.5059 57.9199C22.8815 57.1537 25.2388 56.0239 26.0691 54.6861C26.8994 53.3483 27.375 51.8209 27.451 50.2482C27.5271 48.6755 27.201 47.1094 26.5037 45.6977C25.8063 44.286 23.5609 43.101 22.2657 42.2057C23.7883 37.4996 26.4191 33.228 29.9367 29.7506C31.3558 30.7033 34.2362 32.4188 35.9439 32.4893C37.6516 32.5597 39.3456 32.1564 40.8383 31.3238C42.3314 30.492 43.5653 29.2633 44.4035 27.7738C45.2417 26.2842 44.426 23.4178 44.362 21.7098C49.1696 20.5466 54.1863 20.5553 58.9898 21.7352C59.0706 23.3188 58.3824 26.0806 59.2269 27.4226C60.0713 28.7647 61.2461 29.8676 62.6388 30.6257C64.0315 31.3838 65.5955 31.7717 67.181 31.7524C68.7665 31.733 71.4946 30.0816 72.8684 29.2898C75.1492 31.4509 77.0868 33.9474 78.6144 36.6931C79.6518 38.5543 80.4764 40.4775 81.0964 42.4335C79.405 43.167 76.7712 44.4143 75.7779 45.9675C74.7847 47.5207 74.2775 49.335 74.3212 51.1781C74.3649 53.0212 74.9575 54.8094 76.0233 56.3138C77.0891 57.8182 79.7792 58.9447 81.5035 59.5972C80.1476 64.752 77.4807 69.468 73.7621 73.2865C72.328 71.9457 69.2799 69.9208 67.3312 69.6826C65.3824 69.4444 63.4084 69.831 61.6936 70.7869C59.9788 71.7428 58.6117 73.2184 57.7895 75.0012C56.9674 76.784 57.9579 79.9558 58.3442 81.8807Z" stroke="var(--stroke-0, #0012FF)" stroke-width="1.54876" stroke-linejoin="round"/>
<path id="Vector_6" d="M47.3748 49.3475L44.6043 51.656L47.3748 53.9645C47.4666 54.0398 47.5427 54.1325 47.5986 54.2373C47.6544 54.3422 47.689 54.457 47.7002 54.5753C47.7115 54.6936 47.6992 54.8129 47.6641 54.9264C47.629 55.0399 47.5718 55.1453 47.4958 55.2366C47.4198 55.3279 47.3264 55.4032 47.2211 55.4582C47.1159 55.5132 47.0007 55.5469 46.8824 55.5572C46.764 55.5675 46.6448 55.5542 46.5316 55.5183C46.4184 55.4823 46.3134 55.4242 46.2228 55.3475L42.6228 52.3475C42.5214 52.263 42.4398 52.1573 42.3838 52.0378C42.3278 51.9183 42.2988 51.7879 42.2988 51.656C42.2988 51.524 42.3278 51.3936 42.3838 51.2741C42.4398 51.1546 42.5214 51.0489 42.6228 50.9645L46.2228 47.9645C46.4064 47.8139 46.6421 47.7421 46.8785 47.7646C47.1149 47.7871 47.3328 47.9021 47.4848 48.0845C47.6367 48.267 47.7104 48.5021 47.6898 48.7387C47.6692 48.9752 47.556 49.194 47.3748 49.3475ZM60.5748 50.9645L56.9748 47.9645C56.8841 47.8877 56.7791 47.8296 56.6659 47.7937C56.5527 47.7577 56.4335 47.7444 56.3151 47.7547C56.1968 47.7651 56.0817 47.7987 55.9764 47.8537C55.8711 47.9087 55.7777 47.9841 55.7017 48.0753C55.6257 48.1666 55.5685 48.272 55.5334 48.3855C55.4983 48.499 55.486 48.6183 55.4973 48.7366C55.5085 48.8549 55.5431 48.9697 55.5989 49.0746C55.6548 49.1794 55.7309 49.2722 55.8228 49.3475L58.5933 51.656L55.8228 53.9645C55.7309 54.0398 55.6548 54.1325 55.5989 54.2373C55.5431 54.3422 55.5085 54.457 55.4973 54.5753C55.486 54.6936 55.4983 54.8129 55.5334 54.9264C55.5685 55.0399 55.6257 55.1453 55.7017 55.2366C55.7777 55.3279 55.8711 55.4032 55.9764 55.4582C56.0817 55.5132 56.1968 55.5469 56.3151 55.5572C56.4335 55.5675 56.5527 55.5542 56.6659 55.5183C56.7791 55.4823 56.8841 55.4242 56.9748 55.3475L60.5748 52.3475C60.6762 52.263 60.7577 52.1573 60.8137 52.0378C60.8697 51.9183 60.8987 51.7879 60.8987 51.656C60.8987 51.524 60.8697 51.3936 60.8137 51.2741C60.7577 51.1546 60.6762 51.0489 60.5748 50.9645ZM54.3063 44.21C54.1952 44.1696 54.0772 44.1514 53.9591 44.1566C53.841 44.1618 53.7251 44.1902 53.618 44.2403C53.5108 44.2903 53.4146 44.3609 53.3348 44.4481C53.255 44.5353 53.1931 44.6373 53.1528 44.7485L48.3528 57.9485C48.2714 58.1727 48.2824 58.4201 48.3834 58.6363C48.4844 58.8525 48.667 59.0197 48.8913 59.1012C48.9897 59.1375 49.0938 59.1561 49.1988 59.156C49.3835 59.156 49.5639 59.0991 49.7152 58.9931C49.8666 58.8871 49.9816 58.7371 50.0448 58.5635L54.8448 45.3635C54.8852 45.2524 54.9033 45.1344 54.8981 45.0163C54.8929 44.8982 54.8645 44.7823 54.8145 44.6752C54.7645 44.568 54.6938 44.4718 54.6066 44.392C54.5194 44.3122 54.4174 44.2503 54.3063 44.21Z" fill="var(--fill-0, #0012FF)"/>
<path id="Vector_7" d="M51.5995 12.4285C54.7675 12.4285 57.3357 9.86032 57.3357 6.69229C57.3357 3.52425 54.7675 0.956055 51.5995 0.956055C48.4315 0.956055 45.8633 3.52425 45.8633 6.69229C45.8633 9.86032 48.4315 12.4285 51.5995 12.4285Z" stroke="var(--stroke-0, #0012FF)" stroke-width="1.2"/>
<path id="Vector_8" d="M51.6007 9.19357C52.982 9.19357 54.1018 8.07379 54.1018 6.69249C54.1018 5.31118 52.982 4.19141 51.6007 4.19141C50.2194 4.19141 49.0996 5.31118 49.0996 6.69249C49.0996 8.07379 50.2194 9.19357 51.6007 9.19357Z" fill="var(--fill-0, #0012FF)" stroke="var(--stroke-0, #0012FF)" stroke-width="1.2"/>
<path id="Vector_9" d="M51.5995 102.356C54.7675 102.356 57.3357 99.7881 57.3357 96.62C57.3357 93.452 54.7675 90.8838 51.5995 90.8838C48.4315 90.8838 45.8633 93.452 45.8633 96.62C45.8633 99.7881 48.4315 102.356 51.5995 102.356Z" stroke="var(--stroke-0, #0012FF)" stroke-width="1.2"/>
<path id="Vector_10" d="M51.6007 99.1203C52.982 99.1203 54.1018 98.0005 54.1018 96.6192C54.1018 95.2379 52.982 94.1182 51.6007 94.1182C50.2194 94.1182 49.0996 95.2379 49.0996 96.6192C49.0996 98.0005 50.2194 99.1203 51.6007 99.1203Z" fill="var(--fill-0, #0012FF)" stroke="var(--stroke-0, #0012FF)" stroke-width="1.2"/>
<path id="Vector_11" d="M83.4081 25.8064C86.5761 25.8064 89.1443 23.2382 89.1443 20.0702C89.1443 16.9022 86.5761 14.334 83.4081 14.334C80.2401 14.334 77.6719 16.9022 77.6719 20.0702C77.6719 23.2382 80.2401 25.8064 83.4081 25.8064Z" stroke="var(--stroke-0, #0012FF)" stroke-width="1.2"/>
<path id="Vector_12" d="M83.4073 22.5705C84.7886 22.5705 85.9084 21.4507 85.9084 20.0694C85.9084 18.6881 84.7886 17.5684 83.4073 17.5684C82.026 17.5684 80.9062 18.6881 80.9062 20.0694C80.9062 21.4507 82.026 22.5705 83.4073 22.5705Z" fill="var(--fill-0, #0012FF)" stroke="var(--stroke-0, #0012FF)" stroke-width="1.2"/>
<path id="Vector_13" d="M96.08 57.3924C99.248 57.3924 101.816 54.8242 101.816 51.6562C101.816 48.4881 99.248 45.9199 96.08 45.9199C92.9119 45.9199 90.3438 48.4881 90.3438 51.6562C90.3438 54.8242 92.9119 57.3924 96.08 57.3924Z" stroke="var(--stroke-0, #0012FF)" stroke-width="1.2"/>
<path id="Vector_14" d="M96.0812 54.1574C97.4625 54.1574 98.5822 53.0377 98.5822 51.6564C98.5822 50.275 97.4625 49.1553 96.0812 49.1553C94.6998 49.1553 93.5801 50.275 93.5801 51.6564C93.5801 53.0377 94.6998 54.1574 96.0812 54.1574Z" fill="var(--fill-0, #0012FF)" stroke="var(--stroke-0, #0012FF)" stroke-width="1.2"/>
<path id="Vector_15" d="M7.11709 57.3924C10.2851 57.3924 12.8533 54.8242 12.8533 51.6562C12.8533 48.4881 10.2851 45.9199 7.11709 45.9199C3.94906 45.9199 1.38086 48.4881 1.38086 51.6562C1.38086 54.8242 3.94906 57.3924 7.11709 57.3924Z" stroke="var(--stroke-0, #0012FF)" stroke-width="1.2"/>
<path id="Vector_16" d="M7.11827 54.1574C8.49958 54.1574 9.61935 53.0377 9.61935 51.6564C9.61935 50.275 8.49958 49.1553 7.11827 49.1553C5.73696 49.1553 4.61719 50.275 4.61719 51.6564C4.61719 53.0377 5.73696 54.1574 7.11827 54.1574Z" fill="var(--fill-0, #0012FF)" stroke="var(--stroke-0, #0012FF)" stroke-width="1.2"/>
<path id="Vector_17" d="M19.7909 25.8064C22.959 25.8064 25.5271 23.2382 25.5271 20.0702C25.5271 16.9022 22.959 14.334 19.7909 14.334C16.6229 14.334 14.0547 16.9022 14.0547 20.0702C14.0547 23.2382 16.6229 25.8064 19.7909 25.8064Z" stroke="var(--stroke-0, #0012FF)" stroke-width="1.2"/>
<path id="Vector_18" d="M19.7901 22.5705C21.1715 22.5705 22.2912 21.4507 22.2912 20.0694C22.2912 18.6881 21.1715 17.5684 19.7901 17.5684C18.4088 17.5684 17.2891 18.6881 17.2891 20.0694C17.2891 21.4507 18.4088 22.5705 19.7901 22.5705Z" fill="var(--fill-0, #0012FF)" stroke="var(--stroke-0, #0012FF)" stroke-width="1.2"/>
<path id="Vector_19" d="M83.4081 88.969C86.5761 88.969 89.1443 86.4008 89.1443 83.2328C89.1443 80.0648 86.5761 77.4966 83.4081 77.4966C80.2401 77.4966 77.6719 80.0648 77.6719 83.2328C77.6719 86.4008 80.2401 88.969 83.4081 88.969Z" stroke="var(--stroke-0, #0012FF)" stroke-width="1.2"/>
<path id="Vector_20" d="M83.4073 85.7341C84.7886 85.7341 85.9084 84.6143 85.9084 83.233C85.9084 81.8517 84.7886 80.7319 83.4073 80.7319C82.026 80.7319 80.9062 81.8517 80.9062 83.233C80.9062 84.6143 82.026 85.7341 83.4073 85.7341Z" fill="var(--fill-0, #0012FF)" stroke="var(--stroke-0, #0012FF)" stroke-width="1.2"/>
<path id="Vector_21" d="M19.7909 88.969C22.959 88.969 25.5271 86.4008 25.5271 83.2328C25.5271 80.0648 22.959 77.4966 19.7909 77.4966C16.6229 77.4966 14.0547 80.0648 14.0547 83.2328C14.0547 86.4008 16.6229 88.969 19.7909 88.969Z" stroke="var(--stroke-0, #0012FF)" stroke-width="1.2"/>
<path id="Vector_22" d="M19.7901 85.7341C21.1715 85.7341 22.2912 84.6143 22.2912 83.233C22.2912 81.8517 21.1715 80.7319 19.7901 80.7319C18.4088 80.7319 17.2891 81.8517 17.2891 83.233C17.2891 84.6143 18.4088 85.7341 19.7901 85.7341Z" fill="var(--fill-0, #0012FF)" stroke="var(--stroke-0, #0012FF)" stroke-width="1.2"/>
</g>
</svg>
