<svg preserveAspectRatio="none" width="100%" height="100%" overflow="visible" style="display: block;" viewBox="0 0 1080 1080" fill="none" xmlns="http://www.w3.org/2000/svg">
<g id="Rings">
<path id="Vector" d="M540 905.352V913.183C539.87 913.183 539.74 913.183 539.61 913.183L539.618 905.352C539.745 905.352 539.873 905.352 540 905.352ZM540.381 905.352L540.385 909.267L540.39 912.854L540.389 913.183C540.259 913.183 540.13 913.183 540 913.183V905.352C540.127 905.352 540.254 905.352 540.381 905.352ZM524.419 905.023L524.255 908.939L524.092 912.847C523.834 912.839 523.577 912.831 523.32 912.815L523.664 904.991C523.916 905.007 524.168 905.015 524.419 905.023ZM556.679 912.815C556.422 912.831 556.165 912.839 555.908 912.847L555.58 905.023C555.832 905.015 556.084 905.007 556.335 904.991L556.679 912.815ZM508.501 904.012L508.167 907.913L507.835 911.813C507.577 911.789 507.32 911.774 507.063 911.75L507.746 903.95C507.998 903.973 508.249 903.989 508.501 904.012ZM572.936 911.75C572.679 911.774 572.422 911.789 572.164 911.813L571.832 907.913L571.499 904.012C571.751 903.989 572.002 903.973 572.254 903.95L572.936 911.75ZM492.648 902.313L491.643 910.074C491.387 910.043 491.13 910.012 490.874 909.98L491.896 902.211C492.146 902.25 492.398 902.282 492.648 902.313ZM589.125 909.98C588.868 910.012 588.612 910.043 588.356 910.074L587.352 902.313C587.603 902.282 587.854 902.25 588.104 902.211L589.125 909.98ZM476.889 899.924L475.546 907.639C475.291 907.592 475.036 907.544 474.782 907.505L476.141 899.791C476.39 899.838 476.64 899.877 476.889 899.924ZM605.217 907.505C604.963 907.544 604.708 907.592 604.454 907.639L603.782 903.777L603.111 899.924C603.36 899.877 603.609 899.838 603.859 899.791L605.217 907.505ZM461.252 896.846L459.573 904.49C459.32 904.435 459.067 904.38 458.814 904.326L460.511 896.682C460.758 896.737 461.005 896.791 461.252 896.846ZM621.185 904.326C620.933 904.38 620.68 904.435 620.427 904.49L619.587 900.668L618.747 896.846C618.995 896.791 619.242 896.737 619.489 896.682L621.185 904.326ZM445.768 893.087L443.753 900.653C443.503 900.582 443.253 900.519 443.003 900.449L445.033 892.891C445.278 892.954 445.523 893.024 445.768 893.087ZM636.997 900.449C636.746 900.519 636.496 900.582 636.246 900.653L634.232 893.087C634.477 893.017 634.722 892.954 634.967 892.891L636.997 900.449ZM430.463 888.646L428.118 896.118C427.871 896.04 427.624 895.961 427.377 895.891L429.738 888.419C429.979 888.498 430.221 888.576 430.463 888.646ZM652.622 895.891C652.375 895.961 652.128 896.04 651.881 896.118L649.536 888.646C649.778 888.576 650.02 888.498 650.262 888.419L652.622 895.891ZM415.364 883.54L412.692 890.902C412.45 890.816 412.207 890.73 411.965 890.636L414.652 883.282C414.889 883.368 415.126 883.454 415.364 883.54ZM668.034 890.636C667.792 890.73 667.55 890.816 667.308 890.902L665.972 887.221L664.637 883.54C664.873 883.454 665.111 883.368 665.348 883.282L668.034 890.636ZM400.501 877.776L397.508 885.013C397.269 884.911 397.03 884.817 396.792 884.715L399.8 877.486C400.033 877.58 400.267 877.682 400.501 877.776ZM680.2 877.486L683.207 884.715C682.969 884.817 682.73 884.911 682.491 885.013L679.5 877.776C679.733 877.682 679.967 877.58 680.2 877.486ZM385.905 871.362L382.598 878.465C382.364 878.356 382.13 878.246 381.896 878.136L385.218 871.041C385.447 871.15 385.677 871.26 385.905 871.362ZM698.103 878.136C697.869 878.246 697.635 878.356 697.401 878.465L694.094 871.362C694.323 871.26 694.553 871.15 694.782 871.041L698.103 878.136ZM371.606 864.321L367.992 871.268C367.762 871.142 367.534 871.025 367.305 870.908L370.933 863.969C371.157 864.086 371.382 864.204 371.606 864.321ZM709.066 863.969L712.694 870.908C712.465 871.025 712.237 871.142 712.008 871.26L710.201 867.791L708.394 864.321C708.618 864.204 708.842 864.086 709.066 863.969ZM357.629 856.654L353.714 863.436C353.49 863.303 353.267 863.178 353.043 863.044L356.972 856.27C357.191 856.395 357.41 856.528 357.629 856.654ZM726.957 863.044C726.733 863.178 726.509 863.303 726.285 863.436L724.327 860.045L722.37 856.654C722.59 856.528 722.809 856.395 723.027 856.27L726.957 863.044ZM344 848.383L339.793 854.985C339.576 854.845 339.357 854.711 339.139 854.57L343.36 847.976C343.573 848.109 343.787 848.25 344 848.383ZM740.86 854.57C740.643 854.711 740.423 854.845 740.206 854.985L736 848.383C736.213 848.25 736.427 848.109 736.64 847.976L740.86 854.57ZM330.745 839.526L326.254 845.94C326.042 845.799 325.83 845.65 325.619 845.501L330.123 839.095C330.33 839.236 330.537 839.385 330.745 839.526ZM754.381 845.501C754.17 845.65 753.957 845.791 753.745 845.94L749.255 839.526C749.463 839.385 749.67 839.236 749.877 839.095L754.381 845.501ZM317.886 830.104L313.12 836.322C312.915 836.166 312.71 836.001 312.504 835.845L317.283 829.642C317.483 829.799 317.684 829.947 317.886 830.104ZM762.717 829.642L767.495 835.845C767.289 836.001 767.085 836.166 766.88 836.322L762.114 830.104C762.315 829.947 762.517 829.799 762.717 829.642ZM305.447 820.134L300.417 826.133C300.219 825.969 300.021 825.797 299.823 825.632L304.866 819.641C305.06 819.805 305.253 819.97 305.447 820.134ZM780.176 825.632C779.978 825.797 779.78 825.969 779.582 826.133L774.553 820.134C774.747 819.97 774.94 819.805 775.134 819.641L780.176 825.632ZM293.453 809.624L288.167 815.404C287.977 815.232 287.786 815.051 287.596 814.879L292.893 809.115C293.079 809.287 293.266 809.452 293.453 809.624ZM792.402 814.879C792.214 815.051 792.026 815.232 791.83 815.404L789.191 812.514L786.544 809.624C786.732 809.452 786.92 809.287 787.108 809.115L792.402 814.879ZM281.926 798.613L276.394 804.157C276.21 803.969 276.028 803.789 275.845 803.601L281.389 798.072C281.567 798.252 281.747 798.432 281.926 798.613ZM804.157 803.601C803.969 803.789 803.789 803.969 803.601 804.157L798.072 798.613C798.252 798.432 798.432 798.252 798.613 798.072L804.157 803.601ZM270.887 787.108L265.12 792.402C264.944 792.214 264.771 792.026 264.597 791.83L270.374 786.544C270.545 786.732 270.716 786.92 270.887 787.108ZM815.404 791.83C815.232 792.026 815.051 792.214 814.879 792.402L809.115 787.108C809.287 786.92 809.452 786.732 809.624 786.544L815.404 791.83ZM260.357 775.134L254.366 780.176C254.2 779.978 254.033 779.78 253.867 779.582L259.869 774.553C260.032 774.747 260.194 774.94 260.357 775.134ZM826.133 779.582C825.969 779.78 825.797 779.978 825.632 780.176L819.641 775.134C819.805 774.94 819.97 774.747 820.134 774.553L826.133 779.582ZM250.358 762.717L244.153 767.495C243.996 767.289 243.837 767.085 243.68 766.88L249.895 762.114C250.049 762.315 250.204 762.517 250.358 762.717ZM836.322 766.88C836.166 767.085 836.001 767.289 835.845 767.495L829.642 762.717C829.799 762.517 829.947 762.315 830.104 762.114L836.322 766.88ZM240.908 749.877L234.501 754.381C234.352 754.17 234.204 753.957 234.055 753.745L240.472 749.255C240.617 749.463 240.762 749.67 240.908 749.877ZM845.94 753.745C845.799 753.957 845.65 754.169 845.501 754.38L842.298 752.129L839.095 749.877C839.236 749.67 839.385 749.463 839.526 749.255L845.94 753.745ZM232.025 736.64L225.429 740.86C225.289 740.643 225.151 740.423 225.012 740.206L231.616 736C231.753 736.213 231.889 736.427 232.025 736.64ZM854.985 740.206C854.845 740.423 854.711 740.643 854.57 740.86L847.976 736.64C848.109 736.427 848.25 736.213 848.383 736L854.985 740.206ZM223.728 723.027L216.955 726.957C216.825 726.733 216.695 726.509 216.565 726.285L223.348 722.37C223.475 722.59 223.601 722.809 223.728 723.027ZM863.436 726.285C863.303 726.509 863.178 726.732 863.044 726.956L859.661 724.992L856.27 723.027C856.395 722.809 856.528 722.59 856.654 722.37L863.436 726.285ZM216.034 709.066L212.563 710.88L212.563 710.881L209.095 712.694C208.976 712.465 208.855 712.237 208.735 712.008L215.683 708.394C215.799 708.618 215.916 708.842 216.034 709.066ZM871.268 712.007C871.142 712.237 871.025 712.465 870.908 712.694L863.969 709.066C864.086 708.842 864.204 708.618 864.321 708.394L871.268 712.007ZM208.958 694.782L201.866 698.103C201.756 697.869 201.646 697.635 201.537 697.401L208.636 694.094C208.743 694.323 208.85 694.553 208.958 694.782ZM878.465 697.401C878.356 697.635 878.246 697.869 878.136 698.103L871.041 694.782C871.15 694.553 871.26 694.323 871.362 694.094L878.465 697.401ZM202.514 680.2L195.282 683.207C195.182 682.969 195.085 682.73 194.986 682.491L202.223 679.5C202.319 679.733 202.416 679.967 202.514 680.2ZM885.013 682.491C884.911 682.73 884.817 682.969 884.715 683.207L877.486 680.2C877.58 679.967 877.682 679.733 877.776 679.499L885.013 682.491ZM196.716 665.348L193.036 666.691L193.037 666.692L189.359 668.034C189.271 667.792 189.184 667.55 189.096 667.308L196.457 664.637C196.543 664.873 196.629 665.111 196.716 665.348ZM890.902 667.307C890.816 667.549 890.73 667.792 890.636 668.034L883.282 665.348C883.368 665.111 883.454 664.873 883.54 664.636L890.902 667.307ZM191.579 650.262L184.112 652.622C184.034 652.375 183.957 652.128 183.879 651.881L191.35 649.536C191.426 649.778 191.503 650.02 191.579 650.262ZM896.118 651.881C896.04 652.128 895.961 652.375 895.891 652.622L892.155 651.443L888.419 650.262C888.498 650.021 888.576 649.778 888.646 649.536L896.118 651.881ZM187.11 634.967L179.549 636.997H179.548C179.48 636.746 179.413 636.496 179.346 636.246L186.914 634.232C186.979 634.477 187.044 634.722 187.11 634.967ZM900.653 636.246C900.582 636.496 900.519 636.746 900.449 636.996L892.891 634.967C892.954 634.722 893.024 634.477 893.087 634.232L900.653 636.246ZM183.318 619.489L179.494 620.337L179.495 620.337L175.674 621.185C175.618 620.933 175.562 620.68 175.507 620.427L183.154 618.747C183.209 618.995 183.263 619.242 183.318 619.489ZM904.49 620.426C904.435 620.679 904.38 620.932 904.326 621.185L900.504 620.337L896.682 619.489C896.737 619.242 896.791 618.995 896.846 618.747L904.49 620.426ZM180.209 603.859L172.498 605.217C172.453 604.963 172.408 604.708 172.364 604.454L180.078 603.111C180.121 603.36 180.165 603.609 180.209 603.859ZM907.639 604.453C907.592 604.708 907.544 604.963 907.505 605.217L899.791 603.859C899.838 603.609 899.877 603.36 899.924 603.111L907.639 604.453ZM177.786 588.104L173.903 588.614L173.903 588.615L170.023 589.125C169.989 588.868 169.955 588.612 169.922 588.356L177.688 587.352C177.72 587.603 177.753 587.854 177.786 588.104ZM910.074 588.356C910.043 588.612 910.012 588.868 909.98 589.125L906.096 588.615L902.211 588.104C902.25 587.854 902.282 587.602 902.313 587.352L910.074 588.356ZM176.052 572.254L172.151 572.594L172.151 572.595L168.251 572.936C168.228 572.679 168.207 572.422 168.185 572.164L175.987 571.499C176.008 571.751 176.03 572.002 176.052 572.254ZM907.913 571.832L911.813 572.164C911.789 572.422 911.774 572.679 911.75 572.936L907.85 572.595L903.95 572.254C903.973 572.002 903.989 571.751 904.012 571.499L907.913 571.832ZM175.007 556.335L167.183 556.679C167.171 556.422 167.162 556.165 167.151 555.908L174.974 555.58C174.985 555.832 174.996 556.084 175.007 556.335ZM908.939 555.744L912.847 555.908C912.839 556.165 912.831 556.422 912.815 556.679L904.991 556.335C905.007 556.084 905.015 555.832 905.023 555.58L908.939 555.744ZM166.816 540C166.816 539.87 166.817 539.74 166.817 539.61L174.648 539.618V540.381L166.817 540.389C166.817 540.259 166.816 540.13 166.816 540ZM913.183 540.389L905.352 540.381V539.618L913.183 539.61C913.183 539.74 913.183 539.87 913.183 540C913.183 540.13 913.183 540.259 913.183 540.389ZM175.007 523.664C174.996 523.916 174.985 524.168 174.974 524.419L171.062 524.255L167.151 524.092C167.162 523.834 167.171 523.577 167.183 523.32L175.007 523.664ZM912.847 524.092L905.023 524.419C905.015 524.168 905.007 523.916 904.991 523.664L912.815 523.32C912.831 523.577 912.839 523.834 912.847 524.092ZM176.052 507.746C176.03 507.998 176.008 508.249 175.987 508.501L172.086 508.167L168.185 507.835C168.207 507.577 168.228 507.32 168.251 507.063L176.052 507.746ZM911.813 507.835L907.913 508.168L904.012 508.501C903.989 508.249 903.973 507.998 903.95 507.746L911.75 507.063C911.774 507.32 911.789 507.577 911.813 507.835ZM173.903 491.385L177.786 491.896C177.753 492.146 177.72 492.398 177.688 492.648L169.922 491.643C169.955 491.387 169.989 491.13 170.023 490.874L173.903 491.385ZM910.074 491.643L902.313 492.648C902.282 492.397 902.25 492.146 902.211 491.896L909.98 490.874C910.012 491.13 910.043 491.387 910.074 491.643ZM180.209 476.141C180.165 476.39 180.121 476.64 180.078 476.889L172.363 475.546C172.408 475.291 172.453 475.036 172.498 474.782L180.209 476.141ZM907.639 475.545L903.777 476.218L899.924 476.889C899.877 476.64 899.838 476.39 899.791 476.141L907.505 474.782C907.544 475.036 907.592 475.291 907.639 475.545ZM183.318 460.511C183.263 460.758 183.209 461.005 183.154 461.252L175.507 459.573C175.562 459.32 175.618 459.067 175.674 458.814L183.318 460.511ZM904.49 459.572L900.668 460.413V460.412L896.846 461.252C896.791 461.005 896.737 460.758 896.682 460.511L904.326 458.814C904.38 459.066 904.435 459.319 904.49 459.572ZM187.11 445.033C187.044 445.278 186.978 445.523 186.913 445.768L179.346 443.753C179.413 443.503 179.48 443.253 179.548 443.003L187.11 445.033ZM900.653 443.753L893.087 445.768C893.017 445.523 892.954 445.278 892.891 445.033L900.449 443.002C900.519 443.253 900.582 443.503 900.653 443.753ZM187.845 428.557L191.579 429.738C191.503 429.979 191.426 430.221 191.35 430.463L183.879 428.118C183.957 427.871 184.034 427.624 184.112 427.377L187.845 428.557ZM896.118 428.118L888.646 430.463C888.576 430.221 888.498 429.979 888.419 429.737L895.891 427.377C895.961 427.624 896.04 427.871 896.118 428.118ZM196.716 414.652C196.629 414.889 196.543 415.126 196.457 415.364L189.095 412.692C189.184 412.45 189.271 412.207 189.359 411.965L196.716 414.652ZM890.902 412.691L887.221 414.028L883.54 415.363C883.454 415.126 883.368 414.889 883.282 414.652L890.636 411.965C890.73 412.207 890.816 412.449 890.902 412.691ZM195.283 396.793L202.514 399.8C202.416 400.033 202.319 400.267 202.223 400.501L194.986 397.508C195.085 397.269 195.182 397.03 195.282 396.792L195.283 396.793ZM884.715 396.792C884.817 397.03 884.911 397.269 885.013 397.508L877.776 400.5C877.682 400.266 877.58 400.033 877.486 399.8L884.715 396.792ZM208.958 385.218C208.85 385.447 208.743 385.677 208.636 385.905L201.537 382.598C201.646 382.364 201.756 382.13 201.866 381.896L208.958 385.218ZM878.136 381.896C878.246 382.13 878.356 382.364 878.465 382.598L871.362 385.905C871.26 385.677 871.15 385.447 871.041 385.218L878.136 381.896ZM216.034 370.933C215.916 371.157 215.799 371.382 215.683 371.606L208.734 367.992C208.854 367.762 208.975 367.534 209.095 367.305L216.034 370.933ZM871.26 367.991L867.791 369.799L864.321 371.606C864.204 371.382 864.086 371.157 863.969 370.933L870.908 367.305C871.025 367.534 871.142 367.762 871.26 367.991ZM220.341 355.007L223.728 356.972C223.601 357.191 223.475 357.41 223.348 357.629L216.565 353.714C216.695 353.49 216.825 353.267 216.955 353.043L220.341 355.007ZM863.436 353.714L860.045 355.672L856.654 357.629C856.528 357.41 856.395 357.191 856.27 356.972L863.044 353.042C863.178 353.266 863.303 353.49 863.436 353.714ZM232.025 343.36C231.889 343.573 231.753 343.787 231.616 344L225.012 339.793C225.151 339.576 225.289 339.357 225.429 339.139L232.025 343.36ZM854.985 339.793L848.383 344C848.25 343.787 848.109 343.573 847.976 343.36L854.57 339.139C854.711 339.357 854.845 339.576 854.985 339.793ZM240.908 330.123C240.762 330.33 240.616 330.537 240.471 330.745L234.055 326.254C234.204 326.042 234.352 325.83 234.501 325.619L240.908 330.123ZM845.501 325.618C845.65 325.829 845.791 326.042 845.94 326.254L839.526 330.745C839.385 330.537 839.236 330.33 839.095 330.123L845.501 325.618ZM250.358 317.283C250.204 317.483 250.049 317.684 249.895 317.886L243.68 313.12L243.68 313.119C243.837 312.914 243.996 312.71 244.153 312.504L250.358 317.283ZM836.322 313.119L830.104 317.886C829.947 317.684 829.799 317.483 829.642 317.283L835.845 312.504C836.001 312.71 836.166 312.914 836.322 313.119ZM260.357 304.866C260.194 305.06 260.032 305.253 259.869 305.447L253.867 300.417C254.033 300.219 254.2 300.021 254.366 299.823L260.357 304.866ZM826.133 300.417L820.134 305.447C819.97 305.253 819.805 305.06 819.641 304.866L825.632 299.823C825.797 300.021 825.969 300.219 826.133 300.417ZM270.887 292.893C270.716 293.079 270.545 293.266 270.374 293.453L264.597 288.167C264.771 287.977 264.944 287.786 265.12 287.596L270.887 292.893ZM815.404 288.167L809.624 293.453C809.452 293.266 809.287 293.079 809.115 292.893L814.879 287.596C815.051 287.786 815.232 287.977 815.404 288.167ZM281.926 281.389C281.747 281.567 281.567 281.747 281.389 281.926L275.845 276.394C276.028 276.21 276.21 276.028 276.394 275.845L281.926 281.389ZM803.601 275.845C803.789 276.028 803.969 276.21 804.157 276.394L798.613 281.926C798.432 281.747 798.252 281.567 798.072 281.389L803.601 275.845ZM293.453 270.374C293.266 270.545 293.079 270.716 292.893 270.887L287.596 265.12C287.786 264.944 287.977 264.771 288.167 264.597L293.453 270.374ZM792.402 265.12L787.108 270.887C786.92 270.716 786.732 270.545 786.544 270.374L791.83 264.597C792.026 264.771 792.214 264.944 792.402 265.12ZM305.447 259.869C305.253 260.032 305.06 260.194 304.866 260.357L299.823 254.366C300.021 254.2 300.219 254.033 300.417 253.867L305.447 259.869ZM780.176 254.366L775.134 260.357C774.94 260.194 774.747 260.032 774.553 259.869L779.582 253.867C779.78 254.033 779.978 254.2 780.176 254.366ZM313.12 243.68L317.886 249.895C317.684 250.049 317.483 250.204 317.283 250.358L312.504 244.153C312.71 243.996 312.914 243.837 313.119 243.68L313.12 243.68ZM767.495 244.153L762.717 250.358C762.517 250.204 762.315 250.049 762.114 249.895L766.88 243.68C767.085 243.838 767.289 243.996 767.495 244.153ZM330.745 240.472C330.537 240.617 330.33 240.762 330.123 240.908L325.618 234.501C325.829 234.352 326.042 234.204 326.254 234.055L330.745 240.472ZM753.745 234.055C753.957 234.204 754.169 234.352 754.38 234.501L749.877 240.908C749.67 240.762 749.463 240.616 749.255 240.471L753.745 234.055ZM344 231.616C343.787 231.753 343.573 231.889 343.36 232.025L339.139 225.429C339.357 225.289 339.576 225.151 339.793 225.012L344 231.616ZM740.86 225.429L736.64 232.025C736.427 231.889 736.213 231.753 736 231.616L740.206 225.012C740.423 225.151 740.643 225.289 740.86 225.429ZM355.672 219.956L357.629 223.348C357.41 223.475 357.191 223.601 356.972 223.728L353.042 216.955C353.266 216.825 353.49 216.695 353.714 216.565L355.672 219.956ZM726.956 216.955L724.992 220.341L724.992 220.34L723.027 223.728C722.809 223.601 722.59 223.475 722.37 223.348L726.285 216.565C726.509 216.695 726.732 216.825 726.956 216.955ZM369.799 212.209L371.606 215.683C371.382 215.799 371.157 215.916 370.933 216.034L369.119 212.563L367.305 209.095C367.534 208.976 367.762 208.855 367.991 208.735L369.799 212.209ZM712.694 209.095L709.066 216.034C708.842 215.916 708.618 215.799 708.394 215.683L712.007 208.734C712.237 208.854 712.465 208.975 712.694 209.095ZM385.905 208.636C385.677 208.743 385.447 208.85 385.218 208.958L381.896 201.866C382.13 201.756 382.364 201.646 382.598 201.537L385.905 208.636ZM697.401 201.537C697.635 201.646 697.869 201.756 698.103 201.866L694.782 208.958C694.553 208.85 694.323 208.743 694.094 208.636L697.401 201.537ZM400.5 202.223C400.266 202.319 400.033 202.416 399.8 202.514L396.793 195.283L396.792 195.282C397.03 195.182 397.269 195.085 397.508 194.986L400.5 202.223ZM682.491 194.986C682.73 195.085 682.969 195.182 683.207 195.282L680.2 202.514C679.967 202.416 679.733 202.319 679.499 202.223L682.491 194.986ZM415.363 196.457C415.126 196.543 414.889 196.629 414.652 196.716L413.308 193.036L411.965 189.359C412.207 189.271 412.449 189.184 412.691 189.096L415.363 196.457ZM668.034 189.359L665.348 196.716C665.111 196.629 664.873 196.543 664.636 196.457L667.307 189.095C667.549 189.184 667.792 189.271 668.034 189.359ZM430.463 191.35C430.221 191.426 429.979 191.503 429.737 191.579L427.377 184.112C427.624 184.034 427.871 183.957 428.118 183.879L430.463 191.35ZM652.622 184.112L650.262 191.579C650.021 191.503 649.778 191.426 649.536 191.35L651.881 183.879C652.128 183.957 652.375 184.034 652.622 184.112ZM445.768 186.914C445.523 186.979 445.278 187.044 445.033 187.11L443.002 179.548C443.253 179.48 443.503 179.413 443.753 179.346L445.768 186.914ZM636.996 179.548L634.967 187.11C634.722 187.044 634.477 186.978 634.232 186.913L636.246 179.346C636.496 179.413 636.746 179.48 636.996 179.548ZM461.252 183.154C461.005 183.209 460.758 183.263 460.511 183.318L458.814 175.674C459.066 175.618 459.319 175.562 459.572 175.507L461.252 183.154ZM621.185 175.674L619.489 183.318C619.242 183.263 618.995 183.209 618.747 183.154L620.426 175.507C620.679 175.562 620.932 175.618 621.185 175.674ZM476.889 180.078C476.64 180.121 476.39 180.165 476.141 180.209L474.782 172.498C475.036 172.453 475.291 172.408 475.545 172.364L476.889 180.078ZM605.217 172.498L603.859 180.209C603.609 180.165 603.36 180.121 603.111 180.078L604.453 172.363C604.708 172.408 604.963 172.453 605.217 172.498ZM492.648 177.688C492.397 177.72 492.146 177.753 491.896 177.786L490.874 170.023C491.13 169.989 491.387 169.955 491.643 169.922L492.648 177.688ZM589.125 170.023L588.984 171.095L588.104 177.786C587.854 177.753 587.602 177.72 587.352 177.688L588.356 169.922C588.612 169.955 588.868 169.989 589.125 170.023ZM508.501 175.987C508.249 176.008 507.998 176.03 507.746 176.052L507.063 168.251C507.32 168.228 507.577 168.207 507.835 168.185L508.501 175.987ZM572.936 168.251L572.254 176.052C572.002 176.03 571.751 176.008 571.499 175.987L572.164 168.185C572.422 168.207 572.679 168.228 572.936 168.251ZM524.419 174.974C524.168 174.985 523.916 174.996 523.664 175.007L523.32 167.183C523.577 167.171 523.834 167.162 524.092 167.151L524.419 174.974ZM556.679 167.183L556.335 175.007C556.084 174.996 555.832 174.985 555.58 174.974L555.908 167.151C556.165 167.162 556.422 167.171 556.679 167.183ZM540.389 166.817L540.381 174.648H539.618L539.61 166.817C539.74 166.817 539.87 166.816 540 166.816C540.13 166.816 540.259 166.817 540.389 166.817Z" fill="var(--fill-0, #F16B0D)"/>
<path id="Vector_2" d="M540 1072.17V1080C539.87 1080 539.739 1080 539.609 1080L539.615 1072.17C539.743 1072.17 539.872 1072.17 540 1072.17ZM540.385 1072.17L540.39 1080C540.26 1080 540.13 1080 540 1080V1072.17C540.128 1072.17 540.257 1072.17 540.385 1072.17ZM524.265 1071.94L524.038 1079.77C523.78 1079.76 523.52 1079.75 523.262 1079.74L523.501 1071.92C523.755 1071.93 524.011 1071.93 524.265 1071.94ZM556.499 1071.92L556.736 1079.74C556.478 1079.75 556.22 1079.76 555.961 1079.77L555.735 1071.94C555.989 1071.93 556.245 1071.93 556.499 1071.92ZM508.22 1071.24L507.759 1079.05C507.5 1079.04 507.241 1079.02 506.981 1079.01L507.452 1071.19C507.708 1071.2 507.963 1071.22 508.22 1071.24ZM573.018 1079.01C572.759 1079.02 572.499 1079.04 572.24 1079.05L571.781 1071.24C572.037 1071.22 572.292 1071.2 572.548 1071.19L573.018 1079.01ZM492.177 1070.05L491.483 1077.85C491.225 1077.82 490.968 1077.8 490.711 1077.78L491.417 1069.98C491.67 1070.01 491.924 1070.03 492.177 1070.05ZM589.288 1077.78C589.031 1077.8 588.774 1077.82 588.516 1077.85L587.822 1070.05C588.075 1070.03 588.33 1070.01 588.583 1069.98L589.288 1077.78ZM476.184 1068.39L475.718 1072.27L475.254 1076.15C474.997 1076.12 474.74 1076.1 474.483 1076.07L475.422 1068.29C475.676 1068.32 475.93 1068.35 476.184 1068.39ZM605.517 1076.07C605.26 1076.1 605.002 1076.12 604.744 1076.15L603.816 1068.39C604.07 1068.35 604.324 1068.32 604.578 1068.29L605.517 1076.07ZM460.272 1066.24L459.69 1070.11L459.109 1073.98C458.854 1073.94 458.599 1073.91 458.344 1073.87L459.518 1066.12C459.77 1066.16 460.02 1066.2 460.272 1066.24ZM621.656 1073.87C621.4 1073.91 621.146 1073.94 620.89 1073.98L620.309 1070.11L619.728 1066.24C619.98 1066.2 620.23 1066.16 620.482 1066.12L621.656 1073.87ZM444.392 1063.61L442.994 1071.31C442.74 1071.26 442.485 1071.21 442.231 1071.17L443.64 1063.47C443.89 1063.51 444.141 1063.56 444.392 1063.61ZM637.769 1071.17C637.514 1071.21 637.26 1071.26 637.005 1071.31L635.608 1063.61C635.859 1063.56 636.11 1063.51 636.36 1063.47L637.769 1071.17ZM428.633 1060.5L427.002 1068.16C426.748 1068.1 426.494 1068.05 426.241 1067.99L427.883 1060.33C428.133 1060.39 428.383 1060.44 428.633 1060.5ZM653.759 1067.99C653.505 1068.05 653.251 1068.1 652.997 1068.16L652.182 1064.33L651.367 1060.5C651.617 1060.44 651.867 1060.39 652.117 1060.33L653.759 1067.99ZM412.959 1056.91L411.095 1064.52C410.844 1064.45 410.593 1064.39 410.342 1064.33L412.216 1056.73C412.464 1056.79 412.711 1056.85 412.959 1056.91ZM668.72 1060.53L669.657 1064.33C669.406 1064.39 669.155 1064.45 668.904 1064.52L667.041 1056.91C667.289 1056.85 667.536 1056.79 667.783 1056.73L668.72 1060.53ZM397.402 1052.85L395.308 1060.4C395.058 1060.33 394.809 1060.26 394.559 1060.19L396.664 1052.64C396.91 1052.71 397.157 1052.78 397.402 1052.85ZM685.44 1060.19C685.191 1060.26 684.942 1060.33 684.692 1060.4L682.598 1052.85C682.844 1052.78 683.09 1052.71 683.336 1052.64L685.44 1060.19ZM381.997 1048.32L379.674 1055.8C379.426 1055.72 379.179 1055.64 378.932 1055.56L381.264 1048.09C381.509 1048.17 381.753 1048.25 381.997 1048.32ZM701.067 1055.56C700.82 1055.64 700.573 1055.72 700.326 1055.8L699.164 1052.06L698.003 1048.32C698.247 1048.25 698.491 1048.17 698.736 1048.09L701.067 1055.56ZM366.704 1043.32L364.155 1050.72C363.91 1050.64 363.665 1050.55 363.42 1050.47L365.981 1043.07C366.221 1043.15 366.463 1043.24 366.704 1043.32ZM716.579 1050.47C716.335 1050.55 716.089 1050.64 715.844 1050.72L713.296 1043.32C713.537 1043.24 713.779 1043.15 714.019 1043.07L716.579 1050.47ZM351.591 1037.86L348.921 1044.91L348.817 1045.18C348.575 1045.09 348.332 1045 348.09 1044.91L350.875 1037.58C351.113 1037.68 351.352 1037.76 351.591 1037.86ZM731.91 1044.91C731.668 1045 731.424 1045.09 731.181 1045.18L728.409 1037.86C728.648 1037.76 728.887 1037.68 729.125 1037.58L731.91 1044.91ZM336.648 1031.94L333.653 1039.17C333.415 1039.07 333.175 1038.98 332.936 1038.88L335.941 1031.65C336.177 1031.74 336.412 1031.84 336.648 1031.94ZM747.063 1038.88C746.824 1038.98 746.585 1039.07 746.346 1039.17L743.352 1031.94C743.587 1031.84 743.823 1031.74 744.059 1031.65L747.063 1038.88ZM321.885 1025.56L318.671 1032.7C318.436 1032.59 318.198 1032.49 317.963 1032.38L321.186 1025.25C321.419 1025.35 321.652 1025.46 321.885 1025.56ZM762.037 1032.38C761.801 1032.49 761.564 1032.59 761.328 1032.7L758.115 1025.56C758.348 1025.46 758.581 1025.35 758.814 1025.25L762.037 1032.38ZM307.334 1018.75L303.906 1025.79C303.673 1025.67 303.439 1025.56 303.206 1025.45L306.645 1018.41C306.874 1018.52 307.105 1018.64 307.334 1018.75ZM776.793 1025.45C776.56 1025.56 776.327 1025.67 776.093 1025.79L774.38 1022.27L772.666 1018.75C772.896 1018.64 773.126 1018.53 773.355 1018.41L776.793 1025.45ZM292.984 1011.49L289.344 1018.42C289.115 1018.3 288.886 1018.18 288.656 1018.06L292.306 1011.14C292.532 1011.25 292.758 1011.37 292.984 1011.49ZM791.345 1018.06C791.118 1018.18 790.883 1018.3 790.656 1018.42L787.014 1011.49C787.241 1011.37 787.468 1011.25 787.695 1011.14L791.345 1018.06ZM278.865 1003.8L275.017 1010.62C274.791 1010.49 274.565 1010.37 274.34 1010.24L278.198 1003.43C278.42 1003.55 278.643 1003.68 278.865 1003.8ZM805.661 1010.24C805.434 1010.37 805.207 1010.49 804.98 1010.62L801.134 1003.8C801.354 1003.68 801.581 1003.55 801.8 1003.43L805.661 1010.24ZM264.99 995.691L260.938 1002.4C260.716 1002.26 260.494 1002.13 260.273 1002L264.336 995.3C264.554 995.433 264.772 995.566 264.99 995.691ZM819.727 1002C819.508 1002.13 819.281 1002.26 819.061 1002.4L815.012 995.691C815.232 995.566 815.443 995.433 815.662 995.3L819.727 1002ZM251.356 987.162L247.103 993.741C246.885 993.6 246.668 993.459 246.451 993.318L250.714 986.747C250.927 986.888 251.142 987.029 251.356 987.162ZM833.55 993.318C833.331 993.459 833.112 993.6 832.9 993.741L828.648 987.162C828.859 987.029 829.07 986.888 829.29 986.747L833.55 993.318ZM237.992 978.234L233.936 984.108L233.542 984.672C233.329 984.531 233.116 984.382 232.903 984.233L237.362 977.796C237.572 977.944 237.782 978.085 237.992 978.234ZM847.099 984.233C846.88 984.382 846.668 984.531 846.457 984.672L844.233 981.453L842.008 978.234C842.22 978.085 842.431 977.944 842.635 977.796L847.099 984.233ZM224.902 968.899L220.26 975.203C220.051 975.054 219.841 974.898 219.633 974.749L224.285 968.444C224.49 968.593 224.696 968.75 224.902 968.899ZM860.366 974.749C860.155 974.898 859.951 975.054 859.74 975.203L855.095 968.899C855.307 968.75 855.51 968.593 855.714 968.444L860.366 974.749ZM212.096 959.172L207.267 965.335C207.063 965.179 206.858 965.022 206.654 964.857L211.494 958.702C211.694 958.858 211.895 959.015 212.096 959.172ZM873.343 964.857C873.14 965.022 872.936 965.179 872.732 965.335L870.32 962.257L867.9 959.172C868.104 959.015 868.307 958.858 868.503 958.702L873.343 964.857ZM199.592 949.069L194.579 955.083C194.38 954.919 194.181 954.754 193.983 954.59L199.004 948.583C199.2 948.747 199.396 948.912 199.592 949.069ZM880.995 948.583L886.015 954.59C885.819 954.754 885.616 954.919 885.42 955.083L880.408 949.069C880.603 948.912 880.799 948.747 880.995 948.583ZM187.394 938.598L182.203 944.456C182.009 944.283 181.814 944.119 181.621 943.947L186.821 938.089C187.012 938.261 187.203 938.425 187.394 938.598ZM898.381 943.947C898.186 944.119 897.99 944.283 897.794 944.456L892.609 938.598C892.797 938.425 892.985 938.261 893.181 938.089L898.381 943.947ZM175.517 927.758L172.834 930.609L170.479 933.115L170.153 933.46C169.964 933.288 169.775 933.107 169.587 932.927L174.959 927.234C175.145 927.406 175.331 927.586 175.517 927.758ZM910.411 932.927C910.223 933.107 910.035 933.288 909.847 933.46L907.169 930.609L904.482 927.758C904.67 927.586 904.858 927.406 905.038 927.234L910.411 932.927ZM163.971 916.567L158.438 922.112C158.255 921.924 158.072 921.744 157.889 921.563L163.43 916.026C163.61 916.207 163.791 916.387 163.971 916.567ZM922.112 921.563C921.924 921.744 921.744 921.924 921.563 922.112L918.799 919.339L916.026 916.567C916.207 916.387 916.387 916.207 916.567 916.026L922.112 921.563ZM152.766 905.038L149.916 907.725L147.068 910.411C146.89 910.223 146.714 910.035 146.536 909.847L152.242 904.482C152.416 904.67 152.591 904.858 152.766 905.038ZM930.609 907.169L933.46 909.847C933.288 910.035 933.107 910.223 932.927 910.411L927.234 905.038C927.406 904.858 927.586 904.67 927.758 904.482L930.609 907.169ZM141.912 893.181L136.056 898.381C135.883 898.186 135.713 897.99 135.541 897.794L141.405 892.609C141.574 892.797 141.743 892.985 141.912 893.181ZM944.456 897.794C944.283 897.99 944.119 898.186 943.947 898.381L941.018 895.781L938.089 893.181C938.261 892.985 938.425 892.797 938.598 892.609L944.456 897.794ZM131.419 880.995L125.408 886.015C125.242 885.819 125.078 885.616 124.912 885.42L130.928 880.408C131.091 880.603 131.255 880.799 131.419 880.995ZM955.083 885.42C954.919 885.616 954.754 885.819 954.59 886.015L948.583 880.995C948.747 880.799 948.912 880.603 949.069 880.408L955.083 885.42ZM121.298 868.503L115.139 873.343C114.979 873.14 114.821 872.936 114.661 872.732L120.825 867.9C120.983 868.104 121.141 868.307 121.298 868.503ZM965.335 872.732C965.179 872.936 965.022 873.14 964.857 873.343L958.702 868.503C958.858 868.307 959.015 868.104 959.172 867.9L965.335 872.732ZM111.555 855.714L105.254 860.366C105.1 860.155 104.948 859.951 104.795 859.74L111.101 855.095C111.253 855.307 111.404 855.51 111.555 855.714ZM975.203 859.74C975.054 859.951 974.898 860.155 974.749 860.366L968.444 855.714C968.593 855.51 968.75 855.307 968.899 855.095L975.203 859.74ZM102.204 842.635L95.7652 847.099C95.618 846.88 95.4723 846.668 95.3251 846.457L101.768 842.008C101.914 842.22 102.058 842.431 102.204 842.635ZM984.672 846.457C984.531 846.668 984.382 846.88 984.233 847.099L977.796 842.635C977.944 842.431 978.085 842.22 978.234 842.008L984.672 846.457ZM93.2512 829.29L86.6819 833.55C86.541 833.331 86.4016 833.112 86.2614 832.9L92.8354 828.648C92.974 828.859 93.1126 829.07 93.2512 829.29ZM993.741 832.9C993.6 833.112 993.459 833.331 993.318 833.55L986.747 829.29C986.888 829.07 987.029 828.859 987.162 828.648L993.741 832.9ZM84.7013 815.662L78.0063 819.727C77.8722 819.508 77.7394 819.281 77.6056 819.061L84.3058 815.012C84.4374 815.232 84.5697 815.443 84.7013 815.662ZM1002.4 819.061C1002.26 819.281 1002.13 819.508 1002 819.727L995.3 815.662C995.433 815.443 995.566 815.232 995.691 815.012L1002.4 819.061ZM76.5738 801.8L69.7593 805.661C69.6316 805.434 69.505 805.207 69.3777 804.98L76.1968 801.134C76.3222 801.354 76.448 801.581 76.5738 801.8ZM1010.62 804.98C1010.49 805.207 1010.37 805.434 1010.24 805.661L1003.43 801.8C1003.55 801.581 1003.68 801.354 1003.8 801.134L1010.62 804.98ZM68.8659 787.695L65.4005 789.52L61.9375 791.345C61.8169 791.118 61.6975 790.883 61.5772 790.656L68.5096 787.014C68.6281 787.241 68.7471 787.468 68.8659 787.695ZM1018.42 790.656C1018.3 790.883 1018.18 791.118 1018.06 791.345L1014.6 789.52L1011.14 787.695C1011.25 787.468 1011.37 787.241 1011.49 787.014L1018.42 790.656ZM61.5872 773.355L54.5508 776.793C54.437 776.56 54.3248 776.327 54.2112 776.093L61.2514 772.666C61.3633 772.896 61.475 773.126 61.5872 773.355ZM1025.79 776.093C1025.67 776.327 1025.56 776.56 1025.45 776.793L1018.41 773.355C1018.52 773.126 1018.64 772.896 1018.75 772.666L1025.79 776.093ZM54.752 758.814L47.6147 762.037C47.5081 761.801 47.4035 761.564 47.2973 761.328L54.4376 758.115C54.5423 758.348 54.6469 758.581 54.752 758.814ZM1032.7 761.328C1032.59 761.564 1032.49 761.801 1032.38 762.037L1025.25 758.814C1025.35 758.581 1025.46 758.348 1025.56 758.115L1032.7 761.328ZM48.3565 744.059L41.1244 747.063C41.0251 746.824 40.9273 746.585 40.8284 746.346L48.0636 743.352C48.161 743.587 48.2588 743.823 48.3565 744.059ZM1039.17 746.346C1039.07 746.585 1038.98 746.824 1038.88 747.063L1031.65 744.059C1031.74 743.823 1031.84 743.588 1031.94 743.353L1039.17 746.346ZM42.4162 729.125L35.0961 731.91C35.0039 731.668 34.9126 731.424 34.8207 731.181L42.1439 728.409C42.2343 728.648 42.3254 728.887 42.4162 729.125ZM1045.18 731.182C1045.09 731.425 1045 731.668 1044.91 731.91L1037.58 729.125C1037.68 728.887 1037.76 728.648 1037.86 728.409L1045.18 731.182ZM36.9324 714.019L29.5312 716.579C29.4466 716.335 29.3631 716.089 29.2789 715.844L36.6831 713.296C36.7661 713.537 36.8491 713.779 36.9324 714.019ZM1050.72 715.844C1050.64 716.089 1050.55 716.335 1050.47 716.579L1043.07 714.019C1043.15 713.779 1043.24 713.537 1043.32 713.296L1050.72 715.844ZM31.9061 698.736L24.4306 701.067C24.3535 700.82 24.2765 700.573 24.1997 700.326L31.6781 698.003C31.7538 698.247 31.8299 698.491 31.9061 698.736ZM1055.8 700.326C1055.72 700.573 1055.64 700.821 1055.56 701.067L1048.09 698.736C1048.17 698.491 1048.25 698.247 1048.32 698.003L1055.8 700.326ZM27.3561 683.336L19.8134 685.44C19.7438 685.19 19.6724 684.942 19.6031 684.692L27.1504 682.598C27.2187 682.844 27.2875 683.09 27.3561 683.336ZM1060.4 684.692C1060.33 684.942 1060.26 685.191 1060.19 685.44L1052.64 683.336C1052.71 683.09 1052.78 682.844 1052.85 682.598L1060.4 684.692ZM23.2704 667.783L19.4677 668.72L19.4685 668.721L15.6689 669.657C15.607 669.406 15.5438 669.155 15.4823 668.904L23.0884 667.041C23.149 667.289 23.2095 667.536 23.2704 667.783ZM1064.52 668.904C1064.45 669.155 1064.39 669.406 1064.33 669.657L1056.73 667.784C1056.79 667.536 1056.85 667.289 1056.91 667.041L1064.52 668.904ZM19.662 652.117L15.8318 652.938L15.8325 652.939L12.0062 653.759C11.9518 653.505 11.8972 653.251 11.8433 652.997L19.5014 651.367C19.5547 651.617 19.6084 651.867 19.662 652.117ZM1068.16 652.997C1068.1 653.251 1068.05 653.505 1067.99 653.759L1064.16 652.939L1060.33 652.117C1060.39 651.867 1060.44 651.617 1060.5 651.367L1068.16 652.997ZM16.5324 636.36L12.6799 637.065L12.6807 637.065L8.82984 637.769C8.78332 637.514 8.73758 637.26 8.69146 637.005L16.3955 635.608C16.441 635.859 16.4865 636.11 16.5324 636.36ZM1071.31 637.005C1071.26 637.26 1071.21 637.514 1071.17 637.769L1067.32 637.065L1063.47 636.36C1063.51 636.11 1063.56 635.859 1063.61 635.608L1071.31 637.005ZM13.8769 620.482L6.13463 621.656C6.09596 621.4 6.05821 621.146 6.0199 620.89L13.7629 619.728C13.8007 619.98 13.8388 620.23 13.8769 620.482ZM1070.11 620.309L1073.98 620.89C1073.94 621.146 1073.91 621.4 1073.87 621.656L1066.12 620.482C1066.16 620.23 1066.2 619.98 1066.24 619.728L1070.11 620.309ZM11.7094 604.578L3.93424 605.517C3.90311 605.26 3.87399 605.002 3.84323 604.744L11.6176 603.816C11.6479 604.07 11.6787 604.324 11.7094 604.578ZM1072.27 604.281L1076.15 604.745C1076.12 605.002 1076.1 605.26 1076.07 605.517L1072.18 605.048L1068.29 604.578C1068.32 604.324 1068.35 604.07 1068.39 603.816L1072.27 604.281ZM10.0192 588.583L2.22104 589.288C2.19776 589.031 2.17359 588.774 2.15067 588.516L9.95112 587.822C9.97367 588.075 9.99623 588.33 10.0192 588.583ZM1077.85 588.516C1077.82 588.774 1077.8 589.031 1077.78 589.288L1069.98 588.583C1070.01 588.33 1070.03 588.076 1070.05 587.823L1077.85 588.516ZM8.81073 572.548L0.995793 573.018C0.980161 572.759 0.964411 572.499 0.949139 572.24L8.76484 571.781C8.77988 572.037 8.7953 572.292 8.81073 572.548ZM1079.05 572.24C1079.04 572.499 1079.02 572.759 1079.01 573.018L1071.19 572.548C1071.2 572.292 1071.22 572.037 1071.24 571.781L1079.05 572.24ZM1079.77 555.961C1079.76 556.22 1079.75 556.479 1079.74 556.737L1071.92 556.499C1071.93 556.245 1071.93 555.989 1071.94 555.735L1079.77 555.961ZM8.08261 556.499L4.16751 556.618L4.16828 556.619L0.256215 556.736C0.248347 556.478 0.24154 556.22 0.234035 555.961L8.05967 555.735C8.06711 555.989 8.07486 556.245 8.08261 556.499ZM0 540C0 539.87 0.000672556 539.739 0.00076482 539.609L7.83176 539.615V540.385L0.00076482 540.39C0.000672861 540.26 0 540.13 0 540ZM1080 540.39L1072.17 540.385V539.615L1080 539.609C1080 539.739 1080 539.87 1080 540C1080 540.13 1080 540.26 1080 540.39ZM8.08261 523.501C8.07486 523.755 8.06711 524.011 8.05967 524.265L0.234035 524.038C0.241548 523.78 0.248338 523.52 0.256215 523.262L8.08261 523.501ZM1079.77 524.038L1071.94 524.265C1071.93 524.011 1071.93 523.755 1071.92 523.501L1079.74 523.263C1079.75 523.521 1079.76 523.78 1079.77 524.038ZM8.81073 507.452C8.7953 507.708 8.77988 507.963 8.76484 508.22L0.949139 507.759C0.964411 507.5 0.980161 507.241 0.995793 506.981L8.81073 507.452ZM1079.05 507.759L1071.24 508.22C1071.22 507.963 1071.2 507.708 1071.19 507.452L1079.01 506.981C1079.02 507.241 1079.04 507.5 1079.05 507.759ZM1077.85 491.483L1070.05 492.178C1070.03 491.925 1070.01 491.67 1069.98 491.417L1077.78 490.711C1077.8 490.968 1077.82 491.225 1077.85 491.483ZM10.0192 491.417C9.99623 491.67 9.97367 491.924 9.95112 492.178L2.15067 491.483C2.17359 491.225 2.19776 490.968 2.22104 490.711L10.0192 491.417ZM7.82182 474.952L11.7094 475.422C11.6787 475.676 11.6479 475.93 11.6176 476.184L7.73004 475.718L3.84323 475.254C3.87396 474.997 3.90314 474.74 3.93424 474.483L7.82182 474.952ZM1076.07 474.483C1076.1 474.74 1076.12 474.997 1076.15 475.255L1068.39 476.184C1068.35 475.93 1068.32 475.676 1068.29 475.422L1076.07 474.483ZM13.8769 459.518C13.8388 459.77 13.8007 460.02 13.7629 460.272L9.89065 459.69L6.0199 459.109C6.05821 458.854 6.09597 458.599 6.13463 458.344L13.8769 459.518ZM1073.98 459.109L1070.11 459.691L1066.24 460.272C1066.2 460.02 1066.16 459.77 1066.12 459.518L1073.87 458.344C1073.91 458.599 1073.94 458.854 1073.98 459.109ZM16.5324 443.64C16.4865 443.89 16.441 444.141 16.3955 444.392L8.69146 442.994C8.73758 442.74 8.78332 442.485 8.82984 442.231L16.5324 443.64ZM1071.31 442.994L1063.61 444.392C1063.56 444.141 1063.51 443.89 1063.47 443.64L1071.17 442.231C1071.21 442.485 1071.26 442.74 1071.31 442.994ZM15.8325 427.061L19.662 427.883C19.6084 428.133 19.5547 428.383 19.5014 428.633L11.8433 427.002C11.8973 426.748 11.9517 426.494 12.0062 426.241L15.8325 427.061ZM1068.16 427.002L1064.33 427.818V427.817L1060.5 428.633C1060.44 428.383 1060.39 428.133 1060.33 427.883L1067.99 426.241C1068.05 426.494 1068.1 426.748 1068.16 427.002ZM23.2704 412.216C23.2095 412.464 23.149 412.711 23.0884 412.959L15.4823 411.095C15.5438 410.844 15.607 410.593 15.6689 410.342L23.2704 412.216ZM1064.52 411.095L1056.91 412.959C1056.85 412.711 1056.79 412.464 1056.73 412.217L1064.33 410.342C1064.39 410.593 1064.45 410.844 1064.52 411.095ZM27.3561 396.664C27.2875 396.91 27.2186 397.157 27.1504 397.402L19.6038 395.308L19.6031 395.307C19.6724 395.058 19.7439 394.809 19.8134 394.559L27.3561 396.664ZM1060.4 395.307L1052.85 397.402C1052.78 397.157 1052.71 396.91 1052.64 396.664L1060.19 394.559C1060.26 394.809 1060.33 395.058 1060.4 395.307ZM31.9061 381.264C31.8299 381.509 31.7538 381.753 31.6781 381.997L24.1997 379.674C24.2765 379.426 24.3535 379.179 24.4306 378.932L31.9061 381.264ZM1055.56 378.932C1055.64 379.179 1055.72 379.426 1055.8 379.674L1052.06 380.836V380.835L1048.32 381.997C1048.25 381.753 1048.17 381.509 1048.09 381.264L1055.56 378.932ZM36.9324 365.981C36.8491 366.221 36.7661 366.463 36.6831 366.704L29.2789 364.155C29.3631 363.91 29.4466 363.665 29.5312 363.42L36.9324 365.981ZM1050.47 363.42C1050.55 363.665 1050.64 363.91 1050.72 364.155L1043.32 366.704C1043.24 366.463 1043.15 366.221 1043.07 365.981L1050.47 363.42ZM35.0961 348.091L42.4162 350.875C42.3254 351.113 42.2343 351.352 42.1439 351.591L34.8207 348.817C34.9125 348.575 35.0032 348.332 35.0953 348.09L35.0961 348.091ZM1044.91 348.09C1045 348.332 1045.09 348.575 1045.18 348.818L1037.86 351.591C1037.76 351.352 1037.68 351.113 1037.58 350.875L1044.91 348.09ZM1038.88 332.936C1038.98 333.175 1039.07 333.415 1039.17 333.653L1031.94 336.648C1031.84 336.413 1031.74 336.177 1031.65 335.941L1038.88 332.936ZM41.1244 332.936L48.3565 335.941C48.2588 336.177 48.161 336.412 48.0636 336.648L40.8284 333.653L41.1244 332.936ZM54.752 321.186C54.6469 321.419 54.5423 321.652 54.4376 321.885L47.2973 318.671C47.4035 318.436 47.5081 318.198 47.6147 317.963L54.752 321.186ZM1032.7 318.671L1025.56 321.885C1025.46 321.652 1025.35 321.419 1025.25 321.186L1032.38 317.963C1032.49 318.198 1032.59 318.436 1032.7 318.671ZM61.588 306.645C61.4757 306.874 61.3633 307.105 61.2514 307.334L54.2112 303.906C54.3248 303.673 54.437 303.439 54.5508 303.206L61.588 306.645ZM1025.79 303.906L1022.27 305.62L1018.75 307.334C1018.64 307.105 1018.53 306.874 1018.41 306.645L1025.45 303.206C1025.56 303.439 1025.67 303.673 1025.79 303.906ZM61.9375 288.656L68.8659 292.306C68.7471 292.532 68.6281 292.758 68.5096 292.984L61.5772 289.344L61.9375 288.656ZM1018.42 289.344L1011.49 292.984C1011.37 292.758 1011.25 292.532 1011.14 292.306L1018.06 288.656C1018.18 288.886 1018.3 289.115 1018.42 289.344ZM76.5738 278.198C76.4481 278.42 76.323 278.643 76.1976 278.865L69.3777 275.017C69.505 274.791 69.6316 274.565 69.7593 274.34L76.5738 278.198ZM1010.62 275.017L1003.8 278.865C1003.68 278.642 1003.55 278.42 1003.43 278.198L1010.24 274.34C1010.37 274.565 1010.49 274.791 1010.62 275.017ZM84.7013 264.336C84.5697 264.554 84.4374 264.772 84.3058 264.99L77.6056 260.938C77.7394 260.716 77.8722 260.494 78.0063 260.273L84.7013 264.336ZM1002.4 260.938L995.691 264.99C995.566 264.772 995.433 264.554 995.3 264.336L1002 260.273C1002.13 260.494 1002.26 260.716 1002.4 260.938ZM93.2512 250.714C93.1126 250.927 92.974 251.142 92.8354 251.356L86.2614 247.103C86.4016 246.885 86.541 246.668 86.6819 246.451L93.2512 250.714ZM993.741 247.103L987.162 251.356C987.029 251.142 986.888 250.927 986.747 250.714L993.318 246.451C993.459 246.668 993.6 246.885 993.741 247.103ZM102.204 237.362C102.058 237.572 101.914 237.782 101.768 237.992L95.3251 233.542C95.4723 233.329 95.618 233.116 95.7652 232.903L102.204 237.362ZM984.672 233.542L981.453 235.767V235.767L978.234 237.992C978.085 237.782 977.944 237.572 977.796 237.362L984.233 232.903C984.382 233.116 984.531 233.329 984.672 233.542ZM105.255 219.634L111.555 224.285C111.404 224.49 111.253 224.696 111.101 224.902L104.795 220.26C104.948 220.051 105.1 219.841 105.254 219.633L105.255 219.634ZM975.203 220.26L968.899 224.902C968.75 224.696 968.593 224.49 968.444 224.285L974.749 219.634C974.898 219.842 975.054 220.051 975.203 220.26ZM115.14 206.655L121.298 211.494C121.141 211.694 120.983 211.895 120.825 212.096L114.661 207.267C114.821 207.063 114.979 206.858 115.139 206.654L115.14 206.655ZM965.335 207.267L962.257 209.681V209.681L959.172 212.096C959.015 211.895 958.858 211.694 958.702 211.494L964.857 206.655C965.022 206.859 965.179 207.063 965.335 207.267ZM131.419 199.004C131.255 199.2 131.091 199.396 130.928 199.592L124.912 194.579C125.078 194.38 125.242 194.181 125.408 193.983L131.419 199.004ZM954.59 193.983C954.754 194.181 954.919 194.38 955.083 194.579L949.069 199.592C948.912 199.396 948.747 199.2 948.583 199.004L954.59 193.983ZM138.984 184.221L141.912 186.821C141.743 187.012 141.574 187.203 141.405 187.394L135.541 182.203C135.713 182.009 135.883 181.814 136.056 181.621L138.984 184.221ZM943.947 181.621C944.119 181.814 944.283 182.009 944.456 182.203L938.598 187.394C938.425 187.203 938.261 187.012 938.089 186.821L943.947 181.621ZM152.766 174.959C152.591 175.145 152.416 175.331 152.242 175.517L149.389 172.834L146.536 170.153C146.714 169.964 146.89 169.775 147.068 169.587L152.766 174.959ZM932.927 169.587C933.107 169.775 933.288 169.964 933.46 170.153L930.609 172.835L927.758 175.517C927.586 175.331 927.406 175.145 927.234 174.959L932.927 169.587ZM161.204 160.659L163.97 163.43C163.79 163.61 163.61 163.791 163.43 163.971L157.889 158.438C158.072 158.255 158.255 158.072 158.438 157.889L161.204 160.659ZM921.563 157.889C921.744 158.072 921.924 158.255 922.112 158.438L919.339 161.204V161.204L916.567 163.97C916.387 163.79 916.207 163.61 916.026 163.43L921.563 157.889ZM172.835 149.389L175.517 152.242C175.331 152.416 175.145 152.591 174.959 152.766L172.273 149.916L169.587 147.068C169.775 146.89 169.964 146.714 170.153 146.536L172.835 149.389ZM909.847 146.536C910.035 146.714 910.223 146.89 910.411 147.068L905.038 152.766C904.858 152.591 904.67 152.416 904.482 152.242L909.847 146.536ZM187.394 141.405C187.203 141.574 187.012 141.743 186.821 141.912L181.621 136.056C181.814 135.883 182.009 135.713 182.203 135.541L187.394 141.405ZM897.794 135.541C897.99 135.713 898.186 135.883 898.381 136.056L893.181 141.912C892.985 141.743 892.797 141.574 892.609 141.405L897.794 135.541ZM199.592 130.928C199.396 131.091 199.2 131.255 199.004 131.419L193.983 125.408C194.181 125.242 194.38 125.078 194.579 124.912L199.592 130.928ZM885.42 124.912C885.616 125.078 885.819 125.242 886.015 125.408L880.995 131.419C880.799 131.255 880.603 131.091 880.408 130.928L885.42 124.912ZM209.681 117.743L212.096 120.825C211.895 120.983 211.694 121.141 211.494 121.298L206.655 115.14L206.654 115.139C206.858 114.979 207.063 114.821 207.267 114.661L209.681 117.743ZM873.343 115.139L868.503 121.298C868.307 121.141 868.104 120.983 867.9 120.825L872.732 114.661C872.936 114.821 873.14 114.979 873.343 115.139ZM224.902 111.101C224.696 111.253 224.49 111.404 224.285 111.555L219.634 105.255L219.633 105.254C219.841 105.1 220.051 104.948 220.26 104.795L224.902 111.101ZM860.366 105.254L855.714 111.555C855.51 111.404 855.307 111.253 855.095 111.101L859.74 104.795C859.951 104.948 860.155 105.1 860.366 105.254ZM235.767 98.5455L237.992 101.768C237.782 101.914 237.572 102.058 237.362 102.204L232.903 95.7652C233.116 95.618 233.329 95.4723 233.542 95.3251L235.767 98.5455ZM847.099 95.7652L842.635 102.204C842.431 102.058 842.22 101.914 842.008 101.768L846.457 95.3251C846.668 95.4723 846.88 95.618 847.099 95.7652ZM251.356 92.8354C251.142 92.974 250.927 93.1126 250.714 93.2512L246.451 86.6819C246.668 86.541 246.885 86.4016 247.103 86.2614L251.356 92.8354ZM833.55 86.6819L829.29 93.2512C829.07 93.1126 828.859 92.974 828.648 92.8354L832.9 86.2614C833.112 86.4016 833.331 86.541 833.55 86.6819ZM264.99 84.3058C264.772 84.4374 264.554 84.5697 264.336 84.7013L260.273 78.0063C260.494 77.8722 260.716 77.7395 260.938 77.6056L264.99 84.3058ZM819.727 78.0063L815.662 84.7013C815.443 84.5697 815.232 84.4374 815.012 84.3058L819.061 77.6056C819.281 77.7395 819.508 77.8722 819.727 78.0063ZM278.865 76.1968C278.642 76.3222 278.42 76.448 278.198 76.5738L274.34 69.7593C274.565 69.6317 274.791 69.505 275.017 69.3777L278.865 76.1968ZM805.661 69.7593L801.8 76.5738C801.581 76.4481 801.354 76.323 801.134 76.1976L804.98 69.3777C805.207 69.505 805.434 69.6316 805.661 69.7593ZM292.984 68.5096C292.758 68.6281 292.532 68.7471 292.306 68.8659L290.481 65.4005L288.656 61.9375C288.886 61.8169 289.115 61.6975 289.344 61.5772L292.984 68.5096ZM791.345 61.9375L787.695 68.8659C787.468 68.7471 787.241 68.6281 787.014 68.5096L790.656 61.5772C790.883 61.6975 791.118 61.8169 791.345 61.9375ZM776.793 54.5508L773.355 61.588C773.126 61.4757 772.896 61.3633 772.666 61.2514L776.093 54.2112C776.327 54.3248 776.56 54.437 776.793 54.5508ZM307.334 61.2514C307.105 61.3633 306.874 61.475 306.645 61.5872L303.206 54.5508C303.439 54.437 303.673 54.3248 303.906 54.2112L307.334 61.2514ZM321.885 54.4376C321.652 54.5423 321.419 54.6469 321.186 54.752L317.963 47.6147C318.198 47.5081 318.436 47.4035 318.671 47.2973L321.885 54.4376ZM762.037 47.6147L758.814 54.752C758.581 54.6469 758.348 54.5423 758.115 54.4376L761.328 47.2973C761.564 47.4035 761.801 47.5081 762.037 47.6147ZM336.648 48.0636C336.413 48.161 336.177 48.2588 335.941 48.3565L332.936 41.1244C333.175 41.0251 333.415 40.9273 333.653 40.8284L336.648 48.0636ZM747.063 41.1244L744.059 48.3565C743.823 48.2588 743.588 48.161 743.353 48.0636L746.346 40.8284C746.585 40.9273 746.824 41.0251 747.063 41.1244ZM351.591 42.1439C351.352 42.2343 351.113 42.3254 350.875 42.4162L348.091 35.0961L348.09 35.0953C348.332 35.0031 348.575 34.9126 348.818 34.8207L351.591 42.1439ZM731.182 34.8207C731.425 34.9125 731.668 35.0032 731.91 35.0953L729.125 42.4162C728.887 42.3254 728.648 42.2343 728.409 42.1439L731.182 34.8207ZM366.704 36.6831C366.463 36.7661 366.221 36.8491 365.981 36.9324L363.42 29.5312C363.665 29.4466 363.91 29.3631 364.155 29.2789L366.704 36.6831ZM715.844 29.2789C716.089 29.3631 716.335 29.4466 716.579 29.5312L714.019 36.9324C713.779 36.8491 713.537 36.7661 713.296 36.6831L715.844 29.2789ZM380.836 27.9382L381.997 31.6781C381.753 31.7538 381.509 31.8299 381.264 31.9061L378.932 24.4306C379.179 24.3535 379.426 24.2765 379.674 24.1997L380.836 27.9382ZM700.326 24.1997C700.573 24.2765 700.821 24.3535 701.067 24.4306L698.736 31.9061C698.491 31.8299 698.247 31.7538 698.003 31.6781L700.326 24.1997ZM395.308 19.6039L397.402 27.1504C397.157 27.2187 396.91 27.2875 396.664 27.3561L394.559 19.8134C394.809 19.7439 395.058 19.6724 395.307 19.6031L395.308 19.6039ZM685.44 19.8134L683.336 27.3561C683.09 27.2875 682.844 27.2186 682.598 27.1504L684.692 19.6039C684.942 19.6732 685.191 19.7439 685.44 19.8134ZM412.959 23.0884C412.711 23.149 412.464 23.2095 412.217 23.2704L410.342 15.6689C410.593 15.607 410.844 15.5438 411.095 15.4823L412.959 23.0884ZM669.657 15.6689L667.784 23.2704C667.536 23.2095 667.289 23.149 667.041 23.0884L668.904 15.4823C669.155 15.5438 669.406 15.607 669.657 15.6689ZM428.633 19.5014C428.383 19.5547 428.133 19.6084 427.883 19.662L426.241 12.0062C426.494 11.9518 426.748 11.8972 427.002 11.8433L428.633 19.5014ZM653.759 12.0062L652.117 19.662C651.867 19.6084 651.617 19.5547 651.367 19.5014L652.997 11.8433C653.251 11.8973 653.505 11.9517 653.759 12.0062ZM444.392 16.3955C444.141 16.441 443.89 16.4865 443.64 16.5324L442.231 8.82984C442.485 8.78332 442.74 8.73758 442.994 8.69146L444.392 16.3955ZM637.769 8.82984L636.36 16.5324C636.11 16.4865 635.859 16.441 635.608 16.3955L637.005 8.69146C637.26 8.73758 637.514 8.78332 637.769 8.82984ZM460.272 13.7629C460.02 13.8007 459.77 13.8388 459.518 13.8769L458.344 6.13463C458.599 6.09596 458.854 6.05821 459.109 6.0199L460.272 13.7629ZM621.656 6.13463L620.482 13.8769C620.23 13.8388 619.98 13.8007 619.728 13.7629L620.89 6.0199C621.146 6.05821 621.4 6.09597 621.656 6.13463ZM476.184 11.6176C475.93 11.6479 475.676 11.6787 475.422 11.7094L474.483 3.93424C474.74 3.90311 474.997 3.87399 475.255 3.84323L476.184 11.6176ZM604.745 3.84323C605.002 3.87396 605.26 3.90314 605.517 3.93424L605.048 7.82182L605.048 7.82106L604.578 11.7094C604.324 11.6787 604.07 11.6479 603.816 11.6176L604.745 3.84323ZM492.178 9.95112C491.925 9.97367 491.67 9.99623 491.417 10.0192L490.711 2.22104C490.968 2.19776 491.225 2.17359 491.483 2.15067L492.178 9.95112ZM589.288 2.22104L588.583 10.0192C588.33 9.99623 588.076 9.97367 587.822 9.95112L588.516 2.15067C588.774 2.17359 589.031 2.19776 589.288 2.22104ZM508.22 8.76484C507.963 8.77988 507.708 8.7953 507.452 8.81073L506.981 0.995793C507.241 0.980161 507.5 0.964411 507.759 0.949139L508.22 8.76484ZM573.018 0.995793L572.548 8.81073C572.292 8.7953 572.037 8.77988 571.781 8.76484L572.24 0.949139C572.499 0.964411 572.759 0.980161 573.018 0.995793ZM524.265 8.05967C524.011 8.06711 523.755 8.07486 523.501 8.08261L523.263 0.256215C523.521 0.248347 523.78 0.24154 524.038 0.234035L524.265 8.05967ZM556.737 0.256215L556.499 8.08261C556.245 8.07486 555.989 8.06711 555.735 8.05967L555.961 0.234035C556.22 0.241547 556.479 0.248338 556.737 0.256215ZM540.39 0.000764821L540.385 7.83176H539.615L539.609 0.000764821C539.739 0.0006725 539.87 0 540 0C540.13 0 540.26 0.000672917 540.39 0.000764821Z" fill="var(--fill-0, #0205FA)"/>
</g>
</svg>
